<svg width="58" height="58" viewBox="0 0 58 58" fill="none" xmlns="http://www.w3.org/2000/svg">
    <path class="icon-secondary" d="M54.9944 58H4.00376L4 54.1869H54.9999L54.9944 58Z" />
    <path class="icon-secondary"
        d="M54.9999 27.3333L51.2148 27.3333L51.2149 54.1869H55L54.9999 27.3333Z" />
    <path class="icon-secondary"
        d="M7.7851 27.3333L4 27.3333L4.00012 54.1869H7.78522L7.7851 27.3333Z" />
    <path class="icon-secondary"
        d="M29.5148 5.38436L7.78675 27.3312L4 27.3333L4.00388 25.7568L29.5148 0L54.9945 25.7568L54.9999 27.3333L51.2148 27.3333L29.5148 5.38436Z" />
    <path class="icon-primary"
        d="M19.6775 28.6593H31.855C32.4112 28.6593 32.9445 28.8902 33.3378 29.3012C33.731 29.7122 33.9519 30.2697 33.9519 30.8509V33.4808C33.9558 33.5957 34.0012 33.7049 34.079 33.7862C34.1569 33.8676 34.2613 33.915 34.3713 33.9191H36.9031C37.0117 33.9192 37.1161 33.8752 37.1943 33.7965C37.2725 33.7178 37.3185 33.6104 37.3225 33.497V28.6269C37.3184 27.6954 36.9615 26.8035 36.3298 26.1464C35.6981 25.4893 34.8432 25.1203 33.9519 25.1204H19.6775V28.6593ZM36.9031 35.6886H34.3713C33.8137 35.6843 33.2804 35.4498 32.8876 35.0362C32.4948 34.6226 32.2744 34.0635 32.2744 33.4808V30.8509C32.2744 30.7346 32.2302 30.6232 32.1516 30.541C32.0729 30.4588 31.9663 30.4126 31.855 30.4126H18.8388C18.6163 30.4126 18.403 30.3202 18.2457 30.1558C18.0884 29.9914 18 29.7684 18 29.536V24.26C18 24.0275 18.0884 23.8045 18.2457 23.6401C18.403 23.4757 18.6163 23.3833 18.8388 23.3833H33.9519C35.2895 23.3876 36.5711 23.9449 37.5169 24.9334C38.4627 25.9219 38.9959 27.2614 39 28.6593V33.5295C38.9959 34.1094 38.7737 34.6644 38.3813 35.0744C37.989 35.4845 37.458 35.7168 36.9031 35.721" />
    <path class="icon-primary"
        d="M28.0805 25.1526C27.8567 25.1484 27.6433 25.0524 27.4865 24.8854C27.3296 24.7185 27.2417 24.4938 27.2418 24.2598V19.8766C27.2418 19.6441 27.3301 19.4212 27.4874 19.2568C27.6447 19.0924 27.8581 19 28.0805 19C28.303 19 28.5163 19.0924 28.6736 19.2568C28.8309 19.4212 28.9193 19.6441 28.9193 19.8766V24.2598C28.9193 24.4938 28.8315 24.7185 28.6746 24.8854C28.5177 25.0524 28.3044 25.1484 28.0805 25.1526Z" />
    <path class="icon-primary"
        d="M32.2746 20.802H23.8715C23.6491 20.802 23.4357 20.7097 23.2784 20.5453C23.1211 20.3809 23.0328 20.1579 23.0328 19.9254C23.0328 19.6929 23.1211 19.4699 23.2784 19.3055C23.4357 19.1411 23.6491 19.0488 23.8715 19.0488H32.2746C32.4971 19.0488 32.7104 19.1411 32.8677 19.3055C33.025 19.4699 33.1134 19.6929 33.1134 19.9254C33.1134 20.1579 33.025 20.3809 32.8677 20.5453C32.7104 20.7097 32.4971 20.802 32.2746 20.802Z" />
    <path class="icon-primary"
        d="M34.9926 42.5065C34.2323 43.4299 33.6518 44.4997 33.2841 45.6558C33.2841 46.1294 33.4641 46.5836 33.7845 46.9185C34.1049 47.2534 34.5395 47.4416 34.9926 47.4416C35.4458 47.4416 35.8804 47.2534 36.2008 46.9185C36.5212 46.5836 36.7012 46.1294 36.7012 45.6558C36.325 44.5037 35.7455 43.4354 34.9926 42.5065ZM34.9926 49C34.144 49 33.3302 48.6477 32.7301 48.0205C32.1301 47.3934 31.7929 46.5428 31.7929 45.6558C31.7929 44.3084 33.6258 41.776 34.4024 40.7857C34.4753 40.6959 34.5656 40.6234 34.6674 40.573C34.7692 40.5227 34.88 40.4955 34.9926 40.4935C35.1034 40.4934 35.2127 40.5197 35.3122 40.5704C35.4118 40.621 35.499 40.6946 35.5673 40.7857C36.1887 41.5974 38.1923 44.3247 38.1923 45.6558C38.1923 46.5428 37.8552 47.3934 37.2552 48.0205C36.6551 48.6477 35.8413 49 34.9926 49Z" />
</svg>