<svg width="58" height="58" viewBox="0 0 58 58" fill="none" xmlns="http://www.w3.org/2000/svg">
<path d="M54.9944 58H4.00376L4 54.1869H54.9999L54.9944 58Z" fill="#F0F8FF"/>
<path d="M54.9999 27.3333L51.2148 27.3333L51.2149 54.1869H55L54.9999 27.3333Z" fill="#F0F8FF"/>
<path d="M7.7851 27.3333L4 27.3333L4.00012 54.1869H7.78522L7.7851 27.3333Z" fill="#F0F8FF"/>
<path d="M29.5148 5.38436L7.78675 27.3312L4 27.3333L4.00388 25.7568L29.5148 0L54.9945 25.7568L54.9999 27.3333L51.2148 27.3333L29.5148 5.38436Z" fill="#F0F8FF"/>
<path d="M27.875 46.875V44.25C27.875 43.6266 28.3766 43.125 29 43.125C29.6234 43.125 30.125 43.6266 30.125 44.25V46.875C30.125 47.4984 29.6234 48 29 48C28.3766 48 27.875 47.4984 27.875 46.875ZM27.875 27.75V25.125C27.875 24.5016 28.3766 24 29 24C29.6234 24 30.125 24.5016 30.125 25.125V27.75C30.125 28.3734 29.6234 28.875 29 28.875C28.3766 28.875 27.875 28.3734 27.875 27.75ZM20.5156 27.5156C20.9562 27.075 21.6687 27.075 22.1047 27.5156L23.9609 29.3719C24.4016 29.8125 24.4016 30.525 23.9609 30.9609C23.5203 31.3969 22.8078 31.4016 22.3719 30.9609L20.5156 29.1047C20.075 28.6641 20.075 27.9516 20.5156 27.5156ZM34.0391 41.0391C34.4797 40.5984 35.1922 40.5984 35.6281 41.0391L37.4844 42.8953C37.925 43.3359 37.925 44.0484 37.4844 44.4844C37.0438 44.9203 36.3313 44.925 35.8953 44.4844L34.0391 42.6281C33.5984 42.1875 33.5984 41.475 34.0391 41.0391ZM17 36C17 35.3766 17.5016 34.875 18.125 34.875H20.75C21.3734 34.875 21.875 35.3766 21.875 36C21.875 36.6234 21.3734 37.125 20.75 37.125H18.125C17.5016 37.125 17 36.6234 17 36ZM36.125 36C36.125 35.3766 36.6266 34.875 37.25 34.875H39.875C40.4984 34.875 41 35.3766 41 36C41 36.6234 40.4984 37.125 39.875 37.125H37.25C36.6266 37.125 36.125 36.6234 36.125 36ZM20.5156 44.4844C20.075 44.0438 20.075 43.3313 20.5156 42.8953L22.3719 41.0391C22.8125 40.5984 23.525 40.5984 23.9609 41.0391C24.3969 41.4797 24.4016 42.1922 23.9609 42.6281L22.1047 44.4844C21.6641 44.925 20.9516 44.925 20.5156 44.4844ZM34.0391 30.9609C33.5984 30.5203 33.5984 29.8078 34.0391 29.3719L35.8953 27.5156C36.3359 27.075 37.0484 27.075 37.4844 27.5156C37.9203 27.9562 37.925 28.6687 37.4844 29.1047L35.6281 30.9609C35.1875 31.4016 34.475 31.4016 34.0391 30.9609ZM32 36C32 34.3453 30.6547 33 29 33C27.3453 33 26 34.3453 26 36C26 37.6547 27.3453 39 29 39C30.6547 39 32 37.6547 32 36ZM23.75 36C23.75 33.0984 26.0984 30.75 29 30.75C31.9016 30.75 34.25 33.0984 34.25 36C34.25 38.9016 31.9016 41.25 29 41.25C26.0984 41.25 23.75 38.9016 23.75 36Z" fill="#2C3EC4"/>
</svg>
