<svg width="58" height="58" viewBox="0 0 58 58" fill="none" xmlns="http://www.w3.org/2000/svg">
    <path class="icon-secondary" d="M54.9944 58H4.00376L4 54.1869H54.9999L54.9944 58Z" />
    <path class="icon-secondary"
        d="M54.9999 27.3333L51.2148 27.3333L51.2149 54.1869H55L54.9999 27.3333Z" />
    <path class="icon-secondary"
        d="M7.7851 27.3333L4 27.3333L4.00012 54.1869H7.78522L7.7851 27.3333Z" />
    <path class="icon-secondary"
        d="M29.5148 5.38436L7.78675 27.3312L4 27.3333L4.00388 25.7568L29.5148 0L54.9945 25.7568L54.9999 27.3333L51.2148 27.3333L29.5148 5.38436Z"
    />
    <path class="icon-primary"
        d="M37.5001 26.4828C36.1657 26.496 34.8579 26.8578 33.7064 27.5323C32.5549 28.2068 31.5997 29.1706 30.9355 30.3281C31.7381 30.5474 32.4468 31.0234 32.9535 31.6833C33.4601 32.3432 33.7369 33.1508 33.7415 33.9828H45C44.9954 31.9951 44.2038 30.0901 42.7983 28.6845C41.3928 27.279 39.4878 26.4874 37.5001 26.4828Z"
    />
    <path class="icon-primary"
        d="M22.4826 41.5001C23.8304 41.4901 25.151 41.1204 26.3081 40.4291C27.4652 39.7379 28.4168 38.7502 29.0645 37.5682C28.2671 37.3665 27.5584 36.9076 27.0481 36.2626C26.5377 35.6176 26.2541 34.8224 26.2412 34H15C15.0046 35.9848 15.7938 37.8872 17.1956 39.2922C18.5974 40.6973 20.4979 41.4909 22.4826 41.5001Z"
    />
    <path class="icon-primary"
        d="M30.0001 19C28.018 19.0179 26.1215 19.8109 24.7167 21.2094C23.3118 22.6078 22.51 24.5006 22.4829 26.4827C22.4946 27.8323 22.8669 29.1542 23.5613 30.3114C24.2557 31.4687 25.2468 32.4193 26.4321 33.0647C26.6311 32.2659 27.0892 31.5556 27.7348 31.0447C28.3803 30.5339 29.177 30.2514 30.0001 30.2414V19Z"
    />
    <path class="icon-primary"
        d="M29.7231 35.8709C29.99 35.9052 30.2611 35.8825 30.5186 35.8044C30.7761 35.7263 31.0141 35.5946 31.217 35.4179C31.4199 35.2411 31.5831 35.0234 31.6958 34.7791C31.8085 34.5347 31.8682 34.2693 31.8709 34.0002C31.8709 33.5041 31.6738 33.0283 31.323 32.6775C30.9722 32.3266 30.4964 32.1296 30.0002 32.1296C29.5041 32.1296 29.0283 32.3266 28.6775 32.6775C28.3267 33.0283 28.1296 33.5041 28.1296 34.0002C28.1478 34.4453 28.3146 34.8715 28.6035 35.2106C28.8924 35.5497 29.2866 35.7822 29.7231 35.8709Z"
    />
    <path class="icon-primary"
        d="M37.4994 41.5C37.4863 40.1551 37.1151 38.838 36.4241 37.6842C35.733 36.5304 34.747 35.5815 33.5676 34.9353C33.3499 35.7225 32.8863 36.4194 32.2443 36.9242C31.6023 37.4291 30.8158 37.7154 29.9995 37.7413V49C31.9816 48.9775 33.8762 48.1801 35.2778 46.7784C36.6795 45.3767 37.4769 43.4821 37.4994 41.5Z"
    />
</svg>