<svg width="140" height="28" viewBox="0 0 140 28" fill="none" xmlns="http://www.w3.org/2000/svg">
<g clip-path="url(#clip0_548_4256)">
<path d="M83.7717 26.6502V9.21468H88.2412V10.6C89.6966 9.21468 91.4443 8.52197 93.484 8.52197C95.4895 8.52197 97.1399 9.19775 98.4348 10.5494C99.7296 11.8897 100.377 13.7988 100.377 16.2767V26.6502H95.8392V16.4457C95.8392 15.2856 95.5296 14.3676 94.911 13.6918C94.2918 13.016 93.4381 12.6781 92.3498 12.6781C90.6418 12.6781 89.2724 13.5398 88.2412 15.263V26.6502H83.7717Z" fill="#263D75"/>
<path d="M83.7717 26.6502V9.21468H88.2412V10.6C89.6966 9.21468 91.4443 8.52197 93.484 8.52197C95.4895 8.52197 97.1399 9.19775 98.4348 10.5494C99.7296 11.8897 100.377 13.7988 100.377 16.2767V26.6502H95.8392V16.4457C95.8392 15.2856 95.5296 14.3676 94.911 13.6918C94.2918 13.016 93.4381 12.6781 92.3498 12.6781C90.6418 12.6781 89.2724 13.5398 88.2412 15.263V26.6502H83.7717Z" fill="#263D75"/>
<path d="M62.8958 22.6799C62.0939 21.2495 61.6929 19.667 61.6929 17.9324C61.6929 16.1979 62.0939 14.6154 62.8958 13.185C63.7094 11.7545 64.8611 10.6226 66.3509 9.7891C67.8407 8.94432 69.5255 8.52197 71.4052 8.52197C73.2843 8.52197 74.9691 8.94432 76.4589 9.7891C77.9487 10.6226 79.0946 11.7545 79.8971 13.185C80.7107 14.6154 81.1175 16.1979 81.1175 17.9324C81.1175 19.667 80.7107 21.2495 79.8971 22.6799C79.0946 24.1103 77.9487 25.2479 76.4589 26.0926C74.9691 26.9262 73.2843 27.3429 71.4052 27.3429C69.5255 27.3429 67.8407 26.9262 66.3509 26.0926C64.8611 25.2479 63.7094 24.1103 62.8958 22.6799ZM67.7953 14.1649C66.8211 15.156 66.334 16.4119 66.334 17.9324C66.334 19.453 66.8211 20.7088 67.7953 21.7C68.7695 22.6912 69.9957 23.1867 71.4738 23.1867C72.9061 23.1867 74.0979 22.6855 75.0494 21.6831C76.0003 20.6806 76.4763 19.4304 76.4763 17.9324C76.4763 16.4119 76.0003 15.156 75.0494 14.1649C74.0979 13.1737 72.9061 12.6781 71.4738 12.6781C69.9957 12.6781 68.7695 13.1737 67.7953 14.1649Z" fill="#263D75"/>
<path d="M62.8958 22.6799C62.0939 21.2495 61.6929 19.667 61.6929 17.9324C61.6929 16.1979 62.0939 14.6154 62.8958 13.185C63.7094 11.7545 64.8611 10.6226 66.3509 9.7891C67.8407 8.94432 69.5255 8.52197 71.4052 8.52197C73.2843 8.52197 74.9691 8.94432 76.4589 9.7891C77.9487 10.6226 79.0946 11.7545 79.8971 13.185C80.7107 14.6154 81.1175 16.1979 81.1175 17.9324C81.1175 19.667 80.7107 21.2495 79.8971 22.6799C79.0946 24.1103 77.9487 25.2479 76.4589 26.0926C74.9691 26.9262 73.2843 27.3429 71.4052 27.3429C69.5255 27.3429 67.8407 26.9262 66.3509 26.0926C64.8611 25.2479 63.7094 24.1103 62.8958 22.6799ZM67.7953 14.1649C66.8211 15.156 66.334 16.4119 66.334 17.9324C66.334 19.453 66.8211 20.7088 67.7953 21.7C68.7695 22.6912 69.9957 23.1867 71.4738 23.1867C72.9061 23.1867 74.0979 22.6855 75.0494 21.6831C76.0003 20.6806 76.4763 19.4304 76.4763 17.9324C76.4763 16.4119 76.0003 15.156 75.0494 14.1649C74.0979 13.1737 72.9061 12.6781 71.4738 12.6781C69.9957 12.6781 68.7695 13.1737 67.7953 14.1649Z" fill="#263D75"/>
<path d="M54.0876 5.32884C53.5149 4.75441 53.228 4.07862 53.228 3.30146C53.228 2.52429 53.5149 1.85413 54.0876 1.29096C54.6724 0.716535 55.3597 0.429321 56.1506 0.429321C56.9415 0.429321 57.6177 0.716535 58.1793 1.29096C58.752 1.85413 59.0383 2.52429 59.0383 3.30146C59.0383 4.07862 58.752 4.75441 58.1793 5.32884C57.6177 5.89198 56.9415 6.17361 56.1506 6.17361C55.3597 6.17361 54.6724 5.89198 54.0876 5.32884ZM53.8984 26.6502V9.21464H58.3679V26.6502H53.8984Z" fill="#263D75"/>
<path d="M54.0876 5.32884C53.5149 4.75441 53.228 4.07862 53.228 3.30146C53.228 2.52429 53.5149 1.85413 54.0876 1.29096C54.6724 0.716535 55.3597 0.429321 56.1506 0.429321C56.9415 0.429321 57.6177 0.716535 58.1793 1.29096C58.752 1.85413 59.0383 2.52429 59.0383 3.30146C59.0383 4.07862 58.752 4.75441 58.1793 5.32884C57.6177 5.89198 56.9415 6.17361 56.1506 6.17361C55.3597 6.17361 54.6724 5.89198 54.0876 5.32884ZM53.8984 26.6502V9.21464H58.3679V26.6502H53.8984Z" fill="#263D75"/>
<path d="M37.3032 13.2187V9.21467H40.6037V4.85577H45.1075V9.21467H50.5396V13.2187H45.1075V20.2808C45.1075 22.0829 46.0472 22.984 47.9267 22.984C49.0383 22.984 49.9207 22.8545 50.574 22.5954V26.4475C49.7603 26.8079 48.62 26.9881 47.1531 26.9881C44.9642 26.9881 43.3254 26.4137 42.2368 25.2648C41.148 24.1047 40.6037 22.4434 40.6037 20.2808V13.2187H37.3032Z" fill="#263D75"/>
<path d="M37.3032 13.2187V9.21467H40.6037V4.85577H45.1075V9.21467H50.5396V13.2187H45.1075V20.2808C45.1075 22.0829 46.0472 22.984 47.9267 22.984C49.0383 22.984 49.9207 22.8545 50.574 22.5954V26.4475C49.7603 26.8079 48.62 26.9881 47.1531 26.9881C44.9642 26.9881 43.3254 26.4137 42.2368 25.2648C41.148 24.1047 40.6037 22.4434 40.6037 20.2808V13.2187H37.3032Z" fill="#263D75"/>
<path d="M19.1052 21.2813C18.6583 20.1437 18.4348 18.9386 18.4348 17.6658C18.4348 16.3931 18.6583 15.1879 19.1052 14.0503C19.5636 12.9127 20.1997 11.9159 21.0133 11.0599C21.8385 10.1927 22.8699 9.51124 24.1075 9.01563C25.3567 8.50881 26.7261 8.25537 28.216 8.25537C29.7974 8.25537 31.23 8.57075 32.5135 9.20146C33.797 9.82096 34.8628 10.6826 35.7108 11.7864L32.1697 14.4389C31.23 13.0873 29.8891 12.4115 28.1472 12.4115C26.6803 12.4115 25.4656 12.9071 24.5029 13.8983C23.5517 14.8894 23.0761 16.1453 23.0761 17.6658C23.0761 19.1976 23.5574 20.4591 24.5201 21.4503C25.4827 22.4302 26.7147 22.9202 28.216 22.9202C29.0525 22.9202 29.8089 22.7399 30.4851 22.3795C31.1726 22.0078 31.7342 21.5066 32.1697 20.8758L35.7108 23.5453C34.8628 24.649 33.797 25.5163 32.5135 26.1471C31.23 26.7666 29.7974 27.0763 28.216 27.0763C26.7261 27.0763 25.3567 26.8285 24.1075 26.3329C22.8699 25.8261 21.8385 25.1447 21.0133 24.2886C20.1997 23.4214 19.5636 22.4189 19.1052 21.2813Z" fill="#263D75"/>
<path d="M19.1052 21.2813C18.6583 20.1437 18.4348 18.9386 18.4348 17.6658C18.4348 16.3931 18.6583 15.1879 19.1052 14.0503C19.5636 12.9127 20.1997 11.9159 21.0133 11.0599C21.8385 10.1927 22.8699 9.51124 24.1075 9.01563C25.3567 8.50881 26.7261 8.25537 28.216 8.25537C29.7974 8.25537 31.23 8.57075 32.5135 9.20146C33.797 9.82096 34.8628 10.6826 35.7108 11.7864L32.1697 14.4389C31.23 13.0873 29.8891 12.4115 28.1472 12.4115C26.6803 12.4115 25.4656 12.9071 24.5029 13.8983C23.5517 14.8894 23.0761 16.1453 23.0761 17.6658C23.0761 19.1976 23.5574 20.4591 24.5201 21.4503C25.4827 22.4302 26.7147 22.9202 28.216 22.9202C29.0525 22.9202 29.8089 22.7399 30.4851 22.3795C31.1726 22.0078 31.7342 21.5066 32.1697 20.8758L35.7108 23.5453C34.8628 24.649 33.797 25.5163 32.5135 26.1471C31.23 26.7666 29.7974 27.0763 28.216 27.0763C26.7261 27.0763 25.3567 26.8285 24.1075 26.3329C22.8699 25.8261 21.8385 25.1447 21.0133 24.2886C20.1997 23.4214 19.5636 22.4189 19.1052 21.2813Z" fill="#263D75"/>
<path d="M0 22.0433C0 20.6916 0.509972 19.5428 1.52991 18.5967C2.56132 17.6393 4.02247 17.0086 5.91339 16.7045L11.2767 15.8091V15.3529C11.2767 14.4406 10.9615 13.7141 10.3312 13.1734C9.70094 12.6216 8.87579 12.3456 7.85585 12.3456C6.98489 12.3456 6.20559 12.5258 5.51801 12.8862C4.83041 13.2354 4.28606 13.7479 3.88495 14.4236L0.567269 11.9739C1.36947 10.8813 2.41234 10.031 3.69586 9.42278C4.97939 8.81455 6.41189 8.51044 7.99337 8.51044C10.4687 8.51044 12.3826 9.15247 13.7348 10.4365C15.0986 11.7092 15.7805 13.348 15.7805 15.3529V26.6387H11.2767V25.0168C10.7037 25.7151 9.93588 26.2726 8.97321 26.6893C8.02205 27.1174 7.03075 27.3314 5.99934 27.3314C4.20011 27.3314 2.75041 26.8583 1.65025 25.9122C0.550084 24.9661 0 23.6764 0 22.0433ZM4.43504 21.8574C4.43504 22.4206 4.6585 22.888 5.10545 23.2597C5.56386 23.6201 6.16549 23.8003 6.9104 23.8003C8.77837 23.8003 10.2338 22.9837 11.2767 21.3505V18.9515L7.08231 19.678C5.31746 19.9595 4.43504 20.686 4.43504 21.8574Z" fill="#263D75"/>
<path d="M105.786 6.24376C108.232 2.33865 111.641 0.386108 116.011 0.386108C118.395 0.386108 120.388 1.0756 121.99 2.45458C123.591 3.82137 124.392 5.60915 124.392 7.81796C124.392 8.6844 124.262 9.52644 124.001 10.3441C123.74 11.1617 123.35 11.9488 122.828 12.7054C122.319 13.4499 121.797 14.121 121.263 14.719C120.742 15.317 120.108 15.976 119.363 16.6959L112.919 22.8098H125.081V27.3861H106.624V22.8098L115.769 13.9685C116.39 13.3583 116.861 12.8702 117.185 12.5041C117.52 12.1258 117.855 11.6986 118.19 11.2227C118.538 10.7346 118.78 10.2647 118.917 9.81321C119.066 9.36169 119.14 8.87356 119.14 8.34882C119.14 7.2749 118.805 6.43291 118.135 5.82271C117.464 5.20035 116.588 4.88916 115.508 4.88916C114.304 4.88916 113.273 5.21865 112.416 5.87765C111.56 6.5244 110.746 7.48238 109.977 8.75154L105.786 6.24376Z" fill="#266F75"/>
<path d="M105.786 6.24376C108.232 2.33865 111.641 0.386108 116.011 0.386108C118.395 0.386108 120.388 1.0756 121.99 2.45458C123.591 3.82137 124.392 5.60915 124.392 7.81796C124.392 8.6844 124.262 9.52644 124.001 10.3441C123.74 11.1617 123.35 11.9488 122.828 12.7054C122.319 13.4499 121.797 14.121 121.263 14.719C120.742 15.317 120.108 15.976 119.363 16.6959L112.919 22.8098H125.081V27.3861H106.624V22.8098L115.769 13.9685C116.39 13.3583 116.861 12.8702 117.185 12.5041C117.52 12.1258 117.855 11.6986 118.19 11.2227C118.538 10.7346 118.78 10.2647 118.917 9.81321C119.066 9.36169 119.14 8.87356 119.14 8.34882C119.14 7.2749 118.805 6.43291 118.135 5.82271C117.464 5.20035 116.588 4.88916 115.508 4.88916C114.304 4.88916 113.273 5.21865 112.416 5.87765C111.56 6.5244 110.746 7.48238 109.977 8.75154L105.786 6.24376Z" fill="#266F75"/>
<path d="M126.758 5.78608L134.99 1.09998H140V27.3495H134.841V6.31694L129.309 9.39219L126.758 5.78608Z" fill="#266F75"/>
<path d="M126.758 5.78608L134.99 1.09998H140V27.3495H134.841V6.31694L129.309 9.39219L126.758 5.78608Z" fill="#266F75"/>
</g>
<defs>
<clipPath id="clip0_548_4256">
<rect width="140" height="27" fill="white" transform="translate(0 0.386108)"/>
</clipPath>
</defs>
</svg>
