<svg width="300" height="45" viewBox="0 0 300 45" fill="none" xmlns="http://www.w3.org/2000/svg">
<path d="M198.965 32.3272V13.3499H204.842C206.962 13.3499 208.63 13.8572 209.846 14.8718C211.071 15.8775 211.684 17.2583 211.684 19.0139C211.684 20.1432 211.415 21.127 210.879 21.9651C210.351 22.8032 209.595 23.4561 208.612 23.9237L214.649 32.3272H209.98L204.869 24.6515H202.87V32.3272H198.965ZM202.87 21.3828H205.07C205.892 21.3828 206.532 21.1755 206.988 20.7608C207.444 20.3373 207.673 19.7374 207.673 18.961C207.673 18.2375 207.444 17.6685 206.988 17.2538C206.532 16.8392 205.892 16.6319 205.07 16.6319H202.87V21.3828Z" fill="white"/>
<path d="M215.561 25.4985C215.561 24.1399 215.834 22.9091 216.38 21.8063C216.925 20.6946 217.743 19.8035 218.834 19.133C219.926 18.4625 221.204 18.1273 222.671 18.1273C224.576 18.1273 226.115 18.7007 227.286 19.8477C228.458 20.9858 229.044 22.4547 229.044 24.2546C229.044 24.9339 228.972 25.5824 228.829 26.1999H219.13C219.237 27.3204 219.662 28.1982 220.404 28.8334C221.147 29.4598 222.113 29.773 223.302 29.773C224.045 29.773 224.72 29.6319 225.328 29.3496C225.936 29.0585 226.428 28.6614 226.803 28.1585L229.299 30.1039C228.646 30.9685 227.796 31.6478 226.75 32.1419C225.704 32.6272 224.536 32.8698 223.248 32.8698C222.05 32.8698 220.958 32.6757 219.975 32.2875C218.991 31.8904 218.182 31.3567 217.547 30.6862C216.911 30.0068 216.419 29.2261 216.071 28.3438C215.731 27.4527 215.561 26.5043 215.561 25.4985ZM219.358 23.6061H225.583C225.556 22.8827 225.283 22.2695 224.765 21.7666C224.246 21.2549 223.548 20.999 222.671 20.999C220.919 20.999 219.814 21.8681 219.358 23.6061ZM221.249 16.4995L224.107 12H227.89L224.603 16.4995H221.249Z" fill="white"/>
<path d="M232.465 32.3272V18.6698H235.953V19.755C237.089 18.6698 238.453 18.1273 240.045 18.1273C241.61 18.1273 242.898 18.6566 243.908 19.7153C244.919 20.7652 245.425 22.2607 245.425 24.2016V32.3272H241.883V24.334C241.883 23.4252 241.641 22.7062 241.158 22.1768C240.675 21.6475 240.009 21.3828 239.159 21.3828C237.827 21.3828 236.758 22.0577 235.953 23.4076V32.3272H232.465Z" fill="white"/>
<path d="M249.342 29.2172C248.716 28.0968 248.403 26.8572 248.403 25.4985C248.403 24.1399 248.716 22.9003 249.342 21.7798C249.977 20.6593 250.876 19.7727 252.038 19.1198C253.201 18.4581 254.516 18.1273 255.983 18.1273C257.45 18.1273 258.764 18.4581 259.927 19.1198C261.089 19.7727 261.984 20.6593 262.61 21.7798C263.245 22.9003 263.563 24.1399 263.563 25.4985C263.563 26.8572 263.245 28.0968 262.61 29.2172C261.984 30.3377 261.089 31.2288 259.927 31.8904C258.764 32.5433 257.45 32.8698 255.983 32.8698C254.516 32.8698 253.201 32.5433 252.038 31.8904C250.876 31.2288 249.977 30.3377 249.342 29.2172ZM253.166 22.5474C252.405 23.3237 252.025 24.3075 252.025 25.4985C252.025 26.6896 252.405 27.6733 253.166 28.4497C253.925 29.2261 254.882 29.6143 256.037 29.6143C257.154 29.6143 258.085 29.2216 258.827 28.4364C259.569 27.6512 259.94 26.6719 259.94 25.4985C259.94 24.3075 259.569 23.3237 258.827 22.5474C258.085 21.771 257.154 21.3828 256.037 21.3828C254.882 21.3828 253.925 21.771 253.166 22.5474Z" fill="white"/>
<path d="M264.609 18.6698H268.352L271.948 28.4232L275.516 18.6698H279.286L274.228 32.3272H269.64L264.609 18.6698Z" fill="white"/>
<path d="M281.124 21.1578L283.592 13.3499H287.55L284.371 21.1578H281.124Z" fill="white"/>
<path d="M12 32.3272L19.1871 13.3499H24.2393L31.4397 32.3272H27.3423L25.5256 27.391H17.9141L16.0975 32.3272H12ZM19.1076 24.109H24.3322L21.7199 16.9892L19.1076 24.109Z" fill="white"/>
<path d="M34.7415 32.3272V18.6698H38.1891V19.7021C39.2676 18.6522 40.523 18.1273 41.9551 18.1273C42.8656 18.1273 43.6922 18.3302 44.4348 18.736C45.1862 19.1419 45.783 19.7329 46.2249 20.5093C46.8172 19.7771 47.467 19.1992 48.1742 18.7757C48.8814 18.3434 49.7257 18.1273 50.7069 18.1273C52.1833 18.1273 53.3944 18.6301 54.3403 19.6359C55.2862 20.6417 55.7592 22.0709 55.7592 23.9237V32.3272H52.2849V24.056C52.2849 23.2267 52.0683 22.5739 51.6352 22.0974C51.202 21.621 50.6009 21.3828 49.8318 21.3828C48.7179 21.3828 47.7675 22.0312 46.9808 23.3281C46.9985 23.4517 47.0073 23.6502 47.0073 23.9237V32.3272H43.5066V24.056C43.5066 23.2179 43.2944 22.565 42.87 22.0974C42.4545 21.621 41.8623 21.3828 41.0931 21.3828C40.7219 21.3828 40.3771 21.4445 40.0589 21.568C39.7406 21.6828 39.4621 21.8548 39.2235 22.0842C38.9936 22.3048 38.8035 22.5121 38.6532 22.7062C38.503 22.9003 38.3483 23.134 38.1891 23.4076V32.3272H34.7415Z" fill="white"/>
<path d="M59.6975 32.3272V12H63.1452V19.6492C64.2679 18.6346 65.6868 18.1273 67.4018 18.1273C68.4626 18.1273 69.4351 18.3258 70.3191 18.7228C71.2031 19.111 71.9368 19.6448 72.5203 20.3241C73.1038 20.9946 73.5546 21.7754 73.8729 22.6665C74.2 23.5576 74.3635 24.5016 74.3635 25.4985C74.3635 26.4955 74.2 27.4395 73.8729 28.3306C73.5546 29.2217 73.1038 30.0068 72.5203 30.6862C71.9368 31.3567 71.2031 31.8904 70.3191 32.2875C69.4351 32.6757 68.4626 32.8698 67.4018 32.8698C65.6868 32.8698 64.2679 32.3625 63.1452 31.3479V32.3272H59.6975ZM63.1452 27.5895L63.1717 27.563C64.1088 28.9305 65.3553 29.6143 66.9112 29.6143C68.0692 29.6143 69.0019 29.2305 69.7091 28.4629C70.4164 27.6866 70.7699 26.6984 70.7699 25.4985C70.7699 24.2987 70.4164 23.3149 69.7091 22.5474C69.0019 21.771 68.0692 21.3828 66.9112 21.3828C65.3553 21.3828 64.1088 22.0666 63.1717 23.434L63.1452 23.4076V27.5895Z" fill="white"/>
<path d="M76.4587 28.7275C76.4587 27.6688 76.8525 26.769 77.6392 26.0278C78.4342 25.2779 79.5615 24.7839 81.0202 24.5457L85.1572 23.8443V23.487C85.1572 22.7723 84.9142 22.2033 84.4282 21.7798C83.9422 21.3475 83.3055 21.1313 82.5187 21.1313C81.8467 21.1313 81.246 21.2725 80.715 21.5548C80.1847 21.8283 79.7647 22.2298 79.4557 22.7591L76.896 20.8402C77.5155 19.9844 78.3195 19.3183 79.3095 18.8419C80.2995 18.3655 81.405 18.1273 82.6245 18.1273C84.534 18.1273 86.0107 18.6301 87.054 19.6359C88.1055 20.6329 88.632 21.9166 88.632 23.487V32.3272H85.1572V31.0567C84.7155 31.6037 84.123 32.0404 83.3805 32.3668C82.647 32.7022 81.882 32.8698 81.0862 32.8698C79.6987 32.8698 78.5805 32.4992 77.7315 31.7581C76.8832 31.017 76.4587 30.0068 76.4587 28.7275ZM79.8802 28.582C79.8802 29.0231 80.052 29.3893 80.397 29.6804C80.751 29.9627 81.2145 30.1039 81.7897 30.1039C83.2305 30.1039 84.3532 29.4643 85.1572 28.185V26.3058L81.9217 26.8748C80.5605 27.0954 79.8802 27.6644 79.8802 28.582Z" fill="white"/>
<path d="M91.3896 30.3421L93.6704 28.2379C94.6251 29.4466 95.6729 30.051 96.8137 30.051C97.3439 30.051 97.7549 29.9186 98.0467 29.6539C98.3474 29.3893 98.4974 29.0496 98.4974 28.6349C98.4974 28.3173 98.3781 28.0394 98.1396 27.8012C97.9094 27.563 97.6049 27.3645 97.2246 27.2056C96.8534 27.038 96.4424 26.8748 95.9909 26.716C95.5402 26.5484 95.0849 26.3499 94.6252 26.1205C94.1744 25.8911 93.7589 25.6264 93.3786 25.3264C93.0074 25.0177 92.7029 24.6074 92.4637 24.0957C92.2342 23.584 92.1194 22.9929 92.1194 22.3224C92.1194 21.1137 92.5747 20.1124 93.4852 19.3183C94.4047 18.5242 95.5671 18.1273 96.9726 18.1273C97.9979 18.1273 98.9617 18.3434 99.8632 18.7757C100.765 19.208 101.476 19.7683 101.998 20.4564L99.6907 22.5209C98.8687 21.471 97.9717 20.9461 96.9989 20.9461C96.4949 20.9461 96.1064 21.0563 95.8319 21.2769C95.5672 21.4975 95.4344 21.8019 95.4344 22.19C95.4344 22.4989 95.5492 22.7723 95.7787 23.0105C96.0179 23.2399 96.3224 23.4385 96.6937 23.6061C97.0739 23.7649 97.4894 23.9281 97.9402 24.0957C98.3999 24.2545 98.8551 24.4486 99.3066 24.678C99.7574 24.8986 100.168 25.1632 100.54 25.472C100.92 25.772 101.224 26.1734 101.455 26.6763C101.693 27.1792 101.812 27.7615 101.812 28.4232C101.786 29.7995 101.296 30.8847 100.341 31.6787C99.3861 32.4727 98.2274 32.8698 96.8661 32.8698C94.6296 32.8698 92.8041 32.0272 91.3896 30.3421Z" fill="white"/>
<path d="M103.616 30.3421L105.897 28.2379C106.852 29.4466 107.899 30.051 109.039 30.051C109.57 30.051 109.981 29.9186 110.272 29.6539C110.573 29.3893 110.723 29.0496 110.723 28.6349C110.723 28.3173 110.604 28.0394 110.365 27.8012C110.136 27.563 109.831 27.3645 109.45 27.2056C109.079 27.038 108.668 26.8748 108.217 26.716C107.767 26.5484 107.311 26.3499 106.852 26.1205C106.401 25.8911 105.985 25.6264 105.605 25.3264C105.234 25.0177 104.929 24.6074 104.69 24.0957C104.46 23.584 104.345 22.9929 104.345 22.3224C104.345 21.1137 104.8 20.1124 105.711 19.3183C106.63 18.5242 107.793 18.1273 109.198 18.1273C110.224 18.1273 111.187 18.3434 112.09 18.7757C112.991 19.208 113.703 19.7683 114.224 20.4564L111.917 22.5209C111.094 21.471 110.197 20.9461 109.225 20.9461C108.721 20.9461 108.332 21.0563 108.058 21.2769C107.793 21.4975 107.66 21.8019 107.66 22.19C107.66 22.4989 107.775 22.7723 108.005 23.0105C108.244 23.2399 108.549 23.4385 108.92 23.6061C109.3 23.7649 109.716 23.9281 110.167 24.0957C110.626 24.2545 111.082 24.4486 111.532 24.678C111.983 24.8986 112.394 25.1632 112.765 25.472C113.146 25.772 113.451 26.1734 113.68 26.6763C113.919 27.1792 114.039 27.7615 114.039 28.4232C114.012 29.7995 113.521 30.8847 112.567 31.6787C111.612 32.4727 110.454 32.8698 109.093 32.8698C106.856 32.8698 105.031 32.0272 103.616 30.3421Z" fill="white"/>
<path d="M116.399 28.7275C116.399 27.6688 116.792 26.769 117.579 26.0278C118.375 25.2779 119.502 24.7839 120.961 24.5457L125.098 23.8443V23.487C125.098 22.7723 124.855 22.2033 124.369 21.7798C123.882 21.3475 123.246 21.1313 122.459 21.1313C121.787 21.1313 121.186 21.2725 120.655 21.5548C120.125 21.8283 119.705 22.2298 119.395 22.7591L116.836 20.8402C117.455 19.9844 118.26 19.3183 119.25 18.8419C120.24 18.3655 121.345 18.1273 122.565 18.1273C124.474 18.1273 125.951 18.6301 126.994 19.6359C128.046 20.6329 128.572 21.9166 128.572 23.487V32.3272H125.098V31.0567C124.656 31.6037 124.063 32.0404 123.321 32.3668C122.587 32.7022 121.822 32.8698 121.027 32.8698C119.639 32.8698 118.521 32.4992 117.672 31.7581C116.823 31.017 116.399 30.0068 116.399 28.7275ZM119.82 28.582C119.82 29.0231 119.992 29.3893 120.337 29.6804C120.691 29.9627 121.155 30.1039 121.729 30.1039C123.171 30.1039 124.293 29.4643 125.098 28.185V26.3058L121.862 26.8748C120.501 27.0954 119.82 27.6644 119.82 28.582Z" fill="white"/>
<path d="M132.364 29.1776C131.816 28.0659 131.542 26.8396 131.542 25.4985C131.542 24.1575 131.816 22.9356 132.364 21.8327C132.913 20.7211 133.721 19.8257 134.791 19.1463C135.861 18.467 137.094 18.1273 138.49 18.1273C140.188 18.1273 141.602 18.6213 142.734 19.6094V12H146.208V32.3272H142.734V31.3744C141.594 32.3713 140.179 32.8698 138.49 32.8698C137.094 32.8698 135.861 32.5301 134.791 31.8508C133.721 31.1714 132.913 30.2804 132.364 29.1776ZM136.197 22.5341C135.499 23.3017 135.149 24.2898 135.149 25.4985C135.149 26.7072 135.499 27.6953 136.197 28.4629C136.904 29.2305 137.832 29.6143 138.982 29.6143C140.563 29.6143 141.814 28.9393 142.734 27.5895V23.4076C141.806 22.0577 140.555 21.3828 138.982 21.3828C137.832 21.3828 136.904 21.7666 136.197 22.5341Z" fill="white"/>
<path d="M149.364 25.4985C149.364 24.1399 149.634 22.9091 150.173 21.8062C150.713 20.6946 151.521 19.8035 152.6 19.133C153.679 18.4625 154.943 18.1273 156.392 18.1273C158.276 18.1273 159.796 18.7007 160.954 19.8477C162.112 20.9857 162.691 22.4547 162.691 24.2545C162.691 24.9339 162.62 25.5823 162.479 26.1999H152.891C152.998 27.3204 153.418 28.1982 154.151 28.8334C154.885 29.4598 155.84 29.773 157.016 29.773C157.749 29.773 158.417 29.6319 159.018 29.3496C159.619 29.0584 160.106 28.6614 160.477 28.1585L162.943 30.1039C162.298 30.9685 161.458 31.6478 160.424 32.1419C159.389 32.6272 158.236 32.8698 156.962 32.8698C155.778 32.8698 154.7 32.6757 153.727 32.2875C152.755 31.8904 151.955 31.3567 151.327 30.6862C150.699 30.0068 150.213 29.2261 149.868 28.3438C149.532 27.4527 149.364 26.5043 149.364 25.4985ZM153.117 23.6061H159.27C159.243 22.8826 158.974 22.2694 158.461 21.7666C157.949 21.2548 157.259 20.999 156.392 20.999C154.66 20.999 153.568 21.868 153.117 23.6061Z" fill="white"/>
<path d="M165.608 26.2529V18.6698H169.082V26.4249C169.082 27.4307 169.334 28.2159 169.838 28.7805C170.351 29.3363 171.076 29.6143 172.013 29.6143C172.941 29.6143 173.657 29.3319 174.161 28.7673C174.674 28.2026 174.93 27.4219 174.93 26.4249V18.6698H178.405V26.2529C178.405 28.2997 177.835 29.9142 176.694 31.0964C175.562 32.2787 173.993 32.8698 171.986 32.8698C169.989 32.8698 168.424 32.2831 167.293 31.1097C166.17 29.9275 165.608 28.3085 165.608 26.2529Z" fill="white"/>
<path d="M182.224 32.3272V18.6698H185.671V20.0197C186.723 18.9345 187.925 18.392 189.278 18.392C189.658 18.392 190.056 18.4581 190.471 18.5905V22.19C189.958 22.0666 189.455 22.0048 188.959 22.0048C188.191 22.0048 187.523 22.1768 186.958 22.5209C186.4 22.865 185.971 23.2796 185.671 23.7649V32.3272H182.224Z" fill="white"/>
</svg>
