<svg width="39" height="38" viewBox="0 0 39 38" fill="black" xmlns="http://www.w3.org/2000/svg">
    <path
        d="M1.33693 4.87316C0.221027 3.75726 0.221027 1.95283 1.33693 0.848797C2.45283 -0.255233 4.25726 -0.267104 5.36129 0.848797L19.4881 14.9756L33.6268 0.836926C34.7427 -0.278975 36.5472 -0.278975 37.6512 0.836926C38.7552 1.95283 38.7671 3.75726 37.6512 4.86129L23.5244 18.9881L37.6631 33.1268C38.779 34.2427 38.779 36.0472 37.6631 37.1512C36.5472 38.2552 34.7427 38.2671 33.6387 37.1512L19.5119 23.0244L5.37317 37.1631C4.25726 38.279 2.45283 38.279 1.3488 37.1631C0.24477 36.0472 0.232899 34.2427 1.3488 33.1387L15.4756 19.0119L1.33693 4.87316Z" />
</svg>