<svg width="58" height="58" viewBox="0 0 58 58" fill="none" xmlns="http://www.w3.org/2000/svg">
    <path class="icon-secondary" d="M54.9944 58H4.00376L4 54.1869H54.9999L54.9944 58Z" />
    <path class="icon-secondary"
        d="M54.9999 27.3333L51.2148 27.3333L51.2149 54.1869H55L54.9999 27.3333Z" />
    <path class="icon-secondary"
        d="M7.7851 27.3333L4 27.3333L4.00012 54.1869H7.78522L7.7851 27.3333Z" />
    <path class="icon-secondary"
        d="M29.5148 5.38436L7.78675 27.3312L4 27.3333L4.00388 25.7568L29.5148 0L54.9945 25.7568L54.9999 27.3333L51.2148 27.3333L29.5148 5.38436Z" />
    <path class="icon-primary"
        d="M33.6986 46.4888C33.1341 46.9262 32.4605 47.2702 31.7189 47.4998C30.9773 47.7294 30.1831 47.8398 29.3846 47.8244C28.5861 47.8089 27.8 47.6679 27.0742 47.4099C26.3483 47.1519 25.6978 46.7823 25.1622 46.3236C24.6145 45.8871 24.1866 45.3694 23.9042 44.8016C23.6218 44.2337 23.4907 43.6275 23.5189 43.0194C23.5444 42.3653 23.7477 41.7227 24.1154 41.1335C24.4831 40.5443 25.007 40.0216 25.653 39.5996C25.7431 39.5449 25.8153 39.4745 25.8635 39.3941C25.9117 39.3137 25.9346 39.2256 25.9305 39.137V22.5334C25.9974 21.8877 26.3761 21.2851 26.991 20.8457C27.606 20.4063 28.4121 20.1623 29.249 20.1623C30.0859 20.1623 30.892 20.4063 31.507 20.8457C32.1219 21.2851 32.5006 21.8877 32.5675 22.5334V38.9057C32.5684 39.0018 32.5976 39.0964 32.6531 39.1823C32.7086 39.2683 32.7889 39.3432 32.8877 39.4013C33.7071 39.8076 34.3849 40.3637 34.8613 41.0206C35.3376 41.6775 35.598 42.415 35.6193 43.1681C35.6155 43.7845 35.4531 44.3941 35.1416 44.9614C34.8302 45.5287 34.3759 46.0423 33.8053 46.4723M34.1895 38.6248V22.5334C34.1076 21.5754 33.5582 20.6773 32.6527 20.0212C31.7472 19.3651 30.5533 19 29.313 19C28.0728 19 26.8789 19.3651 25.9734 20.0212C25.0679 20.6773 24.5185 21.5754 24.4366 22.5334V38.8892C23.6989 39.4073 23.1033 40.035 22.6854 40.7349C22.2675 41.4348 22.0357 42.1927 22.0038 42.9634C21.9719 43.7341 22.1407 44.5019 22.5 45.221C22.8592 45.9402 23.4017 46.5961 24.0951 47.1496C24.7633 47.7123 25.5701 48.1659 26.468 48.4836C27.3659 48.8014 28.3369 48.977 29.3237 49H29.5371C31.0902 48.9887 32.6009 48.6061 33.8623 47.9046C35.1236 47.203 36.0741 46.2167 36.5834 45.0809C37.0927 43.945 37.1361 42.715 36.7076 41.5593C36.279 40.4036 35.3995 39.3786 34.1895 38.6248Z" />
    <path class="icon-primary"
        d="M32.0551 40.3759L31.0734 39.8472V30.7607C31.068 30.5999 30.9831 30.4468 30.8362 30.3331C30.6892 30.2193 30.4915 30.1536 30.2838 30.1494H28.3418C28.1361 30.1537 27.9407 30.22 27.7972 30.3342C27.6537 30.4484 27.5734 30.6014 27.5735 30.7607V40.0124L26.7198 40.5576C26.2357 40.8615 25.8435 41.2439 25.5706 41.6777C25.2978 42.1115 25.151 42.5864 25.1406 43.0688C25.1202 43.5163 25.2175 43.9623 25.4266 44.3798C25.6357 44.7973 25.9523 45.1775 26.357 45.4974C26.751 45.8271 27.2254 46.0932 27.7528 46.2804C28.2802 46.4675 28.8503 46.572 29.4302 46.5878H29.5369C30.4718 46.5824 31.3804 46.3476 32.132 45.9171C32.8835 45.4866 33.4393 44.8826 33.7192 44.192C33.9992 43.5015 33.9889 42.7599 33.6899 42.0742C33.3908 41.3884 32.8184 40.7938 32.0551 40.3759Z" />
    <path class="icon-primary"
        d="M28.3411 28.3655H30.2832C30.3963 28.38 30.5121 28.3753 30.6226 28.3517C30.7331 28.3281 30.8356 28.2862 30.9231 28.2288C31.0106 28.1714 31.0808 28.1 31.129 28.0194C31.1772 27.9389 31.2022 27.8512 31.2022 27.7625C31.2022 27.6737 31.1772 27.586 31.129 27.5055C31.0808 27.425 31.0106 27.3536 30.9231 27.2962C30.8356 27.2388 30.7331 27.1968 30.6226 27.1732C30.5121 27.1496 30.3963 27.1449 30.2832 27.1595H28.3411C28.1567 27.1832 27.9891 27.2568 27.8681 27.3672C27.7472 27.4777 27.6809 27.6177 27.6809 27.7625C27.6809 27.9072 27.7472 28.0473 27.8681 28.1577C27.9891 28.2682 28.1567 28.3418 28.3411 28.3655Z" />
    <path class="icon-primary"
        d="M28.3419 25.4083H30.284C30.4917 25.4041 30.6894 25.3384 30.8363 25.2247C30.9833 25.1109 31.0682 24.9578 31.0736 24.797C31.068 24.6378 30.9824 24.4865 30.8349 24.3754C30.6874 24.2644 30.4897 24.2022 30.284 24.2023H28.3419C28.1382 24.2023 27.9428 24.2649 27.7987 24.3765C27.6546 24.488 27.5737 24.6393 27.5737 24.797C27.5736 24.9563 27.6538 25.1094 27.7973 25.2235C27.9408 25.3377 28.1362 25.404 28.3419 25.4083Z" />
</svg>