<svg width="38" height="38" viewBox="0 0 38 38" fill="black" xmlns="http://www.w3.org/2000/svg">
    <path
        d="M19 3.5625C23.0943 3.5625 27.0209 5.18895 29.916 8.08404C32.8111 10.9791 34.4375 14.9057 34.4375 19C34.4375 23.0943 32.8111 27.0209 29.916 29.916C27.0209 32.8111 23.0943 34.4375 19 34.4375C14.9057 34.4375 10.9791 32.8111 8.08404 29.916C5.18895 27.0209 3.5625 23.0943 3.5625 19C3.5625 14.9057 5.18895 10.9791 8.08404 8.08404C10.9791 5.18895 14.9057 3.5625 19 3.5625ZM19 38C24.0391 38 28.8718 35.9982 32.435 32.435C35.9982 28.8718 38 24.0391 38 19C38 13.9609 35.9982 9.12816 32.435 5.56497C28.8718 2.00178 24.0391 0 19 0C13.9609 0 9.12816 2.00178 5.56497 5.56497C2.00178 9.12816 0 13.9609 0 19C0 24.0391 2.00178 28.8718 5.56497 32.435C9.12816 35.9982 13.9609 38 19 38ZM16.0312 24.9375C15.0441 24.9375 14.25 25.7316 14.25 26.7188C14.25 27.7059 15.0441 28.5 16.0312 28.5H21.9688C22.9559 28.5 23.75 27.7059 23.75 26.7188C23.75 25.7316 22.9559 24.9375 21.9688 24.9375H21.375V18.4062C21.375 17.4191 20.5809 16.625 19.5938 16.625H16.0312C15.0441 16.625 14.25 17.4191 14.25 18.4062C14.25 19.3934 15.0441 20.1875 16.0312 20.1875H17.8125V24.9375H16.0312ZM19 14.25C19.6299 14.25 20.234 13.9998 20.6794 13.5544C21.1248 13.109 21.375 12.5049 21.375 11.875C21.375 11.2451 21.1248 10.641 20.6794 10.1956C20.234 9.75022 19.6299 9.5 19 9.5C18.3701 9.5 17.766 9.75022 17.3206 10.1956C16.8752 10.641 16.625 11.2451 16.625 11.875C16.625 12.5049 16.8752 13.109 17.3206 13.5544C17.766 13.9998 18.3701 14.25 19 14.25Z" />
</svg>