<svg width="39" height="38" viewBox="0 0 39 38" fill="none" xmlns="http://www.w3.org/2000/svg">
<g clip-path="url(#clip0_617_2867)">
<path d="M27.8236 6.0117C28.516 5.31404 28.516 4.18592 27.8236 3.49568C27.1312 2.80545 26.0115 2.79803 25.3265 3.49568L14.793 14.109L10.145 9.42576C9.45258 8.7281 8.33294 8.7281 7.6479 9.42576C6.96285 10.1234 6.95549 11.2515 7.6479 11.9418L13.5408 17.8793C14.2332 18.5769 15.3528 18.5769 16.0379 17.8793L27.8236 6.0117ZM35.4843 14.9179C36.1767 14.2203 36.1767 13.0922 35.4843 12.4019C34.7919 11.7117 33.6722 11.7043 32.9872 12.4019L14.793 30.734L6.02 21.8945C5.32758 21.1969 4.20794 21.1969 3.5229 21.8945C2.83785 22.5922 2.83049 23.7203 3.5229 24.4105L13.5334 34.5117C14.2258 35.2094 15.3454 35.2094 16.0305 34.5117L35.4843 14.9179Z" fill="black"/>
</g>
<defs>
<clipPath id="clip0_617_2867">
<rect width="33" height="38" fill="white" transform="translate(3)"/>
</clipPath>
</defs>
</svg>
