<svg width="58" height="58" viewBox="0 0 58 58" fill="none" xmlns="http://www.w3.org/2000/svg">
    <path class="icon-secondary" d="M54.9944 58H4.00376L4 54.1869H54.9999L54.9944 58Z" />
    <path class="icon-secondary"
        d="M54.9999 27.3333L51.2148 27.3333L51.2149 54.1869H55L54.9999 27.3333Z" />
    <path class="icon-secondary"
        d="M7.7851 27.3333L4 27.3333L4.00012 54.1869H7.78522L7.7851 27.3333Z" />
    <path class="icon-secondary"
        d="M29.5148 5.38436L7.78675 27.3312L4 27.3333L4.00388 25.7568L29.5148 0L54.9945 25.7568L54.9999 27.3333L51.2148 27.3333L29.5148 5.38436Z" />
    <path class="icon-primary"
        d="M41.8354 41.8064C41.9499 41.6062 41.9838 41.3687 41.9301 41.1436C41.8763 40.9185 41.7391 40.7233 41.5471 40.5988L38.7659 38.8737L42.0389 37.0624C42.2413 36.9526 42.3925 36.7655 42.4593 36.5423C42.5261 36.3191 42.503 36.078 42.395 35.8721C42.2842 35.6692 42.099 35.5191 41.8798 35.4545C41.6606 35.3898 41.4252 35.4159 41.2249 35.5271L37.0362 37.8214L30.9651 34.078L37.1549 30.5416L41.2758 32.9567C41.4048 33.0328 41.5506 33.0743 41.6997 33.0775C41.9246 33.1347 42.1626 33.0986 42.3614 32.9773C42.5601 32.856 42.7034 32.6593 42.7596 32.4306C42.8158 32.2018 42.7804 31.9597 42.6612 31.7575C42.5419 31.5553 42.3486 31.4096 42.1237 31.3524L38.9016 29.4548L41.7167 27.8333C41.8614 27.7442 41.978 27.6146 42.0523 27.46C42.1267 27.3055 42.1558 27.1324 42.1362 26.9614C42.1165 26.7905 42.0489 26.6289 41.9414 26.496C41.834 26.363 41.6912 26.2643 41.5301 26.2117C41.3237 26.1254 41.0922 26.1254 40.8857 26.2117L38.0367 27.8333V24.0381C38.039 23.9225 38.0188 23.8077 37.9774 23.7001C37.936 23.5924 37.8742 23.4942 37.7955 23.4109C37.7167 23.3276 37.6226 23.2609 37.5185 23.2146C37.4144 23.1683 37.3024 23.1433 37.1888 23.141C36.9621 23.1496 36.747 23.245 36.5866 23.4082C36.4262 23.5714 36.3323 23.7902 36.3239 24.0208V28.8338L30.1342 32.3875V24.5729L34.4077 22.0197C34.6013 21.9013 34.7417 21.7103 34.7988 21.4879C34.8558 21.2654 34.825 21.0291 34.7129 20.8294C34.6191 20.636 34.4548 20.4875 34.255 20.4154C34.0465 20.3404 33.8191 20.3404 33.6106 20.4154L30.219 22.451V20.0532C30.2442 19.9255 30.2412 19.7937 30.2103 19.6673C30.1794 19.5409 30.1213 19.4231 30.0401 19.3223C29.959 19.2216 29.8569 19.1404 29.7412 19.0847C29.6255 19.0289 29.4991 19 29.371 19C29.243 19 29.1166 19.0289 29.0009 19.0847C28.8852 19.1404 28.7831 19.2216 28.7019 19.3223C28.6208 19.4231 28.5627 19.5409 28.5318 19.6673C28.5008 19.7937 28.4979 19.9255 28.5231 20.0532V22.3303L25.3519 20.5017C25.1437 20.4253 24.9157 20.4253 24.7075 20.5017C24.5962 20.5292 24.4918 20.5803 24.4012 20.6516C24.3106 20.7229 24.2358 20.8129 24.1818 20.9157C24.0697 21.1153 24.0389 21.3517 24.0959 21.5741C24.153 21.7966 24.2934 21.9875 24.487 22.106L28.4044 24.3658V32.5255L22.3842 28.8165V23.9863C22.3865 23.8716 22.3662 23.7576 22.3246 23.651C22.283 23.5443 22.2209 23.4472 22.1419 23.3652C22.063 23.2833 21.9687 23.2182 21.8647 23.1738C21.7608 23.1294 21.6491 23.1065 21.5363 23.1065C21.3098 23.1065 21.0924 23.1968 20.9307 23.3581C20.7689 23.5194 20.6759 23.7387 20.6714 23.9691V27.7642L17.8903 26.0392C17.793 25.9777 17.6844 25.9368 17.5712 25.9192C17.458 25.9015 17.3424 25.9074 17.2315 25.9364C17.1206 25.9654 17.0165 26.017 16.9257 26.088C16.8349 26.1591 16.7592 26.2481 16.7032 26.3497C16.6447 26.4469 16.6058 26.555 16.5886 26.6677C16.5715 26.7803 16.5765 26.8953 16.6033 27.006C16.6301 27.1167 16.6782 27.2209 16.7448 27.3125C16.8115 27.4042 16.8953 27.4815 16.9915 27.54L19.7726 29.2651L16.4827 31.0764C16.3066 31.1626 16.1651 31.3081 16.0823 31.4883C15.9995 31.6684 15.9805 31.8721 16.0283 32.0649C16.0762 32.2577 16.1881 32.4277 16.3451 32.5462C16.5021 32.6647 16.6945 32.7244 16.8897 32.7152C17.0315 32.7139 17.171 32.6784 17.2967 32.6117L21.4685 30.4036L27.5565 34.147L21.3667 37.5972L17.2967 35.1821C17.1924 35.136 17.0798 35.1123 16.966 35.1123C16.8523 35.1123 16.7397 35.136 16.6353 35.1821C16.5244 35.2106 16.4205 35.262 16.33 35.3333C16.2396 35.4045 16.1645 35.494 16.1096 35.5961C15.999 35.7978 15.9708 36.0357 16.031 36.2584C16.0913 36.4811 16.2353 36.6707 16.4318 36.7864L19.6539 38.684L16.8388 40.3056C16.729 40.3547 16.6303 40.4266 16.5493 40.5167C16.4682 40.6067 16.4064 40.713 16.3679 40.8286C16.3294 40.9443 16.315 41.0669 16.3256 41.1885C16.3362 41.3102 16.3715 41.4282 16.4294 41.5352C16.4873 41.6422 16.5665 41.7357 16.6619 41.8099C16.7572 41.884 16.8668 41.9372 16.9834 41.9659C17.1001 41.9947 17.2214 41.9984 17.3396 41.9769C17.4577 41.9554 17.5702 41.909 17.6698 41.8409L20.5188 40.2193V44.0145C20.4936 44.1422 20.4965 44.2739 20.5274 44.4003C20.5584 44.5267 20.6165 44.6445 20.6976 44.7453C20.7787 44.846 20.8808 44.9272 20.9965 44.983C21.1123 45.0387 21.2387 45.0676 21.3667 45.0676C21.4947 45.0676 21.6212 45.0387 21.7369 44.983C21.8526 44.9272 21.9547 44.846 22.0358 44.7453C22.1169 44.6445 22.1751 44.5267 22.206 44.4003C22.2369 44.2739 22.2399 44.1422 22.2146 44.0145L22.2994 39.1843L28.4044 35.5788V42.7897L24.3005 45.2393C24.1068 45.3578 23.9664 45.5487 23.9094 45.7711C23.8523 45.9936 23.8832 46.2299 23.9953 46.4296C24.0501 46.5317 24.1252 46.6212 24.2156 46.6924C24.3061 46.7636 24.41 46.8151 24.521 46.8436C24.6287 46.873 24.741 46.8806 24.8516 46.8658C24.9622 46.851 25.0688 46.8141 25.1654 46.7573L28.4044 44.8253V48.1202C28.4017 48.236 28.423 48.3512 28.4668 48.4581C28.5106 48.5651 28.576 48.6615 28.6588 48.7412C28.7345 48.824 28.8264 48.8899 28.9286 48.9344C29.0309 48.979 29.1411 49.0013 29.2523 48.9999C29.4817 48.9999 29.7017 48.9072 29.8639 48.7423C30.0261 48.5773 30.1172 48.3535 30.1172 48.1202V44.8253L33.3562 46.7573C33.5554 46.8655 33.7878 46.8918 34.0055 46.8308C34.2232 46.7698 34.4097 46.6262 34.5264 46.4296C34.6415 46.2341 34.6776 46.0007 34.627 45.7787C34.5763 45.5567 34.443 45.3633 34.255 45.2393L30.1511 42.7897V35.5788L36.1883 39.2878V44.118C36.186 44.2327 36.2063 44.3467 36.2479 44.4534C36.2895 44.56 36.3516 44.6571 36.4305 44.7391C36.5095 44.821 36.6037 44.8861 36.7077 44.9305C36.8117 44.9749 36.9234 44.9978 37.0362 44.9978C37.149 45.0001 37.261 44.9794 37.3659 44.9371C37.4707 44.8948 37.5662 44.8316 37.6467 44.7513C37.7273 44.671 37.7913 44.5751 37.8349 44.4693C37.8786 44.3636 37.9011 44.25 37.9011 44.1352V40.3401L40.6822 42.0651C40.8728 42.1709 41.0945 42.203 41.3064 42.1554C41.5184 42.1079 41.7063 41.9839 41.8354 41.8064Z" />
</svg>