<svg width="39" height="38" viewBox="0 0 39 38" fill="black" xmlns="http://www.w3.org/2000/svg">
    <path
        d="M4.30052 6.81168H19.5026C20.0252 6.81168 20.4527 7.23343 20.4527 7.7489V16.0492C21.2722 15.2584 22.2342 14.6082 23.3031 14.1513V7.7489C23.3031 5.68115 21.5988 4 19.5026 4H4.30052C2.2043 4 0.5 5.68115 0.5 7.7489V30.2423C0.5 32.3101 2.2043 33.9912 4.30052 33.9912H19.5026C21.2366 33.9912 22.7033 32.8431 23.1606 31.2733C22.1511 30.8164 21.2366 30.1954 20.4527 29.4398V30.2423C20.4527 30.7578 20.0252 31.1795 19.5026 31.1795H14.7519V27.4306C14.7519 25.8784 13.4752 24.619 11.9016 24.619C10.3279 24.619 9.05117 25.8784 9.05117 27.4306V31.1795H4.30052C3.77795 31.1795 3.35039 30.7578 3.35039 30.2423V7.7489C3.35039 7.23343 3.77795 6.81168 4.30052 6.81168ZM18.0774 17.5898C18.0774 17.0743 17.6498 16.6525 17.1273 16.6525H14.2769C13.7543 16.6525 13.3268 17.0743 13.3268 17.5898V20.4014C13.3268 20.9169 13.7543 21.3387 14.2769 21.3387H17.1273C17.3648 21.3387 17.5786 21.2508 17.7449 21.1102C17.8221 20.665 17.9349 20.2316 18.0774 19.8098V17.5898ZM5.72571 10.092V12.9036C5.72571 13.4191 6.15327 13.8409 6.67584 13.8409H9.52623C10.0488 13.8409 10.4764 13.4191 10.4764 12.9036V10.092C10.4764 9.57649 10.0488 9.15474 9.52623 9.15474H6.67584C6.15327 9.15474 5.72571 9.57649 5.72571 10.092ZM14.2769 9.15474C13.7543 9.15474 13.3268 9.57649 13.3268 10.092V12.9036C13.3268 13.4191 13.7543 13.8409 14.2769 13.8409H17.1273C17.6498 13.8409 18.0774 13.4191 18.0774 12.9036V10.092C18.0774 9.57649 17.6498 9.15474 17.1273 9.15474H14.2769ZM5.72571 17.5898V20.4014C5.72571 20.9169 6.15327 21.3387 6.67584 21.3387H9.52623C10.0488 21.3387 10.4764 20.9169 10.4764 20.4014V17.5898C10.4764 17.0743 10.0488 16.6525 9.52623 16.6525H6.67584C6.15327 16.6525 5.72571 17.0743 5.72571 17.5898ZM27.1036 18.0642C27.7275 18.0642 28.3453 18.1854 28.9216 18.4209C29.498 18.6564 30.0217 19.0016 30.4628 19.4368C30.904 19.8719 31.2539 20.3885 31.4927 20.9571C31.7314 21.5256 31.8543 22.135 31.8543 22.7504C31.8543 23.3658 31.7314 23.9751 31.4927 24.5437C31.2539 25.1122 30.904 25.6288 30.4628 26.064C30.0217 26.4991 29.498 26.8443 28.9216 27.0798C28.3453 27.3153 27.7275 27.4365 27.1036 27.4365C25.8437 27.4365 24.6353 26.9428 23.7444 26.064C22.8535 25.1851 22.353 23.9932 22.353 22.7504C22.353 21.5075 22.8535 20.3156 23.7444 19.4368C24.6353 18.558 25.8437 18.0642 27.1036 18.0642ZM27.1036 30.2482C28.6892 30.2482 30.1559 29.7678 31.3733 28.9536L36.0705 33.587C36.6287 34.1377 37.5313 34.1377 38.0836 33.587C38.6358 33.0364 38.6418 32.1461 38.0836 31.6013L33.3864 26.9679C34.2177 25.7671 34.6987 24.3144 34.6987 22.7562C34.6987 18.6149 31.2961 15.2584 27.0977 15.2584C22.8993 15.2584 19.4967 18.6149 19.4967 22.7562C19.4967 26.8976 22.8993 30.254 27.0977 30.254L27.1036 30.2482Z" />
</svg>