<svg width="30" height="30" viewBox="0 0 30 30" fill="black" xmlns="http://www.w3.org/2000/svg">
    <path
        d="M21.1816 12.7969C21.4277 13.4883 21.5625 14.2266 21.5625 15C21.5625 18.627 18.627 21.5625 15 21.5625C11.373 21.5625 8.4375 18.627 8.4375 15C8.4375 11.373 11.373 8.4375 15 8.4375C15.7734 8.4375 16.5176 8.57227 17.2031 8.81836L17.4902 8.53125L17.0449 5.84766C16.3828 5.70117 15.7031 5.625 15 5.625C9.82031 5.625 5.625 9.82031 5.625 15C5.625 20.1797 9.82031 24.375 15 24.375C20.1797 24.375 24.375 20.1797 24.375 15C24.375 14.2969 24.2988 13.6172 24.1523 12.9551L21.4687 12.5098L21.1816 12.7969ZM26.8887 12.3223C27.082 13.1836 27.1816 14.0801 27.1816 15C27.1816 21.7324 21.7266 27.1875 14.9941 27.1875C8.26172 27.1875 2.8125 21.7324 2.8125 15C2.8125 8.26758 8.26758 2.8125 15 2.8125C15.9199 2.8125 16.8164 2.91211 17.6777 3.10547L19.9512 0.832031C18.3984 0.292969 16.7344 0 15 0C6.71484 0 0 6.71484 0 15C0 23.2852 6.71484 30 15 30C23.2852 30 30 23.2852 30 15C30 13.2656 29.707 11.6016 29.1621 10.0488L26.8945 12.3223H26.8887ZM21.3867 10.5996L24.3574 11.0918C24.9551 11.1914 25.5645 10.998 25.9922 10.5703L28.9922 7.57031C29.4668 7.0957 29.3027 6.28711 28.6758 6.03516L25.3125 4.6875L23.9648 1.31836C23.7129 0.691406 22.9102 0.527344 22.4297 1.00195L19.4297 4.00781C19.002 4.43555 18.8086 5.04492 18.9082 5.64258L19.4004 8.61328L14.0039 14.0039C13.4531 14.5547 13.4531 15.4453 14.0039 15.9902C14.5547 16.5352 15.4453 16.541 15.9902 15.9902L21.3867 10.5938V10.5996Z" />
</svg>