<svg width="34" height="34" viewBox="0 0 34 34" fill="black" xmlns="http://www.w3.org/2000/svg">
    <path
        d="M12.2188 5.3125H21.7812C22.0734 5.3125 22.3125 5.55156 22.3125 5.84375V8.5H11.6875V5.84375C11.6875 5.55156 11.9266 5.3125 12.2188 5.3125ZM8.5 5.84375V8.5H6.63398C5.79063 8.5 4.98047 8.83867 4.38281 9.43633L0.936328 12.8762C0.338672 13.4738 0 14.284 0 15.1273V21.7812V27.625C0 29.9691 1.90586 31.875 4.25 31.875H29.75C32.0941 31.875 34 29.9691 34 27.625V21.7812V15.134C34 14.2906 33.6613 13.4805 33.0637 12.8828L29.6172 9.43633C29.0195 8.83867 28.2094 8.5 27.366 8.5H25.5V5.84375C25.5 3.7918 23.8332 2.125 21.7812 2.125H12.2188C10.1668 2.125 8.5 3.7918 8.5 5.84375ZM30.8125 20.1875H24.4375V19.125C24.4375 18.2418 23.727 17.5312 22.8438 17.5312C21.9605 17.5312 21.25 18.2418 21.25 19.125V20.1875H12.75V19.125C12.75 18.2418 12.0395 17.5312 11.1562 17.5312C10.273 17.5312 9.5625 18.2418 9.5625 19.125V20.1875H3.1875V15.134L6.63398 11.6875H27.366L30.8125 15.134V20.1875ZM3.1875 23.375H9.5625V24.4375C9.5625 25.3207 10.273 26.0312 11.1562 26.0312C12.0395 26.0312 12.75 25.3207 12.75 24.4375V23.375H21.25V24.4375C21.25 25.3207 21.9605 26.0312 22.8438 26.0312C23.727 26.0312 24.4375 25.3207 24.4375 24.4375V23.375H30.8125V27.625C30.8125 28.2094 30.3344 28.6875 29.75 28.6875H4.25C3.66562 28.6875 3.1875 28.2094 3.1875 27.625V23.375Z"  />
</svg>