<svg width="80" height="80" viewBox="0 0 80 80" fill="none" xmlns="http://www.w3.org/2000/svg">
<rect width="80" height="80" rx="4" fill="#D7221F"/>
<g filter="url(#filter0_d_2009_1816)">
<path d="M51.1784 55.7238H50.8467C50.1833 60.246 45.9378 63.67 38.9724 63.67C28.3585 63.67 20 55.6592 20 40.5422C20 25.4251 28.4248 17.0268 40.9625 17.0268C44.6711 16.83 48.3549 17.7224 51.5366 19.5884C54.7183 21.4545 57.2512 24.2081 58.8071 27.4924L50.5813 32.0792C49.9334 30.1205 48.639 28.4251 46.8995 27.2568C45.16 26.0885 43.0728 25.5127 40.9625 25.6189C34.7268 25.6189 30.6803 29.1075 30.6803 36.6014V43.8369C30.6803 51.3309 34.7268 54.8194 40.9625 54.8194C46.0041 54.8194 50.0506 52.4937 50.0506 48.1007V45.8396H41.4268V37.6351H59.6695V63.0563H51.1784V55.7238Z" fill="white"/>
</g>
<defs>
<filter id="filter0_d_2009_1816" x="16" y="17" width="47.6694" height="54.67" filterUnits="userSpaceOnUse" color-interpolation-filters="sRGB">
<feFlood flood-opacity="0" result="BackgroundImageFix"/>
<feColorMatrix in="SourceAlpha" type="matrix" values="0 0 0 0 0 0 0 0 0 0 0 0 0 0 0 0 0 0 127 0" result="hardAlpha"/>
<feOffset dy="4"/>
<feGaussianBlur stdDeviation="2"/>
<feComposite in2="hardAlpha" operator="out"/>
<feColorMatrix type="matrix" values="0 0 0 0 0 0 0 0 0 0 0 0 0 0 0 0 0 0 0.25 0"/>
<feBlend mode="normal" in2="BackgroundImageFix" result="effect1_dropShadow_2009_1816"/>
<feBlend mode="normal" in="SourceGraphic" in2="effect1_dropShadow_2009_1816" result="shape"/>
</filter>
</defs>
</svg>
