<svg width="237" height="278" viewBox="0 0 237 278" fill="none" xmlns="http://www.w3.org/2000/svg">
<path d="M226.526 276H3V244H226.526L237 259.993L226.526 276Z" fill="#D7221F"/>
<g filter="url(#filter0_d_292_1358)">
<path d="M23.9462 265.984H23.8129C23.5462 267.851 21.8396 269.264 19.0396 269.264C14.773 269.264 11.4131 265.957 11.4131 259.718C11.4131 253.478 14.7997 250.011 19.8396 250.011C21.3304 249.93 22.8113 250.298 24.0902 251.068C25.3692 251.839 26.3874 252.975 27.0129 254.331L23.7062 256.224C23.4458 255.416 22.9255 254.716 22.2262 254.234C21.5269 253.751 20.6879 253.514 19.8396 253.558C17.333 253.558 15.7064 254.998 15.7064 258.091V261.078C15.7064 264.171 17.333 265.611 19.8396 265.611C21.8663 265.611 23.4929 264.651 23.4929 262.838V261.904H20.0263V258.518H27.3595V269.011H23.9462V265.984Z" fill="white"/>
</g>
<path d="M202.67 240H3V208H202.67L213 224L202.67 240Z" fill="#EB8235"/>
<g filter="url(#filter1_d_292_1358)">
<path d="M13.9199 233.586V215H26.2664V218.6H18.0265V222.413H25.0931V225.987H18.0265V233.613L13.9199 233.586Z" fill="white"/>
</g>
<path d="M178.683 204H3V172H178.683L189 188.007L178.683 204Z" fill="#F0B40F"/>
<g filter="url(#filter2_d_292_1358)">
<path d="M13.627 197.666V179H26.2934V182.6H17.6802V186.413H25.0668V189.986H17.6802V193.986H26.2934V197.586L13.627 197.666Z" fill="white"/>
</g>
<path d="M136.413 109L155.797 138.006L136.413 167H4V109H136.413Z" fill="#F4E70F" stroke="#1D1D1B" stroke-width="2"/>
<g filter="url(#filter3_d_292_1358)">
<path d="M12 118H27.2263C37.9368 118 45 124.686 45 138C45 151.314 37.9368 158 27.2263 158H12V118ZM27.2263 150.286C32.4368 150.286 35.679 147.429 35.679 141.143V134.857C35.679 128.514 32.4368 125.714 27.2263 125.714H20.8V150.286H27.2263Z" fill="white"/>
<path d="M27.2266 117C32.7936 117 37.527 118.744 40.8613 122.326C44.1875 125.9 46 131.173 46 138C46 144.827 44.1875 150.1 40.8613 153.674C37.527 157.256 32.7936 159 27.2266 159H11V117H27.2266ZM21.7998 149.286H27.2266C29.6545 149.286 31.4728 148.622 32.6904 147.373C33.9115 146.12 34.6787 144.123 34.6787 141.143V134.857C34.6787 131.846 33.9108 129.851 32.6924 128.606C31.477 127.365 29.6596 126.714 27.2266 126.714H21.7998V149.286Z" stroke="#1D1D1B" stroke-width="2"/>
</g>
<path d="M134.452 104H3V72H134.452L145 88.0068L134.452 104Z" fill="#A5CC74"/>
<g filter="url(#filter4_d_292_1358)">
<path d="M12.3203 87.7807C12.3203 81.4875 15.5469 78.0208 20.5602 78.0208C22.0361 77.9058 23.5098 78.269 24.7633 79.0566C26.0168 79.8442 26.9834 81.0145 27.5201 82.3941L24.0268 84.2074C23.8585 83.4305 23.4148 82.7406 22.7777 82.2652C22.1405 81.7898 21.3529 81.5609 20.5602 81.6208C18.1869 81.6208 16.5602 83.2208 16.5602 86.1541V89.1407C16.5602 92.074 18.1336 93.6739 20.5602 93.6739C21.3961 93.68 22.2111 93.4122 22.8804 92.9114C23.5498 92.4106 24.0367 91.7043 24.2668 90.9007L27.5734 92.8206C26.9981 94.1896 26.018 95.3499 24.7644 96.1459C23.5108 96.9419 22.0438 97.3355 20.5602 97.2739C15.5469 97.2739 12.3203 94.0739 12.3203 87.7807Z" fill="white"/>
</g>
<path d="M112.282 68H3V36H112.282L123 52.0068L112.282 68Z" fill="#52B153"/>
<g filter="url(#filter5_d_292_1358)">
<path d="M12.8262 43.0186H21.866C22.5137 42.9596 23.1665 43.0414 23.7795 43.2585C24.3926 43.4756 24.9514 43.8229 25.4175 44.2764C25.8837 44.7299 26.2462 45.2789 26.4801 45.8857C26.714 46.4925 26.8138 47.1428 26.7726 47.7919C26.7726 50.6452 25.1993 51.7118 23.306 51.7918V51.9518C23.8746 51.9415 24.4392 52.0491 24.9642 52.2677C25.4892 52.4863 25.9633 52.8112 26.3566 53.222C26.7498 53.6328 27.0538 54.1206 27.2493 54.6547C27.4448 55.1887 27.5277 55.7574 27.4926 56.3251C27.5358 56.9922 27.4452 57.6613 27.226 58.2929C27.0068 58.9245 26.6634 59.5059 26.2162 60.0029C25.7689 60.4998 25.2268 60.9023 24.6217 61.1866C24.0166 61.4709 23.3607 61.6313 22.6927 61.6583H12.8262V43.0186ZM16.8261 50.6452H20.826C21.0553 50.6656 21.2862 50.6354 21.5026 50.5569C21.7189 50.4783 21.9153 50.3533 22.0781 50.1905C22.2408 50.0278 22.3659 49.8313 22.4444 49.615C22.523 49.3987 22.5531 49.1678 22.5327 48.9385V48.1385C22.5531 47.9093 22.523 47.6784 22.4444 47.462C22.3659 47.2457 22.2408 47.0492 22.0781 46.8865C21.9153 46.7238 21.7189 46.5987 21.5026 46.5202C21.2862 46.4416 21.0553 46.4115 20.826 46.4319H16.8261V50.6452ZM16.8261 58.2184H21.4927C21.7216 58.2424 21.9531 58.2159 22.1706 58.1407C22.3882 58.0656 22.5866 57.9436 22.7519 57.7834C22.9172 57.6232 23.0453 57.4287 23.1272 57.2136C23.2092 56.9984 23.2429 56.768 23.226 56.5384V55.6317C23.2429 55.4022 23.2092 55.1717 23.1272 54.9566C23.0453 54.7415 22.9172 54.5469 22.7519 54.3867C22.5866 54.2265 22.3882 54.1046 22.1706 54.0294C21.9531 53.9542 21.7216 53.9277 21.4927 53.9518H16.8261V58.2184Z" fill="white"/>
</g>
<path d="M64.3882 32H3V0H64.3882L75 15.9932L64.3882 32Z" fill="#00A06D"/>
<g filter="url(#filter6_d_292_1358)">
<path d="M24.0761 25.4934L22.7413 21.1078H16.5212L15.1864 25.4934H11.0752L17.2153 7H22.2341L28.2941 25.4934H24.0761ZM19.6713 10.6855H19.5378L17.4822 17.6865H21.7536L19.6713 10.6855Z" fill="white"/>
</g>
<defs>
<filter id="filter0_d_292_1358" x="7.41309" y="250" width="23.9463" height="27.264" filterUnits="userSpaceOnUse" color-interpolation-filters="sRGB">
<feFlood flood-opacity="0" result="BackgroundImageFix"/>
<feColorMatrix in="SourceAlpha" type="matrix" values="0 0 0 0 0 0 0 0 0 0 0 0 0 0 0 0 0 0 127 0" result="hardAlpha"/>
<feOffset dy="4"/>
<feGaussianBlur stdDeviation="2"/>
<feComposite in2="hardAlpha" operator="out"/>
<feColorMatrix type="matrix" values="0 0 0 0 0 0 0 0 0 0 0 0 0 0 0 0 0 0 0.25 0"/>
<feBlend mode="normal" in2="BackgroundImageFix" result="effect1_dropShadow_292_1358"/>
<feBlend mode="normal" in="SourceGraphic" in2="effect1_dropShadow_292_1358" result="shape"/>
</filter>
<filter id="filter1_d_292_1358" x="9.91992" y="215" width="20.3467" height="26.613" filterUnits="userSpaceOnUse" color-interpolation-filters="sRGB">
<feFlood flood-opacity="0" result="BackgroundImageFix"/>
<feColorMatrix in="SourceAlpha" type="matrix" values="0 0 0 0 0 0 0 0 0 0 0 0 0 0 0 0 0 0 127 0" result="hardAlpha"/>
<feOffset dy="4"/>
<feGaussianBlur stdDeviation="2"/>
<feComposite in2="hardAlpha" operator="out"/>
<feColorMatrix type="matrix" values="0 0 0 0 0 0 0 0 0 0 0 0 0 0 0 0 0 0 0.25 0"/>
<feBlend mode="normal" in2="BackgroundImageFix" result="effect1_dropShadow_292_1358"/>
<feBlend mode="normal" in="SourceGraphic" in2="effect1_dropShadow_292_1358" result="shape"/>
</filter>
<filter id="filter2_d_292_1358" x="9.62695" y="179" width="20.666" height="26.6664" filterUnits="userSpaceOnUse" color-interpolation-filters="sRGB">
<feFlood flood-opacity="0" result="BackgroundImageFix"/>
<feColorMatrix in="SourceAlpha" type="matrix" values="0 0 0 0 0 0 0 0 0 0 0 0 0 0 0 0 0 0 127 0" result="hardAlpha"/>
<feOffset dy="4"/>
<feGaussianBlur stdDeviation="2"/>
<feComposite in2="hardAlpha" operator="out"/>
<feColorMatrix type="matrix" values="0 0 0 0 0 0 0 0 0 0 0 0 0 0 0 0 0 0 0.25 0"/>
<feBlend mode="normal" in2="BackgroundImageFix" result="effect1_dropShadow_292_1358"/>
<feBlend mode="normal" in="SourceGraphic" in2="effect1_dropShadow_292_1358" result="shape"/>
</filter>
<filter id="filter3_d_292_1358" x="6" y="116" width="45" height="52" filterUnits="userSpaceOnUse" color-interpolation-filters="sRGB">
<feFlood flood-opacity="0" result="BackgroundImageFix"/>
<feColorMatrix in="SourceAlpha" type="matrix" values="0 0 0 0 0 0 0 0 0 0 0 0 0 0 0 0 0 0 127 0" result="hardAlpha"/>
<feOffset dy="4"/>
<feGaussianBlur stdDeviation="2"/>
<feComposite in2="hardAlpha" operator="out"/>
<feColorMatrix type="matrix" values="0 0 0 0 0 0 0 0 0 0 0 0 0 0 0 0 0 0 0.25 0"/>
<feBlend mode="normal" in2="BackgroundImageFix" result="effect1_dropShadow_292_1358"/>
<feBlend mode="normal" in="SourceGraphic" in2="effect1_dropShadow_292_1358" result="shape"/>
</filter>
<filter id="filter4_d_292_1358" x="8.32031" y="78" width="23.2529" height="27.2802" filterUnits="userSpaceOnUse" color-interpolation-filters="sRGB">
<feFlood flood-opacity="0" result="BackgroundImageFix"/>
<feColorMatrix in="SourceAlpha" type="matrix" values="0 0 0 0 0 0 0 0 0 0 0 0 0 0 0 0 0 0 127 0" result="hardAlpha"/>
<feOffset dy="4"/>
<feGaussianBlur stdDeviation="2"/>
<feComposite in2="hardAlpha" operator="out"/>
<feColorMatrix type="matrix" values="0 0 0 0 0 0 0 0 0 0 0 0 0 0 0 0 0 0 0.25 0"/>
<feBlend mode="normal" in2="BackgroundImageFix" result="effect1_dropShadow_292_1358"/>
<feBlend mode="normal" in="SourceGraphic" in2="effect1_dropShadow_292_1358" result="shape"/>
</filter>
<filter id="filter5_d_292_1358" x="0.826172" y="35" width="38.6768" height="42.6583" filterUnits="userSpaceOnUse" color-interpolation-filters="sRGB">
<feFlood flood-opacity="0" result="BackgroundImageFix"/>
<feColorMatrix in="SourceAlpha" type="matrix" values="0 0 0 0 0 0 0 0 0 0 0 0 0 0 0 0 0 0 127 0" result="hardAlpha"/>
<feOffset dy="4"/>
<feGaussianBlur stdDeviation="6"/>
<feColorMatrix type="matrix" values="0 0 0 0 0 0 0 0 0 0 0 0 0 0 0.0705882 0 0 0 0.48 0"/>
<feBlend mode="normal" in2="BackgroundImageFix" result="effect1_dropShadow_292_1358"/>
<feBlend mode="normal" in="SourceGraphic" in2="effect1_dropShadow_292_1358" result="shape"/>
</filter>
<filter id="filter6_d_292_1358" x="7.0752" y="7" width="25.2188" height="26.4934" filterUnits="userSpaceOnUse" color-interpolation-filters="sRGB">
<feFlood flood-opacity="0" result="BackgroundImageFix"/>
<feColorMatrix in="SourceAlpha" type="matrix" values="0 0 0 0 0 0 0 0 0 0 0 0 0 0 0 0 0 0 127 0" result="hardAlpha"/>
<feOffset dy="4"/>
<feGaussianBlur stdDeviation="2"/>
<feComposite in2="hardAlpha" operator="out"/>
<feColorMatrix type="matrix" values="0 0 0 0 0 0 0 0 0 0 0 0 0 0 0 0 0 0 0.25 0"/>
<feBlend mode="normal" in2="BackgroundImageFix" result="effect1_dropShadow_292_1358"/>
<feBlend mode="normal" in="SourceGraphic" in2="effect1_dropShadow_292_1358" result="shape"/>
</filter>
</defs>
</svg>
