<svg width="237" height="278" viewBox="0 0 237 278" fill="none" xmlns="http://www.w3.org/2000/svg">
<path d="M226.526 276H3V244H226.526L237 259.993L226.526 276Z" fill="#D7221F"/>
<g filter="url(#filter0_d_292_1404)">
<path d="M23.9462 265.984H23.8129C23.5462 267.851 21.8396 269.264 19.0396 269.264C14.773 269.264 11.4131 265.957 11.4131 259.718C11.4131 253.478 14.7997 250.011 19.8396 250.011C21.3304 249.93 22.8113 250.298 24.0902 251.068C25.3692 251.839 26.3874 252.975 27.0129 254.331L23.7062 256.224C23.4458 255.416 22.9255 254.716 22.2262 254.234C21.5269 253.751 20.6879 253.514 19.8396 253.558C17.333 253.558 15.7064 254.998 15.7064 258.091V261.078C15.7064 264.171 17.333 265.611 19.8396 265.611C21.8663 265.611 23.4929 264.651 23.4929 262.838V261.904H20.0263V258.518H27.3595V269.011H23.9462V265.984Z" fill="white"/>
</g>
<path d="M185.466 181L204.798 210L185.466 239H4V181H185.466Z" fill="#EB8235" stroke="#1D1D1B" stroke-width="2"/>
<path d="M156.48 235.92C161.515 235.916 166.436 234.419 170.62 231.619C174.804 228.819 178.064 224.842 179.988 220.189C181.912 215.536 182.413 210.418 181.428 205.48C180.444 200.543 178.017 196.008 174.456 192.45C170.894 188.891 166.358 186.468 161.419 185.488C156.481 184.507 151.363 185.012 146.712 186.94C142.061 188.868 138.086 192.131 135.289 196.317C132.493 200.504 131 205.425 131 210.46C131 213.805 131.659 217.118 132.94 220.208C134.221 223.298 136.098 226.106 138.464 228.47C140.831 230.835 143.64 232.71 146.731 233.988C149.822 235.266 153.135 235.923 156.48 235.92Z" fill="white" stroke="#1D1D1B" stroke-width="1.8933" stroke-miterlimit="10"/>
<path d="M148.804 219.874C148.649 219.875 148.495 219.84 148.354 219.772C148.243 219.716 148.143 219.638 148.062 219.543C147.981 219.448 147.919 219.337 147.881 219.218C147.843 219.099 147.829 218.974 147.84 218.849C147.851 218.725 147.887 218.604 147.945 218.493C148.892 217.064 150.179 215.892 151.689 215.081C153.2 214.27 154.888 213.845 156.602 213.845C158.317 213.845 160.005 214.27 161.515 215.081C163.026 215.892 164.312 217.064 165.259 218.493C165.318 218.604 165.353 218.725 165.364 218.849C165.375 218.974 165.361 219.099 165.323 219.218C165.285 219.337 165.223 219.448 165.142 219.543C165.061 219.638 164.962 219.716 164.85 219.772C164.622 219.876 164.364 219.893 164.124 219.82C163.885 219.746 163.681 219.587 163.55 219.373C162.771 218.252 161.732 217.336 160.522 216.704C159.312 216.072 157.967 215.741 156.602 215.741C155.237 215.741 153.892 216.072 152.682 216.704C151.472 217.336 150.433 218.252 149.654 219.373C149.572 219.526 149.449 219.654 149.299 219.742C149.149 219.831 148.978 219.876 148.804 219.874Z" fill="#E30613"/>
<path d="M150.442 207.533C150.74 207.539 151.03 207.633 151.275 207.803C151.52 207.973 151.709 208.212 151.819 208.489C151.929 208.766 151.955 209.07 151.893 209.362C151.831 209.653 151.684 209.92 151.471 210.129C151.258 210.338 150.988 210.479 150.695 210.535C150.403 210.591 150.1 210.559 149.825 210.444C149.55 210.328 149.315 210.134 149.15 209.886C148.985 209.638 148.897 209.346 148.897 209.048C148.902 208.643 149.067 208.256 149.357 207.972C149.646 207.688 150.036 207.531 150.442 207.533Z" fill="#E30613"/>
<path d="M162.783 207.533C163.082 207.539 163.371 207.633 163.616 207.803C163.861 207.973 164.051 208.212 164.161 208.489C164.27 208.766 164.296 209.07 164.234 209.362C164.172 209.653 164.026 209.92 163.813 210.129C163.6 210.338 163.33 210.479 163.037 210.535C162.744 210.591 162.441 210.559 162.166 210.444C161.891 210.328 161.657 210.134 161.491 209.886C161.326 209.638 161.238 209.346 161.238 209.048C161.239 208.847 161.281 208.648 161.359 208.463C161.438 208.278 161.552 208.11 161.696 207.969C161.839 207.828 162.009 207.717 162.196 207.643C162.383 207.568 162.582 207.531 162.783 207.533Z" fill="#E30613"/>
<path d="M143.504 212.148V209.938H138.828V208.843L135.932 211.043L138.828 213.243V212.148H143.504Z" fill="#E30613"/>
<path d="M143.504 217.961V215.761H138.828V214.666L135.932 216.866L138.828 219.066V217.961H143.504Z" fill="#E30613"/>
<path d="M169.445 212.148V209.938H174.122V208.843L177.018 211.043L174.122 213.243V212.148H169.445Z" fill="#E30613"/>
<path d="M169.445 217.961V215.761H174.122V214.666L177.018 216.866L174.122 219.066V217.961H169.445Z" fill="#E30613"/>
<path d="M158.455 222.545H160.707V227.109H161.832L159.581 229.944L157.33 227.109H158.455V222.545Z" fill="#E30613"/>
<path d="M152.499 222.545H154.75V227.109H155.876L153.625 229.944L151.373 227.109H152.499V222.545Z" fill="#E30613"/>
<path d="M162.057 198.518L160.46 196.963L163.766 193.729L162.978 192.951L166.621 192.501L166.16 196.062L165.362 195.284L162.057 198.518Z" fill="#E30613"/>
<path d="M166.273 202.632L164.676 201.076L167.982 197.843L167.194 197.075L170.826 196.625L170.366 200.176L169.578 199.398L166.273 202.632Z" fill="#E30613"/>
<path d="M147.976 201.076L146.38 202.632L143.075 199.408L142.287 200.176L141.826 196.625L145.459 197.075L144.671 197.843L147.976 201.076Z" fill="#E30613"/>
<path d="M152.192 196.963L150.596 198.518L147.29 195.284L146.492 196.062L146.032 192.501L149.675 192.951L148.887 193.729L152.192 196.963Z" fill="#E30613"/>
<path d="M148.498 197.229L146.656 199.03L147.628 199.971L149.47 198.17L148.498 197.229Z" fill="#E30613"/>
<path d="M157.912 224.039H155.303V225.38H157.912V224.039Z" fill="#E30613"/>
<path d="M172.802 212.681H171.431V215.229H172.802V212.681Z" fill="#E30613"/>
<path d="M165.198 199.807L166.171 198.866L164.329 197.065L163.357 198.006L165.198 199.807Z" fill="#E30613"/>
<path d="M167.573 202.12L171.431 205.896V209.406H172.792V205.61C172.791 205.433 172.721 205.264 172.597 205.139L168.504 201.179L167.573 202.12Z" fill="#E30613"/>
<path d="M151.833 195.857L156.5 191.304L160.992 195.694L161.954 194.742L156.981 189.881C156.851 189.757 156.679 189.688 156.5 189.688C156.321 189.688 156.148 189.757 156.019 189.881L150.902 194.916L151.833 195.857Z" fill="#E30613"/>
<path d="M171.43 218.503V224.039H161.259V225.38H172.116C172.204 225.381 172.292 225.365 172.374 225.332C172.456 225.299 172.53 225.251 172.593 225.189C172.656 225.127 172.706 225.053 172.74 224.972C172.774 224.89 172.791 224.803 172.791 224.715V218.503H171.43Z" fill="#E30613"/>
<path d="M151.947 224.039H141.57V218.503H140.209V224.715C140.211 224.803 140.23 224.891 140.265 224.972C140.3 225.054 140.351 225.128 140.414 225.189C140.478 225.251 140.553 225.3 140.636 225.332C140.718 225.365 140.806 225.381 140.895 225.38H151.957L151.947 224.039Z" fill="#E30613"/>
<path d="M141.57 209.406V205.855L145.254 202.253L144.292 201.301L140.403 205.098C140.34 205.159 140.289 205.232 140.254 205.313C140.219 205.393 140.2 205.48 140.199 205.569V209.365L141.57 209.406Z" fill="#E30613"/>
<path d="M141.57 212.681H140.199V215.229H141.57V212.681Z" fill="#E30613"/>
<g filter="url(#filter1_d_292_1404)">
<path d="M14 229.943V190H40V197.736H22.648V205.931H37.5292V213.61H22.648V230L14 229.943Z" fill="white"/>
<path d="M41 189V198.736H23.6484V204.932H38.5293V214.61H23.6484V231.007L22.6416 231L13.9932 230.942L13 230.937V189H41Z" stroke="#1D1D1B" stroke-width="2"/>
</g>
<path d="M178.683 176H3V144H178.683L189 160.007L178.683 176Z" fill="#F0B40F"/>
<g filter="url(#filter2_d_292_1404)">
<path d="M13.627 169.666V151H26.2934V154.6H17.6802V158.413H25.0668V161.986H17.6802V165.986H26.2934V169.586L13.627 169.666Z" fill="white"/>
</g>
<path d="M156.595 140H3V108H156.595L167 124.007L156.595 140Z" fill="#F4E70F"/>
<g filter="url(#filter3_d_292_1404)">
<path d="M12.4268 115H19.44C24.3732 115 27.6265 118.12 27.6265 124.333C27.6265 130.546 24.3732 133.666 19.44 133.666H12.4268V115ZM19.44 130.066C21.8399 130.066 23.3333 128.733 23.3333 125.8V122.867C23.3333 119.907 21.8399 118.6 19.44 118.6H16.48V130.066H19.44Z" fill="white"/>
</g>
<path d="M134.452 104H3V72H134.452L145 88.0068L134.452 104Z" fill="#A5CC74"/>
<g filter="url(#filter4_d_292_1404)">
<path d="M12.3203 87.7807C12.3203 81.4875 15.5469 78.0208 20.5602 78.0208C22.0361 77.9058 23.5098 78.269 24.7633 79.0566C26.0168 79.8442 26.9834 81.0145 27.5201 82.3941L24.0268 84.2074C23.8585 83.4305 23.4148 82.7406 22.7777 82.2652C22.1405 81.7898 21.3529 81.5609 20.5602 81.6208C18.1869 81.6208 16.5602 83.2208 16.5602 86.1541V89.1407C16.5602 92.074 18.1336 93.6739 20.5602 93.6739C21.3961 93.68 22.2111 93.4122 22.8804 92.9114C23.5498 92.4106 24.0367 91.7043 24.2668 90.9007L27.5734 92.8206C26.9981 94.1896 26.018 95.3499 24.7644 96.1459C23.5108 96.9419 22.0438 97.3355 20.5602 97.2739C15.5469 97.2739 12.3203 94.0739 12.3203 87.7807Z" fill="white"/>
</g>
<path d="M112.282 68H3V36H112.282L123 52.0068L112.282 68Z" fill="#52B153"/>
<g filter="url(#filter5_d_292_1404)">
<path d="M12.8262 43.0186H21.866C22.5137 42.9596 23.1665 43.0414 23.7795 43.2585C24.3926 43.4756 24.9514 43.8229 25.4175 44.2764C25.8837 44.7299 26.2462 45.2789 26.4801 45.8857C26.714 46.4925 26.8138 47.1428 26.7726 47.7919C26.7726 50.6452 25.1993 51.7118 23.306 51.7918V51.9518C23.8746 51.9415 24.4392 52.0491 24.9642 52.2677C25.4892 52.4863 25.9633 52.8112 26.3566 53.222C26.7498 53.6328 27.0538 54.1206 27.2493 54.6547C27.4448 55.1887 27.5277 55.7574 27.4926 56.3251C27.5358 56.9922 27.4452 57.6613 27.226 58.2929C27.0068 58.9245 26.6634 59.5059 26.2162 60.0029C25.7689 60.4998 25.2268 60.9023 24.6217 61.1866C24.0166 61.4709 23.3607 61.6313 22.6927 61.6583H12.8262V43.0186ZM16.8261 50.6452H20.826C21.0553 50.6656 21.2862 50.6354 21.5026 50.5569C21.7189 50.4783 21.9153 50.3533 22.0781 50.1905C22.2408 50.0278 22.3659 49.8313 22.4444 49.615C22.523 49.3987 22.5531 49.1678 22.5327 48.9385V48.1385C22.5531 47.9093 22.523 47.6784 22.4444 47.462C22.3659 47.2457 22.2408 47.0492 22.0781 46.8865C21.9153 46.7238 21.7189 46.5987 21.5026 46.5202C21.2862 46.4416 21.0553 46.4115 20.826 46.4319H16.8261V50.6452ZM16.8261 58.2184H21.4927C21.7216 58.2424 21.9531 58.2159 22.1706 58.1407C22.3882 58.0656 22.5866 57.9436 22.7519 57.7834C22.9172 57.6232 23.0453 57.4287 23.1272 57.2136C23.2092 56.9984 23.2429 56.768 23.226 56.5384V55.6317C23.2429 55.4022 23.2092 55.1717 23.1272 54.9566C23.0453 54.7415 22.9172 54.5469 22.7519 54.3867C22.5866 54.2265 22.3882 54.1046 22.1706 54.0294C21.9531 53.9542 21.7216 53.9277 21.4927 53.9518H16.8261V58.2184Z" fill="white"/>
</g>
<path d="M64.3882 32H3V0H64.3882L75 15.9932L64.3882 32Z" fill="#00A06D"/>
<g filter="url(#filter6_d_292_1404)">
<path d="M24.0761 25.4934L22.7413 21.1078H16.5212L15.1864 25.4934H11.0752L17.2153 7H22.2341L28.2941 25.4934H24.0761ZM19.6713 10.6855H19.5378L17.4822 17.6865H21.7536L19.6713 10.6855Z" fill="white"/>
</g>
<defs>
<filter id="filter0_d_292_1404" x="7.41309" y="250" width="23.9463" height="27.264" filterUnits="userSpaceOnUse" color-interpolation-filters="sRGB">
<feFlood flood-opacity="0" result="BackgroundImageFix"/>
<feColorMatrix in="SourceAlpha" type="matrix" values="0 0 0 0 0 0 0 0 0 0 0 0 0 0 0 0 0 0 127 0" result="hardAlpha"/>
<feOffset dy="4"/>
<feGaussianBlur stdDeviation="2"/>
<feComposite in2="hardAlpha" operator="out"/>
<feColorMatrix type="matrix" values="0 0 0 0 0 0 0 0 0 0 0 0 0 0 0 0 0 0 0.25 0"/>
<feBlend mode="normal" in2="BackgroundImageFix" result="effect1_dropShadow_292_1404"/>
<feBlend mode="normal" in="SourceGraphic" in2="effect1_dropShadow_292_1404" result="shape"/>
</filter>
<filter id="filter1_d_292_1404" x="8" y="188" width="38" height="52.0133" filterUnits="userSpaceOnUse" color-interpolation-filters="sRGB">
<feFlood flood-opacity="0" result="BackgroundImageFix"/>
<feColorMatrix in="SourceAlpha" type="matrix" values="0 0 0 0 0 0 0 0 0 0 0 0 0 0 0 0 0 0 127 0" result="hardAlpha"/>
<feOffset dy="4"/>
<feGaussianBlur stdDeviation="2"/>
<feComposite in2="hardAlpha" operator="out"/>
<feColorMatrix type="matrix" values="0 0 0 0 0 0 0 0 0 0 0 0 0 0 0 0 0 0 0.25 0"/>
<feBlend mode="normal" in2="BackgroundImageFix" result="effect1_dropShadow_292_1404"/>
<feBlend mode="normal" in="SourceGraphic" in2="effect1_dropShadow_292_1404" result="shape"/>
</filter>
<filter id="filter2_d_292_1404" x="9.62695" y="151" width="20.666" height="26.6664" filterUnits="userSpaceOnUse" color-interpolation-filters="sRGB">
<feFlood flood-opacity="0" result="BackgroundImageFix"/>
<feColorMatrix in="SourceAlpha" type="matrix" values="0 0 0 0 0 0 0 0 0 0 0 0 0 0 0 0 0 0 127 0" result="hardAlpha"/>
<feOffset dy="4"/>
<feGaussianBlur stdDeviation="2"/>
<feComposite in2="hardAlpha" operator="out"/>
<feColorMatrix type="matrix" values="0 0 0 0 0 0 0 0 0 0 0 0 0 0 0 0 0 0 0.25 0"/>
<feBlend mode="normal" in2="BackgroundImageFix" result="effect1_dropShadow_292_1404"/>
<feBlend mode="normal" in="SourceGraphic" in2="effect1_dropShadow_292_1404" result="shape"/>
</filter>
<filter id="filter3_d_292_1404" x="8.42676" y="115" width="23.2002" height="26.6664" filterUnits="userSpaceOnUse" color-interpolation-filters="sRGB">
<feFlood flood-opacity="0" result="BackgroundImageFix"/>
<feColorMatrix in="SourceAlpha" type="matrix" values="0 0 0 0 0 0 0 0 0 0 0 0 0 0 0 0 0 0 127 0" result="hardAlpha"/>
<feOffset dy="4"/>
<feGaussianBlur stdDeviation="2"/>
<feComposite in2="hardAlpha" operator="out"/>
<feColorMatrix type="matrix" values="0 0 0 0 0 0 0 0 0 0 0 0 0 0 0 0 0 0 0.25 0"/>
<feBlend mode="normal" in2="BackgroundImageFix" result="effect1_dropShadow_292_1404"/>
<feBlend mode="normal" in="SourceGraphic" in2="effect1_dropShadow_292_1404" result="shape"/>
</filter>
<filter id="filter4_d_292_1404" x="8.32031" y="78" width="23.2529" height="27.2802" filterUnits="userSpaceOnUse" color-interpolation-filters="sRGB">
<feFlood flood-opacity="0" result="BackgroundImageFix"/>
<feColorMatrix in="SourceAlpha" type="matrix" values="0 0 0 0 0 0 0 0 0 0 0 0 0 0 0 0 0 0 127 0" result="hardAlpha"/>
<feOffset dy="4"/>
<feGaussianBlur stdDeviation="2"/>
<feComposite in2="hardAlpha" operator="out"/>
<feColorMatrix type="matrix" values="0 0 0 0 0 0 0 0 0 0 0 0 0 0 0 0 0 0 0.25 0"/>
<feBlend mode="normal" in2="BackgroundImageFix" result="effect1_dropShadow_292_1404"/>
<feBlend mode="normal" in="SourceGraphic" in2="effect1_dropShadow_292_1404" result="shape"/>
</filter>
<filter id="filter5_d_292_1404" x="0.826172" y="35" width="38.6768" height="42.6583" filterUnits="userSpaceOnUse" color-interpolation-filters="sRGB">
<feFlood flood-opacity="0" result="BackgroundImageFix"/>
<feColorMatrix in="SourceAlpha" type="matrix" values="0 0 0 0 0 0 0 0 0 0 0 0 0 0 0 0 0 0 127 0" result="hardAlpha"/>
<feOffset dy="4"/>
<feGaussianBlur stdDeviation="6"/>
<feColorMatrix type="matrix" values="0 0 0 0 0 0 0 0 0 0 0 0 0 0 0.0705882 0 0 0 0.48 0"/>
<feBlend mode="normal" in2="BackgroundImageFix" result="effect1_dropShadow_292_1404"/>
<feBlend mode="normal" in="SourceGraphic" in2="effect1_dropShadow_292_1404" result="shape"/>
</filter>
<filter id="filter6_d_292_1404" x="7.0752" y="7" width="25.2188" height="26.4934" filterUnits="userSpaceOnUse" color-interpolation-filters="sRGB">
<feFlood flood-opacity="0" result="BackgroundImageFix"/>
<feColorMatrix in="SourceAlpha" type="matrix" values="0 0 0 0 0 0 0 0 0 0 0 0 0 0 0 0 0 0 127 0" result="hardAlpha"/>
<feOffset dy="4"/>
<feGaussianBlur stdDeviation="2"/>
<feComposite in2="hardAlpha" operator="out"/>
<feColorMatrix type="matrix" values="0 0 0 0 0 0 0 0 0 0 0 0 0 0 0 0 0 0 0.25 0"/>
<feBlend mode="normal" in2="BackgroundImageFix" result="effect1_dropShadow_292_1404"/>
<feBlend mode="normal" in="SourceGraphic" in2="effect1_dropShadow_292_1404" result="shape"/>
</filter>
</defs>
</svg>
