<svg width="238" height="278" viewBox="0 0 238 278" fill="none" xmlns="http://www.w3.org/2000/svg">
<path d="M227.526 276H4V244H227.526L238 259.993L227.526 276Z" fill="#D7221F"/>
<g filter="url(#filter0_d_292_1308)">
<path d="M24.9462 265.984H24.8129C24.5462 267.851 22.8396 269.264 20.0396 269.264C15.773 269.264 12.4131 265.957 12.4131 259.718C12.4131 253.478 15.7997 250.011 20.8396 250.011C22.3304 249.93 23.8113 250.298 25.0902 251.068C26.3692 251.839 27.3874 252.975 28.0129 254.331L24.7062 256.224C24.4458 255.416 23.9255 254.716 23.2262 254.234C22.5269 253.751 21.6879 253.514 20.8396 253.558C18.333 253.558 16.7064 254.998 16.7064 258.091V261.078C16.7064 264.171 18.333 265.611 20.8396 265.611C22.8663 265.611 24.4929 264.651 24.4929 262.838V261.904H21.0263V258.518H28.3595V269.011H24.9462V265.984Z" fill="white"/>
</g>
<path d="M203.67 240H4V208H203.67L214 224L203.67 240Z" fill="#EB8235"/>
<g filter="url(#filter1_d_292_1308)">
<path d="M14.9199 233.586V215H27.2664V218.6H19.0265V222.413H26.0931V225.987H19.0265V233.613L14.9199 233.586Z" fill="white"/>
</g>
<path d="M179.683 204H4V172H179.683L190 188.007L179.683 204Z" fill="#F0B40F"/>
<g filter="url(#filter2_d_292_1308)">
<path d="M14.627 197.666V179H27.2934V182.6H18.6802V186.413H26.0668V189.986H18.6802V193.986H27.2934V197.586L14.627 197.666Z" fill="white"/>
</g>
<path d="M157.595 168H4V136H157.595L168 152.007L157.595 168Z" fill="#F4E70F"/>
<g filter="url(#filter3_d_292_1308)">
<path d="M13.4268 143H20.44C25.3732 143 28.6265 146.12 28.6265 152.333C28.6265 158.546 25.3732 161.666 20.44 161.666H13.4268V143ZM20.44 158.066C22.8399 158.066 24.3333 156.733 24.3333 153.8V150.867C24.3333 147.907 22.8399 146.6 20.44 146.6H17.48V158.066H20.44Z" fill="white"/>
</g>
<path d="M135.452 132H4V100H135.452L146 116.007L135.452 132Z" fill="#A5CC74"/>
<g filter="url(#filter4_d_292_1308)">
<path d="M13.3203 115.781C13.3203 109.487 16.5469 106.021 21.5602 106.021C23.0361 105.906 24.5098 106.269 25.7633 107.057C27.0168 107.844 27.9834 109.014 28.5201 110.394L25.0268 112.207C24.8585 111.43 24.4148 110.741 23.7777 110.265C23.1405 109.79 22.3529 109.561 21.5602 109.621C19.1869 109.621 17.5602 111.221 17.5602 114.154V117.141C17.5602 120.074 19.1336 121.674 21.5602 121.674C22.3961 121.68 23.2111 121.412 23.8804 120.911C24.5498 120.411 25.0367 119.704 25.2668 118.901L28.5734 120.821C27.9981 122.19 27.018 123.35 25.7644 124.146C24.5108 124.942 23.0438 125.335 21.5602 125.274C16.5469 125.274 13.3203 122.074 13.3203 115.781Z" fill="white"/>
</g>
<path d="M91.042 37L110.79 66.0059L91.042 95H5V37H91.042Z" fill="#52B153" stroke="#1D1D1B" stroke-width="2"/>
<g filter="url(#filter5_d_292_1308)">
<path d="M14 46.0399H33.0936C34.4616 45.9133 35.8404 46.0888 37.1352 46.5543C38.43 47.0197 39.6103 47.7641 40.5949 48.7363C41.5795 49.7085 42.3451 50.8855 42.8392 52.1864C43.3333 53.4874 43.544 54.8814 43.4571 56.2729C43.4571 62.3898 40.134 64.6765 36.1351 64.848V65.191C37.3361 65.169 38.5286 65.3995 39.6375 65.8682C40.7464 66.3369 41.7477 67.0335 42.5783 67.9142C43.409 68.7949 44.051 69.8406 44.464 70.9855C44.8769 72.1303 45.0519 73.3496 44.9778 74.5665C45.0691 75.9968 44.8776 77.4312 44.4146 78.7852C43.9516 80.1393 43.2264 81.3856 42.2818 82.451C41.3371 83.5164 40.1921 84.3792 38.914 84.9886C37.6359 85.5981 36.2506 85.942 34.8396 86H14V46.0399ZM22.4485 62.3898H30.897C31.3812 62.4336 31.869 62.369 32.3259 62.2006C32.7828 62.0322 33.1977 61.7641 33.5415 61.4152C33.8852 61.0663 34.1493 60.6451 34.3153 60.1814C34.4812 59.7176 34.5448 59.2225 34.5017 58.7311V57.0161C34.5448 56.5246 34.4812 56.0295 34.3153 55.5658C34.1493 55.102 33.8852 54.6808 33.5415 54.3319C33.1977 53.9831 32.7828 53.715 32.3259 53.5466C31.869 53.3782 31.3812 53.3136 30.897 53.3573H22.4485V62.3898ZM22.4485 78.6254H32.3051C32.7886 78.6769 33.2774 78.6201 33.7369 78.459C34.1965 78.2978 34.6156 78.0363 34.9647 77.6929C35.3138 77.3494 35.5845 76.9324 35.7575 76.4712C35.9305 76.0101 36.0017 75.516 35.9661 75.0238V73.0801C36.0017 72.588 35.9305 72.0939 35.7575 71.6327C35.5845 71.1716 35.3138 70.7545 34.9647 70.4111C34.6156 70.0676 34.1965 69.8061 33.7369 69.645C33.2774 69.4839 32.7886 69.4271 32.3051 69.4786H22.4485V78.6254Z" fill="white"/>
<path d="M33.0508 45.04C34.5486 44.9087 36.0568 45.104 37.4736 45.6133C38.9059 46.1281 40.2105 46.9508 41.2979 48.0244C42.3851 49.098 43.2297 50.3969 43.7744 51.8311C44.3158 53.2567 44.5474 54.7836 44.4561 56.3076C44.4498 59.5281 43.5684 61.8999 42.0098 63.4902C41.4105 64.1017 40.73 64.576 39.9971 64.9355C40.0068 64.9396 40.0167 64.9432 40.0264 64.9473C41.2638 65.4703 42.3804 66.2475 43.3057 67.2285C44.2309 68.2095 44.9451 69.3734 45.4043 70.6465C45.856 71.899 46.0497 73.2309 45.9775 74.5615C46.0683 76.1033 45.8596 77.6483 45.3604 79.1084C44.8548 80.587 44.0631 81.9494 43.0303 83.1143C41.9973 84.2792 40.7443 85.2241 39.3447 85.8916C37.9451 86.5591 36.4271 86.9354 34.8809 86.999L34.8604 87H13V45.04H33.0508ZM32.4111 70.4727L32.3584 70.4785H23.4482V77.625H32.3584L32.4111 77.6309C32.7469 77.6666 33.0866 77.6277 33.4062 77.5156C33.726 77.4035 34.0189 77.2212 34.2637 76.9805C34.5085 76.7397 34.6991 76.4459 34.8213 76.1201C34.9435 75.7943 34.994 75.4442 34.9688 75.0957L34.9658 75.0596V73.0439L34.9688 73.0078C34.9939 72.6595 34.9434 72.3101 34.8213 71.9844C34.6991 71.6586 34.5084 71.3648 34.2637 71.124C34.019 70.8833 33.7259 70.701 33.4062 70.5889C33.0866 70.4768 32.7469 70.4369 32.4111 70.4727ZM30.9873 54.3535L30.9424 54.3574H23.4482V61.3896H30.9424L30.9873 61.3936C31.3234 61.4239 31.6626 61.3798 31.9805 61.2627C32.2984 61.1455 32.5881 60.9575 32.8291 60.7129C33.0701 60.4682 33.2568 60.1723 33.374 59.8447C33.4913 59.517 33.5364 59.1664 33.5059 58.8184L33.502 58.7744V56.9727L33.5059 56.9287C33.5364 56.5807 33.4913 56.2301 33.374 55.9023C33.2568 55.5748 33.0701 55.2789 32.8291 55.0342C32.5882 54.7896 32.2983 54.6026 31.9805 54.4854C31.6626 54.3682 31.3234 54.3232 30.9873 54.3535Z" stroke="#1D1D1B" stroke-width="2"/>
</g>
<path d="M65.3882 32H4V0H65.3882L76 15.9932L65.3882 32Z" fill="#00A06D"/>
<g filter="url(#filter6_d_292_1308)">
<path d="M25.0761 25.4934L23.7413 21.1078H17.5212L16.1864 25.4934H12.0752L18.2153 7H23.2341L29.2941 25.4934H25.0761ZM20.6713 10.6855H20.5378L18.4822 17.6865H22.7536L20.6713 10.6855Z" fill="white"/>
</g>
<defs>
<filter id="filter0_d_292_1308" x="8.41309" y="250" width="23.9463" height="27.264" filterUnits="userSpaceOnUse" color-interpolation-filters="sRGB">
<feFlood flood-opacity="0" result="BackgroundImageFix"/>
<feColorMatrix in="SourceAlpha" type="matrix" values="0 0 0 0 0 0 0 0 0 0 0 0 0 0 0 0 0 0 127 0" result="hardAlpha"/>
<feOffset dy="4"/>
<feGaussianBlur stdDeviation="2"/>
<feComposite in2="hardAlpha" operator="out"/>
<feColorMatrix type="matrix" values="0 0 0 0 0 0 0 0 0 0 0 0 0 0 0 0 0 0 0.25 0"/>
<feBlend mode="normal" in2="BackgroundImageFix" result="effect1_dropShadow_292_1308"/>
<feBlend mode="normal" in="SourceGraphic" in2="effect1_dropShadow_292_1308" result="shape"/>
</filter>
<filter id="filter1_d_292_1308" x="10.9199" y="215" width="20.3467" height="26.613" filterUnits="userSpaceOnUse" color-interpolation-filters="sRGB">
<feFlood flood-opacity="0" result="BackgroundImageFix"/>
<feColorMatrix in="SourceAlpha" type="matrix" values="0 0 0 0 0 0 0 0 0 0 0 0 0 0 0 0 0 0 127 0" result="hardAlpha"/>
<feOffset dy="4"/>
<feGaussianBlur stdDeviation="2"/>
<feComposite in2="hardAlpha" operator="out"/>
<feColorMatrix type="matrix" values="0 0 0 0 0 0 0 0 0 0 0 0 0 0 0 0 0 0 0.25 0"/>
<feBlend mode="normal" in2="BackgroundImageFix" result="effect1_dropShadow_292_1308"/>
<feBlend mode="normal" in="SourceGraphic" in2="effect1_dropShadow_292_1308" result="shape"/>
</filter>
<filter id="filter2_d_292_1308" x="10.627" y="179" width="20.666" height="26.6664" filterUnits="userSpaceOnUse" color-interpolation-filters="sRGB">
<feFlood flood-opacity="0" result="BackgroundImageFix"/>
<feColorMatrix in="SourceAlpha" type="matrix" values="0 0 0 0 0 0 0 0 0 0 0 0 0 0 0 0 0 0 127 0" result="hardAlpha"/>
<feOffset dy="4"/>
<feGaussianBlur stdDeviation="2"/>
<feComposite in2="hardAlpha" operator="out"/>
<feColorMatrix type="matrix" values="0 0 0 0 0 0 0 0 0 0 0 0 0 0 0 0 0 0 0.25 0"/>
<feBlend mode="normal" in2="BackgroundImageFix" result="effect1_dropShadow_292_1308"/>
<feBlend mode="normal" in="SourceGraphic" in2="effect1_dropShadow_292_1308" result="shape"/>
</filter>
<filter id="filter3_d_292_1308" x="9.42676" y="143" width="23.2002" height="26.6664" filterUnits="userSpaceOnUse" color-interpolation-filters="sRGB">
<feFlood flood-opacity="0" result="BackgroundImageFix"/>
<feColorMatrix in="SourceAlpha" type="matrix" values="0 0 0 0 0 0 0 0 0 0 0 0 0 0 0 0 0 0 127 0" result="hardAlpha"/>
<feOffset dy="4"/>
<feGaussianBlur stdDeviation="2"/>
<feComposite in2="hardAlpha" operator="out"/>
<feColorMatrix type="matrix" values="0 0 0 0 0 0 0 0 0 0 0 0 0 0 0 0 0 0 0.25 0"/>
<feBlend mode="normal" in2="BackgroundImageFix" result="effect1_dropShadow_292_1308"/>
<feBlend mode="normal" in="SourceGraphic" in2="effect1_dropShadow_292_1308" result="shape"/>
</filter>
<filter id="filter4_d_292_1308" x="9.32031" y="106" width="23.2529" height="27.2802" filterUnits="userSpaceOnUse" color-interpolation-filters="sRGB">
<feFlood flood-opacity="0" result="BackgroundImageFix"/>
<feColorMatrix in="SourceAlpha" type="matrix" values="0 0 0 0 0 0 0 0 0 0 0 0 0 0 0 0 0 0 127 0" result="hardAlpha"/>
<feOffset dy="4"/>
<feGaussianBlur stdDeviation="2"/>
<feComposite in2="hardAlpha" operator="out"/>
<feColorMatrix type="matrix" values="0 0 0 0 0 0 0 0 0 0 0 0 0 0 0 0 0 0 0.25 0"/>
<feBlend mode="normal" in2="BackgroundImageFix" result="effect1_dropShadow_292_1308"/>
<feBlend mode="normal" in="SourceGraphic" in2="effect1_dropShadow_292_1308" result="shape"/>
</filter>
<filter id="filter5_d_292_1308" x="0" y="36" width="59" height="68" filterUnits="userSpaceOnUse" color-interpolation-filters="sRGB">
<feFlood flood-opacity="0" result="BackgroundImageFix"/>
<feColorMatrix in="SourceAlpha" type="matrix" values="0 0 0 0 0 0 0 0 0 0 0 0 0 0 0 0 0 0 127 0" result="hardAlpha"/>
<feOffset dy="4"/>
<feGaussianBlur stdDeviation="6"/>
<feColorMatrix type="matrix" values="0 0 0 0 0 0 0 0 0 0 0 0 0 0 0.0705882 0 0 0 0.48 0"/>
<feBlend mode="normal" in2="BackgroundImageFix" result="effect1_dropShadow_292_1308"/>
<feBlend mode="normal" in="SourceGraphic" in2="effect1_dropShadow_292_1308" result="shape"/>
</filter>
<filter id="filter6_d_292_1308" x="8.0752" y="7" width="25.2188" height="26.4934" filterUnits="userSpaceOnUse" color-interpolation-filters="sRGB">
<feFlood flood-opacity="0" result="BackgroundImageFix"/>
<feColorMatrix in="SourceAlpha" type="matrix" values="0 0 0 0 0 0 0 0 0 0 0 0 0 0 0 0 0 0 127 0" result="hardAlpha"/>
<feOffset dy="4"/>
<feGaussianBlur stdDeviation="2"/>
<feComposite in2="hardAlpha" operator="out"/>
<feColorMatrix type="matrix" values="0 0 0 0 0 0 0 0 0 0 0 0 0 0 0 0 0 0 0.25 0"/>
<feBlend mode="normal" in2="BackgroundImageFix" result="effect1_dropShadow_292_1308"/>
<feBlend mode="normal" in="SourceGraphic" in2="effect1_dropShadow_292_1308" result="shape"/>
</filter>
</defs>
</svg>
