<svg width="237" height="278" viewBox="0 0 237 278" fill="none" xmlns="http://www.w3.org/2000/svg">
<path d="M226.526 276H3V244H226.526L237 259.993L226.526 276Z" fill="#D7221F"/>
<g filter="url(#filter0_d_292_1333)">
<path d="M23.9462 265.984H23.8129C23.5462 267.851 21.8396 269.264 19.0396 269.264C14.773 269.264 11.4131 265.957 11.4131 259.718C11.4131 253.478 14.7997 250.011 19.8396 250.011C21.3304 249.93 22.8113 250.298 24.0902 251.068C25.3692 251.839 26.3874 252.975 27.0129 254.331L23.7062 256.224C23.4458 255.416 22.9255 254.716 22.2262 254.234C21.5269 253.751 20.6879 253.514 19.8396 253.558C17.333 253.558 15.7064 254.998 15.7064 258.091V261.078C15.7064 264.171 17.333 265.611 19.8396 265.611C21.8663 265.611 23.4929 264.651 23.4929 262.838V261.904H20.0263V258.518H27.3595V269.011H23.9462V265.984Z" fill="white"/>
</g>
<path d="M202.67 240H3V208H202.67L213 224L202.67 240Z" fill="#EB8235"/>
<g filter="url(#filter1_d_292_1333)">
<path d="M13.9199 233.586V215H26.2664V218.6H18.0265V222.413H25.0931V225.987H18.0265V233.613L13.9199 233.586Z" fill="white"/>
</g>
<path d="M178.683 204H3V172H178.683L189 188.007L178.683 204Z" fill="#F0B40F"/>
<g filter="url(#filter2_d_292_1333)">
<path d="M13.627 197.666V179H26.2934V182.6H17.6802V186.413H25.0668V189.986H17.6802V193.986H26.2934V197.586L13.627 197.666Z" fill="white"/>
</g>
<path d="M156.595 168H3V136H156.595L167 152.007L156.595 168Z" fill="#F4E70F"/>
<g filter="url(#filter3_d_292_1333)">
<path d="M12.4268 143H19.44C24.3732 143 27.6265 146.12 27.6265 152.333C27.6265 158.546 24.3732 161.666 19.44 161.666H12.4268V143ZM19.44 158.066C21.8399 158.066 23.3333 156.733 23.3333 153.8V150.867C23.3333 147.907 21.8399 146.6 19.44 146.6H16.48V158.066H19.44Z" fill="white"/>
</g>
<path d="M113.174 73L132.792 102L113.174 131H4V73H113.174Z" fill="#A5CC74" stroke="#1D1D1B" stroke-width="2"/>
<g filter="url(#filter4_d_292_1333)">
<path d="M12 102.292C12 89.2353 18.7692 82.0433 29.2867 82.0433C32.3831 81.8046 35.4748 82.558 38.1045 84.1921C40.7342 85.8262 42.7621 88.254 43.8881 91.1164L36.5594 94.8784C36.2063 93.2665 35.2755 91.8353 33.9388 90.849C32.6021 89.8627 30.9498 89.3878 29.2867 89.512C24.3077 89.512 20.8951 92.8314 20.8951 98.917V105.113C20.8951 111.199 24.1958 114.518 29.2867 114.518C31.0405 114.531 32.7502 113.975 34.1544 112.936C35.5587 111.897 36.5802 110.432 37.0629 108.765L44 112.748C42.7931 115.588 40.7368 117.995 38.1069 119.647C35.477 121.298 32.3993 122.115 29.2867 121.987C18.7692 121.987 12 115.348 12 102.292Z" fill="white"/>
<path d="M29.2549 81.0439C32.5476 80.7997 35.8345 81.604 38.6328 83.3428C41.4437 85.0895 43.6131 87.6863 44.8184 90.75L45.1504 91.5928L44.3447 92.0059L37.0156 95.7676L35.8604 96.3613L35.583 95.0928C35.2821 93.7194 34.4878 92.4968 33.3447 91.6533C32.2728 90.8625 30.9621 90.4552 29.6279 90.4951L29.3613 90.5088L29.3242 90.5117H29.2871C27.027 90.5117 25.2124 91.2591 23.957 92.6123C22.6948 93.973 21.8955 96.0576 21.8955 98.917V105.113C21.8955 107.981 22.6713 110.064 23.918 111.421C25.1556 112.768 26.9661 113.519 29.2871 113.519H29.2939L29.582 113.515C31.0184 113.467 32.4071 112.985 33.5596 112.132C34.7887 111.222 35.6812 109.942 36.1025 108.486L36.4561 107.264L37.5605 107.897L44.498 111.881L45.2676 112.322L44.9199 113.139C43.6326 116.168 41.4403 118.734 38.6387 120.493C35.8487 122.245 32.5869 123.113 29.2871 122.986V122.987C23.8125 122.987 19.1972 121.253 15.9609 117.71C12.7357 114.179 11 108.984 11 102.292C11 95.6001 12.7352 90.2764 15.9473 86.6123C19.1674 82.9391 23.7701 81.0512 29.2549 81.0439Z" stroke="#1D1D1B" stroke-width="2"/>
</g>
<path d="M112.282 68H3V36H112.282L123 52.0068L112.282 68Z" fill="#52B153"/>
<g filter="url(#filter5_d_292_1333)">
<path d="M12.8262 43.0186H21.866C22.5137 42.9596 23.1665 43.0414 23.7795 43.2585C24.3926 43.4756 24.9514 43.8229 25.4175 44.2764C25.8837 44.7299 26.2462 45.2789 26.4801 45.8857C26.714 46.4925 26.8138 47.1428 26.7726 47.7919C26.7726 50.6452 25.1993 51.7118 23.306 51.7918V51.9518C23.8746 51.9415 24.4392 52.0491 24.9642 52.2677C25.4892 52.4863 25.9633 52.8112 26.3566 53.222C26.7498 53.6328 27.0538 54.1206 27.2493 54.6547C27.4448 55.1887 27.5277 55.7574 27.4926 56.3251C27.5358 56.9922 27.4452 57.6613 27.226 58.2929C27.0068 58.9245 26.6634 59.5059 26.2162 60.0029C25.7689 60.4998 25.2268 60.9023 24.6217 61.1866C24.0166 61.4709 23.3607 61.6313 22.6927 61.6583H12.8262V43.0186ZM16.8261 50.6452H20.826C21.0553 50.6656 21.2862 50.6354 21.5026 50.5569C21.7189 50.4783 21.9153 50.3533 22.0781 50.1905C22.2408 50.0278 22.3659 49.8313 22.4444 49.615C22.523 49.3987 22.5531 49.1678 22.5327 48.9385V48.1385C22.5531 47.9093 22.523 47.6784 22.4444 47.462C22.3659 47.2457 22.2408 47.0492 22.0781 46.8865C21.9153 46.7238 21.7189 46.5987 21.5026 46.5202C21.2862 46.4416 21.0553 46.4115 20.826 46.4319H16.8261V50.6452ZM16.8261 58.2184H21.4927C21.7216 58.2424 21.9531 58.2159 22.1706 58.1407C22.3882 58.0656 22.5866 57.9436 22.7519 57.7834C22.9172 57.6232 23.0453 57.4287 23.1272 57.2136C23.2092 56.9984 23.2429 56.768 23.226 56.5384V55.6317C23.2429 55.4022 23.2092 55.1717 23.1272 54.9566C23.0453 54.7415 22.9172 54.5469 22.7519 54.3867C22.5866 54.2265 22.3882 54.1046 22.1706 54.0294C21.9531 53.9542 21.7216 53.9277 21.4927 53.9518H16.8261V58.2184Z" fill="white"/>
</g>
<path d="M64.3882 32H3V0H64.3882L75 15.9932L64.3882 32Z" fill="#00A06D"/>
<g filter="url(#filter6_d_292_1333)">
<path d="M24.0761 25.4934L22.7413 21.1078H16.5212L15.1864 25.4934H11.0752L17.2153 7H22.2341L28.2941 25.4934H24.0761ZM19.6713 10.6855H19.5378L17.4822 17.6865H21.7536L19.6713 10.6855Z" fill="white"/>
</g>
<defs>
<filter id="filter0_d_292_1333" x="7.41309" y="250" width="23.9463" height="27.264" filterUnits="userSpaceOnUse" color-interpolation-filters="sRGB">
<feFlood flood-opacity="0" result="BackgroundImageFix"/>
<feColorMatrix in="SourceAlpha" type="matrix" values="0 0 0 0 0 0 0 0 0 0 0 0 0 0 0 0 0 0 127 0" result="hardAlpha"/>
<feOffset dy="4"/>
<feGaussianBlur stdDeviation="2"/>
<feComposite in2="hardAlpha" operator="out"/>
<feColorMatrix type="matrix" values="0 0 0 0 0 0 0 0 0 0 0 0 0 0 0 0 0 0 0.25 0"/>
<feBlend mode="normal" in2="BackgroundImageFix" result="effect1_dropShadow_292_1333"/>
<feBlend mode="normal" in="SourceGraphic" in2="effect1_dropShadow_292_1333" result="shape"/>
</filter>
<filter id="filter1_d_292_1333" x="9.91992" y="215" width="20.3467" height="26.613" filterUnits="userSpaceOnUse" color-interpolation-filters="sRGB">
<feFlood flood-opacity="0" result="BackgroundImageFix"/>
<feColorMatrix in="SourceAlpha" type="matrix" values="0 0 0 0 0 0 0 0 0 0 0 0 0 0 0 0 0 0 127 0" result="hardAlpha"/>
<feOffset dy="4"/>
<feGaussianBlur stdDeviation="2"/>
<feComposite in2="hardAlpha" operator="out"/>
<feColorMatrix type="matrix" values="0 0 0 0 0 0 0 0 0 0 0 0 0 0 0 0 0 0 0.25 0"/>
<feBlend mode="normal" in2="BackgroundImageFix" result="effect1_dropShadow_292_1333"/>
<feBlend mode="normal" in="SourceGraphic" in2="effect1_dropShadow_292_1333" result="shape"/>
</filter>
<filter id="filter2_d_292_1333" x="9.62695" y="179" width="20.666" height="26.6664" filterUnits="userSpaceOnUse" color-interpolation-filters="sRGB">
<feFlood flood-opacity="0" result="BackgroundImageFix"/>
<feColorMatrix in="SourceAlpha" type="matrix" values="0 0 0 0 0 0 0 0 0 0 0 0 0 0 0 0 0 0 127 0" result="hardAlpha"/>
<feOffset dy="4"/>
<feGaussianBlur stdDeviation="2"/>
<feComposite in2="hardAlpha" operator="out"/>
<feColorMatrix type="matrix" values="0 0 0 0 0 0 0 0 0 0 0 0 0 0 0 0 0 0 0.25 0"/>
<feBlend mode="normal" in2="BackgroundImageFix" result="effect1_dropShadow_292_1333"/>
<feBlend mode="normal" in="SourceGraphic" in2="effect1_dropShadow_292_1333" result="shape"/>
</filter>
<filter id="filter3_d_292_1333" x="8.42676" y="143" width="23.2002" height="26.6664" filterUnits="userSpaceOnUse" color-interpolation-filters="sRGB">
<feFlood flood-opacity="0" result="BackgroundImageFix"/>
<feColorMatrix in="SourceAlpha" type="matrix" values="0 0 0 0 0 0 0 0 0 0 0 0 0 0 0 0 0 0 127 0" result="hardAlpha"/>
<feOffset dy="4"/>
<feGaussianBlur stdDeviation="2"/>
<feComposite in2="hardAlpha" operator="out"/>
<feColorMatrix type="matrix" values="0 0 0 0 0 0 0 0 0 0 0 0 0 0 0 0 0 0 0.25 0"/>
<feBlend mode="normal" in2="BackgroundImageFix" result="effect1_dropShadow_292_1333"/>
<feBlend mode="normal" in="SourceGraphic" in2="effect1_dropShadow_292_1333" result="shape"/>
</filter>
<filter id="filter4_d_292_1333" x="6" y="80" width="44.5342" height="52" filterUnits="userSpaceOnUse" color-interpolation-filters="sRGB">
<feFlood flood-opacity="0" result="BackgroundImageFix"/>
<feColorMatrix in="SourceAlpha" type="matrix" values="0 0 0 0 0 0 0 0 0 0 0 0 0 0 0 0 0 0 127 0" result="hardAlpha"/>
<feOffset dy="4"/>
<feGaussianBlur stdDeviation="2"/>
<feComposite in2="hardAlpha" operator="out"/>
<feColorMatrix type="matrix" values="0 0 0 0 0 0 0 0 0 0 0 0 0 0 0 0 0 0 0.25 0"/>
<feBlend mode="normal" in2="BackgroundImageFix" result="effect1_dropShadow_292_1333"/>
<feBlend mode="normal" in="SourceGraphic" in2="effect1_dropShadow_292_1333" result="shape"/>
</filter>
<filter id="filter5_d_292_1333" x="0.826172" y="35" width="38.6768" height="42.6583" filterUnits="userSpaceOnUse" color-interpolation-filters="sRGB">
<feFlood flood-opacity="0" result="BackgroundImageFix"/>
<feColorMatrix in="SourceAlpha" type="matrix" values="0 0 0 0 0 0 0 0 0 0 0 0 0 0 0 0 0 0 127 0" result="hardAlpha"/>
<feOffset dy="4"/>
<feGaussianBlur stdDeviation="6"/>
<feColorMatrix type="matrix" values="0 0 0 0 0 0 0 0 0 0 0 0 0 0 0.0705882 0 0 0 0.48 0"/>
<feBlend mode="normal" in2="BackgroundImageFix" result="effect1_dropShadow_292_1333"/>
<feBlend mode="normal" in="SourceGraphic" in2="effect1_dropShadow_292_1333" result="shape"/>
</filter>
<filter id="filter6_d_292_1333" x="7.0752" y="7" width="25.2188" height="26.4934" filterUnits="userSpaceOnUse" color-interpolation-filters="sRGB">
<feFlood flood-opacity="0" result="BackgroundImageFix"/>
<feColorMatrix in="SourceAlpha" type="matrix" values="0 0 0 0 0 0 0 0 0 0 0 0 0 0 0 0 0 0 127 0" result="hardAlpha"/>
<feOffset dy="4"/>
<feGaussianBlur stdDeviation="2"/>
<feComposite in2="hardAlpha" operator="out"/>
<feColorMatrix type="matrix" values="0 0 0 0 0 0 0 0 0 0 0 0 0 0 0 0 0 0 0.25 0"/>
<feBlend mode="normal" in2="BackgroundImageFix" result="effect1_dropShadow_292_1333"/>
<feBlend mode="normal" in="SourceGraphic" in2="effect1_dropShadow_292_1333" result="shape"/>
</filter>
</defs>
</svg>
