<svg width="234" height="248" viewBox="0 0 234 248" fill="none" xmlns="http://www.w3.org/2000/svg">
    <path d="M223.526 248H0V216H223.526L234 231.993L223.526 248Z" fill="#D7221F" />
    <g filter="url(#filter0_d_292_1255)">
        <path
            d="M20.9462 237.984H20.8129C20.5462 239.851 18.8396 241.264 16.0396 241.264C11.773 241.264 8.41309 237.957 8.41309 231.718C8.41309 225.478 11.7997 222.011 16.8396 222.011C18.3304 221.93 19.8113 222.298 21.0902 223.068C22.3692 223.839 23.3874 224.975 24.0129 226.331L20.7062 228.224C20.4458 227.416 19.9255 226.716 19.2262 226.234C18.5269 225.751 17.6879 225.514 16.8396 225.558C14.333 225.558 12.7064 226.998 12.7064 230.091V233.078C12.7064 236.171 14.333 237.611 16.8396 237.611C18.8663 237.611 20.4929 236.651 20.4929 234.838V233.904H17.0263V230.518H24.3595V241.011H20.9462V237.984Z"
            fill="white" />
    </g>
    <path d="M199.67 212H0V180H199.67L210 196L199.67 212Z" fill="#EB8235" />
    <g filter="url(#filter1_d_292_1255)">
        <path
            d="M10.9199 205.586V187H23.2664V190.6H15.0265V194.413H22.0931V197.987H15.0265V205.613L10.9199 205.586Z"
            fill="white" />
    </g>
    <path d="M175.683 176H0V144H175.683L186 160.007L175.683 176Z" fill="#F0B40F" />
    <g filter="url(#filter2_d_292_1255)">
        <path
            d="M10.627 169.666V151H23.2934V154.6H14.6802V158.413H22.0668V161.986H14.6802V165.986H23.2934V169.586L10.627 169.666Z"
            fill="white" />
    </g>
    <path d="M153.595 140H0V108H153.595L164 124.007L153.595 140Z" fill="#F4E70F" />
    <g filter="url(#filter3_d_292_1255)">
        <path
            d="M9.42676 115H16.44C21.3732 115 24.6265 118.12 24.6265 124.333C24.6265 130.546 21.3732 133.666 16.44 133.666H9.42676V115ZM16.44 130.066C18.8399 130.066 20.3333 128.733 20.3333 125.8V122.867C20.3333 119.907 18.8399 118.6 16.44 118.6H13.48V130.066H16.44Z"
            fill="white" />
    </g>
    <path d="M131.452 104H0V72H131.452L142 88.0068L131.452 104Z" fill="#A5CC74" />
    <g filter="url(#filter4_d_292_1255)">
        <path
            d="M9.32031 87.7807C9.32031 81.4875 12.5469 78.0208 17.5602 78.0208C19.0361 77.9058 20.5098 78.269 21.7633 79.0566C23.0168 79.8442 23.9834 81.0145 24.5201 82.3941L21.0268 84.2074C20.8585 83.4305 20.4148 82.7406 19.7776 82.2652C19.1405 81.7898 18.3529 81.5609 17.5602 81.6208C15.1869 81.6208 13.5602 83.2208 13.5602 86.1541V89.1407C13.5602 92.074 15.1336 93.6739 17.5602 93.6739C18.3961 93.68 19.2111 93.4122 19.8804 92.9114C20.5498 92.4106 21.0367 91.7043 21.2668 90.9007L24.5734 92.8206C23.9981 94.1896 23.018 95.3499 21.7644 96.1459C20.5108 96.9419 19.0438 97.3355 17.5602 97.2739C12.5469 97.2739 9.32031 94.0739 9.32031 87.7807Z"
            fill="white" />
    </g>
    <path d="M109.282 68H0V36H109.282L120 52.0068L109.282 68Z" fill="#52B153" />
    <g filter="url(#filter5_d_292_1255)">
        <path
            d="M9.82617 43.0186H18.866C19.5137 42.9596 20.1665 43.0414 20.7795 43.2585C21.3926 43.4756 21.9514 43.8229 22.4175 44.2764C22.8837 44.7299 23.2462 45.2789 23.4801 45.8857C23.714 46.4925 23.8138 47.1428 23.7726 47.7919C23.7726 50.6452 22.1993 51.7118 20.306 51.7918V51.9518C20.8746 51.9415 21.4392 52.0491 21.9642 52.2677C22.4892 52.4863 22.9633 52.8112 23.3566 53.222C23.7498 53.6328 24.0538 54.1206 24.2493 54.6547C24.4448 55.1887 24.5277 55.7574 24.4926 56.3251C24.5358 56.9922 24.4452 57.6613 24.226 58.2929C24.0068 58.9245 23.6634 59.5059 23.2162 60.0029C22.7689 60.4998 22.2268 60.9023 21.6217 61.1866C21.0166 61.4709 20.3607 61.6313 19.6927 61.6583H9.82617V43.0186ZM13.8261 50.6452H17.826C18.0553 50.6656 18.2862 50.6354 18.5026 50.5569C18.7189 50.4783 18.9153 50.3533 19.0781 50.1905C19.2408 50.0278 19.3659 49.8313 19.4444 49.615C19.523 49.3987 19.5531 49.1678 19.5327 48.9385V48.1385C19.5531 47.9093 19.523 47.6784 19.4444 47.462C19.3659 47.2457 19.2408 47.0492 19.0781 46.8865C18.9153 46.7238 18.7189 46.5987 18.5026 46.5202C18.2862 46.4416 18.0553 46.4115 17.826 46.4319H13.8261V50.6452ZM13.8261 58.2184H18.4927C18.7216 58.2424 18.953 58.2159 19.1706 58.1407C19.3882 58.0656 19.5866 57.9436 19.7519 57.7834C19.9172 57.6232 20.0453 57.4287 20.1272 57.2136C20.2092 56.9984 20.2429 56.768 20.226 56.5384V55.6317C20.2429 55.4022 20.2092 55.1717 20.1272 54.9566C20.0453 54.7415 19.9172 54.5469 19.7519 54.3867C19.5866 54.2265 19.3882 54.1046 19.1706 54.0294C18.953 53.9542 18.7216 53.9277 18.4927 53.9518H13.8261V58.2184Z"
            fill="white" />
    </g>
    <path d="M61.3882 32H0V0H61.3882L72 15.9932L61.3882 32Z" fill="#00A06D" />
    <g filter="url(#filter6_d_292_1255)">
        <path
            d="M21.0761 25.4933L19.7413 21.1078H13.5212L12.1864 25.4933H8.0752L14.2153 6.99997H19.2341L25.2941 25.4933H21.0761ZM16.6713 10.6854H16.5378L14.4822 17.6865H18.7536L16.6713 10.6854Z"
            fill="white" />
    </g>
    <defs>
        <filter id="filter0_d_292_1255" x="4.41309" y="222" width="23.9463" height="27.2641"
            filterUnits="userSpaceOnUse" color-interpolation-filters="sRGB">
            <feFlood flood-opacity="0" result="BackgroundImageFix" />
            <feColorMatrix in="SourceAlpha" type="matrix"
                values="0 0 0 0 0 0 0 0 0 0 0 0 0 0 0 0 0 0 127 0" result="hardAlpha" />
            <feOffset dy="4" />
            <feGaussianBlur stdDeviation="2" />
            <feComposite in2="hardAlpha" operator="out" />
            <feColorMatrix type="matrix" values="0 0 0 0 0 0 0 0 0 0 0 0 0 0 0 0 0 0 0.25 0" />
            <feBlend mode="normal" in2="BackgroundImageFix" result="effect1_dropShadow_292_1255" />
            <feBlend mode="normal" in="SourceGraphic" in2="effect1_dropShadow_292_1255"
                result="shape" />
        </filter>
        <filter id="filter1_d_292_1255" x="6.91992" y="187" width="20.3467" height="26.6131"
            filterUnits="userSpaceOnUse" color-interpolation-filters="sRGB">
            <feFlood flood-opacity="0" result="BackgroundImageFix" />
            <feColorMatrix in="SourceAlpha" type="matrix"
                values="0 0 0 0 0 0 0 0 0 0 0 0 0 0 0 0 0 0 127 0" result="hardAlpha" />
            <feOffset dy="4" />
            <feGaussianBlur stdDeviation="2" />
            <feComposite in2="hardAlpha" operator="out" />
            <feColorMatrix type="matrix" values="0 0 0 0 0 0 0 0 0 0 0 0 0 0 0 0 0 0 0.25 0" />
            <feBlend mode="normal" in2="BackgroundImageFix" result="effect1_dropShadow_292_1255" />
            <feBlend mode="normal" in="SourceGraphic" in2="effect1_dropShadow_292_1255"
                result="shape" />
        </filter>
        <filter id="filter2_d_292_1255" x="6.62695" y="151" width="20.6665" height="26.6664"
            filterUnits="userSpaceOnUse" color-interpolation-filters="sRGB">
            <feFlood flood-opacity="0" result="BackgroundImageFix" />
            <feColorMatrix in="SourceAlpha" type="matrix"
                values="0 0 0 0 0 0 0 0 0 0 0 0 0 0 0 0 0 0 127 0" result="hardAlpha" />
            <feOffset dy="4" />
            <feGaussianBlur stdDeviation="2" />
            <feComposite in2="hardAlpha" operator="out" />
            <feColorMatrix type="matrix" values="0 0 0 0 0 0 0 0 0 0 0 0 0 0 0 0 0 0 0.25 0" />
            <feBlend mode="normal" in2="BackgroundImageFix" result="effect1_dropShadow_292_1255" />
            <feBlend mode="normal" in="SourceGraphic" in2="effect1_dropShadow_292_1255"
                result="shape" />
        </filter>
        <filter id="filter3_d_292_1255" x="5.42676" y="115" width="23.1997" height="26.6664"
            filterUnits="userSpaceOnUse" color-interpolation-filters="sRGB">
            <feFlood flood-opacity="0" result="BackgroundImageFix" />
            <feColorMatrix in="SourceAlpha" type="matrix"
                values="0 0 0 0 0 0 0 0 0 0 0 0 0 0 0 0 0 0 127 0" result="hardAlpha" />
            <feOffset dy="4" />
            <feGaussianBlur stdDeviation="2" />
            <feComposite in2="hardAlpha" operator="out" />
            <feColorMatrix type="matrix" values="0 0 0 0 0 0 0 0 0 0 0 0 0 0 0 0 0 0 0.25 0" />
            <feBlend mode="normal" in2="BackgroundImageFix" result="effect1_dropShadow_292_1255" />
            <feBlend mode="normal" in="SourceGraphic" in2="effect1_dropShadow_292_1255"
                result="shape" />
        </filter>
        <filter id="filter4_d_292_1255" x="5.32031" y="78" width="23.2529" height="27.2802"
            filterUnits="userSpaceOnUse" color-interpolation-filters="sRGB">
            <feFlood flood-opacity="0" result="BackgroundImageFix" />
            <feColorMatrix in="SourceAlpha" type="matrix"
                values="0 0 0 0 0 0 0 0 0 0 0 0 0 0 0 0 0 0 127 0" result="hardAlpha" />
            <feOffset dy="4" />
            <feGaussianBlur stdDeviation="2" />
            <feComposite in2="hardAlpha" operator="out" />
            <feColorMatrix type="matrix" values="0 0 0 0 0 0 0 0 0 0 0 0 0 0 0 0 0 0 0.25 0" />
            <feBlend mode="normal" in2="BackgroundImageFix" result="effect1_dropShadow_292_1255" />
            <feBlend mode="normal" in="SourceGraphic" in2="effect1_dropShadow_292_1255"
                result="shape" />
        </filter>
        <filter id="filter5_d_292_1255" x="-2.17383" y="35" width="38.6768" height="42.6583"
            filterUnits="userSpaceOnUse" color-interpolation-filters="sRGB">
            <feFlood flood-opacity="0" result="BackgroundImageFix" />
            <feColorMatrix in="SourceAlpha" type="matrix"
                values="0 0 0 0 0 0 0 0 0 0 0 0 0 0 0 0 0 0 127 0" result="hardAlpha" />
            <feOffset dy="4" />
            <feGaussianBlur stdDeviation="6" />
            <feColorMatrix type="matrix" values="0 0 0 0 0 0 0 0 0 0 0 0 0 0 0.0705882 0 0 0 0.48 0" />
            <feBlend mode="normal" in2="BackgroundImageFix" result="effect1_dropShadow_292_1255" />
            <feBlend mode="normal" in="SourceGraphic" in2="effect1_dropShadow_292_1255"
                result="shape" />
        </filter>
        <filter id="filter6_d_292_1255" x="4.0752" y="6.99997" width="25.2188" height="26.4934"
            filterUnits="userSpaceOnUse" color-interpolation-filters="sRGB">
            <feFlood flood-opacity="0" result="BackgroundImageFix" />
            <feColorMatrix in="SourceAlpha" type="matrix"
                values="0 0 0 0 0 0 0 0 0 0 0 0 0 0 0 0 0 0 127 0" result="hardAlpha" />
            <feOffset dy="4" />
            <feGaussianBlur stdDeviation="2" />
            <feComposite in2="hardAlpha" operator="out" />
            <feColorMatrix type="matrix" values="0 0 0 0 0 0 0 0 0 0 0 0 0 0 0 0 0 0 0.25 0" />
            <feBlend mode="normal" in2="BackgroundImageFix" result="effect1_dropShadow_292_1255" />
            <feBlend mode="normal" in="SourceGraphic" in2="effect1_dropShadow_292_1255"
                result="shape" />
        </filter>
    </defs>
</svg>