<svg width="230" height="276" viewBox="0 0 230 276" fill="none" xmlns="http://www.w3.org/2000/svg">
<path d="M209.473 217L228.798 246.006L209.473 275H4V217H209.473Z" fill="#D7221F" stroke="#1D1D1B" stroke-width="2"/>
<path d="M182.48 271.92C187.515 271.916 192.436 270.419 196.62 267.619C200.804 264.819 204.064 260.842 205.988 256.189C207.912 251.536 208.413 246.418 207.428 241.48C206.444 236.543 204.017 232.008 200.456 228.45C196.894 224.891 192.358 222.468 187.419 221.488C182.481 220.507 177.363 221.012 172.712 222.94C168.061 224.868 164.086 228.131 161.289 232.317C158.493 236.504 157 241.425 157 246.46C157 249.805 157.659 253.118 158.94 256.208C160.221 259.298 162.098 262.106 164.464 264.47C166.831 266.835 169.64 268.71 172.731 269.988C175.822 271.266 179.135 271.923 182.48 271.92Z" fill="white" stroke="#1D1D1B" stroke-width="1.8933" stroke-miterlimit="10"/>
<path d="M174.804 255.874C174.649 255.875 174.495 255.84 174.354 255.772C174.243 255.716 174.143 255.638 174.062 255.543C173.981 255.448 173.919 255.337 173.881 255.218C173.843 255.099 173.829 254.974 173.84 254.849C173.851 254.725 173.887 254.604 173.945 254.493C174.892 253.064 176.179 251.892 177.689 251.081C179.2 250.27 180.888 249.845 182.602 249.845C184.317 249.845 186.005 250.27 187.515 251.081C189.026 251.892 190.312 253.064 191.259 254.493C191.318 254.604 191.353 254.725 191.364 254.849C191.375 254.974 191.361 255.099 191.323 255.218C191.285 255.337 191.223 255.448 191.142 255.543C191.061 255.638 190.962 255.716 190.85 255.772C190.622 255.876 190.364 255.893 190.124 255.82C189.885 255.746 189.681 255.587 189.55 255.373C188.771 254.252 187.732 253.336 186.522 252.704C185.312 252.072 183.967 251.741 182.602 251.741C181.237 251.741 179.892 252.072 178.682 252.704C177.472 253.336 176.433 254.252 175.654 255.373C175.572 255.526 175.449 255.654 175.299 255.742C175.149 255.831 174.978 255.876 174.804 255.874Z" fill="#E30613"/>
<path d="M176.442 243.533C176.74 243.539 177.03 243.633 177.275 243.803C177.52 243.973 177.709 244.212 177.819 244.489C177.929 244.766 177.955 245.07 177.893 245.362C177.831 245.653 177.684 245.92 177.471 246.129C177.258 246.338 176.988 246.479 176.695 246.535C176.403 246.591 176.1 246.559 175.825 246.444C175.55 246.328 175.315 246.134 175.15 245.886C174.985 245.638 174.897 245.346 174.897 245.048C174.902 244.643 175.067 244.256 175.357 243.972C175.646 243.688 176.036 243.531 176.442 243.533Z" fill="#E30613"/>
<path d="M188.783 243.533C189.082 243.539 189.371 243.633 189.616 243.803C189.861 243.973 190.051 244.212 190.161 244.489C190.27 244.766 190.296 245.07 190.234 245.362C190.172 245.653 190.026 245.92 189.813 246.129C189.6 246.338 189.33 246.479 189.037 246.535C188.744 246.591 188.441 246.559 188.166 246.444C187.891 246.328 187.657 246.134 187.491 245.886C187.326 245.638 187.238 245.346 187.238 245.048C187.239 244.847 187.281 244.648 187.359 244.463C187.438 244.278 187.552 244.11 187.696 243.969C187.839 243.828 188.009 243.717 188.196 243.643C188.383 243.568 188.582 243.531 188.783 243.533Z" fill="#E30613"/>
<path d="M169.504 248.148V245.938H164.828V244.843L161.932 247.043L164.828 249.243V248.148H169.504Z" fill="#E30613"/>
<path d="M169.504 253.961V251.761H164.828V250.666L161.932 252.866L164.828 255.066V253.961H169.504Z" fill="#E30613"/>
<path d="M195.445 248.148V245.938H200.122V244.843L203.018 247.043L200.122 249.243V248.148H195.445Z" fill="#E30613"/>
<path d="M195.445 253.961V251.761H200.122V250.666L203.018 252.866L200.122 255.066V253.961H195.445Z" fill="#E30613"/>
<path d="M184.455 258.545H186.707V263.109H187.832L185.581 265.944L183.33 263.109H184.455V258.545Z" fill="#E30613"/>
<path d="M178.499 258.545H180.75V263.109H181.876L179.625 265.944L177.373 263.109H178.499V258.545Z" fill="#E30613"/>
<path d="M188.057 234.518L186.46 232.963L189.766 229.729L188.978 228.951L192.621 228.501L192.16 232.062L191.362 231.284L188.057 234.518Z" fill="#E30613"/>
<path d="M192.273 238.632L190.676 237.076L193.982 233.843L193.194 233.075L196.826 232.625L196.366 236.176L195.578 235.398L192.273 238.632Z" fill="#E30613"/>
<path d="M173.976 237.076L172.38 238.632L169.075 235.408L168.287 236.176L167.826 232.625L171.459 233.075L170.671 233.843L173.976 237.076Z" fill="#E30613"/>
<path d="M178.192 232.963L176.596 234.518L173.29 231.284L172.492 232.062L172.032 228.501L175.675 228.951L174.887 229.729L178.192 232.963Z" fill="#E30613"/>
<path d="M174.498 233.229L172.656 235.03L173.628 235.971L175.47 234.17L174.498 233.229Z" fill="#E30613"/>
<path d="M183.912 260.039H181.303V261.38H183.912V260.039Z" fill="#E30613"/>
<path d="M198.802 248.681H197.431V251.229H198.802V248.681Z" fill="#E30613"/>
<path d="M191.198 235.807L192.171 234.866L190.329 233.065L189.357 234.006L191.198 235.807Z" fill="#E30613"/>
<path d="M193.573 238.12L197.431 241.896V245.406H198.792V241.61C198.791 241.433 198.721 241.264 198.597 241.139L194.504 237.179L193.573 238.12Z" fill="#E30613"/>
<path d="M177.833 231.857L182.5 227.304L186.992 231.694L187.954 230.742L182.981 225.881C182.851 225.757 182.679 225.688 182.5 225.688C182.321 225.688 182.148 225.757 182.019 225.881L176.902 230.916L177.833 231.857Z" fill="#E30613"/>
<path d="M197.43 254.503V260.039H187.259V261.38H198.116C198.204 261.381 198.292 261.365 198.374 261.332C198.456 261.299 198.53 261.251 198.593 261.189C198.656 261.127 198.706 261.053 198.74 260.972C198.774 260.89 198.791 260.803 198.791 260.715V254.503H197.43Z" fill="#E30613"/>
<path d="M177.947 260.039H167.57V254.503H166.209V260.715C166.211 260.803 166.23 260.891 166.265 260.972C166.3 261.054 166.351 261.128 166.414 261.189C166.478 261.251 166.553 261.3 166.636 261.332C166.718 261.365 166.806 261.381 166.895 261.38H177.957L177.947 260.039Z" fill="#E30613"/>
<path d="M167.57 245.406V241.855L171.254 238.253L170.292 237.301L166.403 241.098C166.34 241.159 166.289 241.232 166.254 241.313C166.219 241.393 166.2 241.48 166.199 241.569V245.365L167.57 245.406Z" fill="#E30613"/>
<path d="M167.57 248.681H166.199V251.229H167.57V248.681Z" fill="#E30613"/>
<g filter="url(#filter0_d_292_1427)">
<path d="M37.7224 259.189H37.4381C36.8696 263.065 33.2308 266 27.2609 266C18.1639 266 11 259.134 11 246.178C11 233.221 18.2207 226.023 28.9666 226.023C32.1451 225.854 35.3025 226.619 38.0295 228.219C40.7564 229.818 42.9274 232.178 44.2609 234.993L37.2107 238.924C36.6554 237.245 35.546 235.792 34.0551 234.791C32.5641 233.79 30.7752 233.296 28.9666 233.387C23.6221 233.387 20.1539 236.377 20.1539 242.8V249.001C20.1539 255.424 23.6221 258.414 28.9666 258.414C33.2876 258.414 36.7558 256.421 36.7558 252.656V250.718H29.3645V243.686H45V265.474H37.7224V259.189Z" fill="white"/>
<path d="M28.9668 225.023C32.3215 224.856 35.6533 225.665 38.5352 227.355C41.4326 229.055 43.7442 231.565 45.165 234.564L45.5654 235.41L44.748 235.866L37.6973 239.798L36.6416 240.387L36.2617 239.238C35.7773 237.774 34.8068 236.501 33.4971 235.621C32.1869 234.741 30.6116 234.305 29.0166 234.386L28.9922 234.387H28.9668C26.4763 234.387 24.5614 235.081 23.2666 236.389C21.9714 237.697 21.1543 239.763 21.1543 242.8V249.001C21.1543 252.038 21.9713 254.105 23.2666 255.413C24.5614 256.721 26.4763 257.414 28.9668 257.414C30.9903 257.414 32.7207 256.945 33.9141 256.123C35.0723 255.326 35.7557 254.184 35.7559 252.656V251.718H28.3643V242.686H46V266.474H36.7227V263.223C34.8241 265.559 31.517 267 27.2607 267C22.4484 267 18.1009 265.177 14.9678 261.607C11.8428 258.047 10 252.836 10 246.178C10 239.518 11.8577 234.214 15.2178 230.564C18.5859 226.907 23.3626 225.022 28.9668 225.022V225.023Z" stroke="#1D1D1B" stroke-width="2"/>
</g>
<path d="M202.67 212H3V180H202.67L213 196L202.67 212Z" fill="#EB8235"/>
<g filter="url(#filter1_d_292_1427)">
<path d="M13.9199 205.586V187H26.2664V190.6H18.0265V194.413H25.0931V197.987H18.0265V205.613L13.9199 205.586Z" fill="white"/>
</g>
<path d="M178.683 176H3V144H178.683L189 160.007L178.683 176Z" fill="#F0B40F"/>
<g filter="url(#filter2_d_292_1427)">
<path d="M13.627 169.666V151H26.2934V154.6H17.6802V158.413H25.0668V161.986H17.6802V165.986H26.2934V169.586L13.627 169.666Z" fill="white"/>
</g>
<path d="M156.595 140H3V108H156.595L167 124.007L156.595 140Z" fill="#F4E70F"/>
<g filter="url(#filter3_d_292_1427)">
<path d="M12.4268 115H19.44C24.3732 115 27.6265 118.12 27.6265 124.333C27.6265 130.546 24.3732 133.666 19.44 133.666H12.4268V115ZM19.44 130.066C21.8399 130.066 23.3333 128.733 23.3333 125.8V122.867C23.3333 119.907 21.8399 118.6 19.44 118.6H16.48V130.066H19.44Z" fill="white"/>
</g>
<path d="M134.452 104H3V72H134.452L145 88.0068L134.452 104Z" fill="#A5CC74"/>
<g filter="url(#filter4_d_292_1427)">
<path d="M12.3203 87.7807C12.3203 81.4875 15.5469 78.0208 20.5602 78.0208C22.0361 77.9058 23.5098 78.269 24.7633 79.0566C26.0168 79.8442 26.9834 81.0145 27.5201 82.3941L24.0268 84.2074C23.8585 83.4305 23.4148 82.7406 22.7777 82.2652C22.1405 81.7898 21.3529 81.5609 20.5602 81.6208C18.1869 81.6208 16.5602 83.2208 16.5602 86.1541V89.1407C16.5602 92.074 18.1336 93.6739 20.5602 93.6739C21.3961 93.68 22.2111 93.4122 22.8804 92.9114C23.5498 92.4106 24.0367 91.7043 24.2668 90.9007L27.5734 92.8206C26.9981 94.1896 26.018 95.3499 24.7644 96.1459C23.5108 96.9419 22.0438 97.3355 20.5602 97.2739C15.5469 97.2739 12.3203 94.0739 12.3203 87.7807Z" fill="white"/>
</g>
<path d="M112.282 68H3V36H112.282L123 52.0068L112.282 68Z" fill="#52B153"/>
<g filter="url(#filter5_d_292_1427)">
<path d="M12.8262 43.0186H21.866C22.5137 42.9596 23.1665 43.0414 23.7795 43.2585C24.3926 43.4756 24.9514 43.8229 25.4175 44.2764C25.8837 44.7299 26.2462 45.2789 26.4801 45.8857C26.714 46.4925 26.8138 47.1428 26.7726 47.7919C26.7726 50.6452 25.1993 51.7118 23.306 51.7918V51.9518C23.8746 51.9415 24.4392 52.0491 24.9642 52.2677C25.4892 52.4863 25.9633 52.8112 26.3566 53.222C26.7498 53.6328 27.0538 54.1206 27.2493 54.6547C27.4448 55.1887 27.5277 55.7574 27.4926 56.3251C27.5358 56.9922 27.4452 57.6613 27.226 58.2929C27.0068 58.9245 26.6634 59.5059 26.2162 60.0029C25.7689 60.4998 25.2268 60.9023 24.6217 61.1866C24.0166 61.4709 23.3607 61.6313 22.6927 61.6583H12.8262V43.0186ZM16.8261 50.6452H20.826C21.0553 50.6656 21.2862 50.6354 21.5026 50.5569C21.7189 50.4783 21.9153 50.3533 22.0781 50.1905C22.2408 50.0278 22.3659 49.8313 22.4444 49.615C22.523 49.3987 22.5531 49.1678 22.5327 48.9385V48.1385C22.5531 47.9093 22.523 47.6784 22.4444 47.462C22.3659 47.2457 22.2408 47.0492 22.0781 46.8865C21.9153 46.7238 21.7189 46.5987 21.5026 46.5202C21.2862 46.4416 21.0553 46.4115 20.826 46.4319H16.8261V50.6452ZM16.8261 58.2184H21.4927C21.7216 58.2424 21.9531 58.2159 22.1706 58.1407C22.3882 58.0656 22.5866 57.9436 22.7519 57.7834C22.9172 57.6232 23.0453 57.4287 23.1272 57.2136C23.2092 56.9984 23.2429 56.768 23.226 56.5384V55.6317C23.2429 55.4022 23.2092 55.1717 23.1272 54.9566C23.0453 54.7415 22.9172 54.5469 22.7519 54.3867C22.5866 54.2265 22.3882 54.1046 22.1706 54.0294C21.9531 53.9542 21.7216 53.9277 21.4927 53.9518H16.8261V58.2184Z" fill="white"/>
</g>
<path d="M64.3882 32H3V0H64.3882L75 15.9932L64.3882 32Z" fill="#00A06D"/>
<g filter="url(#filter6_d_292_1427)">
<path d="M24.0761 25.4934L22.7413 21.1078H16.5212L15.1864 25.4934H11.0752L17.2153 7H22.2341L28.2941 25.4934H24.0761ZM19.6713 10.6855H19.5378L17.4822 17.6865H21.7536L19.6713 10.6855Z" fill="white"/>
</g>
<defs>
<filter id="filter0_d_292_1427" x="5" y="224" width="46" height="52" filterUnits="userSpaceOnUse" color-interpolation-filters="sRGB">
<feFlood flood-opacity="0" result="BackgroundImageFix"/>
<feColorMatrix in="SourceAlpha" type="matrix" values="0 0 0 0 0 0 0 0 0 0 0 0 0 0 0 0 0 0 127 0" result="hardAlpha"/>
<feOffset dy="4"/>
<feGaussianBlur stdDeviation="2"/>
<feComposite in2="hardAlpha" operator="out"/>
<feColorMatrix type="matrix" values="0 0 0 0 0 0 0 0 0 0 0 0 0 0 0 0 0 0 0.25 0"/>
<feBlend mode="normal" in2="BackgroundImageFix" result="effect1_dropShadow_292_1427"/>
<feBlend mode="normal" in="SourceGraphic" in2="effect1_dropShadow_292_1427" result="shape"/>
</filter>
<filter id="filter1_d_292_1427" x="9.91992" y="187" width="20.3467" height="26.613" filterUnits="userSpaceOnUse" color-interpolation-filters="sRGB">
<feFlood flood-opacity="0" result="BackgroundImageFix"/>
<feColorMatrix in="SourceAlpha" type="matrix" values="0 0 0 0 0 0 0 0 0 0 0 0 0 0 0 0 0 0 127 0" result="hardAlpha"/>
<feOffset dy="4"/>
<feGaussianBlur stdDeviation="2"/>
<feComposite in2="hardAlpha" operator="out"/>
<feColorMatrix type="matrix" values="0 0 0 0 0 0 0 0 0 0 0 0 0 0 0 0 0 0 0.25 0"/>
<feBlend mode="normal" in2="BackgroundImageFix" result="effect1_dropShadow_292_1427"/>
<feBlend mode="normal" in="SourceGraphic" in2="effect1_dropShadow_292_1427" result="shape"/>
</filter>
<filter id="filter2_d_292_1427" x="9.62695" y="151" width="20.666" height="26.6664" filterUnits="userSpaceOnUse" color-interpolation-filters="sRGB">
<feFlood flood-opacity="0" result="BackgroundImageFix"/>
<feColorMatrix in="SourceAlpha" type="matrix" values="0 0 0 0 0 0 0 0 0 0 0 0 0 0 0 0 0 0 127 0" result="hardAlpha"/>
<feOffset dy="4"/>
<feGaussianBlur stdDeviation="2"/>
<feComposite in2="hardAlpha" operator="out"/>
<feColorMatrix type="matrix" values="0 0 0 0 0 0 0 0 0 0 0 0 0 0 0 0 0 0 0.25 0"/>
<feBlend mode="normal" in2="BackgroundImageFix" result="effect1_dropShadow_292_1427"/>
<feBlend mode="normal" in="SourceGraphic" in2="effect1_dropShadow_292_1427" result="shape"/>
</filter>
<filter id="filter3_d_292_1427" x="8.42676" y="115" width="23.2002" height="26.6664" filterUnits="userSpaceOnUse" color-interpolation-filters="sRGB">
<feFlood flood-opacity="0" result="BackgroundImageFix"/>
<feColorMatrix in="SourceAlpha" type="matrix" values="0 0 0 0 0 0 0 0 0 0 0 0 0 0 0 0 0 0 127 0" result="hardAlpha"/>
<feOffset dy="4"/>
<feGaussianBlur stdDeviation="2"/>
<feComposite in2="hardAlpha" operator="out"/>
<feColorMatrix type="matrix" values="0 0 0 0 0 0 0 0 0 0 0 0 0 0 0 0 0 0 0.25 0"/>
<feBlend mode="normal" in2="BackgroundImageFix" result="effect1_dropShadow_292_1427"/>
<feBlend mode="normal" in="SourceGraphic" in2="effect1_dropShadow_292_1427" result="shape"/>
</filter>
<filter id="filter4_d_292_1427" x="8.32031" y="78" width="23.2529" height="27.2802" filterUnits="userSpaceOnUse" color-interpolation-filters="sRGB">
<feFlood flood-opacity="0" result="BackgroundImageFix"/>
<feColorMatrix in="SourceAlpha" type="matrix" values="0 0 0 0 0 0 0 0 0 0 0 0 0 0 0 0 0 0 127 0" result="hardAlpha"/>
<feOffset dy="4"/>
<feGaussianBlur stdDeviation="2"/>
<feComposite in2="hardAlpha" operator="out"/>
<feColorMatrix type="matrix" values="0 0 0 0 0 0 0 0 0 0 0 0 0 0 0 0 0 0 0.25 0"/>
<feBlend mode="normal" in2="BackgroundImageFix" result="effect1_dropShadow_292_1427"/>
<feBlend mode="normal" in="SourceGraphic" in2="effect1_dropShadow_292_1427" result="shape"/>
</filter>
<filter id="filter5_d_292_1427" x="0.826172" y="35" width="38.6768" height="42.6583" filterUnits="userSpaceOnUse" color-interpolation-filters="sRGB">
<feFlood flood-opacity="0" result="BackgroundImageFix"/>
<feColorMatrix in="SourceAlpha" type="matrix" values="0 0 0 0 0 0 0 0 0 0 0 0 0 0 0 0 0 0 127 0" result="hardAlpha"/>
<feOffset dy="4"/>
<feGaussianBlur stdDeviation="6"/>
<feColorMatrix type="matrix" values="0 0 0 0 0 0 0 0 0 0 0 0 0 0 0.0705882 0 0 0 0.48 0"/>
<feBlend mode="normal" in2="BackgroundImageFix" result="effect1_dropShadow_292_1427"/>
<feBlend mode="normal" in="SourceGraphic" in2="effect1_dropShadow_292_1427" result="shape"/>
</filter>
<filter id="filter6_d_292_1427" x="7.0752" y="7" width="25.2188" height="26.4934" filterUnits="userSpaceOnUse" color-interpolation-filters="sRGB">
<feFlood flood-opacity="0" result="BackgroundImageFix"/>
<feColorMatrix in="SourceAlpha" type="matrix" values="0 0 0 0 0 0 0 0 0 0 0 0 0 0 0 0 0 0 127 0" result="hardAlpha"/>
<feOffset dy="4"/>
<feGaussianBlur stdDeviation="2"/>
<feComposite in2="hardAlpha" operator="out"/>
<feColorMatrix type="matrix" values="0 0 0 0 0 0 0 0 0 0 0 0 0 0 0 0 0 0 0.25 0"/>
<feBlend mode="normal" in2="BackgroundImageFix" result="effect1_dropShadow_292_1427"/>
<feBlend mode="normal" in="SourceGraphic" in2="effect1_dropShadow_292_1427" result="shape"/>
</filter>
</defs>
</svg>
