<svg width="237" height="278" viewBox="0 0 237 278" fill="none" xmlns="http://www.w3.org/2000/svg">
<path d="M226.526 276H3V244H226.526L237 259.993L226.526 276Z" fill="#D7221F"/>
<g filter="url(#filter0_d_292_1283)">
<path d="M23.9462 265.984H23.8129C23.5462 267.851 21.8396 269.264 19.0396 269.264C14.773 269.264 11.4131 265.957 11.4131 259.718C11.4131 253.478 14.7997 250.011 19.8396 250.011C21.3304 249.93 22.8113 250.298 24.0902 251.068C25.3692 251.839 26.3874 252.975 27.0129 254.331L23.7062 256.224C23.4458 255.416 22.9255 254.716 22.2262 254.234C21.5269 253.751 20.6879 253.514 19.8396 253.558C17.333 253.558 15.7064 254.998 15.7064 258.091V261.078C15.7064 264.171 17.333 265.611 19.8396 265.611C21.8663 265.611 23.4929 264.651 23.4929 262.838V261.904H20.0263V258.518H27.3595V269.011H23.9462V265.984Z" fill="white"/>
</g>
<path d="M202.67 240H3V208H202.67L213 224L202.67 240Z" fill="#EB8235"/>
<g filter="url(#filter1_d_292_1283)">
<path d="M13.9199 233.586V215H26.2664V218.6H18.0265V222.413H25.0931V225.987H18.0265V233.613L13.9199 233.586Z" fill="white"/>
</g>
<path d="M178.683 204H3V172H178.683L189 188.007L178.683 204Z" fill="#F0B40F"/>
<g filter="url(#filter2_d_292_1283)">
<path d="M13.627 197.666V179H26.2934V182.6H17.6802V186.413H25.0668V189.986H17.6802V193.986H26.2934V197.586L13.627 197.666Z" fill="white"/>
</g>
<path d="M156.595 168H3V136H156.595L167 152.007L156.595 168Z" fill="#F4E70F"/>
<g filter="url(#filter3_d_292_1283)">
<path d="M12.4268 143H19.44C24.3732 143 27.6265 146.12 27.6265 152.333C27.6265 158.546 24.3732 161.666 19.44 161.666H12.4268V143ZM19.44 158.066C21.8399 158.066 23.3333 156.733 23.3333 153.8V150.867C23.3333 147.907 21.8399 146.6 19.44 146.6H16.48V158.066H19.44Z" fill="white"/>
</g>
<path d="M134.452 132H3V100H134.452L145 116.007L134.452 132Z" fill="#A5CC74"/>
<g filter="url(#filter4_d_292_1283)">
<path d="M12.3203 115.781C12.3203 109.487 15.5469 106.021 20.5602 106.021C22.0361 105.906 23.5098 106.269 24.7633 107.057C26.0168 107.844 26.9834 109.014 27.5201 110.394L24.0268 112.207C23.8585 111.43 23.4148 110.741 22.7777 110.265C22.1405 109.79 21.3529 109.561 20.5602 109.621C18.1869 109.621 16.5602 111.221 16.5602 114.154V117.141C16.5602 120.074 18.1336 121.674 20.5602 121.674C21.3961 121.68 22.2111 121.412 22.8804 120.911C23.5498 120.411 24.0367 119.704 24.2668 118.901L27.5734 120.821C26.9981 122.19 26.018 123.35 24.7644 124.146C23.5108 124.942 22.0438 125.335 20.5602 125.274C15.5469 125.274 12.3203 122.074 12.3203 115.781Z" fill="white"/>
</g>
<path d="M112.282 96H3V64H112.282L123 80.0068L112.282 96Z" fill="#52B153"/>
<g filter="url(#filter5_d_292_1283)">
<path d="M12.8262 71.0186H21.866C22.5137 70.9596 23.1665 71.0414 23.7795 71.2585C24.3926 71.4756 24.9514 71.8229 25.4175 72.2764C25.8837 72.7299 26.2462 73.2789 26.4801 73.8857C26.714 74.4925 26.8138 75.1428 26.7726 75.7919C26.7726 78.6452 25.1993 79.7118 23.306 79.7918V79.9518C23.8746 79.9415 24.4392 80.0491 24.9642 80.2677C25.4892 80.4863 25.9633 80.8112 26.3566 81.222C26.7498 81.6328 27.0538 82.1206 27.2493 82.6547C27.4448 83.1887 27.5277 83.7574 27.4926 84.3251C27.5358 84.9922 27.4452 85.6613 27.226 86.2929C27.0068 86.9245 26.6634 87.5059 26.2162 88.0029C25.7689 88.4998 25.2268 88.9023 24.6217 89.1866C24.0166 89.4709 23.3607 89.6313 22.6927 89.6583H12.8262V71.0186ZM16.8261 78.6452H20.826C21.0553 78.6656 21.2862 78.6354 21.5026 78.5569C21.7189 78.4783 21.9153 78.3533 22.0781 78.1905C22.2408 78.0278 22.3659 77.8313 22.4444 77.615C22.523 77.3987 22.5531 77.1678 22.5327 76.9385V76.1385C22.5531 75.9093 22.523 75.6784 22.4444 75.462C22.3659 75.2457 22.2408 75.0492 22.0781 74.8865C21.9153 74.7238 21.7189 74.5987 21.5026 74.5202C21.2862 74.4416 21.0553 74.4115 20.826 74.4319H16.8261V78.6452ZM16.8261 86.2184H21.4927C21.7216 86.2424 21.9531 86.2159 22.1706 86.1407C22.3882 86.0656 22.5866 85.9436 22.7519 85.7834C22.9172 85.6232 23.0453 85.4287 23.1272 85.2136C23.2092 84.9984 23.2429 84.768 23.226 84.5384V83.6317C23.2429 83.4022 23.2092 83.1717 23.1272 82.9566C23.0453 82.7415 22.9172 82.5469 22.7519 82.3867C22.5866 82.2265 22.3882 82.1046 22.1706 82.0294C21.9531 81.9542 21.7216 81.9277 21.4927 81.9518H16.8261V86.2184Z" fill="white"/>
</g>
<path d="M64.043 1L83.79 30.0059L64.043 59H4V1H64.043Z" fill="#00A06D" stroke="#1D1D1B" stroke-width="2"/>
<g filter="url(#filter6_d_292_1283)">
<path d="M38.9364 50L36.0682 40.5143H22.7023L19.8341 50H11L24.1938 10H34.9783L48 50H38.9364ZM29.4713 17.9714H29.1845L24.7675 33.1143H33.9457L29.4713 17.9714Z" fill="white"/>
<path d="M35.7041 9L35.9287 9.69043L48.9512 49.6904L49.377 51H38.1943L37.9795 50.2891L35.3262 41.5146H23.4443L20.791 50.2891L20.5762 51H9.61719L10.0508 49.6865L23.2441 9.68652L23.4707 9H35.7041ZM26.1006 32.1143H32.6074L29.333 21.0322L26.1006 32.1143Z" stroke="#1D1D1B" stroke-width="2"/>
</g>
<defs>
<filter id="filter0_d_292_1283" x="7.41309" y="250" width="23.9463" height="27.264" filterUnits="userSpaceOnUse" color-interpolation-filters="sRGB">
<feFlood flood-opacity="0" result="BackgroundImageFix"/>
<feColorMatrix in="SourceAlpha" type="matrix" values="0 0 0 0 0 0 0 0 0 0 0 0 0 0 0 0 0 0 127 0" result="hardAlpha"/>
<feOffset dy="4"/>
<feGaussianBlur stdDeviation="2"/>
<feComposite in2="hardAlpha" operator="out"/>
<feColorMatrix type="matrix" values="0 0 0 0 0 0 0 0 0 0 0 0 0 0 0 0 0 0 0.25 0"/>
<feBlend mode="normal" in2="BackgroundImageFix" result="effect1_dropShadow_292_1283"/>
<feBlend mode="normal" in="SourceGraphic" in2="effect1_dropShadow_292_1283" result="shape"/>
</filter>
<filter id="filter1_d_292_1283" x="9.91992" y="215" width="20.3467" height="26.613" filterUnits="userSpaceOnUse" color-interpolation-filters="sRGB">
<feFlood flood-opacity="0" result="BackgroundImageFix"/>
<feColorMatrix in="SourceAlpha" type="matrix" values="0 0 0 0 0 0 0 0 0 0 0 0 0 0 0 0 0 0 127 0" result="hardAlpha"/>
<feOffset dy="4"/>
<feGaussianBlur stdDeviation="2"/>
<feComposite in2="hardAlpha" operator="out"/>
<feColorMatrix type="matrix" values="0 0 0 0 0 0 0 0 0 0 0 0 0 0 0 0 0 0 0.25 0"/>
<feBlend mode="normal" in2="BackgroundImageFix" result="effect1_dropShadow_292_1283"/>
<feBlend mode="normal" in="SourceGraphic" in2="effect1_dropShadow_292_1283" result="shape"/>
</filter>
<filter id="filter2_d_292_1283" x="9.62695" y="179" width="20.666" height="26.6664" filterUnits="userSpaceOnUse" color-interpolation-filters="sRGB">
<feFlood flood-opacity="0" result="BackgroundImageFix"/>
<feColorMatrix in="SourceAlpha" type="matrix" values="0 0 0 0 0 0 0 0 0 0 0 0 0 0 0 0 0 0 127 0" result="hardAlpha"/>
<feOffset dy="4"/>
<feGaussianBlur stdDeviation="2"/>
<feComposite in2="hardAlpha" operator="out"/>
<feColorMatrix type="matrix" values="0 0 0 0 0 0 0 0 0 0 0 0 0 0 0 0 0 0 0.25 0"/>
<feBlend mode="normal" in2="BackgroundImageFix" result="effect1_dropShadow_292_1283"/>
<feBlend mode="normal" in="SourceGraphic" in2="effect1_dropShadow_292_1283" result="shape"/>
</filter>
<filter id="filter3_d_292_1283" x="8.42676" y="143" width="23.2002" height="26.6664" filterUnits="userSpaceOnUse" color-interpolation-filters="sRGB">
<feFlood flood-opacity="0" result="BackgroundImageFix"/>
<feColorMatrix in="SourceAlpha" type="matrix" values="0 0 0 0 0 0 0 0 0 0 0 0 0 0 0 0 0 0 127 0" result="hardAlpha"/>
<feOffset dy="4"/>
<feGaussianBlur stdDeviation="2"/>
<feComposite in2="hardAlpha" operator="out"/>
<feColorMatrix type="matrix" values="0 0 0 0 0 0 0 0 0 0 0 0 0 0 0 0 0 0 0.25 0"/>
<feBlend mode="normal" in2="BackgroundImageFix" result="effect1_dropShadow_292_1283"/>
<feBlend mode="normal" in="SourceGraphic" in2="effect1_dropShadow_292_1283" result="shape"/>
</filter>
<filter id="filter4_d_292_1283" x="8.32031" y="106" width="23.2529" height="27.2802" filterUnits="userSpaceOnUse" color-interpolation-filters="sRGB">
<feFlood flood-opacity="0" result="BackgroundImageFix"/>
<feColorMatrix in="SourceAlpha" type="matrix" values="0 0 0 0 0 0 0 0 0 0 0 0 0 0 0 0 0 0 127 0" result="hardAlpha"/>
<feOffset dy="4"/>
<feGaussianBlur stdDeviation="2"/>
<feComposite in2="hardAlpha" operator="out"/>
<feColorMatrix type="matrix" values="0 0 0 0 0 0 0 0 0 0 0 0 0 0 0 0 0 0 0.25 0"/>
<feBlend mode="normal" in2="BackgroundImageFix" result="effect1_dropShadow_292_1283"/>
<feBlend mode="normal" in="SourceGraphic" in2="effect1_dropShadow_292_1283" result="shape"/>
</filter>
<filter id="filter5_d_292_1283" x="0.826172" y="63" width="38.6768" height="42.6583" filterUnits="userSpaceOnUse" color-interpolation-filters="sRGB">
<feFlood flood-opacity="0" result="BackgroundImageFix"/>
<feColorMatrix in="SourceAlpha" type="matrix" values="0 0 0 0 0 0 0 0 0 0 0 0 0 0 0 0 0 0 127 0" result="hardAlpha"/>
<feOffset dy="4"/>
<feGaussianBlur stdDeviation="6"/>
<feColorMatrix type="matrix" values="0 0 0 0 0 0 0 0 0 0 0 0 0 0 0.0705882 0 0 0 0.48 0"/>
<feBlend mode="normal" in2="BackgroundImageFix" result="effect1_dropShadow_292_1283"/>
<feBlend mode="normal" in="SourceGraphic" in2="effect1_dropShadow_292_1283" result="shape"/>
</filter>
<filter id="filter6_d_292_1283" x="4.23438" y="8" width="50.5195" height="52" filterUnits="userSpaceOnUse" color-interpolation-filters="sRGB">
<feFlood flood-opacity="0" result="BackgroundImageFix"/>
<feColorMatrix in="SourceAlpha" type="matrix" values="0 0 0 0 0 0 0 0 0 0 0 0 0 0 0 0 0 0 127 0" result="hardAlpha"/>
<feOffset dy="4"/>
<feGaussianBlur stdDeviation="2"/>
<feComposite in2="hardAlpha" operator="out"/>
<feColorMatrix type="matrix" values="0 0 0 0 0 0 0 0 0 0 0 0 0 0 0 0 0 0 0.25 0"/>
<feBlend mode="normal" in2="BackgroundImageFix" result="effect1_dropShadow_292_1283"/>
<feBlend mode="normal" in="SourceGraphic" in2="effect1_dropShadow_292_1283" result="shape"/>
</filter>
</defs>
</svg>
