<svg width="39" height="38" viewBox="0 0 39 38" fill="none" xmlns="http://www.w3.org/2000/svg">
<path d="M1.12768 20.4559C0.729018 20.0725 0.5 19.5558 0.5 19.0058C0.5 18.4557 0.729018 17.939 1.12768 17.5557L16.0562 3.5548C16.8705 2.78808 18.1598 2.82142 18.9317 3.62147C19.7036 4.42152 19.6781 5.68827 18.8638 6.44665L7.61652 17.0056H36.4643C37.5924 17.0056 38.5 17.8974 38.5 19.0058C38.5 20.1142 37.5924 21.0059 36.4643 21.0059H7.61652L18.8723 31.5566C19.6866 32.3233 19.7121 33.5817 18.9402 34.3817C18.1683 35.1818 16.879 35.2068 16.0647 34.4484L1.13616 20.4475L1.12768 20.4559Z" fill="black"/>
</svg>
