<svg width="38" height="38" viewBox="0 0 38 38" fill="black" xmlns="http://www.w3.org/2000/svg">
    <path
        d="M2.93604 6.82143C2.93604 5.81205 3.72727 5 4.71076 5H34.2895C35.273 5 36.0642 5.81205 36.0642 6.82143C36.0642 7.8308 35.273 8.64286 34.2895 8.64286H4.71076C3.72727 8.64286 2.93604 7.8308 2.93604 6.82143ZM2.93604 18.9643C2.93604 17.9549 3.72727 17.1429 4.71076 17.1429H34.2895C35.273 17.1429 36.0642 17.9549 36.0642 18.9643C36.0642 19.9737 35.273 20.7857 34.2895 20.7857H4.71076C3.72727 20.7857 2.93604 19.9737 2.93604 18.9643ZM36.0642 31.1071C36.0642 32.1165 35.273 32.9286 34.2895 32.9286H4.71076C3.72727 32.9286 2.93604 32.1165 2.93604 31.1071C2.93604 30.0978 3.72727 29.2857 4.71076 29.2857H34.2895C35.273 29.2857 36.0642 30.0978 36.0642 31.1071Z" />
</svg>