<svg width="38" height="38" viewBox="0 0 38 38" fill="black" xmlns="http://www.w3.org/2000/svg">
    <path
        d="M19 3.5625C23.0943 3.5625 27.0209 5.18895 29.916 8.08404C32.8111 10.9791 34.4375 14.9057 34.4375 19C34.4375 23.0943 32.8111 27.0209 29.916 29.916C27.0209 32.8111 23.0943 34.4375 19 34.4375C14.9057 34.4375 10.9791 32.8111 8.08404 29.916C5.18895 27.0209 3.5625 23.0943 3.5625 19C3.5625 14.9057 5.18895 10.9791 8.08404 8.08404C10.9791 5.18895 14.9057 3.5625 19 3.5625ZM19 38C24.0391 38 28.8718 35.9982 32.435 32.435C35.9982 28.8718 38 24.0391 38 19C38 13.9609 35.9982 9.12816 32.435 5.56497C28.8718 2.00178 24.0391 0 19 0C13.9609 0 9.12816 2.00178 5.56497 5.56497C2.00178 9.12816 0 13.9609 0 19C0 24.0391 2.00178 28.8718 5.56497 32.435C9.12816 35.9982 13.9609 38 19 38ZM27.3867 15.5117C28.0844 14.8141 28.0844 13.6859 27.3867 12.9957C26.6891 12.3055 25.5609 12.298 24.8707 12.9957L16.6324 21.234L13.1441 17.7457C12.4465 17.048 11.3184 17.048 10.6281 17.7457C9.93789 18.4434 9.93047 19.5715 10.6281 20.2617L15.3781 25.0117C16.0758 25.7094 17.2039 25.7094 17.8941 25.0117L27.3867 15.5117Z" />
</svg>