<svg width="38" height="30" viewBox="0 0 38 30" fill="black" xmlns="http://www.w3.org/2000/svg">
    <path
        d="M21.85 0C20.2766 0 19 1.25977 19 2.8125V9.01758L22.8 12.457V12.1875C22.8 11.6719 23.2275 11.25 23.75 11.25H25.65C26.1725 11.25 26.6 11.6719 26.6 12.1875V14.0625C26.6 14.5781 26.1725 15 25.65 15H24.5338C24.6466 15.3984 24.7 15.8145 24.7 16.2363V16.875H25.65C26.1725 16.875 26.6 17.2969 26.6 17.8125V19.6875C26.6 20.2031 26.1725 20.625 25.65 20.625H24.7V27.1875C24.7 28.2422 24.3438 29.2148 23.75 30H35.15C36.7234 30 38 28.7402 38 27.1875V2.8125C38 1.25977 36.7234 0 35.15 0H21.85ZM30.4 12.1875C30.4 11.6719 30.8275 11.25 31.35 11.25H33.25C33.7725 11.25 34.2 11.6719 34.2 12.1875V14.0625C34.2 14.5781 33.7725 15 33.25 15H31.35C30.8275 15 30.4 14.5781 30.4 14.0625V12.1875ZM31.35 16.875H33.25C33.7725 16.875 34.2 17.2969 34.2 17.8125V19.6875C34.2 20.2031 33.7725 20.625 33.25 20.625H31.35C30.8275 20.625 30.4 20.2031 30.4 19.6875V17.8125C30.4 17.2969 30.8275 16.875 31.35 16.875ZM23.75 5.625H25.65C26.1725 5.625 26.6 6.04688 26.6 6.5625V8.4375C26.6 8.95312 26.1725 9.375 25.65 9.375H23.75C23.2275 9.375 22.8 8.95312 22.8 8.4375V6.5625C22.8 6.04688 23.2275 5.625 23.75 5.625ZM30.4 6.5625C30.4 6.04688 30.8275 5.625 31.35 5.625H33.25C33.7725 5.625 34.2 6.04688 34.2 6.5625V8.4375C34.2 8.95312 33.7725 9.375 33.25 9.375H31.35C30.8275 9.375 30.4 8.95312 30.4 8.4375V6.5625ZM0 16.2363V27.1875C0 28.7402 1.27656 30 2.85 30H19.95C21.5234 30 22.8 28.7402 22.8 27.1875V16.2363C22.8 15.4453 22.4675 14.6953 21.8737 14.1621L13.3237 6.42773C12.2312 5.44336 10.5628 5.44336 9.47031 6.42773L0.920312 14.1621C0.3325 14.6953 0 15.4512 0 16.2363ZM8.55 17.3438C8.55 16.5645 9.18531 15.9375 9.975 15.9375H12.825C13.6147 15.9375 14.25 16.5645 14.25 17.3438V20.1562C14.25 20.9355 13.6147 21.5625 12.825 21.5625H9.975C9.18531 21.5625 8.55 20.9355 8.55 20.1562V17.3438Z"
    />
</svg>