<svg width="33" height="38" viewBox="0 0 33 38" fill="black" xmlns="http://www.w3.org/2000/svg">
    <path
        d="M4.71429 2.375C2.11406 2.375 0 4.50508 0 7.125V30.875C0 33.4949 2.11406 35.625 4.71429 35.625H28.2857C30.8859 35.625 33 33.4949 33 30.875V12.8621C33 11.6004 32.5065 10.3906 31.6225 9.5L25.9286 3.76289C25.0446 2.87227 23.844 2.375 22.5917 2.375H4.71429ZM4.71429 9.5C4.71429 8.18633 5.76763 7.125 7.07143 7.125H21.2143C22.5181 7.125 23.5714 8.18633 23.5714 9.5V14.25C23.5714 15.5637 22.5181 16.625 21.2143 16.625H7.07143C5.76763 16.625 4.71429 15.5637 4.71429 14.25V9.5ZM16.5 21.375C17.7503 21.375 18.9494 21.8754 19.8335 22.7662C20.7176 23.657 21.2143 24.8652 21.2143 26.125C21.2143 27.3848 20.7176 28.593 19.8335 29.4838C18.9494 30.3746 17.7503 30.875 16.5 30.875C15.2497 30.875 14.0506 30.3746 13.1665 29.4838C12.2824 28.593 11.7857 27.3848 11.7857 26.125C11.7857 24.8652 12.2824 23.657 13.1665 22.7662C14.0506 21.8754 15.2497 21.375 16.5 21.375Z" />
</svg>