<svg width="38" height="38" viewBox="0 0 38 38" fill="black" xmlns="http://www.w3.org/2000/svg">
    <path
        d="M22.7852 2.58284C21.9316 2.96136 21.375 3.81487 21.375 4.75003V9.50003H13.0625C5.84844 9.50003 0 15.3485 0 22.5625C0 30.9715 6.04883 34.727 7.43672 35.484C7.62227 35.5879 7.83008 35.625 8.03789 35.625C8.84688 35.625 9.5 34.9645 9.5 34.1629C9.5 33.6063 9.18086 33.0942 8.77266 32.7157C8.075 32.0551 7.125 30.7563 7.125 28.5C7.125 24.5664 10.3164 21.375 14.25 21.375H21.375V26.125C21.375 27.0602 21.9242 27.9137 22.7852 28.2922C23.6461 28.6707 24.6406 28.5149 25.3383 27.8914L37.2133 17.2039C37.7105 16.7512 38 16.1129 38 15.4375C38 14.7621 37.718 14.1239 37.2133 13.6711L25.3383 2.98362C24.6406 2.35276 23.6387 2.19691 22.7852 2.58284Z" />
</svg>