<svg width="38" height="38" viewBox="0 0 38 38" fill="black" xmlns="http://www.w3.org/2000/svg">
    <path
        d="M19 0C15.2422 0 11.5687 1.11433 8.44417 3.20208C5.31964 5.28982 2.88436 8.25722 1.4463 11.729C0.00823237 15.2008 -0.368031 19.0211 0.365088 22.7067C1.09821 26.3923 2.90778 29.7778 5.56498 32.435C8.22218 35.0922 11.6077 36.9018 15.2933 37.6349C18.9789 38.368 22.7992 37.9918 26.271 36.5537C29.7428 35.1156 32.7102 32.6804 34.7979 29.5558C36.8857 26.4313 38 22.7578 38 19C38 13.9609 35.9982 9.12816 32.435 5.56497C28.8718 2.00178 24.0391 0 19 0ZM19 2.641C22.2371 2.63348 25.4037 3.58652 28.0989 5.3795C30.7941 7.17247 32.8968 9.72476 34.1408 12.7133C35.3848 15.7018 35.7142 18.9923 35.0873 22.1681C34.4604 25.344 32.9053 28.2624 30.619 30.554C28.3327 32.8457 25.4179 34.4075 22.2435 35.0418C19.0691 35.6761 15.7779 35.3544 12.7865 34.1173C9.79506 32.8803 7.23789 30.7835 5.43866 28.0925C3.63942 25.4015 2.67902 22.2371 2.67901 19C2.6865 14.6702 4.40723 10.5193 7.46531 7.45413C10.5234 4.38894 14.6702 2.65856 19 2.641Z" />
    <path
        d="M28.6808 26.8565C28.4953 26.8633 28.3119 26.8157 28.1532 26.7194C27.9945 26.6232 27.8675 26.4826 27.7878 26.315C26.2773 23.465 22.8288 21.565 19.0003 21.565C15.1718 21.565 11.7328 23.4175 10.2128 26.315C10.1517 26.4322 10.0681 26.5363 9.9667 26.6213C9.86535 26.7062 9.74825 26.7704 9.6221 26.8101C9.49595 26.8498 9.36322 26.8642 9.23148 26.8526C9.09974 26.841 8.97158 26.8036 8.85431 26.7425C8.6168 26.6171 8.43853 26.4029 8.35843 26.1466C8.27834 25.8903 8.30292 25.6127 8.42681 25.3745C10.3268 21.85 14.4403 19.5795 19.0003 19.5795C23.5603 19.5795 27.7213 21.85 29.5738 25.3745C29.6368 25.4916 29.6759 25.62 29.689 25.7524C29.7021 25.8848 29.6888 26.0184 29.6499 26.1456C29.611 26.2728 29.5474 26.391 29.4626 26.4934C29.3778 26.5959 29.2735 26.6805 29.1558 26.7425C29.0086 26.8171 28.8459 26.8562 28.6808 26.8565Z" />
    <path
        d="M11.3715 11.3715C11.7473 11.3715 12.1147 11.4829 12.4271 11.6917C12.7396 11.9005 12.9831 12.1972 13.1269 12.5444C13.2707 12.8916 13.3083 13.2736 13.235 13.6422C13.1617 14.0107 12.9807 14.3493 12.715 14.615C12.4493 14.8807 12.1108 15.0617 11.7422 15.135C11.3736 15.2083 10.9916 15.1707 10.6444 15.0269C10.2972 14.8831 10.0005 14.6395 9.79174 14.3271C9.58296 14.0146 9.47153 13.6473 9.47153 13.2715C9.47153 12.7676 9.67171 12.2843 10.028 11.928C10.3843 11.5717 10.8676 11.3715 11.3715 11.3715Z" />
    <path
        d="M26.6761 11.3715C27.0519 11.3715 27.4192 11.4829 27.7317 11.6917C28.0441 11.9005 28.2876 12.1972 28.4315 12.5444C28.5753 12.8916 28.6129 13.2736 28.5396 13.6422C28.4663 14.0107 28.2853 14.3493 28.0196 14.615C27.7539 14.8807 27.4153 15.0617 27.0468 15.135C26.6782 15.2083 26.2962 15.1707 25.949 15.0269C25.6018 14.8831 25.3051 14.6395 25.0963 14.3271C24.8875 14.0146 24.7761 13.6473 24.7761 13.2715C24.7761 12.7676 24.9763 12.2843 25.3326 11.928C25.6889 11.5717 26.1722 11.3715 26.6761 11.3715Z" />
</svg>