<svg viewBox="0 0 38 38" fill="black" xmlns="http://www.w3.org/2000/svg">
    <path
        d="M19 0C15.2422 0 11.5687 1.11433 8.44417 3.20208C5.31964 5.28982 2.88436 8.25722 1.44629 11.729C0.00822693 15.2008 -0.368029 19.0211 0.36509 22.7067C1.09821 26.3923 2.90778 29.7778 5.56498 32.435C8.22218 35.0922 11.6077 36.9018 15.2933 37.6349C18.9789 38.368 22.7992 37.9918 26.271 36.5537C29.7428 35.1156 32.7102 32.6804 34.7979 29.5558C36.8857 26.4313 38 22.7578 38 19C38 13.9609 35.9982 9.12816 32.435 5.56497C28.8718 2.00178 24.0391 0 19 0ZM19 2.641C22.2355 2.641 25.3983 3.60044 28.0886 5.39799C30.7788 7.19554 32.8756 9.75046 34.1137 12.7397C35.3519 15.7289 35.6759 19.0181 35.0447 22.1915C34.4134 25.3648 32.8554 28.2797 30.5676 30.5676C28.2797 32.8554 25.3648 34.4134 22.1915 35.0447C19.0182 35.6759 15.7289 35.3519 12.7397 34.1137C9.75047 32.8756 7.19554 30.7788 5.39799 28.0886C3.60044 25.3983 2.64101 22.2355 2.64101 19C2.64604 14.6629 4.37119 10.5048 7.438 7.43799C10.5048 4.37117 14.6629 2.64603 19 2.641Z" />
    <path
        d="M30.3143 17.9931C30.1799 17.9847 30.0452 18.0051 29.9193 18.0527C29.7933 18.1004 29.679 18.1743 29.5837 18.2695C29.4885 18.3647 29.4146 18.4791 29.3669 18.605C29.3193 18.731 29.299 18.8657 29.3073 19.0001C29.2257 21.6933 28.0985 24.249 26.1646 26.1252C24.2307 28.0015 21.6421 29.0508 18.9475 29.0508C16.253 29.0508 13.6645 28.0015 11.7305 26.1252C9.7966 24.249 8.66937 21.6933 8.5878 19.0001C8.5878 18.733 8.4817 18.4769 8.29285 18.288C8.104 18.0992 7.84788 17.9931 7.5808 17.9931C7.31373 17.9931 7.0576 18.0992 6.86875 18.288C6.6799 18.4769 6.57381 18.733 6.57381 19.0001C6.57449 21.4599 7.30578 23.8641 8.67492 25.9077C10.0441 27.9512 11.9894 29.5421 14.264 30.4784C16.5387 31.4147 19.0402 31.6543 21.4512 31.1668C23.8622 30.6793 26.0741 29.4866 27.8063 27.7401C28.9436 26.5899 29.8403 25.2246 30.4438 23.724C31.0473 22.2233 31.3456 20.6174 31.3213 19.0001C31.3296 18.8657 31.3093 18.731 31.2617 18.605C31.214 18.4791 31.1401 18.3647 31.0449 18.2695C30.9496 18.1743 30.8353 18.1004 30.7093 18.0527C30.5834 18.0051 30.4487 17.9847 30.3143 17.9931Z" />
    <path
        d="M11.4188 11.3715C11.7946 11.3715 12.162 11.4829 12.4744 11.6917C12.7869 11.9005 13.0304 12.1972 13.1742 12.5444C13.318 12.8916 13.3557 13.2736 13.2823 13.6422C13.209 14.0107 13.0281 14.3493 12.7624 14.615C12.4966 14.8807 12.1581 15.0617 11.7895 15.135C11.421 15.2083 11.0389 15.1707 10.6918 15.0269C10.3446 14.8831 10.0478 14.6395 9.83906 14.3271C9.63029 14.0146 9.51885 13.6473 9.51885 13.2715C9.51885 12.7676 9.71904 12.2843 10.0754 11.928C10.4317 11.5717 10.9149 11.3715 11.4188 11.3715Z" />
    <path
        d="M26.7234 11.3715C27.0992 11.3715 27.4665 11.4829 27.779 11.6917C28.0914 11.9005 28.335 12.1972 28.4788 12.5444C28.6226 12.8916 28.6602 13.2736 28.5869 13.6422C28.5136 14.0107 28.3326 14.3493 28.0669 14.615C27.8012 14.8807 27.4626 15.0617 27.0941 15.135C26.7255 15.2083 26.3435 15.1707 25.9963 15.0269C25.6491 14.8831 25.3524 14.6395 25.1436 14.3271C24.9348 14.0146 24.8234 13.6473 24.8234 13.2715C24.8234 12.7676 25.0236 12.2843 25.3799 11.928C25.7362 11.5717 26.2195 11.3715 26.7234 11.3715Z" />
</svg>