<svg width="38" height="38" viewBox="0 0 38 38" fill="black" xmlns="http://www.w3.org/2000/svg">
    <path
        d="M19 0C15.2422 0 11.5687 1.11433 8.44417 3.20208C5.31964 5.28982 2.88436 8.25722 1.4463 11.729C0.00823237 15.2008 -0.368031 19.0211 0.365088 22.7067C1.09821 26.3923 2.90778 29.7778 5.56498 32.435C8.22218 35.0922 11.6076 36.9018 15.2933 37.6349C18.9789 38.368 22.7992 37.9918 26.271 36.5537C29.7428 35.1156 32.7102 32.6804 34.7979 29.5558C36.8857 26.4313 38 22.7578 38 19C38 13.9609 35.9982 9.12816 32.435 5.56497C28.8718 2.00178 24.0391 0 19 0ZM19 2.641C22.2355 2.641 25.3983 3.60044 28.0886 5.39799C30.7788 7.19554 32.8756 9.75046 34.1137 12.7397C35.3519 15.7289 35.6759 19.0181 35.0447 22.1915C34.4134 25.3648 32.8554 28.2797 30.5676 30.5676C28.2797 32.8554 25.3648 34.4134 22.1915 35.0447C19.0181 35.6759 15.7289 35.3519 12.7397 34.1137C9.75047 32.8756 7.19554 30.7788 5.39799 28.0886C3.60045 25.3983 2.64101 22.2355 2.64101 19C2.64604 14.6629 4.37119 10.5048 7.438 7.43799C10.5048 4.37117 14.6629 2.64603 19 2.641Z" />
    <path
        d="M29.4214 23.1419H8.26495C8.01353 23.1175 7.7802 23.0004 7.61043 22.8134C7.44065 22.6263 7.3466 22.3828 7.3466 22.1302C7.3466 21.8776 7.44065 21.634 7.61043 21.447C7.7802 21.26 8.01353 21.1428 8.26495 21.1184H29.4024C29.6539 21.1428 29.8872 21.26 30.057 21.447C30.2267 21.634 30.3208 21.8776 30.3208 22.1302C30.3208 22.3828 30.2267 22.6263 30.057 22.8134C29.8872 23.0004 29.6539 23.1175 29.4024 23.1419H29.4214Z" />
    <path
        d="M11.3715 11.3715C11.7473 11.3715 12.1147 11.4829 12.4271 11.6917C12.7396 11.9005 12.9831 12.1972 13.1269 12.5444C13.2707 12.8916 13.3083 13.2736 13.235 13.6422C13.1617 14.0107 12.9808 14.3493 12.715 14.615C12.4493 14.8807 12.1108 15.0617 11.7422 15.135C11.3736 15.2083 10.9916 15.1707 10.6444 15.0269C10.2973 14.8831 10.0005 14.6395 9.79174 14.3271C9.58297 14.0146 9.47153 13.6473 9.47153 13.2715C9.47153 12.7676 9.67171 12.2843 10.028 11.928C10.3843 11.5717 10.8676 11.3715 11.3715 11.3715Z" />
    <path
        d="M26.6663 11.3715C27.0421 11.3715 27.4095 11.4829 27.7219 11.6917C28.0344 11.9005 28.2779 12.1972 28.4217 12.5444C28.5655 12.8916 28.6031 13.2736 28.5298 13.6422C28.4565 14.0107 28.2756 14.3493 28.0098 14.615C27.7441 14.8807 27.4056 15.0617 27.037 15.135C26.6684 15.2083 26.2864 15.1707 25.9392 15.0269C25.5921 14.8831 25.2953 14.6395 25.0865 14.3271C24.8778 14.0146 24.7663 13.6473 24.7663 13.2715C24.7663 12.7676 24.9665 12.2843 25.3228 11.928C25.6791 11.5717 26.1624 11.3715 26.6663 11.3715Z" />
</svg>