<svg width="38" height="38" viewBox="0 0 38 38" fill="black" xmlns="http://www.w3.org/2000/svg">
    <path
        d="M28.4967 9.49666C26.8072 9.51387 25.1516 9.97233 23.6939 10.8266C22.2361 11.6809 21.027 12.9013 20.1863 14.3669C21.2004 14.6454 22.0964 15.246 22.7395 16.078C23.3826 16.9101 23.7378 17.9286 23.7517 18.9802H38C37.9878 16.4653 36.9821 14.0572 35.2019 12.2808C33.4218 10.5043 31.0116 9.50358 28.4967 9.49666Z"
    />
    <path
        d="M9.49668 28.4967C11.1979 28.4793 12.8636 28.0085 14.3221 27.1327C15.7807 26.2569 16.9791 25.0078 17.7939 23.5144C16.784 23.2622 15.8862 22.6823 15.241 21.8654C14.5959 21.0486 14.2398 20.0408 14.2285 19H0C0.0069566 21.5165 1.00973 23.928 2.7892 25.7075C4.56866 27.4869 6.98014 28.4897 9.49668 28.4967Z"
    />
    <path
        d="M19.0001 0C16.4893 0.0273859 14.089 1.03651 12.3128 2.8114C10.5367 4.58629 9.52593 6.98591 9.4968 9.49668C9.51675 11.1997 9.99086 12.8665 10.8702 14.3251C11.7495 15.7837 13.0022 16.9812 14.4989 17.7939C14.751 16.784 15.3309 15.8862 16.1478 15.241C16.9647 14.5959 17.9724 14.2398 19.0133 14.2285L19.0001 0Z"
    />
    <path
        d="M18.6442 21.3725C18.9832 21.4173 19.3278 21.3896 19.6552 21.2912C19.9826 21.1927 20.2854 21.0258 20.5434 20.8014C20.8014 20.5771 21.0088 20.3004 21.1517 19.9899C21.2947 19.6793 21.37 19.3419 21.3726 19C21.3726 18.3707 21.1227 17.7673 20.6777 17.3223C20.2328 16.8774 19.6293 16.6274 19.0001 16.6274C18.3709 16.6274 17.7674 16.8774 17.3225 17.3223C16.8776 17.7673 16.6276 18.3707 16.6276 19C16.6512 19.5636 16.8625 20.1032 17.2278 20.5331C17.5932 20.9629 18.0917 21.2584 18.6442 21.3725Z"
    />
    <path
        d="M28.4967 28.4966C28.4831 26.7929 28.0139 25.1238 27.1378 23.6625C26.2617 22.2013 25.0107 21.001 23.5144 20.1862C23.2397 21.1815 22.6529 22.0625 21.8403 22.6995C21.0277 23.3366 20.0321 23.6961 19 23.7252V37.9999C21.5113 37.9724 23.9119 36.9622 25.6871 35.1857C27.4624 33.4092 28.471 31.0079 28.4967 28.4966Z" />
</svg>