<svg width="38" height="38" viewBox="0 0 38 38" fill="black" xmlns="http://www.w3.org/2000/svg">
    <path
        d="M23.1169 34.8192C22.5633 35.3732 21.9028 35.8089 21.1756 36.0997C20.4484 36.3905 19.6696 36.5304 18.8867 36.5108C18.1037 36.4913 17.3329 36.3127 16.6211 35.9859C15.9093 35.6591 15.2715 35.1909 14.7463 34.6099C14.2092 34.057 13.7897 33.4012 13.5127 32.682C13.2358 31.9627 13.1073 31.1948 13.1349 30.4246C13.1599 29.5961 13.3592 28.7821 13.7198 28.0358C14.0804 27.2894 14.5941 26.6274 15.2276 26.0928C15.3159 26.0235 15.3866 25.9343 15.4339 25.8325C15.4812 25.7306 15.5037 25.6191 15.4996 25.5068V4.47568C15.5653 3.6577 15.9366 2.89446 16.5396 2.3379C17.1426 1.78134 17.9331 1.4723 18.7537 1.4723C19.5743 1.4723 20.3648 1.78134 20.9678 2.3379C21.5708 2.89446 21.9421 3.6577 22.0078 4.47568V25.2139C22.0086 25.3356 22.0373 25.4554 22.0917 25.5643C22.1461 25.6731 22.2248 25.768 22.3217 25.8417C23.1252 26.3563 23.7898 27.0607 24.2569 27.8927C24.724 28.7248 24.9793 29.659 25.0003 30.6129C24.9965 31.3937 24.8373 32.1659 24.5319 32.8845C24.2265 33.6031 23.781 34.2536 23.2215 34.7982M23.5982 24.8581V4.47568C23.5179 3.26215 22.9792 2.12457 22.0912 1.29348C21.2033 0.462402 20.0327 0 18.8165 0C17.6003 0 16.4296 0.462402 15.5417 1.29348C14.6538 2.12457 14.1151 3.26215 14.0348 4.47568V25.193C13.3114 25.8492 12.7274 26.6443 12.3176 27.5309C11.9078 28.4174 11.6805 29.3774 11.6492 30.3536C11.618 31.3298 11.7834 32.3023 12.1357 33.2133C12.488 34.1243 13.02 34.955 13.6999 35.6562C14.3551 36.3689 15.1462 36.9434 16.0267 37.3459C16.9072 37.7484 17.8593 37.9708 18.8269 38H19.0362C20.5592 37.9857 22.0405 37.5011 23.2773 36.6124C24.5142 35.7238 25.4462 34.4745 25.9456 33.0357C26.4451 31.597 26.4876 30.039 26.0674 28.5751C25.6472 27.1112 24.7847 25.8129 23.5982 24.8581Z"
    />
    <path
        d="M21.5055 27.0763L20.5429 26.4067V14.8971C20.5376 14.6934 20.4543 14.4995 20.3103 14.3555C20.1662 14.2114 19.9723 14.1281 19.7686 14.1228H17.8643C17.6626 14.1283 17.471 14.2122 17.3303 14.3569C17.1896 14.5015 17.1109 14.6953 17.111 14.8971V26.616L16.2739 27.3065C15.7992 27.6915 15.4145 28.1758 15.147 28.7253C14.8795 29.2748 14.7355 29.8763 14.7253 30.4874C14.7054 31.0542 14.8008 31.6192 15.0058 32.148C15.2109 32.6768 15.5213 33.1584 15.9181 33.5636C16.3045 33.9813 16.7696 34.3183 17.2868 34.5554C17.804 34.7924 18.363 34.9247 18.9316 34.9447H19.0362C19.953 34.938 20.8439 34.6405 21.5809 34.0952C22.3179 33.5499 22.8628 32.7848 23.1373 31.9101C23.4119 31.0354 23.4018 30.0961 23.1085 29.2275C22.8153 28.3589 22.254 27.6057 21.5055 27.0763Z"
    />
    <path
        d="M17.8643 11.8627H19.7686C19.8795 11.8812 19.9931 11.8752 20.1015 11.8453C20.2098 11.8154 20.3104 11.7623 20.3961 11.6896C20.4819 11.6169 20.5508 11.5264 20.598 11.4244C20.6453 11.3224 20.6698 11.2113 20.6698 11.0989C20.6698 10.9865 20.6453 10.8754 20.598 10.7734C20.5508 10.6714 20.4819 10.581 20.3961 10.5083C20.3104 10.4356 20.2098 10.3824 20.1015 10.3525C19.9931 10.3226 19.8795 10.3167 19.7686 10.3351H17.8643C17.6834 10.3652 17.5191 10.4584 17.4005 10.5983C17.282 10.7382 17.2169 10.9156 17.2169 11.0989C17.2169 11.2823 17.282 11.4597 17.4005 11.5996C17.5191 11.7394 17.6834 11.8327 17.8643 11.8627Z"
    />
    <path
        d="M17.8643 8.11689H19.7686C19.9723 8.1116 20.1662 8.02833 20.3103 7.88425C20.4543 7.74018 20.5376 7.5463 20.5429 7.34261C20.5375 7.14091 20.4535 6.9493 20.3089 6.80859C20.1642 6.66788 19.9704 6.58918 19.7686 6.58926H17.8643C17.6645 6.58926 17.4729 6.66863 17.3316 6.80991C17.1903 6.95119 17.111 7.14281 17.111 7.34261C17.1109 7.54439 17.1896 7.73822 17.3303 7.88284C17.471 8.02746 17.6626 8.11144 17.8643 8.11689Z"
    />
</svg>