<svg width="38" height="38" viewBox="0 0 38 38" fill="black" xmlns="http://www.w3.org/2000/svg">
    <path
        d="M25.7142 20.6475C24.493 21.7094 23.7087 23.1861 23.5125 24.7923H14.5272C14.3337 23.109 13.4947 21.5663 12.1867 20.4889C10.8249 19.3813 9.764 17.9487 9.10188 16.3232C8.43977 14.6977 8.19778 12.9316 8.39823 11.1879C8.57948 9.43506 9.19138 7.75419 10.1794 6.29493C11.1675 4.83566 12.5011 3.64327 14.0615 2.82388C15.6219 2.00449 17.3607 1.58352 19.1232 1.59845C20.8856 1.61337 22.6171 2.06373 24.1634 2.90943C25.7097 3.75513 27.0229 4.96993 27.9861 6.44572C28.9492 7.92151 29.5326 9.61251 29.6841 11.3682C29.8356 13.1239 29.5507 14.8898 28.8546 16.5087C28.1585 18.1277 27.0729 19.5495 25.6944 20.6475M22.5803 32.7447H15.4198C15.1936 32.7447 14.9767 32.6548 14.8167 32.4949C14.6568 32.335 14.5669 32.1181 14.5669 31.8919V30.5434H23.4728V31.8919C23.4677 32.1199 23.3734 32.3368 23.2103 32.4962C23.0472 32.6555 22.8282 32.7447 22.6001 32.7447M20.2992 36.2548H17.681C17.5664 36.2548 17.4529 36.2323 17.347 36.1884C17.2411 36.1446 17.1449 36.0803 17.0639 35.9993C16.9829 35.9182 16.9186 35.822 16.8747 35.7162C16.8309 35.6103 16.8083 35.4968 16.8083 35.3823V34.47H21.2117V35.3823C21.2117 35.6103 21.1225 35.8293 20.9631 35.9924C20.8037 36.1554 20.5868 36.2497 20.3587 36.2548M14.5669 26.5374H23.4728V28.8181H14.5669V26.5374ZM27.2613 3.11654C25.5575 1.60941 23.4723 0.599247 21.2333 0.196335C18.9944 -0.206578 16.6877 0.0132452 14.5652 0.831806C12.4427 1.65037 10.5859 3.0362 9.19758 4.83802C7.8092 6.63984 6.94261 8.78839 6.69241 11.0491C6.47 13.0621 6.75246 15.0988 7.51429 16.9753C8.27613 18.8519 9.49336 20.5092 11.0561 21.7977C11.5927 22.2313 12.0272 22.7777 12.3289 23.398C12.6305 24.0184 12.7919 24.6975 12.8016 25.3872V31.8721C12.8016 32.4956 13.0294 33.0977 13.4421 33.5651C13.8549 34.0325 14.4241 34.3332 15.043 34.4105V35.4021C15.043 36.0911 15.3167 36.7519 15.804 37.2391C16.2913 37.7263 16.9522 38 17.6413 38H20.2992C20.9849 37.9948 21.6408 37.7188 22.1238 37.2321C22.6068 36.7455 22.8778 36.0877 22.8778 35.4021V34.4502C23.4985 34.3732 24.0701 34.0733 24.4861 33.6063C24.9021 33.1393 25.1341 32.5371 25.139 31.9118V25.5657C25.1474 24.8933 25.2964 24.2301 25.5765 23.6187C25.8566 23.0074 26.2616 22.4614 26.7655 22.0159C28.0441 20.982 29.1049 19.7049 29.8866 18.2584C30.6683 16.812 31.1554 15.2249 31.3195 13.589C31.4837 11.9531 31.3218 10.3008 30.8431 8.72793C30.3644 7.15502 29.5785 5.69264 28.5308 4.42541C28.1358 3.9314 27.6977 3.47347 27.2217 3.05704L27.2613 3.11654Z" />
</svg>