<svg width="38" height="38" viewBox="0 0 38 38" fill="black" xmlns="http://www.w3.org/2000/svg">
    <path
        d="M7.34436 12.2273H23.4836C24.2207 12.2273 24.9276 12.5201 25.4488 13.0412C25.9699 13.5624 26.2627 14.2693 26.2627 15.0063V18.3413C26.2679 18.487 26.3281 18.6255 26.4312 18.7286C26.5343 18.8317 26.6728 18.892 26.8185 18.8971H30.174C30.3179 18.8972 30.4563 18.8414 30.56 18.7416C30.6636 18.6418 30.7245 18.5057 30.7299 18.3618V12.1861C30.7244 11.0049 30.2514 9.87396 29.4142 9.04066C28.5771 8.20736 27.4439 7.73954 26.2627 7.73955H7.34436V12.2273ZM30.174 21.1409H26.8185C26.0796 21.1355 25.3728 20.8381 24.8522 20.3137C24.3316 19.7892 24.0394 19.0802 24.0395 18.3413V15.0063C24.0395 14.8589 23.9809 14.7176 23.8767 14.6133C23.7724 14.5091 23.6311 14.4505 23.4836 14.4505H6.23273C5.9379 14.4505 5.65516 14.3334 5.44668 14.1249C5.23821 13.9165 5.12109 13.6337 5.12109 13.3389V6.6485C5.12109 6.35368 5.23821 6.07093 5.44668 5.86246C5.65516 5.65399 5.9379 5.53687 6.23273 5.53687H26.2627C28.0355 5.5423 29.734 6.24892 30.9876 7.50244C32.2411 8.75596 32.9477 10.4545 32.9531 12.2273V18.403C32.9477 19.1384 32.6532 19.8421 32.1332 20.3622C31.6132 20.8822 30.9094 21.1767 30.174 21.1821"
    />
    <path
        d="M18.4813 7.78072C18.1846 7.77533 17.9019 7.65367 17.694 7.44191C17.4861 7.23016 17.3696 6.94526 17.3697 6.64851V1.09033C17.3697 0.795509 17.4868 0.512761 17.6952 0.304289C17.9037 0.0958168 18.1865 -0.0213013 18.4813 -0.0213013C18.7761 -0.0213013 19.0589 0.0958168 19.2673 0.304289C19.4758 0.512761 19.5929 0.795509 19.5929 1.09033V6.64851C19.593 6.94526 19.4765 7.23016 19.2686 7.44191C19.0607 7.65367 18.778 7.77533 18.4813 7.78072Z"
    />
    <path
        d="M24.0395 2.26372H12.9025C12.6077 2.26372 12.325 2.14661 12.1165 1.93813C11.908 1.72966 11.7909 1.44691 11.7909 1.15209C11.7909 0.857267 11.908 0.574519 12.1165 0.366047C12.325 0.157575 12.6077 0.0404561 12.9025 0.0404561H24.0395C24.3343 0.0404561 24.617 0.157575 24.8255 0.366047C25.034 0.574519 25.1511 0.857267 25.1511 1.15209C25.1511 1.44691 25.034 1.72966 24.8255 1.93813C24.617 2.14661 24.3343 2.26372 24.0395 2.26372Z"
    />
    <path
        d="M27.642 29.787C26.6342 30.958 25.865 32.3146 25.3775 33.7806C25.3775 34.3812 25.6161 34.9572 26.0408 35.3818C26.4654 35.8065 27.0414 36.0451 27.642 36.0451C28.2425 36.0451 28.8185 35.8065 29.2432 35.3818C29.6678 34.9572 29.9064 34.3812 29.9064 33.7806C29.4078 32.3196 28.6397 30.965 27.642 29.787ZM27.642 38.0213C26.5173 38.0213 25.4387 37.5745 24.6434 36.7792C23.8481 35.9839 23.4013 34.9053 23.4013 33.7806C23.4013 32.072 25.8304 28.8606 26.8597 27.6049C26.9563 27.4911 27.076 27.3991 27.2109 27.3352C27.3458 27.2713 27.4927 27.2369 27.642 27.2343C27.7887 27.2343 27.9336 27.2676 28.0655 27.3318C28.1975 27.396 28.3131 27.4894 28.4037 27.6049C29.2271 28.6342 31.8827 32.0926 31.8827 33.7806C31.8827 34.9053 31.4359 35.9839 30.6406 36.7792C29.8453 37.5745 28.7667 38.0213 27.642 38.0213Z"
    />

</svg>