<svg width="492" height="338" viewBox="0 0 492 338" fill="none" xmlns="http://www.w3.org/2000/svg">
<g clip-path="url(#clip0_548_4158)">
<path d="M289.527 247.823C357.712 247.823 412.987 192.548 412.987 124.363C412.987 56.1774 357.712 0.902344 289.527 0.902344C221.341 0.902344 166.066 56.1774 166.066 124.363C166.066 192.548 221.341 247.823 289.527 247.823Z" fill="white"/>
<path d="M69.6312 299.403C72.9847 300.582 76.5853 300.878 80.0861 300.261C83.5868 299.644 86.8698 298.136 89.6186 295.883C96.6193 290.007 98.8142 280.326 100.6 271.363L105.883 244.85L94.8233 252.465C86.8701 257.942 78.7377 263.593 73.2309 271.525C67.7242 279.458 65.3205 290.286 69.745 298.868" fill="white"/>
<path d="M70.5766 331.502C69.4573 323.349 68.3063 315.091 69.0914 306.85C69.7888 299.531 72.0216 292.383 76.5673 286.522C78.9802 283.417 81.9162 280.756 85.2434 278.66C86.111 278.112 86.9095 279.487 86.0457 280.033C80.2887 283.671 75.836 289.044 73.3293 295.376C70.5608 302.417 70.1162 310.094 70.5933 317.574C70.8818 322.098 71.4933 326.592 72.1094 331.08C72.158 331.283 72.1277 331.497 72.0247 331.678C71.9216 331.86 71.7535 331.995 71.5543 332.057C71.3511 332.112 71.1345 332.085 70.9514 331.981C70.7684 331.877 70.6337 331.705 70.5766 331.502Z" fill="#F2F2F2"/>
<path d="M144.653 320.273C145.962 321.819 147.647 323.002 149.546 323.708C151.445 324.414 153.494 324.619 155.495 324.303C160.631 323.432 164.501 319.305 167.963 315.413L178.202 303.9L170.569 304.456C165.081 304.856 159.453 305.291 154.459 307.603C149.465 309.916 145.162 314.547 144.863 320.042" fill="white"/>
<path d="M135.865 336.327C137.665 331.996 139.48 327.604 142.241 323.778C144.694 320.381 147.852 317.51 151.777 315.938C153.858 315.107 156.069 314.645 158.309 314.574C158.893 314.555 158.889 315.461 158.307 315.48C154.428 315.609 150.69 316.967 147.632 319.358C144.241 322.022 141.81 325.668 139.889 329.484C138.726 331.791 137.732 334.177 136.741 336.561C136.706 336.675 136.63 336.772 136.527 336.831C136.424 336.891 136.302 336.909 136.186 336.882C136.07 336.85 135.972 336.774 135.912 336.671C135.852 336.567 135.835 336.443 135.865 336.327Z" fill="#F2F2F2"/>
<path d="M81.3579 317.075C82.7962 319.261 84.7732 321.039 87.0984 322.239C89.4236 323.44 92.0187 324.021 94.6337 323.927C101.354 323.608 106.957 318.917 112 314.464L126.918 301.293L117.045 300.821C109.945 300.481 102.662 300.164 95.8991 302.353C89.1365 304.543 82.8997 309.812 81.6631 316.812" fill="white"/>
<path d="M67.4132 336.189C72.8008 326.656 79.05 316.061 90.2161 312.675C93.3209 311.737 96.5764 311.401 99.8074 311.685C100.826 311.773 100.571 313.342 99.5549 313.255C94.1391 312.805 88.7337 314.235 84.2488 317.304C79.9331 320.242 76.5728 324.326 73.7286 328.657C71.9865 331.31 70.4261 334.075 68.8653 336.837C68.3665 337.719 66.9086 337.082 67.4132 336.189Z" fill="#F2F2F2"/>
<path d="M300.084 173.472C310.797 167.584 324.129 168.766 335.671 172.791C347.213 176.817 357.672 183.412 368.881 188.289C403.132 203.195 444.413 200.792 476.703 182.012C479.757 189.115 476.481 197.24 472.882 204.084C469.283 210.927 465.182 218.345 466.663 225.934C468.559 235.645 478.741 241.467 482.866 250.46C486.782 258.998 484.68 269.023 481.676 277.922C478.672 286.821 474.773 295.787 475.283 305.166C475.794 314.544 482.608 324.461 492 324.469C478.081 326.632 463.887 328.796 449.976 326.579C436.065 324.363 422.228 317.006 415.769 304.487C412.54 298.23 411.296 291.036 407.588 285.051C401.273 274.856 389.153 270.061 377.718 266.448C366.283 262.835 354.046 259.354 345.994 250.466C338.323 241.997 335.893 230.2 331.829 219.521C324.983 201.644 313.094 186.139 297.605 174.89" fill="#2C3EC4"/>
<path d="M312.496 129.102C308.736 127.353 304.119 126.779 300.292 128.405C296.466 130.03 293.857 134.197 295.095 137.885C295.656 139.556 296.933 141.201 296.435 142.889C296.052 144.189 294.716 145.047 293.403 145.657C292.091 146.267 290.655 146.78 289.705 147.809C288.756 148.838 288.558 150.61 289.744 151.408C290.135 151.671 290.623 151.795 291.002 152.072C291.325 152.335 291.558 152.691 291.668 153.092C291.779 153.493 291.762 153.919 291.619 154.31C291.303 155.096 290.781 155.782 290.108 156.297C288.762 157.458 286.983 158.787 287.401 160.435C287.556 160.875 287.815 161.272 288.156 161.591C288.497 161.91 288.91 162.142 289.36 162.267C290.294 162.536 291.263 162.664 292.235 162.646L331.958 163.898C333.269 163.996 334.588 163.923 335.88 163.679C336.508 163.564 337.106 163.321 337.636 162.965C338.166 162.609 338.616 162.148 338.96 161.609C339.721 160.201 339.221 158.467 338.282 157.152C337.342 155.837 336.013 154.8 334.914 153.593C333.816 152.386 332.917 150.879 333.111 149.318C333.266 148.069 334.09 146.99 334.681 145.855C335.272 144.72 335.616 143.302 334.85 142.258C333.771 140.786 331.179 140.919 329.952 139.548C329.026 138.514 329.205 137.024 329.113 135.69C328.891 132.481 326.67 129.45 323.507 128.043C321.898 127.352 320.149 127.054 318.403 127.173C316.657 127.292 314.964 127.825 313.464 128.727L312.496 129.102Z" fill="#2F2E41"/>
<path d="M287.395 330.535L281.173 328.666L285.422 303.779L294.605 306.538L287.395 330.535Z" fill="#A0616A"/>
<path d="M287.17 337.043L267.109 331.015L267.186 330.762C267.494 329.736 268.001 328.782 268.678 327.952C269.355 327.123 270.188 326.435 271.131 325.928C272.074 325.42 273.108 325.104 274.173 324.996C275.238 324.888 276.314 324.991 277.339 325.299L289.592 328.981L287.17 337.043Z" fill="#2F2E41"/>
<path d="M346.103 330.746L339.607 330.745L336.517 305.688L346.104 305.689L346.103 330.746Z" fill="#A0616A"/>
<path d="M347.76 337.043L326.813 337.042V336.777C326.813 335.706 327.024 334.646 327.434 333.657C327.844 332.668 328.444 331.769 329.201 331.012C329.958 330.255 330.857 329.654 331.846 329.245C332.836 328.835 333.896 328.624 334.966 328.624L347.76 328.625L347.76 337.043Z" fill="#2F2E41"/>
<path d="M337.085 311.794C336.519 311.794 335.97 311.592 335.539 311.224C335.108 310.856 334.822 310.347 334.732 309.787L325.087 249.617C325.023 249.219 324.83 248.852 324.539 248.573C324.248 248.293 323.873 248.116 323.473 248.069C323.072 248.022 322.666 248.107 322.318 248.311C321.97 248.515 321.698 248.827 321.543 249.199L296.553 309.359C296.32 309.914 295.887 310.362 295.339 310.611C294.791 310.861 294.169 310.895 293.597 310.707L284.571 307.698C284.009 307.512 283.537 307.124 283.246 306.608C282.955 306.093 282.867 305.487 282.999 304.91L303.478 214.291C303.579 213.854 303.799 213.455 304.115 213.137C304.431 212.819 304.829 212.597 305.265 212.494L332.73 206.118C333.067 206.042 333.417 206.038 333.756 206.109C334.095 206.179 334.415 206.321 334.694 206.526C352.779 219.666 351.251 262.598 347.881 309.214C347.839 309.798 347.584 310.345 347.164 310.753C346.745 311.161 346.19 311.4 345.605 311.426L337.19 311.792C337.155 311.793 337.12 311.794 337.085 311.794Z" fill="#2F2E41"/>
<path d="M313.966 163.59C321.153 163.59 326.98 157.763 326.98 150.576C326.98 143.388 321.153 137.561 313.966 137.561C306.778 137.561 300.952 143.388 300.952 150.576C300.952 157.763 306.778 163.59 313.966 163.59Z" fill="#A0616A"/>
<path d="M314.528 218.027C311.404 218.007 308.323 217.295 305.507 215.942L305.411 215.897L305.372 215.797L293.699 185.554L293.477 180.299C293.403 178.542 293.697 176.789 294.342 175.152C294.986 173.516 295.966 172.032 297.218 170.797C298.471 169.562 299.968 168.603 301.613 167.982C303.259 167.361 305.016 167.091 306.772 167.19L319.165 167.888C322.366 168.07 325.377 169.465 327.586 171.79C329.795 174.114 331.035 177.192 331.053 180.399C331.375 181.017 333.661 185.852 329.181 190.395C329.014 191.429 327.447 202.183 333.36 208.096L333.526 208.263L333.381 208.447C333.287 208.567 325.692 218.025 314.528 218.027Z" fill="#3F3D56"/>
<path d="M331.93 220.308C332.662 220.043 333.327 219.62 333.879 219.07C334.43 218.519 334.854 217.855 335.12 217.123C335.387 216.391 335.49 215.609 335.422 214.833C335.353 214.057 335.116 213.306 334.726 212.631L347.103 198.302L337.346 197.032L327.088 210.834C325.999 211.564 325.215 212.669 324.886 213.938C324.556 215.208 324.704 216.554 325.301 217.722C325.898 218.89 326.902 219.798 328.124 220.275C329.346 220.751 330.7 220.763 331.93 220.308Z" fill="#A0616A"/>
<path d="M339.668 209.248C339.203 209.248 338.749 209.112 338.36 208.856L332.239 204.841C331.724 204.505 331.359 203.983 331.221 203.384C331.083 202.785 331.182 202.155 331.497 201.628L335.929 194.182C336.169 193.779 336.321 193.33 336.375 192.865C336.429 192.399 336.383 191.927 336.242 191.48C336.101 191.033 335.866 190.621 335.555 190.271C335.243 189.921 334.86 189.641 334.433 189.45L321.701 183.741C320.135 183.031 318.857 181.809 318.076 180.277C317.295 178.745 317.058 176.993 317.403 175.309C317.641 174.172 318.138 173.107 318.855 172.194C319.572 171.281 320.49 170.546 321.537 170.046C322.585 169.546 323.734 169.294 324.894 169.311C326.055 169.327 327.196 169.611 328.229 170.14L347.544 180.038C348.847 180.705 349.991 181.647 350.896 182.797C351.801 183.948 352.447 185.281 352.79 186.704C353.132 188.128 353.163 189.608 352.88 191.045C352.597 192.482 352.007 193.84 351.15 195.027L341.602 208.258C341.381 208.565 341.091 208.814 340.755 208.987C340.418 209.159 340.046 209.249 339.668 209.248Z" fill="#3F3D56"/>
<path d="M300.652 148.725C304.762 148.395 308.174 144.29 307.747 140.189C307.699 141.879 308.274 143.528 309.362 144.822C310.451 146.116 311.977 146.965 313.65 147.207C315.536 147.415 317.602 146.845 319.243 147.796C321.061 148.849 321.642 151.407 323.536 152.317C325.365 153.196 327.689 151.997 328.593 150.18C329.496 148.363 329.275 146.179 328.676 144.24C327.821 141.474 326.266 138.977 324.161 136.991C322.055 135.004 319.472 133.597 316.661 132.904C313.851 132.212 310.909 132.259 308.122 133.041C305.335 133.823 302.798 135.312 300.757 137.365C299.029 139.103 297.657 141.318 297.434 143.759C297.212 146.2 298.344 148.849 300.536 149.946L300.652 148.725Z" fill="#2F2E41"/>
<path d="M270.375 112.676C271.06 113.045 271.657 113.561 272.122 114.186C272.587 114.811 272.909 115.53 273.066 116.293C273.222 117.056 273.21 117.844 273.029 118.602C272.849 119.36 272.504 120.069 272.02 120.679L282.171 136.662L272.333 136.494L264.201 121.341C263.23 120.46 262.616 119.253 262.476 117.949C262.335 116.645 262.678 115.335 263.439 114.267C264.2 113.198 265.326 112.447 266.605 112.153C267.883 111.86 269.224 112.046 270.375 112.676Z" fill="#A0616A"/>
<path d="M278.557 124.057L291.631 154.95L305.338 178.192C305.917 179.173 306.265 180.273 306.356 181.409C306.447 182.544 306.28 183.685 305.865 184.746C305.451 185.807 304.801 186.76 303.964 187.533C303.127 188.306 302.126 188.879 301.036 189.208C299.306 189.722 297.45 189.599 295.803 188.864C294.156 188.128 292.826 186.828 292.054 185.198L265.636 128.749C265.492 128.442 265.416 128.109 265.411 127.77C265.407 127.432 265.474 127.096 265.61 126.786C265.745 126.475 265.945 126.197 266.196 125.97C266.447 125.743 266.744 125.572 267.066 125.468L275.632 122.717C275.794 122.665 275.962 122.629 276.131 122.612C276.637 122.561 277.146 122.674 277.583 122.934C278.02 123.194 278.361 123.588 278.557 124.057Z" fill="#3F3D56"/>
<path d="M316.789 58.2412V101.691C316.789 101.831 316.733 101.966 316.633 102.065C316.534 102.165 316.399 102.221 316.259 102.221C316.118 102.221 315.983 102.165 315.884 102.065C315.785 101.966 315.729 101.831 315.729 101.691V58.2412C315.729 58.1006 315.785 57.9659 315.884 57.8665C315.983 57.7671 316.118 57.7113 316.259 57.7113C316.399 57.7113 316.534 57.7671 316.633 57.8665C316.733 57.9659 316.789 58.1006 316.789 58.2412Z" fill="#CCCCCC"/>
<path d="M362.795 95.1017L347.808 110.089C347.709 110.188 347.574 110.243 347.434 110.243C347.293 110.243 347.159 110.187 347.06 110.088C346.96 109.989 346.904 109.854 346.904 109.714C346.904 109.574 346.96 109.439 347.059 109.339L362.046 94.3524C362.095 94.303 362.153 94.2638 362.218 94.237C362.282 94.2102 362.351 94.1964 362.421 94.1963C362.49 94.1963 362.559 94.2099 362.624 94.2366C362.688 94.2632 362.747 94.3022 362.796 94.3515C362.845 94.4008 362.884 94.4593 362.911 94.5237C362.938 94.5881 362.951 94.6571 362.951 94.7268C362.951 94.7965 362.937 94.8655 362.91 94.9298C362.884 94.9941 362.844 95.0526 362.795 95.1017Z" fill="#CCCCCC"/>
<path d="M269.722 95.1017L284.709 110.089C284.809 110.188 284.943 110.244 285.084 110.244C285.224 110.244 285.359 110.188 285.459 110.089C285.558 109.989 285.614 109.855 285.614 109.714C285.614 109.574 285.558 109.439 285.459 109.339L270.472 94.3524C270.422 94.303 270.364 94.2638 270.3 94.237C270.235 94.2102 270.166 94.1964 270.097 94.1963C270.027 94.1963 269.958 94.2099 269.894 94.2366C269.829 94.2632 269.771 94.3022 269.721 94.3515C269.672 94.4008 269.633 94.4593 269.606 94.5237C269.58 94.5881 269.566 94.6571 269.566 94.7268C269.566 94.7965 269.58 94.8655 269.607 94.9298C269.634 94.9941 269.673 95.0526 269.722 95.1017Z" fill="#CCCCCC"/>
</g>
<defs>
<clipPath id="clip0_548_4158">
<rect width="492" height="336.581" fill="white" transform="translate(0 0.902344)"/>
</clipPath>
</defs>
</svg>
