<svg width="341" height="27" viewBox="0 0 341 27" fill="none" xmlns="http://www.w3.org/2000/svg">
<g clip-path="url(#clip0_2211_2623)">
<rect width="85" height="27" fill="#2CAF85"/>
<path d="M15.9996 9.234V10.466H13.8546V17H12.3036V10.466H10.1696V9.234H15.9996ZM20.9014 17L19.0864 13.975H18.4044V17H16.8534V9.234H19.8124C20.7144 9.234 21.4001 9.454 21.8694 9.894C22.3461 10.334 22.5844 10.9133 22.5844 11.632C22.5844 12.2187 22.4194 12.71 22.0894 13.106C21.7667 13.502 21.2974 13.766 20.6814 13.898L22.6174 17H20.9014ZM18.4044 12.908H19.6804C20.5677 12.908 21.0114 12.5157 21.0114 11.731C21.0114 11.357 20.9014 11.0673 20.6814 10.862C20.4687 10.6493 20.1351 10.543 19.6804 10.543H18.4044V12.908ZM25.1827 10.466V12.479H27.9327V13.667H25.1827V15.757H28.2627V17H23.6317V9.234H28.2627V10.466H25.1827ZM34.746 14.877C34.746 15.273 34.647 15.6397 34.449 15.977C34.251 16.307 33.9577 16.5747 33.569 16.78C33.1804 16.978 32.7074 17.077 32.15 17.077C31.6 17.077 31.1087 16.9853 30.676 16.802C30.2434 16.6113 29.895 16.34 29.631 15.988C29.3744 15.636 29.2277 15.2253 29.191 14.756H30.841C30.8777 15.0713 31.0024 15.3353 31.215 15.548C31.435 15.7533 31.7247 15.856 32.084 15.856C32.4067 15.856 32.6524 15.7717 32.821 15.603C32.997 15.427 33.085 15.2033 33.085 14.932C33.085 14.69 33.0154 14.492 32.876 14.338C32.7367 14.1767 32.5607 14.0483 32.348 13.953C32.1354 13.8577 31.842 13.7477 31.468 13.623C30.984 13.4617 30.588 13.304 30.28 13.15C29.972 12.9887 29.708 12.7577 29.488 12.457C29.2754 12.1563 29.169 11.764 29.169 11.28C29.169 10.6127 29.4074 10.0883 29.884 9.707C30.368 9.31833 31.006 9.124 31.798 9.124C32.6194 9.124 33.272 9.322 33.756 9.718C34.2474 10.114 34.526 10.642 34.592 11.302H32.92C32.876 11.0233 32.7587 10.796 32.568 10.62C32.3774 10.4367 32.117 10.345 31.787 10.345C31.501 10.345 31.27 10.422 31.094 10.576C30.918 10.7227 30.83 10.939 30.83 11.225C30.83 11.4523 30.896 11.643 31.028 11.797C31.1674 11.9437 31.3397 12.0647 31.545 12.16C31.7577 12.2553 32.0437 12.3617 32.403 12.479C32.9017 12.655 33.305 12.82 33.613 12.974C33.9284 13.128 34.196 13.359 34.416 13.667C34.636 13.975 34.746 14.3783 34.746 14.877ZM42.6181 12.996C43.0874 13.0913 43.4614 13.315 43.7401 13.667C44.0261 14.0117 44.1691 14.4187 44.1691 14.888C44.1691 15.5407 43.9491 16.0577 43.5091 16.439C43.0764 16.813 42.4457 17 41.6171 17H38.2841V9.234H41.5511C42.3357 9.234 42.9371 9.40633 43.3551 9.751C43.7804 10.0957 43.9931 10.5797 43.9931 11.203C43.9931 11.687 43.8647 12.083 43.6081 12.391C43.3587 12.699 43.0287 12.9007 42.6181 12.996ZM39.8351 12.49H41.2321C41.6207 12.49 41.9141 12.4057 42.1121 12.237C42.3174 12.061 42.4201 11.8117 42.4201 11.489C42.4201 11.1663 42.3211 10.917 42.1231 10.741C41.9251 10.565 41.6207 10.477 41.2101 10.477H39.8351V12.49ZM41.3091 15.735C41.7197 15.735 42.0351 15.647 42.2551 15.471C42.4751 15.2877 42.5851 15.0237 42.5851 14.679C42.5851 14.3343 42.4714 14.0703 42.2441 13.887C42.0241 13.6963 41.7087 13.601 41.2981 13.601H39.8351V15.735H41.3091ZM48.8968 9.124C49.6228 9.124 50.2791 9.29267 50.8658 9.63C51.4598 9.96733 51.9254 10.4403 52.2628 11.049C52.6074 11.6503 52.7798 12.3323 52.7798 13.095C52.7798 13.8577 52.6074 14.5433 52.2628 15.152C51.9254 15.7607 51.4598 16.2337 50.8658 16.571C50.2791 16.9083 49.6228 17.077 48.8968 17.077C48.1708 17.077 47.5108 16.9083 46.9168 16.571C46.3301 16.2337 45.8644 15.7607 45.5198 15.152C45.1824 14.5433 45.0138 13.8577 45.0138 13.095C45.0138 12.3323 45.1824 11.6503 45.5198 11.049C45.8644 10.4403 46.3301 9.96733 46.9168 9.63C47.5108 9.29267 48.1708 9.124 48.8968 9.124ZM48.8968 10.554C48.4421 10.554 48.0424 10.6567 47.6978 10.862C47.3531 11.0673 47.0818 11.3643 46.8838 11.753C46.6931 12.1343 46.5978 12.5817 46.5978 13.095C46.5978 13.6083 46.6931 14.0593 46.8838 14.448C47.0818 14.8293 47.3531 15.1227 47.6978 15.328C48.0424 15.5333 48.4421 15.636 48.8968 15.636C49.3514 15.636 49.7511 15.5333 50.0958 15.328C50.4404 15.1227 50.7081 14.8293 50.8988 14.448C51.0968 14.0593 51.1958 13.6083 51.1958 13.095C51.1958 12.5817 51.0968 12.1343 50.8988 11.753C50.7081 11.3643 50.4404 11.0673 50.0958 10.862C49.7511 10.6567 49.3514 10.554 48.8968 10.554ZM60.5242 17H58.9732L55.4972 11.72V17H53.9462V9.234H55.4972L58.9732 14.558V9.234H60.5242V17ZM68.5056 17H66.9546L63.4786 11.72V17H61.9276V9.234H63.4786L66.9546 14.558V9.234H68.5056V17ZM71.4601 10.466V12.479H74.2101V13.667H71.4601V15.757H74.5401V17H69.9091V9.234H74.5401V10.466H71.4601Z" fill="white"/>
<rect width="58" height="27" transform="translate(95)" fill="#A5CC74"/>
<path d="M110.336 12.996C110.805 13.0913 111.179 13.315 111.458 13.667C111.744 14.0117 111.887 14.4187 111.887 14.888C111.887 15.5407 111.667 16.0577 111.227 16.439C110.794 16.813 110.164 17 109.335 17H106.002V9.234H109.269C110.054 9.234 110.655 9.40633 111.073 9.751C111.498 10.0957 111.711 10.5797 111.711 11.203C111.711 11.687 111.583 12.083 111.326 12.391C111.077 12.699 110.747 12.9007 110.336 12.996ZM107.553 12.49H108.95C109.339 12.49 109.632 12.4057 109.83 12.237C110.035 12.061 110.138 11.8117 110.138 11.489C110.138 11.1663 110.039 10.917 109.841 10.741C109.643 10.565 109.339 10.477 108.928 10.477H107.553V12.49ZM109.027 15.735C109.438 15.735 109.753 15.647 109.973 15.471C110.193 15.2877 110.303 15.0237 110.303 14.679C110.303 14.3343 110.189 14.0703 109.962 13.887C109.742 13.6963 109.427 13.601 109.016 13.601H107.553V15.735H109.027ZM116.615 9.124C117.341 9.124 117.997 9.29267 118.584 9.63C119.178 9.96733 119.643 10.4403 119.981 11.049C120.325 11.6503 120.498 12.3323 120.498 13.095C120.498 13.8577 120.325 14.5433 119.981 15.152C119.643 15.7607 119.178 16.2337 118.584 16.571C117.997 16.9083 117.341 17.077 116.615 17.077C115.889 17.077 115.229 16.9083 114.635 16.571C114.048 16.2337 113.582 15.7607 113.238 15.152C112.9 14.5433 112.732 13.8577 112.732 13.095C112.732 12.3323 112.9 11.6503 113.238 11.049C113.582 10.4403 114.048 9.96733 114.635 9.63C115.229 9.29267 115.889 9.124 116.615 9.124ZM116.615 10.554C116.16 10.554 115.76 10.6567 115.416 10.862C115.071 11.0673 114.8 11.3643 114.602 11.753C114.411 12.1343 114.316 12.5817 114.316 13.095C114.316 13.6083 114.411 14.0593 114.602 14.448C114.8 14.8293 115.071 15.1227 115.416 15.328C115.76 15.5333 116.16 15.636 116.615 15.636C117.069 15.636 117.469 15.5333 117.814 15.328C118.158 15.1227 118.426 14.8293 118.617 14.448C118.815 14.0593 118.914 13.6083 118.914 13.095C118.914 12.5817 118.815 12.1343 118.617 11.753C118.426 11.3643 118.158 11.0673 117.814 10.862C117.469 10.6567 117.069 10.554 116.615 10.554ZM128.242 17H126.691L123.215 11.72V17H121.664V9.234H123.215L126.691 14.558V9.234H128.242V17ZM136.223 17H134.672L131.196 11.72V17H129.645V9.234H131.196L134.672 14.558V9.234H136.223V17ZM139.178 10.466V12.479H141.928V13.667H139.178V15.757H142.258V17H137.627V9.234H142.258V10.466H139.178Z" fill="white"/>
<rect width="74" height="27" transform="translate(163)" fill="#F49838"/>
<path d="M182.536 9.322V17H180.996V11.643L179.027 17H177.685L175.716 11.665V17H174.165V9.322H176.046L178.378 15.097L180.666 9.322H182.536ZM187.582 9.124C188.308 9.124 188.964 9.29267 189.551 9.63C190.145 9.96733 190.61 10.4403 190.948 11.049C191.292 11.6503 191.465 12.3323 191.465 13.095C191.465 13.8577 191.292 14.5433 190.948 15.152C190.61 15.7607 190.145 16.2337 189.551 16.571C188.964 16.9083 188.308 17.077 187.582 17.077C186.856 17.077 186.196 16.9083 185.602 16.571C185.015 16.2337 184.549 15.7607 184.205 15.152C183.867 14.5433 183.699 13.8577 183.699 13.095C183.699 12.3323 183.867 11.6503 184.205 11.049C184.549 10.4403 185.015 9.96733 185.602 9.63C186.196 9.29267 186.856 9.124 187.582 9.124ZM187.582 10.554C187.127 10.554 186.727 10.6567 186.383 10.862C186.038 11.0673 185.767 11.3643 185.569 11.753C185.378 12.1343 185.283 12.5817 185.283 13.095C185.283 13.6083 185.378 14.0593 185.569 14.448C185.767 14.8293 186.038 15.1227 186.383 15.328C186.727 15.5333 187.127 15.636 187.582 15.636C188.036 15.636 188.436 15.5333 188.781 15.328C189.125 15.1227 189.393 14.8293 189.584 14.448C189.782 14.0593 189.881 13.6083 189.881 13.095C189.881 12.5817 189.782 12.1343 189.584 11.753C189.393 11.3643 189.125 11.0673 188.781 10.862C188.436 10.6567 188.036 10.554 187.582 10.554ZM198.89 9.234L196.261 14.283V17H194.699V14.283L192.059 9.234H193.841L195.491 12.633L197.141 9.234H198.89ZM201.272 10.466V12.479H204.022V13.667H201.272V15.757H204.352V17H199.721V9.234H204.352V10.466H201.272ZM212.078 17H210.527L207.051 11.72V17H205.5V9.234H207.051L210.527 14.558V9.234H212.078V17ZM220.06 17H218.509L215.033 11.72V17H213.482V9.234H215.033L218.509 14.558V9.234H220.06V17ZM223.014 10.466V12.479H225.764V13.667H223.014V15.757H226.094V17H221.463V9.234H226.094V10.466H223.014Z" fill="white"/>
<rect width="94" height="27" transform="translate(247)" fill="#E52322"/>
<path d="M259.393 9.234V17H257.842V9.234H259.393ZM267.374 17H265.823L262.347 11.72V17H260.796V9.234H262.347L265.823 14.558V9.234H267.374V17ZM274.113 14.877C274.113 15.273 274.014 15.6397 273.816 15.977C273.618 16.307 273.324 16.5747 272.936 16.78C272.547 16.978 272.074 17.077 271.517 17.077C270.967 17.077 270.475 16.9853 270.043 16.802C269.61 16.6113 269.262 16.34 268.998 15.988C268.741 15.636 268.594 15.2253 268.558 14.756H270.208C270.244 15.0713 270.369 15.3353 270.582 15.548C270.802 15.7533 271.091 15.856 271.451 15.856C271.773 15.856 272.019 15.7717 272.188 15.603C272.364 15.427 272.452 15.2033 272.452 14.932C272.452 14.69 272.382 14.492 272.243 14.338C272.103 14.1767 271.927 14.0483 271.715 13.953C271.502 13.8577 271.209 13.7477 270.835 13.623C270.351 13.4617 269.955 13.304 269.647 13.15C269.339 12.9887 269.075 12.7577 268.855 12.457C268.642 12.1563 268.536 11.764 268.536 11.28C268.536 10.6127 268.774 10.0883 269.251 9.707C269.735 9.31833 270.373 9.124 271.165 9.124C271.986 9.124 272.639 9.322 273.123 9.718C273.614 10.114 273.893 10.642 273.959 11.302H272.287C272.243 11.0233 272.125 10.796 271.935 10.62C271.744 10.4367 271.484 10.345 271.154 10.345C270.868 10.345 270.637 10.422 270.461 10.576C270.285 10.7227 270.197 10.939 270.197 11.225C270.197 11.4523 270.263 11.643 270.395 11.797C270.534 11.9437 270.706 12.0647 270.912 12.16C271.124 12.2553 271.41 12.3617 271.77 12.479C272.268 12.655 272.672 12.82 272.98 12.974C273.295 13.128 273.563 13.359 273.783 13.667C274.003 13.975 274.113 14.3783 274.113 14.877ZM276.751 9.234V13.788C276.751 14.3967 276.883 14.855 277.147 15.163C277.419 15.4637 277.807 15.614 278.313 15.614C278.812 15.614 279.193 15.4637 279.457 15.163C279.729 14.855 279.864 14.3967 279.864 13.788V9.234H281.404V13.788C281.404 14.5067 281.269 15.1153 280.997 15.614C280.733 16.1053 280.363 16.472 279.886 16.714C279.417 16.956 278.882 17.077 278.28 17.077C277.349 17.077 276.605 16.7983 276.047 16.241C275.49 15.6837 275.211 14.866 275.211 13.788V9.234H276.751ZM287.582 9.234V10.466H284.315V12.545H286.933V13.733H284.315V17H282.764V9.234H287.582ZM293.447 9.234V10.466H290.18V12.545H292.798V13.733H290.18V17H288.629V9.234H293.447ZM296.046 9.234V17H294.495V9.234H296.046ZM302.784 14.877C302.784 15.273 302.685 15.6397 302.487 15.977C302.289 16.307 301.995 16.5747 301.607 16.78C301.218 16.978 300.745 17.077 300.188 17.077C299.638 17.077 299.146 16.9853 298.714 16.802C298.281 16.6113 297.933 16.34 297.669 15.988C297.412 15.636 297.265 15.2253 297.229 14.756H298.879C298.915 15.0713 299.04 15.3353 299.253 15.548C299.473 15.7533 299.762 15.856 300.122 15.856C300.444 15.856 300.69 15.7717 300.859 15.603C301.035 15.427 301.123 15.2033 301.123 14.932C301.123 14.69 301.053 14.492 300.914 14.338C300.774 14.1767 300.598 14.0483 300.386 13.953C300.173 13.8577 299.88 13.7477 299.506 13.623C299.022 13.4617 298.626 13.304 298.318 13.15C298.01 12.9887 297.746 12.7577 297.526 12.457C297.313 12.1563 297.207 11.764 297.207 11.28C297.207 10.6127 297.445 10.0883 297.922 9.707C298.406 9.31833 299.044 9.124 299.836 9.124C300.657 9.124 301.31 9.322 301.794 9.718C302.285 10.114 302.564 10.642 302.63 11.302H300.958C300.914 11.0233 300.796 10.796 300.606 10.62C300.415 10.4367 300.155 10.345 299.825 10.345C299.539 10.345 299.308 10.422 299.132 10.576C298.956 10.7227 298.868 10.939 298.868 11.225C298.868 11.4523 298.934 11.643 299.066 11.797C299.205 11.9437 299.377 12.0647 299.583 12.16C299.795 12.2553 300.081 12.3617 300.441 12.479C300.939 12.655 301.343 12.82 301.651 12.974C301.966 13.128 302.234 13.359 302.454 13.667C302.674 13.975 302.784 14.3783 302.784 14.877ZM308.656 15.438H305.543L304.993 17H303.354L306.214 9.322H307.985L310.834 17H309.195L308.656 15.438ZM308.238 14.261L307.094 10.983L305.95 14.261H308.238ZM318.249 17H316.698L313.222 11.72V17H311.671V9.234H313.222L316.698 14.558V9.234H318.249V17ZM324.933 9.234V10.466H322.788V17H321.237V10.466H319.103V9.234H324.933ZM327.338 10.466V12.479H330.088V13.667H327.338V15.757H330.418V17H325.787V9.234H330.418V10.466H327.338Z" fill="white"/>
</g>
<defs>
<clipPath id="clip0_2211_2623">
<rect width="341" height="27" fill="white"/>
</clipPath>
</defs>
</svg>
