<svg width="590" height="140" viewBox="0 0 590 140" fill="none" xmlns="http://www.w3.org/2000/svg">
<g clip-path="url(#clip0_2203_3499)">
<rect width="140" height="140" fill="#DBEDE3"/>
<path d="M72.7991 75.9073C72.4227 76.2719 71.9737 76.5585 71.4793 76.7498C70.9849 76.9411 70.4554 77.0332 69.9231 77.0203C69.3907 77.0074 68.8667 76.8899 68.3828 76.6749C67.8989 76.4599 67.4652 76.1519 67.1081 75.7697C66.743 75.4059 66.4577 74.9745 66.2695 74.5013C66.0812 74.0281 65.9938 73.5229 66.0126 73.0162C66.0296 72.4711 66.1651 71.9356 66.4103 71.4446C66.6554 70.9536 67.0047 70.518 67.4354 70.1663C67.4954 70.1207 67.5435 70.0621 67.5756 69.9951C67.6078 69.9281 67.6231 69.8546 67.6203 69.7808V55.9445C67.6649 55.4064 67.9174 54.9042 68.3273 54.5381C68.7373 54.1719 69.2748 53.9686 69.8327 53.9686C70.3906 53.9686 70.928 54.1719 71.338 54.5381C71.748 54.9042 72.0004 55.4064 72.045 55.9445V69.5881C72.0456 69.6681 72.0651 69.747 72.1021 69.8186C72.1391 69.8902 72.1926 69.9526 72.2584 70.0011C72.8047 70.3397 73.2566 70.8031 73.5742 71.3505C73.8917 71.8979 74.0653 72.5125 74.0795 73.1401C74.077 73.6538 73.9687 74.1618 73.7611 74.6345C73.5535 75.1073 73.2506 75.5353 72.8702 75.8936M73.1263 69.354V55.9445C73.0717 55.1462 72.7054 54.3977 72.1018 53.851C71.4981 53.3042 70.7022 53 69.8754 53C69.0485 53 68.2526 53.3042 67.6489 53.851C67.0453 54.3977 66.679 55.1462 66.6244 55.9445V69.5743C66.1326 70.0061 65.7356 70.5291 65.4569 71.1124C65.1783 71.6957 65.0238 72.3272 65.0025 72.9695C64.9813 73.6117 65.0938 74.2515 65.3333 74.8509C65.5728 75.4502 65.9345 75.9967 66.3968 76.458C66.8422 76.9269 67.3801 77.3049 67.9787 77.5697C68.5773 77.8345 69.2246 77.9808 69.8825 78H70.0247C71.0601 77.9906 72.0673 77.6718 72.9082 77.0871C73.7491 76.5025 74.3827 75.6806 74.7223 74.734C75.0618 73.7875 75.0907 72.7625 74.805 71.7994C74.5194 70.8363 73.933 69.9822 73.1263 69.354Z" fill="#2CAF85"/>
<path d="M71.7036 70.8134L71.0491 70.3728V62.8007C71.0455 62.6667 70.9889 62.5392 70.8909 62.4444C70.793 62.3496 70.6612 62.2948 70.5227 62.2913H69.228C69.0909 62.2949 68.9606 62.3502 68.8649 62.4453C68.7693 62.5404 68.7158 62.668 68.7158 62.8007V70.5105L68.1467 70.9648C67.824 71.2181 67.5625 71.5367 67.3806 71.8982C67.1987 72.2597 67.1008 72.6554 67.0939 73.0575C67.0803 73.4304 67.1452 73.8021 67.2846 74.15C67.424 74.4979 67.635 74.8147 67.9049 75.0813C68.1675 75.3561 68.4837 75.5778 68.8354 75.7338C69.187 75.8897 69.567 75.9768 69.9536 75.9899H70.0247C70.648 75.9855 71.2538 75.7898 71.7548 75.4311C72.2559 75.0723 72.6264 74.569 72.813 73.9935C72.9996 73.418 72.9928 72.8001 72.7934 72.2286C72.594 71.6572 72.2125 71.1616 71.7036 70.8134Z" fill="#2CAF85"/>
<path d="M69.228 60.8044H70.5227C70.5981 60.8166 70.6753 60.8126 70.749 60.793C70.8227 60.7733 70.891 60.7383 70.9493 60.6905C71.0076 60.6427 71.0545 60.5832 71.0866 60.5161C71.1187 60.449 71.1354 60.3759 71.1354 60.3019C71.1354 60.228 71.1187 60.1549 71.0866 60.0878C71.0545 60.0207 71.0076 59.9612 70.9493 59.9133C70.891 59.8655 70.8227 59.8306 70.749 59.8109C70.6753 59.7912 70.5981 59.7873 70.5227 59.7994H69.228C69.105 59.8192 68.9933 59.8805 68.9127 59.9726C68.8321 60.0646 68.7878 60.1813 68.7878 60.3019C68.7878 60.4226 68.8321 60.5393 68.9127 60.6313C68.9933 60.7233 69.105 60.7847 69.228 60.8044Z" fill="#2CAF85"/>
<path d="M69.228 58.3401H70.5227C70.6612 58.3366 70.793 58.2818 70.8909 58.187C70.9889 58.0922 71.0455 57.9647 71.0491 57.8307C71.0454 57.698 70.9883 57.5719 70.89 57.4793C70.7917 57.3868 70.6599 57.335 70.5227 57.335H69.228C69.0922 57.335 68.9619 57.3873 68.8658 57.4802C68.7698 57.5732 68.7158 57.6992 68.7158 57.8307C68.7158 57.9634 68.7693 58.0909 68.8649 58.1861C68.9606 58.2812 69.0909 58.3365 69.228 58.3401Z" fill="#2CAF85"/>
<path d="M69.9342 26.6837L96.7716 53.5203V87.132H43.0969V53.5203L53.4847 43.1935L69.9868 26.6837M69.9868 24.0526L41.8477 52.2048L41.3086 52.7573V89H98.6914V52.7047L98.1523 52.1522L70 24L69.9868 24.0526Z" fill="#2CAF85"/>
<rect width="140" height="27" transform="translate(0 113)" fill="#2CAF85"/>
<path d="M41.0905 122.028V123.372H38.7505V130.5H37.0585V123.372H34.7305V122.028H41.0905ZM46.4379 130.5L44.4579 127.2H43.7139V130.5H42.0219V122.028H45.2499C46.2339 122.028 46.9819 122.268 47.4939 122.748C48.0139 123.228 48.2739 123.86 48.2739 124.644C48.2739 125.284 48.0939 125.82 47.7339 126.252C47.3819 126.684 46.8699 126.972 46.1979 127.116L48.3099 130.5H46.4379ZM43.7139 126.036H45.1059C46.0739 126.036 46.5579 125.608 46.5579 124.752C46.5579 124.344 46.4379 124.028 46.1979 123.804C45.9659 123.572 45.6019 123.456 45.1059 123.456H43.7139V126.036ZM51.1084 123.372V125.568H54.1084V126.864H51.1084V129.144H54.4684V130.5H49.4164V122.028H54.4684V123.372H51.1084ZM61.5411 128.184C61.5411 128.616 61.4331 129.016 61.2171 129.384C61.0011 129.744 60.6811 130.036 60.2571 130.26C59.8331 130.476 59.3171 130.584 58.7091 130.584C58.1091 130.584 57.5731 130.484 57.1011 130.284C56.6291 130.076 56.2491 129.78 55.9611 129.396C55.6811 129.012 55.5211 128.564 55.4811 128.052H57.2811C57.3211 128.396 57.4571 128.684 57.6891 128.916C57.9291 129.14 58.2451 129.252 58.6371 129.252C58.9891 129.252 59.2571 129.16 59.4411 128.976C59.6331 128.784 59.7291 128.54 59.7291 128.244C59.7291 127.98 59.6531 127.764 59.5011 127.596C59.3491 127.42 59.1571 127.28 58.9251 127.176C58.6931 127.072 58.3731 126.952 57.9651 126.816C57.4371 126.64 57.0051 126.468 56.6691 126.3C56.3331 126.124 56.0451 125.872 55.8051 125.544C55.5731 125.216 55.4571 124.788 55.4571 124.26C55.4571 123.532 55.7171 122.96 56.2371 122.544C56.7651 122.12 57.4611 121.908 58.3251 121.908C59.2211 121.908 59.9331 122.124 60.4611 122.556C60.9971 122.988 61.3011 123.564 61.3731 124.284H59.5491C59.5011 123.98 59.3731 123.732 59.1651 123.54C58.9571 123.34 58.6731 123.24 58.3131 123.24C58.0011 123.24 57.7491 123.324 57.5571 123.492C57.3651 123.652 57.2691 123.888 57.2691 124.2C57.2691 124.448 57.3411 124.656 57.4851 124.824C57.6371 124.984 57.8251 125.116 58.0491 125.22C58.2811 125.324 58.5931 125.44 58.9851 125.568C59.5291 125.76 59.9691 125.94 60.3051 126.108C60.6491 126.276 60.9411 126.528 61.1811 126.864C61.4211 127.2 61.5411 127.64 61.5411 128.184ZM70.1288 126.132C70.6408 126.236 71.0488 126.48 71.3528 126.864C71.6648 127.24 71.8208 127.684 71.8208 128.196C71.8208 128.908 71.5808 129.472 71.1008 129.888C70.6288 130.296 69.9408 130.5 69.0368 130.5H65.4008V122.028H68.9648C69.8208 122.028 70.4768 122.216 70.9328 122.592C71.3968 122.968 71.6288 123.496 71.6288 124.176C71.6288 124.704 71.4888 125.136 71.2088 125.472C70.9368 125.808 70.5768 126.028 70.1288 126.132ZM67.0928 125.58H68.6168C69.0408 125.58 69.3608 125.488 69.5768 125.304C69.8008 125.112 69.9128 124.84 69.9128 124.488C69.9128 124.136 69.8048 123.864 69.5888 123.672C69.3728 123.48 69.0408 123.384 68.5928 123.384H67.0928V125.58ZM68.7008 129.12C69.1488 129.12 69.4928 129.024 69.7328 128.832C69.9728 128.632 70.0928 128.344 70.0928 127.968C70.0928 127.592 69.9688 127.304 69.7208 127.104C69.4808 126.896 69.1368 126.792 68.6888 126.792H67.0928V129.12H68.7008ZM76.9783 121.908C77.7703 121.908 78.4863 122.092 79.1263 122.46C79.7743 122.828 80.2823 123.344 80.6503 124.008C81.0263 124.664 81.2143 125.408 81.2143 126.24C81.2143 127.072 81.0263 127.82 80.6503 128.484C80.2823 129.148 79.7743 129.664 79.1263 130.032C78.4863 130.4 77.7703 130.584 76.9783 130.584C76.1863 130.584 75.4663 130.4 74.8183 130.032C74.1783 129.664 73.6703 129.148 73.2943 128.484C72.9263 127.82 72.7423 127.072 72.7423 126.24C72.7423 125.408 72.9263 124.664 73.2943 124.008C73.6703 123.344 74.1783 122.828 74.8183 122.46C75.4663 122.092 76.1863 121.908 76.9783 121.908ZM76.9783 123.468C76.4823 123.468 76.0463 123.58 75.6703 123.804C75.2943 124.028 74.9983 124.352 74.7823 124.776C74.5743 125.192 74.4703 125.68 74.4703 126.24C74.4703 126.8 74.5743 127.292 74.7823 127.716C74.9983 128.132 75.2943 128.452 75.6703 128.676C76.0463 128.9 76.4823 129.012 76.9783 129.012C77.4743 129.012 77.9103 128.9 78.2863 128.676C78.6623 128.452 78.9543 128.132 79.1623 127.716C79.3783 127.292 79.4863 126.8 79.4863 126.24C79.4863 125.68 79.3783 125.192 79.1623 124.776C78.9543 124.352 78.6623 124.028 78.2863 123.804C77.9103 123.58 77.4743 123.468 76.9783 123.468ZM89.6628 130.5H87.9708L84.1788 124.74V130.5H82.4868V122.028H84.1788L87.9708 127.836V122.028H89.6628V130.5ZM98.3698 130.5H96.6778L92.8858 124.74V130.5H91.1938V122.028H92.8858L96.6778 127.836V122.028H98.3698V130.5ZM101.593 123.372V125.568H104.593V126.864H101.593V129.144H104.953V130.5H99.9008V122.028H104.953V123.372H101.593Z" fill="white"/>
<rect width="140" height="140" transform="translate(150)" fill="#EAF3E0"/>
<path d="M222.799 75.9073C222.423 76.2719 221.974 76.5585 221.479 76.7498C220.985 76.9411 220.455 77.0332 219.923 77.0203C219.391 77.0074 218.867 76.8899 218.383 76.6749C217.899 76.4599 217.465 76.1519 217.108 75.7697C216.743 75.4059 216.458 74.9745 216.269 74.5013C216.081 74.0281 215.994 73.5229 216.013 73.0162C216.03 72.4711 216.165 71.9356 216.41 71.4446C216.655 70.9536 217.005 70.518 217.435 70.1663C217.495 70.1207 217.544 70.0621 217.576 69.9951C217.608 69.9281 217.623 69.8546 217.62 69.7808V55.9445C217.665 55.4064 217.917 54.9042 218.327 54.5381C218.737 54.1719 219.275 53.9686 219.833 53.9686C220.391 53.9686 220.928 54.1719 221.338 54.5381C221.748 54.9042 222 55.4064 222.045 55.9445V69.5881C222.046 69.6681 222.065 69.747 222.102 69.8186C222.139 69.8902 222.193 69.9526 222.258 70.0011C222.805 70.3397 223.257 70.8031 223.574 71.3505C223.892 71.8979 224.065 72.5125 224.08 73.1401C224.077 73.6538 223.969 74.1618 223.761 74.6345C223.553 75.1073 223.251 75.5353 222.87 75.8936M223.126 69.354V55.9445C223.072 55.1462 222.705 54.3977 222.102 53.851C221.498 53.3042 220.702 53 219.875 53C219.049 53 218.253 53.3042 217.649 53.851C217.045 54.3977 216.679 55.1462 216.624 55.9445V69.5743C216.133 70.0061 215.736 70.5291 215.457 71.1124C215.178 71.6957 215.024 72.3272 215.003 72.9695C214.981 73.6117 215.094 74.2515 215.333 74.8509C215.573 75.4502 215.934 75.9967 216.397 76.458C216.842 76.9269 217.38 77.3049 217.979 77.5697C218.577 77.8345 219.225 77.9808 219.882 78H220.025C221.06 77.9906 222.067 77.6718 222.908 77.0871C223.749 76.5025 224.383 75.6806 224.722 74.734C225.062 73.7875 225.091 72.7625 224.805 71.7994C224.519 70.8363 223.933 69.9822 223.126 69.354Z" fill="#A5CC74"/>
<path d="M221.704 70.8134L221.049 70.3728V62.8007C221.046 62.6667 220.989 62.5392 220.891 62.4444C220.793 62.3496 220.661 62.2948 220.523 62.2913H219.228C219.091 62.2949 218.961 62.3502 218.865 62.4453C218.769 62.5404 218.716 62.668 218.716 62.8007V70.5105L218.147 70.9648C217.824 71.2181 217.562 71.5367 217.381 71.8982C217.199 72.2597 217.101 72.6554 217.094 73.0575C217.08 73.4304 217.145 73.8021 217.285 74.15C217.424 74.4979 217.635 74.8147 217.905 75.0813C218.167 75.3561 218.484 75.5778 218.835 75.7338C219.187 75.8897 219.567 75.9768 219.954 75.9899H220.025C220.648 75.9855 221.254 75.7898 221.755 75.4311C222.256 75.0723 222.626 74.569 222.813 73.9935C223 73.418 222.993 72.8001 222.793 72.2286C222.594 71.6572 222.212 71.1616 221.704 70.8134Z" fill="#A5CC74"/>
<path d="M219.228 60.8044H220.523C220.598 60.8166 220.675 60.8126 220.749 60.793C220.823 60.7733 220.891 60.7383 220.949 60.6905C221.008 60.6427 221.054 60.5832 221.087 60.5161C221.119 60.449 221.135 60.3759 221.135 60.3019C221.135 60.228 221.119 60.1549 221.087 60.0878C221.054 60.0207 221.008 59.9612 220.949 59.9133C220.891 59.8655 220.823 59.8306 220.749 59.8109C220.675 59.7912 220.598 59.7873 220.523 59.7994H219.228C219.105 59.8192 218.993 59.8805 218.913 59.9726C218.832 60.0646 218.788 60.1813 218.788 60.3019C218.788 60.4226 218.832 60.5393 218.913 60.6313C218.993 60.7233 219.105 60.7847 219.228 60.8044Z" fill="#A5CC74"/>
<path d="M219.228 58.3401H220.523C220.661 58.3366 220.793 58.2818 220.891 58.187C220.989 58.0922 221.046 57.9647 221.049 57.8307C221.045 57.698 220.988 57.5719 220.89 57.4793C220.792 57.3868 220.66 57.335 220.523 57.335H219.228C219.092 57.335 218.962 57.3873 218.866 57.4802C218.77 57.5732 218.716 57.6992 218.716 57.8307C218.716 57.9634 218.769 58.0909 218.865 58.1861C218.961 58.2812 219.091 58.3365 219.228 58.3401Z" fill="#A5CC74"/>
<path d="M219.934 26.6837L246.772 53.5203V87.132H193.097V53.5203L203.485 43.1935L219.987 26.6837M219.987 24.0526L191.848 52.2048L191.309 52.7573V89H248.691V52.7047L248.152 52.1522L220 24L219.987 24.0526Z" fill="#A5CC74"/>
<rect width="140" height="27" transform="translate(150 113)" fill="#A5CC74"/>
<path d="M205.094 126.132C205.606 126.236 206.014 126.48 206.318 126.864C206.63 127.24 206.786 127.684 206.786 128.196C206.786 128.908 206.546 129.472 206.066 129.888C205.594 130.296 204.906 130.5 204.002 130.5H200.366V122.028H203.93C204.786 122.028 205.442 122.216 205.898 122.592C206.362 122.968 206.594 123.496 206.594 124.176C206.594 124.704 206.454 125.136 206.174 125.472C205.902 125.808 205.542 126.028 205.094 126.132ZM202.058 125.58H203.582C204.006 125.58 204.326 125.488 204.542 125.304C204.766 125.112 204.878 124.84 204.878 124.488C204.878 124.136 204.77 123.864 204.554 123.672C204.338 123.48 204.006 123.384 203.558 123.384H202.058V125.58ZM203.666 129.12C204.114 129.12 204.458 129.024 204.698 128.832C204.938 128.632 205.058 128.344 205.058 127.968C205.058 127.592 204.934 127.304 204.686 127.104C204.446 126.896 204.102 126.792 203.654 126.792H202.058V129.12H203.666ZM211.943 121.908C212.735 121.908 213.451 122.092 214.091 122.46C214.739 122.828 215.247 123.344 215.615 124.008C215.991 124.664 216.179 125.408 216.179 126.24C216.179 127.072 215.991 127.82 215.615 128.484C215.247 129.148 214.739 129.664 214.091 130.032C213.451 130.4 212.735 130.584 211.943 130.584C211.151 130.584 210.431 130.4 209.783 130.032C209.143 129.664 208.635 129.148 208.259 128.484C207.891 127.82 207.707 127.072 207.707 126.24C207.707 125.408 207.891 124.664 208.259 124.008C208.635 123.344 209.143 122.828 209.783 122.46C210.431 122.092 211.151 121.908 211.943 121.908ZM211.943 123.468C211.447 123.468 211.011 123.58 210.635 123.804C210.259 124.028 209.963 124.352 209.747 124.776C209.539 125.192 209.435 125.68 209.435 126.24C209.435 126.8 209.539 127.292 209.747 127.716C209.963 128.132 210.259 128.452 210.635 128.676C211.011 128.9 211.447 129.012 211.943 129.012C212.439 129.012 212.875 128.9 213.251 128.676C213.627 128.452 213.919 128.132 214.127 127.716C214.343 127.292 214.451 126.8 214.451 126.24C214.451 125.68 214.343 125.192 214.127 124.776C213.919 124.352 213.627 124.028 213.251 123.804C212.875 123.58 212.439 123.468 211.943 123.468ZM224.628 130.5H222.936L219.144 124.74V130.5H217.452V122.028H219.144L222.936 127.836V122.028H224.628V130.5ZM233.335 130.5H231.643L227.851 124.74V130.5H226.159V122.028H227.851L231.643 127.836V122.028H233.335V130.5ZM236.558 123.372V125.568H239.558V126.864H236.558V129.144H239.918V130.5H234.866V122.028H239.918V123.372H236.558Z" fill="white"/>
<rect width="140" height="140" transform="translate(300)" fill="#FCE5CD"/>
<path d="M372.799 75.9073C372.423 76.2719 371.974 76.5585 371.479 76.7498C370.985 76.9411 370.455 77.0332 369.923 77.0203C369.391 77.0074 368.867 76.8899 368.383 76.6749C367.899 76.4599 367.465 76.1519 367.108 75.7697C366.743 75.4059 366.458 74.9745 366.269 74.5013C366.081 74.0281 365.994 73.5229 366.013 73.0162C366.03 72.4711 366.165 71.9356 366.41 71.4446C366.655 70.9536 367.005 70.518 367.435 70.1663C367.495 70.1207 367.544 70.0621 367.576 69.9951C367.608 69.9281 367.623 69.8546 367.62 69.7808V55.9445C367.665 55.4064 367.917 54.9042 368.327 54.5381C368.737 54.1719 369.275 53.9686 369.833 53.9686C370.391 53.9686 370.928 54.1719 371.338 54.5381C371.748 54.9042 372 55.4064 372.045 55.9445V69.5881C372.046 69.6681 372.065 69.747 372.102 69.8186C372.139 69.8902 372.193 69.9526 372.258 70.0011C372.805 70.3397 373.257 70.8031 373.574 71.3505C373.892 71.8979 374.065 72.5125 374.08 73.1401C374.077 73.6538 373.969 74.1618 373.761 74.6345C373.553 75.1073 373.251 75.5353 372.87 75.8936M373.126 69.354V55.9445C373.072 55.1462 372.705 54.3977 372.102 53.851C371.498 53.3042 370.702 53 369.875 53C369.049 53 368.253 53.3042 367.649 53.851C367.045 54.3977 366.679 55.1462 366.624 55.9445V69.5743C366.133 70.0061 365.736 70.5291 365.457 71.1124C365.178 71.6957 365.024 72.3272 365.003 72.9695C364.981 73.6117 365.094 74.2515 365.333 74.8509C365.573 75.4502 365.934 75.9967 366.397 76.458C366.842 76.9269 367.38 77.3049 367.979 77.5697C368.577 77.8345 369.225 77.9808 369.882 78H370.025C371.06 77.9906 372.067 77.6718 372.908 77.0871C373.749 76.5025 374.383 75.6806 374.722 74.734C375.062 73.7875 375.091 72.7625 374.805 71.7994C374.519 70.8363 373.933 69.9822 373.126 69.354Z" fill="#F49838"/>
<path d="M371.704 70.8134L371.049 70.3728V62.8007C371.046 62.6667 370.989 62.5392 370.891 62.4444C370.793 62.3496 370.661 62.2948 370.523 62.2913H369.228C369.091 62.2949 368.961 62.3502 368.865 62.4453C368.769 62.5404 368.716 62.668 368.716 62.8007V70.5105L368.147 70.9648C367.824 71.2181 367.562 71.5367 367.381 71.8982C367.199 72.2597 367.101 72.6554 367.094 73.0575C367.08 73.4304 367.145 73.8021 367.285 74.15C367.424 74.4979 367.635 74.8147 367.905 75.0813C368.167 75.3561 368.484 75.5778 368.835 75.7338C369.187 75.8897 369.567 75.9768 369.954 75.9899H370.025C370.648 75.9855 371.254 75.7898 371.755 75.4311C372.256 75.0723 372.626 74.569 372.813 73.9935C373 73.418 372.993 72.8001 372.793 72.2286C372.594 71.6572 372.212 71.1616 371.704 70.8134Z" fill="#F49838"/>
<path d="M369.228 60.8044H370.523C370.598 60.8166 370.675 60.8126 370.749 60.793C370.823 60.7733 370.891 60.7383 370.949 60.6905C371.008 60.6427 371.054 60.5832 371.087 60.5161C371.119 60.449 371.135 60.3759 371.135 60.3019C371.135 60.228 371.119 60.1549 371.087 60.0878C371.054 60.0207 371.008 59.9612 370.949 59.9133C370.891 59.8655 370.823 59.8306 370.749 59.8109C370.675 59.7912 370.598 59.7873 370.523 59.7994H369.228C369.105 59.8192 368.993 59.8805 368.913 59.9726C368.832 60.0646 368.788 60.1813 368.788 60.3019C368.788 60.4226 368.832 60.5393 368.913 60.6313C368.993 60.7233 369.105 60.7847 369.228 60.8044Z" fill="#F49838"/>
<path d="M369.228 58.3401H370.523C370.661 58.3366 370.793 58.2818 370.891 58.187C370.989 58.0922 371.046 57.9647 371.049 57.8307C371.045 57.698 370.988 57.5719 370.89 57.4793C370.792 57.3868 370.66 57.335 370.523 57.335H369.228C369.092 57.335 368.962 57.3873 368.866 57.4802C368.77 57.5732 368.716 57.6992 368.716 57.8307C368.716 57.9634 368.769 58.0909 368.865 58.1861C368.961 58.2812 369.091 58.3365 369.228 58.3401Z" fill="#F49838"/>
<path d="M369.934 26.6837L396.772 53.5203V87.132H343.097V53.5203L353.485 43.1935L369.987 26.6837M369.987 24.0526L341.848 52.2048L341.309 52.7573V89H398.691V52.7047L398.152 52.1522L370 24L369.987 24.0526Z" fill="#F49838"/>
<rect width="140" height="27" transform="translate(300 113)" fill="#F49838"/>
<path d="M350.949 122.124V130.5H349.269V124.656L347.121 130.5H345.657L343.509 124.68V130.5H341.817V122.124H343.869L346.413 128.424L348.909 122.124H350.949ZM356.453 121.908C357.245 121.908 357.961 122.092 358.601 122.46C359.249 122.828 359.757 123.344 360.125 124.008C360.501 124.664 360.689 125.408 360.689 126.24C360.689 127.072 360.501 127.82 360.125 128.484C359.757 129.148 359.249 129.664 358.601 130.032C357.961 130.4 357.245 130.584 356.453 130.584C355.661 130.584 354.941 130.4 354.293 130.032C353.653 129.664 353.145 129.148 352.769 128.484C352.401 127.82 352.217 127.072 352.217 126.24C352.217 125.408 352.401 124.664 352.769 124.008C353.145 123.344 353.653 122.828 354.293 122.46C354.941 122.092 355.661 121.908 356.453 121.908ZM356.453 123.468C355.957 123.468 355.521 123.58 355.145 123.804C354.769 124.028 354.473 124.352 354.257 124.776C354.049 125.192 353.945 125.68 353.945 126.24C353.945 126.8 354.049 127.292 354.257 127.716C354.473 128.132 354.769 128.452 355.145 128.676C355.521 128.9 355.957 129.012 356.453 129.012C356.949 129.012 357.385 128.9 357.761 128.676C358.137 128.452 358.429 128.132 358.637 127.716C358.853 127.292 358.961 126.8 358.961 126.24C358.961 125.68 358.853 125.192 358.637 124.776C358.429 124.352 358.137 124.028 357.761 123.804C357.385 123.58 356.949 123.468 356.453 123.468ZM368.789 122.028L365.921 127.536V130.5H364.217V127.536L361.337 122.028H363.281L365.081 125.736L366.881 122.028H368.789ZM371.388 123.372V125.568H374.388V126.864H371.388V129.144H374.748V130.5H369.696V122.028H374.748V123.372H371.388ZM383.176 130.5H381.484L377.692 124.74V130.5H376V122.028H377.692L381.484 127.836V122.028H383.176V130.5ZM391.883 130.5H390.191L386.399 124.74V130.5H384.707V122.028H386.399L390.191 127.836V122.028H391.883V130.5ZM395.106 123.372V125.568H398.106V126.864H395.106V129.144H398.466V130.5H393.414V122.028H398.466V123.372H395.106Z" fill="white"/>
<rect width="140" height="140" transform="translate(450)" fill="#F8C8C8"/>
<path d="M522.799 75.9073C522.423 76.2719 521.974 76.5585 521.479 76.7498C520.985 76.9411 520.455 77.0332 519.923 77.0203C519.391 77.0074 518.867 76.8899 518.383 76.6749C517.899 76.4599 517.465 76.1519 517.108 75.7697C516.743 75.4059 516.458 74.9745 516.269 74.5013C516.081 74.0281 515.994 73.5229 516.013 73.0162C516.03 72.4711 516.165 71.9356 516.41 71.4446C516.655 70.9536 517.005 70.518 517.435 70.1663C517.495 70.1207 517.544 70.0621 517.576 69.9951C517.608 69.9281 517.623 69.8546 517.62 69.7808V55.9445C517.665 55.4064 517.917 54.9042 518.327 54.5381C518.737 54.1719 519.275 53.9686 519.833 53.9686C520.391 53.9686 520.928 54.1719 521.338 54.5381C521.748 54.9042 522 55.4064 522.045 55.9445V69.5881C522.046 69.6681 522.065 69.747 522.102 69.8186C522.139 69.8902 522.193 69.9526 522.258 70.0011C522.805 70.3397 523.257 70.8031 523.574 71.3505C523.892 71.8979 524.065 72.5125 524.08 73.1401C524.077 73.6538 523.969 74.1618 523.761 74.6345C523.553 75.1073 523.251 75.5353 522.87 75.8936M523.126 69.354V55.9445C523.072 55.1462 522.705 54.3977 522.102 53.851C521.498 53.3042 520.702 53 519.875 53C519.049 53 518.253 53.3042 517.649 53.851C517.045 54.3977 516.679 55.1462 516.624 55.9445V69.5743C516.133 70.0061 515.736 70.5291 515.457 71.1124C515.178 71.6957 515.024 72.3272 515.003 72.9695C514.981 73.6117 515.094 74.2515 515.333 74.8509C515.573 75.4502 515.934 75.9967 516.397 76.458C516.842 76.9269 517.38 77.3049 517.979 77.5697C518.577 77.8345 519.225 77.9808 519.882 78H520.025C521.06 77.9906 522.067 77.6718 522.908 77.0871C523.749 76.5025 524.383 75.6806 524.722 74.734C525.062 73.7875 525.091 72.7625 524.805 71.7994C524.519 70.8363 523.933 69.9822 523.126 69.354Z" fill="#E52322"/>
<path d="M521.704 70.8134L521.049 70.3728V62.8007C521.046 62.6667 520.989 62.5392 520.891 62.4444C520.793 62.3496 520.661 62.2948 520.523 62.2913H519.228C519.091 62.2949 518.961 62.3502 518.865 62.4453C518.769 62.5404 518.716 62.668 518.716 62.8007V70.5105L518.147 70.9648C517.824 71.2181 517.562 71.5367 517.381 71.8982C517.199 72.2597 517.101 72.6554 517.094 73.0575C517.08 73.4304 517.145 73.8021 517.285 74.15C517.424 74.4979 517.635 74.8147 517.905 75.0813C518.167 75.3561 518.484 75.5778 518.835 75.7338C519.187 75.8897 519.567 75.9768 519.954 75.9899H520.025C520.648 75.9855 521.254 75.7898 521.755 75.4311C522.256 75.0723 522.626 74.569 522.813 73.9935C523 73.418 522.993 72.8001 522.793 72.2286C522.594 71.6572 522.212 71.1616 521.704 70.8134Z" fill="#E52322"/>
<path d="M519.228 60.8044H520.523C520.598 60.8166 520.675 60.8126 520.749 60.793C520.823 60.7733 520.891 60.7383 520.949 60.6905C521.008 60.6427 521.054 60.5832 521.087 60.5161C521.119 60.449 521.135 60.3759 521.135 60.3019C521.135 60.228 521.119 60.1549 521.087 60.0878C521.054 60.0207 521.008 59.9612 520.949 59.9133C520.891 59.8655 520.823 59.8306 520.749 59.8109C520.675 59.7912 520.598 59.7873 520.523 59.7994H519.228C519.105 59.8192 518.993 59.8805 518.913 59.9726C518.832 60.0646 518.788 60.1813 518.788 60.3019C518.788 60.4226 518.832 60.5393 518.913 60.6313C518.993 60.7233 519.105 60.7847 519.228 60.8044Z" fill="#E52322"/>
<path d="M519.228 58.3401H520.523C520.661 58.3366 520.793 58.2818 520.891 58.187C520.989 58.0922 521.046 57.9647 521.049 57.8307C521.045 57.698 520.988 57.5719 520.89 57.4793C520.792 57.3868 520.66 57.335 520.523 57.335H519.228C519.092 57.335 518.962 57.3873 518.866 57.4802C518.77 57.5732 518.716 57.6992 518.716 57.8307C518.716 57.9634 518.769 58.0909 518.865 58.1861C518.961 58.2812 519.091 58.3365 519.228 58.3401Z" fill="#E52322"/>
<path d="M519.934 26.6837L546.772 53.5203V87.132H493.097V53.5203L503.485 43.1935L519.987 26.6837M519.987 24.0526L491.848 52.2048L491.309 52.7573V89H548.691V52.7047L548.152 52.1522L520 24L519.987 24.0526Z" fill="#E52322"/>
<rect width="140" height="27" transform="translate(450 113)" fill="#E52322"/>
<path d="M482.247 122.028V130.5H480.555V122.028H482.247ZM490.954 130.5H489.262L485.47 124.74V130.5H483.778V122.028H485.47L489.262 127.836V122.028H490.954V130.5ZM498.305 128.184C498.305 128.616 498.197 129.016 497.981 129.384C497.765 129.744 497.445 130.036 497.021 130.26C496.597 130.476 496.081 130.584 495.473 130.584C494.873 130.584 494.337 130.484 493.865 130.284C493.393 130.076 493.013 129.78 492.725 129.396C492.445 129.012 492.285 128.564 492.245 128.052H494.045C494.085 128.396 494.221 128.684 494.453 128.916C494.693 129.14 495.009 129.252 495.401 129.252C495.753 129.252 496.021 129.16 496.205 128.976C496.397 128.784 496.493 128.54 496.493 128.244C496.493 127.98 496.417 127.764 496.265 127.596C496.113 127.42 495.921 127.28 495.689 127.176C495.457 127.072 495.137 126.952 494.729 126.816C494.201 126.64 493.769 126.468 493.433 126.3C493.097 126.124 492.809 125.872 492.569 125.544C492.337 125.216 492.221 124.788 492.221 124.26C492.221 123.532 492.481 122.96 493.001 122.544C493.529 122.12 494.225 121.908 495.089 121.908C495.985 121.908 496.697 122.124 497.225 122.556C497.761 122.988 498.065 123.564 498.137 124.284H496.313C496.265 123.98 496.137 123.732 495.929 123.54C495.721 123.34 495.437 123.24 495.077 123.24C494.765 123.24 494.513 123.324 494.321 123.492C494.129 123.652 494.033 123.888 494.033 124.2C494.033 124.448 494.105 124.656 494.249 124.824C494.401 124.984 494.589 125.116 494.813 125.22C495.045 125.324 495.357 125.44 495.749 125.568C496.293 125.76 496.733 125.94 497.069 126.108C497.413 126.276 497.705 126.528 497.945 126.864C498.185 127.2 498.305 127.64 498.305 128.184ZM501.183 122.028V126.996C501.183 127.66 501.327 128.16 501.615 128.496C501.911 128.824 502.335 128.988 502.887 128.988C503.431 128.988 503.847 128.824 504.135 128.496C504.431 128.16 504.579 127.66 504.579 126.996V122.028H506.259V126.996C506.259 127.78 506.111 128.444 505.815 128.988C505.527 129.524 505.123 129.924 504.603 130.188C504.091 130.452 503.507 130.584 502.851 130.584C501.835 130.584 501.023 130.28 500.415 129.672C499.807 129.064 499.503 128.172 499.503 126.996V122.028H501.183ZM512.999 122.028V123.372H509.435V125.64H512.291V126.936H509.435V130.5H507.743V122.028H512.999ZM519.397 122.028V123.372H515.833V125.64H518.689V126.936H515.833V130.5H514.141V122.028H519.397ZM522.231 122.028V130.5H520.539V122.028H522.231ZM529.582 128.184C529.582 128.616 529.474 129.016 529.258 129.384C529.042 129.744 528.722 130.036 528.298 130.26C527.874 130.476 527.358 130.584 526.75 130.584C526.15 130.584 525.614 130.484 525.142 130.284C524.67 130.076 524.29 129.78 524.002 129.396C523.722 129.012 523.562 128.564 523.522 128.052H525.322C525.362 128.396 525.498 128.684 525.73 128.916C525.97 129.14 526.286 129.252 526.678 129.252C527.03 129.252 527.298 129.16 527.482 128.976C527.674 128.784 527.77 128.54 527.77 128.244C527.77 127.98 527.694 127.764 527.542 127.596C527.39 127.42 527.198 127.28 526.966 127.176C526.734 127.072 526.414 126.952 526.006 126.816C525.478 126.64 525.046 126.468 524.71 126.3C524.374 126.124 524.086 125.872 523.846 125.544C523.614 125.216 523.498 124.788 523.498 124.26C523.498 123.532 523.758 122.96 524.278 122.544C524.806 122.12 525.502 121.908 526.366 121.908C527.262 121.908 527.974 122.124 528.502 122.556C529.038 122.988 529.342 123.564 529.414 124.284H527.59C527.542 123.98 527.414 123.732 527.206 123.54C526.998 123.34 526.714 123.24 526.354 123.24C526.042 123.24 525.79 123.324 525.598 123.492C525.406 123.652 525.31 123.888 525.31 124.2C525.31 124.448 525.382 124.656 525.526 124.824C525.678 124.984 525.866 125.116 526.09 125.22C526.322 125.324 526.634 125.44 527.026 125.568C527.57 125.76 528.01 125.94 528.346 126.108C528.69 126.276 528.982 126.528 529.222 126.864C529.462 127.2 529.582 127.64 529.582 128.184ZM535.989 128.796H532.593L531.993 130.5H530.205L533.325 122.124H535.257L538.365 130.5H536.577L535.989 128.796ZM535.533 127.512L534.285 123.936L533.037 127.512H535.533ZM546.454 130.5H544.762L540.97 124.74V130.5H539.278V122.028H540.97L544.762 127.836V122.028H546.454V130.5ZM553.745 122.028V123.372H551.405V130.5H549.713V123.372H547.385V122.028H553.745ZM556.368 123.372V125.568H559.368V126.864H556.368V129.144H559.728V130.5H554.676V122.028H559.728V123.372H556.368Z" fill="white"/>
</g>
<defs>
<clipPath id="clip0_2203_3499">
<rect width="590" height="140" fill="white"/>
</clipPath>
</defs>
</svg>
