<svg width="440" height="140" viewBox="0 0 440 140" fill="none" xmlns="http://www.w3.org/2000/svg">
<g clip-path="url(#clip0_2203_3528)">
<rect width="140" height="140" fill="#DBEDE3"/>
<g clip-path="url(#clip1_2203_3528)">
<path d="M70 29.5C64.6599 29.5 59.4397 31.0835 54.9996 34.0503C50.5595 37.0171 47.0988 41.2339 45.0553 46.1675C43.0117 51.1011 42.477 56.5299 43.5188 61.7674C44.5606 67.0049 47.1321 71.8159 50.9081 75.5919C54.6841 79.3679 59.4951 81.9394 64.7326 82.9812C69.9701 84.023 75.3989 83.4883 80.3325 81.4447C85.2661 79.4012 89.4829 75.9405 92.4497 71.5004C95.4165 67.0603 97 61.8401 97 56.5C97 49.3391 94.1554 42.4716 89.0919 37.4081C84.0284 32.3446 77.1609 29.5 70 29.5ZM70 33.253C74.5978 33.253 79.0924 34.6164 82.9153 37.1708C86.7383 39.7252 89.7179 43.3559 91.4774 47.6038C93.2369 51.8516 93.6973 56.5258 92.8003 61.0353C91.9033 65.5447 89.6893 69.687 86.4381 72.9381C83.187 76.1893 79.0447 78.4033 74.5353 79.3003C70.0258 80.1973 65.3516 79.7369 61.1038 77.9774C56.8559 76.2179 53.2252 73.2383 50.6708 69.4153C48.1164 65.5924 46.753 61.0978 46.753 56.5C46.7602 50.3367 49.2117 44.4279 53.5698 40.0698C57.9279 35.7117 63.8367 33.2601 70 33.253Z" fill="#2CAF85"/>
<path d="M86.0782 55.0691C85.8872 55.0572 85.6959 55.0861 85.5169 55.1539C85.3379 55.2216 85.1754 55.3266 85.04 55.4619C84.9047 55.5972 84.7997 55.7598 84.732 55.9388C84.6643 56.1177 84.6354 56.3091 84.6472 56.5001C84.5313 60.3274 82.9295 63.9591 80.1812 66.6253C77.433 69.2916 73.7545 70.7827 69.9255 70.7827C66.0964 70.7827 62.4179 69.2916 59.6697 66.6253C56.9215 63.9591 55.3196 60.3274 55.2037 56.5001C55.2037 56.1206 55.0529 55.7566 54.7846 55.4882C54.5162 55.2199 54.1522 55.0691 53.7727 55.0691C53.3932 55.0691 53.0292 55.2199 52.7609 55.4882C52.4925 55.7566 52.3417 56.1206 52.3417 56.5001C52.3427 59.9956 53.3819 63.4121 55.3275 66.3162C57.2731 69.2202 60.0375 71.4809 63.2699 72.8114C66.5023 74.142 70.0571 74.4825 73.4833 73.7897C76.9095 73.0969 80.0527 71.402 82.5142 68.9201C84.1304 67.2857 85.4046 65.3455 86.2622 63.213C87.1199 61.0805 87.5438 58.7984 87.5092 56.5001C87.5211 56.3091 87.4922 56.1177 87.4245 55.9388C87.3567 55.7598 87.2517 55.5972 87.1164 55.4619C86.9811 55.3266 86.8185 55.2216 86.6396 55.1539C86.4606 55.0861 86.2692 55.0572 86.0782 55.0691Z" fill="#2CAF85"/>
<path d="M59.2268 45.6595C59.7608 45.6595 60.2828 45.8179 60.7268 46.1145C61.1708 46.4112 61.5169 46.8329 61.7213 47.3263C61.9256 47.8196 61.9791 48.3625 61.8749 48.8862C61.7707 49.41 61.5136 49.8911 61.136 50.2687C60.7584 50.6463 60.2773 50.9034 59.7535 51.0076C59.2298 51.1118 58.6869 51.0583 58.1935 50.854C57.7002 50.6496 57.2785 50.3036 56.9818 49.8595C56.6851 49.4155 56.5268 48.8935 56.5268 48.3595C56.5268 47.6434 56.8113 46.9567 57.3176 46.4503C57.824 45.944 58.5107 45.6595 59.2268 45.6595Z" fill="#2CAF85"/>
<path d="M80.9754 45.6595C81.5094 45.6595 82.0314 45.8179 82.4754 46.1145C82.9194 46.4112 83.2655 46.8329 83.4698 47.3263C83.6742 47.8196 83.7277 48.3625 83.6235 48.8862C83.5193 49.41 83.2622 49.8911 82.8845 50.2687C82.5069 50.6463 82.0259 50.9034 81.5021 51.0076C80.9784 51.1118 80.4355 51.0583 79.9421 50.854C79.4488 50.6496 79.0271 50.3036 78.7304 49.8595C78.4337 49.4155 78.2754 48.8935 78.2754 48.3595C78.2754 47.6434 78.5598 46.9567 79.0662 46.4503C79.5725 45.944 80.2593 45.6595 80.9754 45.6595Z" fill="#2CAF85"/>
</g>
<rect width="140" height="27" transform="translate(0 113)" fill="#2CAF85"/>
<path d="M62.5995 126.132C63.1115 126.236 63.5195 126.48 63.8235 126.864C64.1355 127.24 64.2915 127.684 64.2915 128.196C64.2915 128.908 64.0515 129.472 63.5715 129.888C63.0995 130.296 62.4115 130.5 61.5075 130.5H57.8715V122.028H61.4355C62.2915 122.028 62.9475 122.216 63.4035 122.592C63.8675 122.968 64.0995 123.496 64.0995 124.176C64.0995 124.704 63.9595 125.136 63.6795 125.472C63.4075 125.808 63.0475 126.028 62.5995 126.132ZM59.5635 125.58H61.0875C61.5115 125.58 61.8315 125.488 62.0475 125.304C62.2715 125.112 62.3835 124.84 62.3835 124.488C62.3835 124.136 62.2755 123.864 62.0595 123.672C61.8435 123.48 61.5115 123.384 61.0635 123.384H59.5635V125.58ZM61.1715 129.12C61.6195 129.12 61.9635 129.024 62.2035 128.832C62.4435 128.632 62.5635 128.344 62.5635 127.968C62.5635 127.592 62.4395 127.304 62.1915 127.104C61.9515 126.896 61.6075 126.792 61.1595 126.792H59.5635V129.12H61.1715ZM69.449 121.908C70.241 121.908 70.957 122.092 71.597 122.46C72.245 122.828 72.753 123.344 73.121 124.008C73.497 124.664 73.685 125.408 73.685 126.24C73.685 127.072 73.497 127.82 73.121 128.484C72.753 129.148 72.245 129.664 71.597 130.032C70.957 130.4 70.241 130.584 69.449 130.584C68.657 130.584 67.937 130.4 67.289 130.032C66.649 129.664 66.141 129.148 65.765 128.484C65.397 127.82 65.213 127.072 65.213 126.24C65.213 125.408 65.397 124.664 65.765 124.008C66.141 123.344 66.649 122.828 67.289 122.46C67.937 122.092 68.657 121.908 69.449 121.908ZM69.449 123.468C68.953 123.468 68.517 123.58 68.141 123.804C67.765 124.028 67.469 124.352 67.253 124.776C67.045 125.192 66.941 125.68 66.941 126.24C66.941 126.8 67.045 127.292 67.253 127.716C67.469 128.132 67.765 128.452 68.141 128.676C68.517 128.9 68.953 129.012 69.449 129.012C69.945 129.012 70.381 128.9 70.757 128.676C71.133 128.452 71.425 128.132 71.633 127.716C71.849 127.292 71.957 126.8 71.957 126.24C71.957 125.68 71.849 125.192 71.633 124.776C71.425 124.352 71.133 124.028 70.757 123.804C70.381 123.58 69.945 123.468 69.449 123.468ZM82.1335 130.5H80.4415L76.6495 124.74V130.5H74.9575V122.028H76.6495L80.4415 127.836V122.028H82.1335V130.5Z" fill="white"/>
<rect width="140" height="140" transform="translate(150)" fill="#FCE5CD"/>
<g clip-path="url(#clip2_2203_3528)">
<path d="M220 29.5C214.66 29.5 209.44 31.0835 205 34.0503C200.559 37.0171 197.099 41.2339 195.055 46.1675C193.012 51.1011 192.477 56.5299 193.519 61.7674C194.561 67.0049 197.132 71.8159 200.908 75.5919C204.684 79.3679 209.495 81.9394 214.733 82.9812C219.97 84.023 225.399 83.4883 230.332 81.4447C235.266 79.4012 239.483 75.9405 242.45 71.5004C245.416 67.0603 247 61.8401 247 56.5C247 49.3391 244.155 42.4716 239.092 37.4081C234.028 32.3446 227.161 29.5 220 29.5ZM220 33.253C224.598 33.253 229.092 34.6164 232.915 37.1708C236.738 39.7252 239.718 43.3559 241.477 47.6038C243.237 51.8516 243.697 56.5258 242.8 61.0353C241.903 65.5447 239.689 69.687 236.438 72.9381C233.187 76.1893 229.045 78.4033 224.535 79.3003C220.026 80.1973 215.352 79.7369 211.104 77.9774C206.856 76.2179 203.225 73.2383 200.671 69.4153C198.116 65.5924 196.753 61.0978 196.753 56.5C196.76 50.3367 199.212 44.4279 203.57 40.0698C207.928 35.7117 213.837 33.2601 220 33.253Z" fill="#F49838"/>
<path d="M234.809 62.3859H204.745C204.388 62.3512 204.056 62.1848 203.815 61.919C203.574 61.6532 203.44 61.3071 203.44 60.9482C203.44 60.5892 203.574 60.2431 203.815 59.9773C204.056 59.7115 204.388 59.5451 204.745 59.5104H234.782C235.14 59.5451 235.471 59.7115 235.713 59.9773C235.954 60.2431 236.087 60.5892 236.087 60.9482C236.087 61.3071 235.954 61.6532 235.713 61.919C235.471 62.1848 235.14 62.3512 234.782 62.3859H234.809Z" fill="#F49838"/>
<path d="M209.16 45.6595C209.694 45.6595 210.216 45.8179 210.66 46.1145C211.104 46.4112 211.45 46.8329 211.654 47.3263C211.858 47.8196 211.912 48.3625 211.808 48.8862C211.703 49.41 211.446 49.8911 211.069 50.2687C210.691 50.6463 210.21 50.9034 209.686 51.0076C209.163 51.1118 208.62 51.0583 208.126 50.854C207.633 50.6496 207.211 50.3036 206.915 49.8595C206.618 49.4155 206.46 48.8935 206.46 48.3595C206.46 47.6434 206.744 46.9567 207.25 46.4503C207.757 45.944 208.443 45.6595 209.16 45.6595Z" fill="#F49838"/>
<path d="M230.894 45.6595C231.428 45.6595 231.95 45.8179 232.394 46.1145C232.838 46.4112 233.184 46.8329 233.389 47.3263C233.593 47.8196 233.647 48.3625 233.542 48.8862C233.438 49.41 233.181 49.8911 232.803 50.2687C232.426 50.6463 231.945 50.9034 231.421 51.0076C230.897 51.1118 230.354 51.0583 229.861 50.854C229.368 50.6496 228.946 50.3036 228.649 49.8595C228.353 49.4155 228.194 48.8935 228.194 48.3595C228.194 47.6434 228.479 46.9567 228.985 46.4503C229.491 45.944 230.178 45.6595 230.894 45.6595Z" fill="#F49838"/>
</g>
<rect width="140" height="27" transform="translate(150 113)" fill="#F49838"/>
<path d="M208.455 122.124V130.5H206.775V124.656L204.627 130.5H203.163L201.015 124.68V130.5H199.323V122.124H201.375L203.919 128.424L206.415 122.124H208.455ZM213.959 121.908C214.751 121.908 215.467 122.092 216.107 122.46C216.755 122.828 217.263 123.344 217.631 124.008C218.007 124.664 218.195 125.408 218.195 126.24C218.195 127.072 218.007 127.82 217.631 128.484C217.263 129.148 216.755 129.664 216.107 130.032C215.467 130.4 214.751 130.584 213.959 130.584C213.167 130.584 212.447 130.4 211.799 130.032C211.159 129.664 210.651 129.148 210.275 128.484C209.907 127.82 209.723 127.072 209.723 126.24C209.723 125.408 209.907 124.664 210.275 124.008C210.651 123.344 211.159 122.828 211.799 122.46C212.447 122.092 213.167 121.908 213.959 121.908ZM213.959 123.468C213.463 123.468 213.027 123.58 212.651 123.804C212.275 124.028 211.979 124.352 211.763 124.776C211.555 125.192 211.451 125.68 211.451 126.24C211.451 126.8 211.555 127.292 211.763 127.716C211.979 128.132 212.275 128.452 212.651 128.676C213.027 128.9 213.463 129.012 213.959 129.012C214.455 129.012 214.891 128.9 215.267 128.676C215.643 128.452 215.935 128.132 216.143 127.716C216.359 127.292 216.467 126.8 216.467 126.24C216.467 125.68 216.359 125.192 216.143 124.776C215.935 124.352 215.643 124.028 215.267 123.804C214.891 123.58 214.455 123.468 213.959 123.468ZM226.295 122.028L223.427 127.536V130.5H221.723V127.536L218.843 122.028H220.787L222.587 125.736L224.387 122.028H226.295ZM228.894 123.372V125.568H231.894V126.864H228.894V129.144H232.254V130.5H227.202V122.028H232.254V123.372H228.894ZM240.682 130.5H238.99L235.198 124.74V130.5H233.506V122.028H235.198L238.99 127.836V122.028H240.682V130.5Z" fill="white"/>
<rect width="140" height="140" transform="translate(300)" fill="#F8C8C8"/>
<g clip-path="url(#clip3_2203_3528)">
<path d="M370 29.5C364.66 29.5 359.44 31.0835 355 34.0503C350.559 37.0171 347.099 41.2339 345.055 46.1675C343.012 51.1011 342.477 56.5299 343.519 61.7674C344.561 67.0049 347.132 71.8159 350.908 75.5919C354.684 79.3679 359.495 81.9394 364.733 82.9812C369.97 84.023 375.399 83.4883 380.332 81.4447C385.266 79.4012 389.483 75.9405 392.45 71.5004C395.416 67.0603 397 61.8401 397 56.5C397 49.3391 394.155 42.4716 389.092 37.4081C384.028 32.3446 377.161 29.5 370 29.5ZM370 33.253C374.598 33.253 379.092 34.6164 382.915 37.1708C386.738 39.7252 389.718 43.3559 391.477 47.6038C393.237 51.8516 393.697 56.5258 392.8 61.0353C391.903 65.5447 389.689 69.687 386.438 72.9381C383.187 76.1893 379.045 78.4033 374.535 79.3003C370.026 80.1973 365.352 79.7369 361.104 77.9774C356.856 76.2179 353.225 73.2383 350.671 69.4153C348.116 65.5924 346.753 61.0978 346.753 56.5C346.76 50.3367 349.212 44.4279 353.57 40.0698C357.928 35.7117 363.837 33.2601 370 33.253Z" fill="#E52322"/>
<path d="M384.809 62.3859H354.745C354.388 62.3512 354.056 62.1848 353.815 61.919C353.574 61.6532 353.44 61.3071 353.44 60.9482C353.44 60.5892 353.574 60.2431 353.815 59.9773C354.056 59.7115 354.388 59.5451 354.745 59.5104H384.782C385.14 59.5451 385.471 59.7115 385.713 59.9773C385.954 60.2431 386.087 60.5892 386.087 60.9482C386.087 61.3071 385.954 61.6532 385.713 61.919C385.471 62.1848 385.14 62.3512 384.782 62.3859H384.809Z" fill="#E52322"/>
<path d="M359.16 45.6595C359.694 45.6595 360.216 45.8179 360.66 46.1145C361.104 46.4112 361.45 46.8329 361.654 47.3263C361.858 47.8196 361.912 48.3625 361.808 48.8862C361.703 49.41 361.446 49.8911 361.069 50.2687C360.691 50.6463 360.21 50.9034 359.686 51.0076C359.163 51.1118 358.62 51.0583 358.126 50.854C357.633 50.6496 357.211 50.3036 356.915 49.8595C356.618 49.4155 356.46 48.8935 356.46 48.3595C356.46 47.6434 356.744 46.9567 357.25 46.4503C357.757 45.944 358.443 45.6595 359.16 45.6595Z" fill="#E52322"/>
<path d="M380.894 45.6595C381.428 45.6595 381.95 45.8179 382.394 46.1145C382.838 46.4112 383.184 46.8329 383.389 47.3263C383.593 47.8196 383.647 48.3625 383.542 48.8862C383.438 49.41 383.181 49.8911 382.803 50.2687C382.426 50.6463 381.945 50.9034 381.421 51.0076C380.897 51.1118 380.354 51.0583 379.861 50.854C379.368 50.6496 378.946 50.3036 378.649 49.8595C378.353 49.4155 378.194 48.8935 378.194 48.3595C378.194 47.6434 378.479 46.9567 378.985 46.4503C379.491 45.944 380.178 45.6595 380.894 45.6595Z" fill="#E52322"/>
</g>
<rect width="140" height="27" transform="translate(300 113)" fill="#E52322"/>
<path d="M335.399 122.028V130.5H333.707V122.028H335.399ZM344.106 130.5H342.414L338.622 124.74V130.5H336.93V122.028H338.622L342.414 127.836V122.028H344.106V130.5ZM351.457 128.184C351.457 128.616 351.349 129.016 351.133 129.384C350.917 129.744 350.597 130.036 350.173 130.26C349.749 130.476 349.233 130.584 348.625 130.584C348.025 130.584 347.489 130.484 347.017 130.284C346.545 130.076 346.165 129.78 345.877 129.396C345.597 129.012 345.437 128.564 345.397 128.052H347.197C347.237 128.396 347.373 128.684 347.605 128.916C347.845 129.14 348.161 129.252 348.553 129.252C348.905 129.252 349.173 129.16 349.357 128.976C349.549 128.784 349.645 128.54 349.645 128.244C349.645 127.98 349.569 127.764 349.417 127.596C349.265 127.42 349.073 127.28 348.841 127.176C348.609 127.072 348.289 126.952 347.881 126.816C347.353 126.64 346.921 126.468 346.585 126.3C346.249 126.124 345.961 125.872 345.721 125.544C345.489 125.216 345.373 124.788 345.373 124.26C345.373 123.532 345.633 122.96 346.153 122.544C346.681 122.12 347.377 121.908 348.241 121.908C349.137 121.908 349.849 122.124 350.377 122.556C350.913 122.988 351.217 123.564 351.289 124.284H349.465C349.417 123.98 349.289 123.732 349.081 123.54C348.873 123.34 348.589 123.24 348.229 123.24C347.917 123.24 347.665 123.324 347.473 123.492C347.281 123.652 347.185 123.888 347.185 124.2C347.185 124.448 347.257 124.656 347.401 124.824C347.553 124.984 347.741 125.116 347.965 125.22C348.197 125.324 348.509 125.44 348.901 125.568C349.445 125.76 349.885 125.94 350.221 126.108C350.565 126.276 350.857 126.528 351.097 126.864C351.337 127.2 351.457 127.64 351.457 128.184ZM354.336 122.028V126.996C354.336 127.66 354.48 128.16 354.768 128.496C355.064 128.824 355.488 128.988 356.04 128.988C356.584 128.988 357 128.824 357.288 128.496C357.584 128.16 357.732 127.66 357.732 126.996V122.028H359.412V126.996C359.412 127.78 359.264 128.444 358.968 128.988C358.68 129.524 358.276 129.924 357.756 130.188C357.244 130.452 356.66 130.584 356.004 130.584C354.988 130.584 354.176 130.28 353.568 129.672C352.96 129.064 352.656 128.172 352.656 126.996V122.028H354.336ZM366.151 122.028V123.372H362.587V125.64H365.443V126.936H362.587V130.5H360.895V122.028H366.151ZM372.549 122.028V123.372H368.985V125.64H371.841V126.936H368.985V130.5H367.293V122.028H372.549ZM375.384 122.028V130.5H373.692V122.028H375.384ZM382.734 128.184C382.734 128.616 382.626 129.016 382.41 129.384C382.194 129.744 381.874 130.036 381.45 130.26C381.026 130.476 380.51 130.584 379.902 130.584C379.302 130.584 378.766 130.484 378.294 130.284C377.822 130.076 377.442 129.78 377.154 129.396C376.874 129.012 376.714 128.564 376.674 128.052H378.474C378.514 128.396 378.65 128.684 378.882 128.916C379.122 129.14 379.438 129.252 379.83 129.252C380.182 129.252 380.45 129.16 380.634 128.976C380.826 128.784 380.922 128.54 380.922 128.244C380.922 127.98 380.846 127.764 380.694 127.596C380.542 127.42 380.35 127.28 380.118 127.176C379.886 127.072 379.566 126.952 379.158 126.816C378.63 126.64 378.198 126.468 377.862 126.3C377.526 126.124 377.238 125.872 376.998 125.544C376.766 125.216 376.65 124.788 376.65 124.26C376.65 123.532 376.91 122.96 377.43 122.544C377.958 122.12 378.654 121.908 379.518 121.908C380.414 121.908 381.126 122.124 381.654 122.556C382.19 122.988 382.494 123.564 382.566 124.284H380.742C380.694 123.98 380.566 123.732 380.358 123.54C380.15 123.34 379.866 123.24 379.506 123.24C379.194 123.24 378.942 123.324 378.75 123.492C378.558 123.652 378.462 123.888 378.462 124.2C378.462 124.448 378.534 124.656 378.678 124.824C378.83 124.984 379.018 125.116 379.242 125.22C379.474 125.324 379.786 125.44 380.178 125.568C380.722 125.76 381.162 125.94 381.498 126.108C381.842 126.276 382.134 126.528 382.374 126.864C382.614 127.2 382.734 127.64 382.734 128.184ZM389.141 128.796H385.745L385.145 130.5H383.357L386.477 122.124H388.409L391.517 130.5H389.729L389.141 128.796ZM388.685 127.512L387.437 123.936L386.189 127.512H388.685ZM399.606 130.5H397.914L394.122 124.74V130.5H392.43V122.028H394.122L397.914 127.836V122.028H399.606V130.5ZM406.897 122.028V123.372H404.557V130.5H402.865V123.372H400.537V122.028H406.897Z" fill="white"/>
</g>
<defs>
<clipPath id="clip0_2203_3528">
<rect width="440" height="140" fill="white"/>
</clipPath>
<clipPath id="clip1_2203_3528">
<rect width="54" height="54" fill="white" transform="translate(43 29.5)"/>
</clipPath>
<clipPath id="clip2_2203_3528">
<rect width="54" height="54" fill="white" transform="translate(193 29.5)"/>
</clipPath>
<clipPath id="clip3_2203_3528">
<rect width="54" height="54" fill="white" transform="translate(343 29.5)"/>
</clipPath>
</defs>
</svg>
