<svg width="590" height="140" viewBox="0 0 590 140" fill="none" xmlns="http://www.w3.org/2000/svg">
<g clip-path="url(#clip0_2211_2547)">
<rect width="140" height="140" fill="#DBEDE3"/>
<path d="M62.4379 61.0492H72.8757C73.3524 61.0492 73.8096 61.2417 74.1466 61.5842C74.4837 61.9267 74.6731 62.3912 74.6731 62.8755V65.0671C74.6764 65.1629 74.7153 65.2539 74.782 65.3216C74.8487 65.3894 74.9383 65.429 75.0325 65.4324H77.2027C77.2957 65.4324 77.3852 65.3958 77.4522 65.3302C77.5193 65.2646 77.5587 65.1751 77.5621 65.0806V61.0222C77.5586 60.246 77.2527 59.5028 76.7113 58.9551C76.1698 58.4075 75.437 58.1001 74.6731 58.1001H62.4379V61.0492ZM77.2027 66.9069H75.0325C74.5546 66.9034 74.0975 66.7079 73.7608 66.3633C73.4241 66.0186 73.2352 65.5527 73.2352 65.0671V62.8755C73.2352 62.7787 73.1973 62.6858 73.1299 62.6173C73.0625 62.5488 72.9711 62.5103 72.8757 62.5103H61.7189C61.5283 62.5103 61.3454 62.4333 61.2106 62.2963C61.0757 62.1593 61 61.9735 61 61.7798V57.3831C61 57.1894 61.0757 57.0036 61.2106 56.8666C61.3454 56.7296 61.5283 56.6526 61.7189 56.6526H74.6731C75.8196 56.6562 76.9181 57.1205 77.7288 57.9443C78.5395 58.768 78.9965 59.8843 79 61.0492V65.1077C78.9965 65.591 78.806 66.0534 78.4697 66.3952C78.1334 66.7369 77.6783 66.9304 77.2027 66.934" fill="#2CAF85"/>
<path d="M69.6405 58.1272C69.4486 58.1236 69.2658 58.0437 69.1313 57.9045C68.9969 57.7654 68.9216 57.5781 68.9216 57.3831V53.7305C68.9216 53.5368 68.9973 53.351 69.1322 53.214C69.267 53.077 69.4499 53 69.6405 53C69.8312 53 70.0141 53.077 70.1489 53.214C70.2837 53.351 70.3595 53.5368 70.3595 53.7305V57.3831C70.3595 57.5781 70.2842 57.7654 70.1497 57.9045C70.0153 58.0437 69.8324 58.1236 69.6405 58.1272Z" fill="#2CAF85"/>
<path d="M73.2352 54.5016H66.0325C65.8419 54.5016 65.659 54.4247 65.5242 54.2877C65.3894 54.1507 65.3136 53.9648 65.3136 53.7711C65.3136 53.5774 65.3894 53.3915 65.5242 53.2545C65.659 53.1175 65.8419 53.0406 66.0325 53.0406H73.2352C73.4259 53.0406 73.6087 53.1175 73.7436 53.2545C73.8784 53.3915 73.9541 53.5774 73.9541 53.7711C73.9541 53.9648 73.8784 54.1507 73.7436 54.2877C73.6087 54.4247 73.4259 54.5016 73.2352 54.5016Z" fill="#2CAF85"/>
<path d="M75.5651 72.5887C74.9133 73.3583 74.4158 74.2498 74.1006 75.2132C74.1006 75.6079 74.2549 75.9864 74.5295 76.2654C74.8042 76.5445 75.1767 76.7013 75.5651 76.7013C75.9535 76.7013 76.326 76.5445 76.6006 76.2654C76.8753 75.9864 77.0296 75.6079 77.0296 75.2132C76.7071 74.2531 76.2104 73.3629 75.5651 72.5887ZM75.5651 78C74.8377 78 74.1401 77.7064 73.6258 77.1838C73.1114 76.6611 72.8225 75.9523 72.8225 75.2132C72.8225 74.0904 74.3935 71.98 75.0592 71.1548C75.1216 71.08 75.199 71.0196 75.2863 70.9776C75.3735 70.9356 75.4686 70.913 75.5651 70.9113C75.66 70.9112 75.7537 70.9331 75.839 70.9753C75.9244 71.0175 75.9991 71.0789 76.0577 71.1548C76.5902 71.8312 78.3077 74.1039 78.3077 75.2132C78.3077 75.9523 78.0187 76.6611 77.5044 77.1838C76.9901 77.7064 76.2925 78 75.5651 78Z" fill="#2CAF85"/>
<path d="M69.9342 26.6837L96.7716 53.5203V87.132H43.0969V53.5203L53.4847 43.1935L69.9868 26.6837M69.9868 24.0526L41.8477 52.2048L41.3086 52.7573V89H98.6914V52.7047L98.1523 52.1522L70 24L69.9868 24.0526Z" fill="#2CAF85"/>
<rect width="140" height="27" transform="translate(0 113)" fill="#2CAF85"/>
<path d="M41.0905 122.028V123.372H38.7505V130.5H37.0585V123.372H34.7305V122.028H41.0905ZM46.4379 130.5L44.4579 127.2H43.7139V130.5H42.0219V122.028H45.2499C46.2339 122.028 46.9819 122.268 47.4939 122.748C48.0139 123.228 48.2739 123.86 48.2739 124.644C48.2739 125.284 48.0939 125.82 47.7339 126.252C47.3819 126.684 46.8699 126.972 46.1979 127.116L48.3099 130.5H46.4379ZM43.7139 126.036H45.1059C46.0739 126.036 46.5579 125.608 46.5579 124.752C46.5579 124.344 46.4379 124.028 46.1979 123.804C45.9659 123.572 45.6019 123.456 45.1059 123.456H43.7139V126.036ZM51.1084 123.372V125.568H54.1084V126.864H51.1084V129.144H54.4684V130.5H49.4164V122.028H54.4684V123.372H51.1084ZM61.5411 128.184C61.5411 128.616 61.4331 129.016 61.2171 129.384C61.0011 129.744 60.6811 130.036 60.2571 130.26C59.8331 130.476 59.3171 130.584 58.7091 130.584C58.1091 130.584 57.5731 130.484 57.1011 130.284C56.6291 130.076 56.2491 129.78 55.9611 129.396C55.6811 129.012 55.5211 128.564 55.4811 128.052H57.2811C57.3211 128.396 57.4571 128.684 57.6891 128.916C57.9291 129.14 58.2451 129.252 58.6371 129.252C58.9891 129.252 59.2571 129.16 59.4411 128.976C59.6331 128.784 59.7291 128.54 59.7291 128.244C59.7291 127.98 59.6531 127.764 59.5011 127.596C59.3491 127.42 59.1571 127.28 58.9251 127.176C58.6931 127.072 58.3731 126.952 57.9651 126.816C57.4371 126.64 57.0051 126.468 56.6691 126.3C56.3331 126.124 56.0451 125.872 55.8051 125.544C55.5731 125.216 55.4571 124.788 55.4571 124.26C55.4571 123.532 55.7171 122.96 56.2371 122.544C56.7651 122.12 57.4611 121.908 58.3251 121.908C59.2211 121.908 59.9331 122.124 60.4611 122.556C60.9971 122.988 61.3011 123.564 61.3731 124.284H59.5491C59.5011 123.98 59.3731 123.732 59.1651 123.54C58.9571 123.34 58.6731 123.24 58.3131 123.24C58.0011 123.24 57.7491 123.324 57.5571 123.492C57.3651 123.652 57.2691 123.888 57.2691 124.2C57.2691 124.448 57.3411 124.656 57.4851 124.824C57.6371 124.984 57.8251 125.116 58.0491 125.22C58.2811 125.324 58.5931 125.44 58.9851 125.568C59.5291 125.76 59.9691 125.94 60.3051 126.108C60.6491 126.276 60.9411 126.528 61.1811 126.864C61.4211 127.2 61.5411 127.64 61.5411 128.184ZM70.1288 126.132C70.6408 126.236 71.0488 126.48 71.3528 126.864C71.6648 127.24 71.8208 127.684 71.8208 128.196C71.8208 128.908 71.5808 129.472 71.1008 129.888C70.6288 130.296 69.9408 130.5 69.0368 130.5H65.4008V122.028H68.9648C69.8208 122.028 70.4768 122.216 70.9328 122.592C71.3968 122.968 71.6288 123.496 71.6288 124.176C71.6288 124.704 71.4888 125.136 71.2088 125.472C70.9368 125.808 70.5768 126.028 70.1288 126.132ZM67.0928 125.58H68.6168C69.0408 125.58 69.3608 125.488 69.5768 125.304C69.8008 125.112 69.9128 124.84 69.9128 124.488C69.9128 124.136 69.8048 123.864 69.5888 123.672C69.3728 123.48 69.0408 123.384 68.5928 123.384H67.0928V125.58ZM68.7008 129.12C69.1488 129.12 69.4928 129.024 69.7328 128.832C69.9728 128.632 70.0928 128.344 70.0928 127.968C70.0928 127.592 69.9688 127.304 69.7208 127.104C69.4808 126.896 69.1368 126.792 68.6888 126.792H67.0928V129.12H68.7008ZM76.9783 121.908C77.7703 121.908 78.4863 122.092 79.1263 122.46C79.7743 122.828 80.2823 123.344 80.6503 124.008C81.0263 124.664 81.2143 125.408 81.2143 126.24C81.2143 127.072 81.0263 127.82 80.6503 128.484C80.2823 129.148 79.7743 129.664 79.1263 130.032C78.4863 130.4 77.7703 130.584 76.9783 130.584C76.1863 130.584 75.4663 130.4 74.8183 130.032C74.1783 129.664 73.6703 129.148 73.2943 128.484C72.9263 127.82 72.7423 127.072 72.7423 126.24C72.7423 125.408 72.9263 124.664 73.2943 124.008C73.6703 123.344 74.1783 122.828 74.8183 122.46C75.4663 122.092 76.1863 121.908 76.9783 121.908ZM76.9783 123.468C76.4823 123.468 76.0463 123.58 75.6703 123.804C75.2943 124.028 74.9983 124.352 74.7823 124.776C74.5743 125.192 74.4703 125.68 74.4703 126.24C74.4703 126.8 74.5743 127.292 74.7823 127.716C74.9983 128.132 75.2943 128.452 75.6703 128.676C76.0463 128.9 76.4823 129.012 76.9783 129.012C77.4743 129.012 77.9103 128.9 78.2863 128.676C78.6623 128.452 78.9543 128.132 79.1623 127.716C79.3783 127.292 79.4863 126.8 79.4863 126.24C79.4863 125.68 79.3783 125.192 79.1623 124.776C78.9543 124.352 78.6623 124.028 78.2863 123.804C77.9103 123.58 77.4743 123.468 76.9783 123.468ZM89.6628 130.5H87.9708L84.1788 124.74V130.5H82.4868V122.028H84.1788L87.9708 127.836V122.028H89.6628V130.5ZM98.3698 130.5H96.6778L92.8858 124.74V130.5H91.1938V122.028H92.8858L96.6778 127.836V122.028H98.3698V130.5ZM101.593 123.372V125.568H104.593V126.864H101.593V129.144H104.953V130.5H99.9008V122.028H104.953V123.372H101.593Z" fill="white"/>
<rect width="140" height="140" transform="translate(150)" fill="#EAF3E0"/>
<path d="M212.438 61.0492H222.876C223.352 61.0492 223.81 61.2417 224.147 61.5842C224.484 61.9267 224.673 62.3912 224.673 62.8755V65.0671C224.676 65.1629 224.715 65.2539 224.782 65.3216C224.849 65.3894 224.938 65.429 225.033 65.4324H227.203C227.296 65.4324 227.385 65.3958 227.452 65.3302C227.519 65.2646 227.559 65.1751 227.562 65.0806V61.0222C227.559 60.246 227.253 59.5028 226.711 58.9551C226.17 58.4075 225.437 58.1001 224.673 58.1001H212.438V61.0492ZM227.203 66.9069H225.033C224.555 66.9034 224.098 66.7079 223.761 66.3633C223.424 66.0186 223.235 65.5527 223.235 65.0671V62.8755C223.235 62.7787 223.197 62.6858 223.13 62.6173C223.063 62.5488 222.971 62.5103 222.876 62.5103H211.719C211.528 62.5103 211.345 62.4333 211.211 62.2963C211.076 62.1593 211 61.9735 211 61.7798V57.3831C211 57.1894 211.076 57.0036 211.211 56.8666C211.345 56.7296 211.528 56.6526 211.719 56.6526H224.673C225.82 56.6562 226.918 57.1205 227.729 57.9443C228.539 58.768 228.996 59.8843 229 61.0492V65.1077C228.997 65.591 228.806 66.0534 228.47 66.3952C228.133 66.7369 227.678 66.9304 227.203 66.934" fill="#A5CC74"/>
<path d="M219.641 58.1272C219.449 58.1236 219.266 58.0437 219.131 57.9045C218.997 57.7654 218.922 57.5781 218.922 57.3831V53.7305C218.922 53.5368 218.997 53.351 219.132 53.214C219.267 53.077 219.45 53 219.641 53C219.831 53 220.014 53.077 220.149 53.214C220.284 53.351 220.359 53.5368 220.359 53.7305V57.3831C220.359 57.5781 220.284 57.7654 220.15 57.9045C220.015 58.0437 219.832 58.1236 219.641 58.1272Z" fill="#A5CC74"/>
<path d="M223.235 54.5016H216.033C215.842 54.5016 215.659 54.4247 215.524 54.2877C215.389 54.1507 215.314 53.9648 215.314 53.7711C215.314 53.5774 215.389 53.3915 215.524 53.2545C215.659 53.1175 215.842 53.0406 216.033 53.0406H223.235C223.426 53.0406 223.609 53.1175 223.744 53.2545C223.878 53.3915 223.954 53.5774 223.954 53.7711C223.954 53.9648 223.878 54.1507 223.744 54.2877C223.609 54.4247 223.426 54.5016 223.235 54.5016Z" fill="#A5CC74"/>
<path d="M225.565 72.5887C224.913 73.3583 224.416 74.2498 224.101 75.2132C224.101 75.6079 224.255 75.9864 224.53 76.2654C224.804 76.5445 225.177 76.7013 225.565 76.7013C225.953 76.7013 226.326 76.5445 226.601 76.2654C226.875 75.9864 227.03 75.6079 227.03 75.2132C226.707 74.2531 226.21 73.3629 225.565 72.5887ZM225.565 78C224.838 78 224.14 77.7064 223.626 77.1838C223.111 76.6611 222.822 75.9523 222.822 75.2132C222.822 74.0904 224.393 71.98 225.059 71.1548C225.122 71.08 225.199 71.0196 225.286 70.9776C225.374 70.9356 225.469 70.913 225.565 70.9113C225.66 70.9112 225.754 70.9331 225.839 70.9753C225.924 71.0175 225.999 71.0789 226.058 71.1548C226.59 71.8312 228.308 74.1039 228.308 75.2132C228.308 75.9523 228.019 76.6611 227.504 77.1838C226.99 77.7064 226.292 78 225.565 78Z" fill="#A5CC74"/>
<path d="M219.934 26.6837L246.772 53.5203V87.132H193.097V53.5203L203.485 43.1935L219.987 26.6837M219.987 24.0526L191.848 52.2048L191.309 52.7573V89H248.691V52.7047L248.152 52.1522L220 24L219.987 24.0526Z" fill="#A5CC74"/>
<rect width="140" height="27" transform="translate(150 113)" fill="#A5CC74"/>
<path d="M205.094 126.132C205.606 126.236 206.014 126.48 206.318 126.864C206.63 127.24 206.786 127.684 206.786 128.196C206.786 128.908 206.546 129.472 206.066 129.888C205.594 130.296 204.906 130.5 204.002 130.5H200.366V122.028H203.93C204.786 122.028 205.442 122.216 205.898 122.592C206.362 122.968 206.594 123.496 206.594 124.176C206.594 124.704 206.454 125.136 206.174 125.472C205.902 125.808 205.542 126.028 205.094 126.132ZM202.058 125.58H203.582C204.006 125.58 204.326 125.488 204.542 125.304C204.766 125.112 204.878 124.84 204.878 124.488C204.878 124.136 204.77 123.864 204.554 123.672C204.338 123.48 204.006 123.384 203.558 123.384H202.058V125.58ZM203.666 129.12C204.114 129.12 204.458 129.024 204.698 128.832C204.938 128.632 205.058 128.344 205.058 127.968C205.058 127.592 204.934 127.304 204.686 127.104C204.446 126.896 204.102 126.792 203.654 126.792H202.058V129.12H203.666ZM211.943 121.908C212.735 121.908 213.451 122.092 214.091 122.46C214.739 122.828 215.247 123.344 215.615 124.008C215.991 124.664 216.179 125.408 216.179 126.24C216.179 127.072 215.991 127.82 215.615 128.484C215.247 129.148 214.739 129.664 214.091 130.032C213.451 130.4 212.735 130.584 211.943 130.584C211.151 130.584 210.431 130.4 209.783 130.032C209.143 129.664 208.635 129.148 208.259 128.484C207.891 127.82 207.707 127.072 207.707 126.24C207.707 125.408 207.891 124.664 208.259 124.008C208.635 123.344 209.143 122.828 209.783 122.46C210.431 122.092 211.151 121.908 211.943 121.908ZM211.943 123.468C211.447 123.468 211.011 123.58 210.635 123.804C210.259 124.028 209.963 124.352 209.747 124.776C209.539 125.192 209.435 125.68 209.435 126.24C209.435 126.8 209.539 127.292 209.747 127.716C209.963 128.132 210.259 128.452 210.635 128.676C211.011 128.9 211.447 129.012 211.943 129.012C212.439 129.012 212.875 128.9 213.251 128.676C213.627 128.452 213.919 128.132 214.127 127.716C214.343 127.292 214.451 126.8 214.451 126.24C214.451 125.68 214.343 125.192 214.127 124.776C213.919 124.352 213.627 124.028 213.251 123.804C212.875 123.58 212.439 123.468 211.943 123.468ZM224.628 130.5H222.936L219.144 124.74V130.5H217.452V122.028H219.144L222.936 127.836V122.028H224.628V130.5ZM233.335 130.5H231.643L227.851 124.74V130.5H226.159V122.028H227.851L231.643 127.836V122.028H233.335V130.5ZM236.558 123.372V125.568H239.558V126.864H236.558V129.144H239.918V130.5H234.866V122.028H239.918V123.372H236.558Z" fill="white"/>
<rect width="140" height="140" transform="translate(300)" fill="#FCE5CD"/>
<path d="M362.438 61.0492H372.876C373.352 61.0492 373.81 61.2417 374.147 61.5842C374.484 61.9267 374.673 62.3912 374.673 62.8755V65.0671C374.676 65.1629 374.715 65.2539 374.782 65.3216C374.849 65.3894 374.938 65.429 375.033 65.4324H377.203C377.296 65.4324 377.385 65.3958 377.452 65.3302C377.519 65.2646 377.559 65.1751 377.562 65.0806V61.0222C377.559 60.246 377.253 59.5028 376.711 58.9551C376.17 58.4075 375.437 58.1001 374.673 58.1001H362.438V61.0492ZM377.203 66.9069H375.033C374.555 66.9034 374.098 66.7079 373.761 66.3633C373.424 66.0186 373.235 65.5527 373.235 65.0671V62.8755C373.235 62.7787 373.197 62.6858 373.13 62.6173C373.063 62.5488 372.971 62.5103 372.876 62.5103H361.719C361.528 62.5103 361.345 62.4333 361.211 62.2963C361.076 62.1593 361 61.9735 361 61.7798V57.3831C361 57.1894 361.076 57.0036 361.211 56.8666C361.345 56.7296 361.528 56.6526 361.719 56.6526H374.673C375.82 56.6562 376.918 57.1205 377.729 57.9443C378.539 58.768 378.996 59.8843 379 61.0492V65.1077C378.997 65.591 378.806 66.0534 378.47 66.3952C378.133 66.7369 377.678 66.9304 377.203 66.934" fill="#F49838"/>
<path d="M369.641 58.1272C369.449 58.1236 369.266 58.0437 369.131 57.9045C368.997 57.7654 368.922 57.5781 368.922 57.3831V53.7305C368.922 53.5368 368.997 53.351 369.132 53.214C369.267 53.077 369.45 53 369.641 53C369.831 53 370.014 53.077 370.149 53.214C370.284 53.351 370.359 53.5368 370.359 53.7305V57.3831C370.359 57.5781 370.284 57.7654 370.15 57.9045C370.015 58.0437 369.832 58.1236 369.641 58.1272Z" fill="#F49838"/>
<path d="M373.235 54.5016H366.033C365.842 54.5016 365.659 54.4247 365.524 54.2877C365.389 54.1507 365.314 53.9648 365.314 53.7711C365.314 53.5774 365.389 53.3915 365.524 53.2545C365.659 53.1175 365.842 53.0406 366.033 53.0406H373.235C373.426 53.0406 373.609 53.1175 373.744 53.2545C373.878 53.3915 373.954 53.5774 373.954 53.7711C373.954 53.9648 373.878 54.1507 373.744 54.2877C373.609 54.4247 373.426 54.5016 373.235 54.5016Z" fill="#F49838"/>
<path d="M375.565 72.5887C374.913 73.3583 374.416 74.2498 374.101 75.2132C374.101 75.6079 374.255 75.9864 374.53 76.2654C374.804 76.5445 375.177 76.7013 375.565 76.7013C375.953 76.7013 376.326 76.5445 376.601 76.2654C376.875 75.9864 377.03 75.6079 377.03 75.2132C376.707 74.2531 376.21 73.3629 375.565 72.5887ZM375.565 78C374.838 78 374.14 77.7064 373.626 77.1838C373.111 76.6611 372.822 75.9523 372.822 75.2132C372.822 74.0904 374.393 71.98 375.059 71.1548C375.122 71.08 375.199 71.0196 375.286 70.9776C375.374 70.9356 375.469 70.913 375.565 70.9113C375.66 70.9112 375.754 70.9331 375.839 70.9753C375.924 71.0175 375.999 71.0789 376.058 71.1548C376.59 71.8312 378.308 74.1039 378.308 75.2132C378.308 75.9523 378.019 76.6611 377.504 77.1838C376.99 77.7064 376.292 78 375.565 78Z" fill="#F49838"/>
<path d="M369.934 26.6837L396.772 53.5203V87.132H343.097V53.5203L353.485 43.1935L369.987 26.6837M369.987 24.0526L341.848 52.2048L341.309 52.7573V89H398.691V52.7047L398.152 52.1522L370 24L369.987 24.0526Z" fill="#F49838"/>
<rect width="140" height="27" transform="translate(300 113)" fill="#F49838"/>
<path d="M350.949 122.124V130.5H349.269V124.656L347.121 130.5H345.657L343.509 124.68V130.5H341.817V122.124H343.869L346.413 128.424L348.909 122.124H350.949ZM356.453 121.908C357.245 121.908 357.961 122.092 358.601 122.46C359.249 122.828 359.757 123.344 360.125 124.008C360.501 124.664 360.689 125.408 360.689 126.24C360.689 127.072 360.501 127.82 360.125 128.484C359.757 129.148 359.249 129.664 358.601 130.032C357.961 130.4 357.245 130.584 356.453 130.584C355.661 130.584 354.941 130.4 354.293 130.032C353.653 129.664 353.145 129.148 352.769 128.484C352.401 127.82 352.217 127.072 352.217 126.24C352.217 125.408 352.401 124.664 352.769 124.008C353.145 123.344 353.653 122.828 354.293 122.46C354.941 122.092 355.661 121.908 356.453 121.908ZM356.453 123.468C355.957 123.468 355.521 123.58 355.145 123.804C354.769 124.028 354.473 124.352 354.257 124.776C354.049 125.192 353.945 125.68 353.945 126.24C353.945 126.8 354.049 127.292 354.257 127.716C354.473 128.132 354.769 128.452 355.145 128.676C355.521 128.9 355.957 129.012 356.453 129.012C356.949 129.012 357.385 128.9 357.761 128.676C358.137 128.452 358.429 128.132 358.637 127.716C358.853 127.292 358.961 126.8 358.961 126.24C358.961 125.68 358.853 125.192 358.637 124.776C358.429 124.352 358.137 124.028 357.761 123.804C357.385 123.58 356.949 123.468 356.453 123.468ZM368.789 122.028L365.921 127.536V130.5H364.217V127.536L361.337 122.028H363.281L365.081 125.736L366.881 122.028H368.789ZM371.388 123.372V125.568H374.388V126.864H371.388V129.144H374.748V130.5H369.696V122.028H374.748V123.372H371.388ZM383.176 130.5H381.484L377.692 124.74V130.5H376V122.028H377.692L381.484 127.836V122.028H383.176V130.5ZM391.883 130.5H390.191L386.399 124.74V130.5H384.707V122.028H386.399L390.191 127.836V122.028H391.883V130.5ZM395.106 123.372V125.568H398.106V126.864H395.106V129.144H398.466V130.5H393.414V122.028H398.466V123.372H395.106Z" fill="white"/>
<rect width="140" height="140" transform="translate(450)" fill="#F8C8C8"/>
<path d="M512.438 61.0492H522.876C523.352 61.0492 523.81 61.2417 524.147 61.5842C524.484 61.9267 524.673 62.3912 524.673 62.8755V65.0671C524.676 65.1629 524.715 65.2539 524.782 65.3216C524.849 65.3894 524.938 65.429 525.033 65.4324H527.203C527.296 65.4324 527.385 65.3958 527.452 65.3302C527.519 65.2646 527.559 65.1751 527.562 65.0806V61.0222C527.559 60.246 527.253 59.5028 526.711 58.9551C526.17 58.4075 525.437 58.1001 524.673 58.1001H512.438V61.0492ZM527.203 66.9069H525.033C524.555 66.9034 524.098 66.7079 523.761 66.3633C523.424 66.0186 523.235 65.5527 523.235 65.0671V62.8755C523.235 62.7787 523.197 62.6858 523.13 62.6173C523.063 62.5488 522.971 62.5103 522.876 62.5103H511.719C511.528 62.5103 511.345 62.4333 511.211 62.2963C511.076 62.1593 511 61.9735 511 61.7798V57.3831C511 57.1894 511.076 57.0036 511.211 56.8666C511.345 56.7296 511.528 56.6526 511.719 56.6526H524.673C525.82 56.6562 526.918 57.1205 527.729 57.9443C528.539 58.768 528.996 59.8843 529 61.0492V65.1077C528.997 65.591 528.806 66.0534 528.47 66.3952C528.133 66.7369 527.678 66.9304 527.203 66.934" fill="#E52322"/>
<path d="M519.641 58.1272C519.449 58.1236 519.266 58.0437 519.131 57.9045C518.997 57.7654 518.922 57.5781 518.922 57.3831V53.7305C518.922 53.5368 518.997 53.351 519.132 53.214C519.267 53.077 519.45 53 519.641 53C519.831 53 520.014 53.077 520.149 53.214C520.284 53.351 520.359 53.5368 520.359 53.7305V57.3831C520.359 57.5781 520.284 57.7654 520.15 57.9045C520.015 58.0437 519.832 58.1236 519.641 58.1272Z" fill="#E52322"/>
<path d="M523.235 54.5016H516.033C515.842 54.5016 515.659 54.4247 515.524 54.2877C515.389 54.1507 515.314 53.9648 515.314 53.7711C515.314 53.5774 515.389 53.3915 515.524 53.2545C515.659 53.1175 515.842 53.0406 516.033 53.0406H523.235C523.426 53.0406 523.609 53.1175 523.744 53.2545C523.878 53.3915 523.954 53.5774 523.954 53.7711C523.954 53.9648 523.878 54.1507 523.744 54.2877C523.609 54.4247 523.426 54.5016 523.235 54.5016Z" fill="#E52322"/>
<path d="M525.565 72.5887C524.913 73.3583 524.416 74.2498 524.101 75.2132C524.101 75.6079 524.255 75.9864 524.53 76.2654C524.804 76.5445 525.177 76.7013 525.565 76.7013C525.953 76.7013 526.326 76.5445 526.601 76.2654C526.875 75.9864 527.03 75.6079 527.03 75.2132C526.707 74.2531 526.21 73.3629 525.565 72.5887ZM525.565 78C524.838 78 524.14 77.7064 523.626 77.1838C523.111 76.6611 522.822 75.9523 522.822 75.2132C522.822 74.0904 524.393 71.98 525.059 71.1548C525.122 71.08 525.199 71.0196 525.286 70.9776C525.374 70.9356 525.469 70.913 525.565 70.9113C525.66 70.9112 525.754 70.9331 525.839 70.9753C525.924 71.0175 525.999 71.0789 526.058 71.1548C526.59 71.8312 528.308 74.1039 528.308 75.2132C528.308 75.9523 528.019 76.6611 527.504 77.1838C526.99 77.7064 526.292 78 525.565 78Z" fill="#E52322"/>
<path d="M519.934 26.6837L546.772 53.5203V87.132H493.097V53.5203L503.485 43.1935L519.987 26.6837M519.987 24.0526L491.848 52.2048L491.309 52.7573V89H548.691V52.7047L548.152 52.1522L520 24L519.987 24.0526Z" fill="#E52322"/>
<rect width="140" height="27" transform="translate(450 113)" fill="#E52322"/>
<path d="M482.247 122.028V130.5H480.555V122.028H482.247ZM490.954 130.5H489.262L485.47 124.74V130.5H483.778V122.028H485.47L489.262 127.836V122.028H490.954V130.5ZM498.305 128.184C498.305 128.616 498.197 129.016 497.981 129.384C497.765 129.744 497.445 130.036 497.021 130.26C496.597 130.476 496.081 130.584 495.473 130.584C494.873 130.584 494.337 130.484 493.865 130.284C493.393 130.076 493.013 129.78 492.725 129.396C492.445 129.012 492.285 128.564 492.245 128.052H494.045C494.085 128.396 494.221 128.684 494.453 128.916C494.693 129.14 495.009 129.252 495.401 129.252C495.753 129.252 496.021 129.16 496.205 128.976C496.397 128.784 496.493 128.54 496.493 128.244C496.493 127.98 496.417 127.764 496.265 127.596C496.113 127.42 495.921 127.28 495.689 127.176C495.457 127.072 495.137 126.952 494.729 126.816C494.201 126.64 493.769 126.468 493.433 126.3C493.097 126.124 492.809 125.872 492.569 125.544C492.337 125.216 492.221 124.788 492.221 124.26C492.221 123.532 492.481 122.96 493.001 122.544C493.529 122.12 494.225 121.908 495.089 121.908C495.985 121.908 496.697 122.124 497.225 122.556C497.761 122.988 498.065 123.564 498.137 124.284H496.313C496.265 123.98 496.137 123.732 495.929 123.54C495.721 123.34 495.437 123.24 495.077 123.24C494.765 123.24 494.513 123.324 494.321 123.492C494.129 123.652 494.033 123.888 494.033 124.2C494.033 124.448 494.105 124.656 494.249 124.824C494.401 124.984 494.589 125.116 494.813 125.22C495.045 125.324 495.357 125.44 495.749 125.568C496.293 125.76 496.733 125.94 497.069 126.108C497.413 126.276 497.705 126.528 497.945 126.864C498.185 127.2 498.305 127.64 498.305 128.184ZM501.183 122.028V126.996C501.183 127.66 501.327 128.16 501.615 128.496C501.911 128.824 502.335 128.988 502.887 128.988C503.431 128.988 503.847 128.824 504.135 128.496C504.431 128.16 504.579 127.66 504.579 126.996V122.028H506.259V126.996C506.259 127.78 506.111 128.444 505.815 128.988C505.527 129.524 505.123 129.924 504.603 130.188C504.091 130.452 503.507 130.584 502.851 130.584C501.835 130.584 501.023 130.28 500.415 129.672C499.807 129.064 499.503 128.172 499.503 126.996V122.028H501.183ZM512.999 122.028V123.372H509.435V125.64H512.291V126.936H509.435V130.5H507.743V122.028H512.999ZM519.397 122.028V123.372H515.833V125.64H518.689V126.936H515.833V130.5H514.141V122.028H519.397ZM522.231 122.028V130.5H520.539V122.028H522.231ZM529.582 128.184C529.582 128.616 529.474 129.016 529.258 129.384C529.042 129.744 528.722 130.036 528.298 130.26C527.874 130.476 527.358 130.584 526.75 130.584C526.15 130.584 525.614 130.484 525.142 130.284C524.67 130.076 524.29 129.78 524.002 129.396C523.722 129.012 523.562 128.564 523.522 128.052H525.322C525.362 128.396 525.498 128.684 525.73 128.916C525.97 129.14 526.286 129.252 526.678 129.252C527.03 129.252 527.298 129.16 527.482 128.976C527.674 128.784 527.77 128.54 527.77 128.244C527.77 127.98 527.694 127.764 527.542 127.596C527.39 127.42 527.198 127.28 526.966 127.176C526.734 127.072 526.414 126.952 526.006 126.816C525.478 126.64 525.046 126.468 524.71 126.3C524.374 126.124 524.086 125.872 523.846 125.544C523.614 125.216 523.498 124.788 523.498 124.26C523.498 123.532 523.758 122.96 524.278 122.544C524.806 122.12 525.502 121.908 526.366 121.908C527.262 121.908 527.974 122.124 528.502 122.556C529.038 122.988 529.342 123.564 529.414 124.284H527.59C527.542 123.98 527.414 123.732 527.206 123.54C526.998 123.34 526.714 123.24 526.354 123.24C526.042 123.24 525.79 123.324 525.598 123.492C525.406 123.652 525.31 123.888 525.31 124.2C525.31 124.448 525.382 124.656 525.526 124.824C525.678 124.984 525.866 125.116 526.09 125.22C526.322 125.324 526.634 125.44 527.026 125.568C527.57 125.76 528.01 125.94 528.346 126.108C528.69 126.276 528.982 126.528 529.222 126.864C529.462 127.2 529.582 127.64 529.582 128.184ZM535.989 128.796H532.593L531.993 130.5H530.205L533.325 122.124H535.257L538.365 130.5H536.577L535.989 128.796ZM535.533 127.512L534.285 123.936L533.037 127.512H535.533ZM546.454 130.5H544.762L540.97 124.74V130.5H539.278V122.028H540.97L544.762 127.836V122.028H546.454V130.5ZM553.745 122.028V123.372H551.405V130.5H549.713V123.372H547.385V122.028H553.745ZM556.368 123.372V125.568H559.368V126.864H556.368V129.144H559.728V130.5H554.676V122.028H559.728V123.372H556.368Z" fill="white"/>
</g>
<defs>
<clipPath id="clip0_2211_2547">
<rect width="590" height="140" fill="white"/>
</clipPath>
</defs>
</svg>
