<svg width="38" height="38" viewBox="0 0 38 38" fill="black" xmlns="http://www.w3.org/2000/svg">
    <path
        d="M35.5324 28.8881C35.6799 28.6345 35.7236 28.3336 35.6544 28.0485C35.5851 27.7634 35.4083 27.5162 35.1609 27.3585L31.5773 25.1734L35.7946 22.8791C36.0554 22.74 36.2502 22.503 36.3363 22.2202C36.4223 21.9375 36.3925 21.6321 36.2534 21.3713C36.1106 21.1143 35.872 20.9242 35.5896 20.8423C35.3072 20.7604 35.0039 20.7935 34.7457 20.9343L29.3485 23.8405L21.5259 19.0988L29.5015 14.6194L34.8113 17.6785C34.9775 17.7749 35.1655 17.8275 35.3576 17.8315C35.6473 17.9039 35.954 17.8583 36.2101 17.7046C36.4662 17.5509 36.6508 17.3018 36.7232 17.0121C36.7957 16.7223 36.75 16.4156 36.5964 16.1595C36.4427 15.9034 36.1936 15.7188 35.9038 15.6464L31.7521 13.2428L35.3794 11.1888C35.5659 11.076 35.7161 10.9119 35.8119 10.7161C35.9078 10.5202 35.9452 10.301 35.9199 10.0845C35.8946 9.86795 35.8075 9.66329 35.669 9.4949C35.5306 9.32651 35.3466 9.2015 35.139 9.1348C34.8731 9.02552 34.5747 9.02552 34.3087 9.1348L30.6377 11.1888V6.38157C30.6406 6.23522 30.6147 6.08973 30.5613 5.95341C30.508 5.8171 30.4283 5.69263 30.3269 5.58711C30.2254 5.48159 30.1042 5.3971 29.97 5.33846C29.8359 5.27981 29.6916 5.24816 29.5452 5.24532C29.2531 5.25615 28.9759 5.37704 28.7692 5.58373C28.5625 5.79042 28.4416 6.06762 28.4308 6.35972V12.4561L20.4552 16.9574V7.05895L25.9616 3.82501C26.2112 3.67492 26.3921 3.4331 26.4656 3.15132C26.5391 2.86953 26.4994 2.57016 26.355 2.31729C26.2341 2.07233 26.0224 1.88418 25.765 1.79287C25.4963 1.69789 25.2033 1.69789 24.9346 1.79287L20.5644 4.37128V1.334C20.597 1.17227 20.5932 1.00533 20.5533 0.845248C20.5135 0.685164 20.4386 0.535922 20.3341 0.408295C20.2295 0.280669 20.098 0.17784 19.9489 0.107233C19.7998 0.0366252 19.6369 0 19.4719 0C19.3069 0 19.144 0.0366252 18.9949 0.107233C18.8458 0.17784 18.7143 0.280669 18.6098 0.408295C18.5052 0.535922 18.4303 0.685164 18.3905 0.845248C18.3506 1.00533 18.3468 1.17227 18.3794 1.334V4.21833L14.2932 1.90212C14.0249 1.80535 13.7312 1.80535 13.4629 1.90212C13.3194 1.93694 13.1849 2.00166 13.0682 2.09203C12.9515 2.1824 12.8551 2.29639 12.7855 2.42655C12.6411 2.67942 12.6013 2.97879 12.6749 3.26057C12.7484 3.54236 12.9293 3.78417 13.1788 3.93426L18.2264 6.79674V17.1322L10.4693 12.4343V6.31602C10.4722 6.17072 10.4461 6.02629 10.3925 5.89121C10.3389 5.75612 10.2589 5.63308 10.1571 5.52931C10.0554 5.42553 9.93396 5.34309 9.79996 5.28683C9.66596 5.23056 9.52208 5.20159 9.37675 5.20162C9.08494 5.20156 8.80475 5.31597 8.59638 5.52026C8.388 5.72455 8.26807 6.00241 8.26235 6.29417V11.1014L4.67879 8.91628C4.55344 8.83837 4.41359 8.78666 4.2677 8.76428C4.12181 8.7419 3.9729 8.74932 3.82996 8.78607C3.68701 8.82283 3.55299 8.88817 3.436 8.97815C3.319 9.06813 3.22144 9.18088 3.14922 9.3096C3.07389 9.43279 3.02373 9.56969 3.00163 9.71238C2.97954 9.85508 2.98595 10.0007 3.02049 10.1409C3.05503 10.2811 3.11702 10.4131 3.20288 10.5292C3.28874 10.6453 3.39675 10.7432 3.52069 10.8173L7.10425 13.0024L2.86516 15.2968C2.6382 15.406 2.45596 15.5903 2.34927 15.8185C2.24258 16.0466 2.218 16.3046 2.27969 16.5488C2.34139 16.793 2.48556 17.0084 2.68782 17.1585C2.89007 17.3087 3.13798 17.3843 3.38958 17.3726C3.57229 17.3709 3.75199 17.326 3.91401 17.2415L9.28935 14.4446L17.1338 19.1862L9.15824 23.5564L3.91401 20.4973C3.77953 20.439 3.6345 20.4089 3.48791 20.4089C3.34133 20.4089 3.1963 20.439 3.06182 20.4973C2.91889 20.5334 2.78496 20.5986 2.6684 20.6888C2.55184 20.779 2.45517 20.8924 2.38444 21.0217C2.24186 21.2772 2.20548 21.5785 2.28316 21.8606C2.36083 22.1427 2.54633 22.3829 2.79961 22.5294L6.95129 24.933L3.32403 26.987C3.18244 27.0493 3.05536 27.1404 2.95089 27.2545C2.84641 27.3685 2.76683 27.5031 2.71721 27.6496C2.66759 27.7961 2.64901 27.9514 2.66266 28.1054C2.67631 28.2595 2.72189 28.4091 2.79649 28.5446C2.87109 28.6801 2.97309 28.7986 3.09599 28.8925C3.21889 28.9865 3.36 29.0538 3.51033 29.0902C3.66067 29.1266 3.81694 29.1313 3.9692 29.1041C4.12147 29.0768 4.26638 29.0181 4.39473 28.9318L8.06569 26.8778V31.685C8.03318 31.8467 8.03699 32.0137 8.07683 32.1737C8.11668 32.3338 8.19156 32.4831 8.29609 32.6107C8.40062 32.7383 8.53218 32.8411 8.68127 32.9118C8.83036 32.9824 8.99327 33.019 9.15824 33.019C9.32321 33.019 9.48612 32.9824 9.63521 32.9118C9.78431 32.8411 9.91587 32.7383 10.0204 32.6107C10.1249 32.4831 10.1998 32.3338 10.2396 32.1737C10.2795 32.0137 10.2833 31.8467 10.2508 31.685L10.36 25.5667L18.2264 20.9999V30.1336L12.9385 33.2364C12.6889 33.3865 12.508 33.6283 12.4345 33.9101C12.361 34.1919 12.4007 34.4913 12.5451 34.7441C12.6159 34.8735 12.7125 34.9868 12.8291 35.077C12.9457 35.1673 13.0796 35.2325 13.2225 35.2686C13.3613 35.3058 13.5061 35.3154 13.6486 35.2966C13.7911 35.2779 13.9284 35.2312 14.0529 35.1593L18.2264 32.712V36.8855C18.2229 37.0323 18.2503 37.1781 18.3068 37.3136C18.3632 37.4491 18.4475 37.5713 18.5542 37.6722C18.6517 37.7771 18.7702 37.8605 18.9019 37.917C19.0336 37.9734 19.1757 38.0017 19.3189 37.9999C19.6145 37.9999 19.898 37.8825 20.1069 37.6735C20.3159 37.4645 20.4333 37.1811 20.4333 36.8855V32.712L24.6069 35.1593C24.8636 35.2963 25.163 35.3296 25.4435 35.2524C25.724 35.1751 25.9642 34.9932 26.1146 34.7441C26.263 34.4965 26.3094 34.2009 26.2442 33.9197C26.179 33.6384 26.0072 33.3935 25.765 33.2364L20.477 30.1336V20.9999L28.256 25.6978V31.8161C28.2531 31.9614 28.2792 32.1058 28.3328 32.2409C28.3864 32.376 28.4664 32.499 28.5682 32.6028C28.6699 32.7066 28.7913 32.789 28.9253 32.8453C29.0593 32.9016 29.2032 32.9305 29.3485 32.9305C29.4938 32.9334 29.6383 32.9073 29.7734 32.8537C29.9084 32.8001 30.0315 32.7201 30.1353 32.6183C30.239 32.5166 30.3215 32.3952 30.3777 32.2612C30.434 32.1272 30.463 31.9833 30.4629 31.8379V27.0307L34.0465 29.2158C34.292 29.3498 34.5777 29.3905 34.8508 29.3302C35.1239 29.27 35.366 29.1129 35.5324 28.8881Z" />
</svg>