<svg width="234" height="278" viewBox="0 0 234 278" fill="none" xmlns="http://www.w3.org/2000/svg">
<path d="M0 276H218.498C222.609 276 226.552 274.314 229.459 271.314C232.367 268.313 234 264.243 234 260C234.004 257.898 233.605 255.815 232.828 253.872C232.05 251.929 230.908 250.164 229.468 248.677C228.028 247.191 226.317 246.012 224.435 245.21C222.552 244.407 220.535 243.996 218.498 244H0V276Z" fill="#281B35"/>
<g filter="url(#filter0_d_294_705)">
<path d="M21.2882 265.95C21.0232 267.812 19.3155 269.232 16.5477 269.232C12.3078 269.232 8.95117 265.92 8.95117 259.681C8.95117 253.441 12.3372 250.011 17.3427 250.011C18.8248 249.929 20.2971 250.297 21.568 251.067C22.8389 251.837 23.8495 252.974 24.4682 254.329L21.1705 256.191C20.9021 255.398 20.3828 254.714 19.6918 254.245C19.0009 253.775 18.176 253.545 17.3427 253.589C14.84 253.589 13.2206 255.038 13.2206 258.113V261.07C13.2206 264.175 14.84 265.595 17.3427 265.595C19.3449 265.595 20.9643 264.648 20.9643 262.845V261.898H17.4016V258.527H24.7037V268.877H21.2882V265.95Z" fill="white"/>
</g>
<path d="M0 240H194.468C198.588 240 202.538 238.314 205.451 235.314C208.364 232.313 210 228.243 210 224C210.004 221.898 209.605 219.815 208.826 217.872C208.046 215.929 206.903 214.164 205.46 212.677C204.017 211.191 202.303 210.012 200.417 209.21C198.531 208.407 196.509 207.996 194.468 208H0V240Z" fill="#393551"/>
<g filter="url(#filter1_d_294_705)">
<path d="M11.3359 233.57V215H23.6141V218.578H15.3698V222.393H22.3775V226.059H15.3698V233.659L11.3359 233.57Z" fill="white"/>
</g>
<path d="M0 204H170.453C172.496 204.004 174.519 203.593 176.407 202.79C178.295 201.988 180.011 200.809 181.455 199.323C182.9 197.836 184.045 196.071 184.824 194.128C185.604 192.185 186.004 190.102 186 188C186 185.899 185.598 183.818 184.817 181.877C184.035 179.936 182.89 178.172 181.446 176.686C180.003 175.201 178.289 174.022 176.403 173.218C174.517 172.414 172.495 172 170.453 172H0V204Z" fill="#4D5271"/>
<g filter="url(#filter2_d_294_705)">
<path d="M11.041 197.57V179H23.6431V182.578H15.0748V186.393H22.5536V189.97H15.0748V193.992H23.6431V197.57H11.041Z" fill="white"/>
</g>
<path d="M123.03 109.015C126.92 108.89 130.795 109.548 134.426 110.948C138.056 112.349 141.367 114.464 144.163 117.168C146.959 119.872 149.182 123.11 150.7 126.688C152.218 130.267 153 134.114 153 138L152.991 138.729C152.9 142.366 152.123 145.957 150.7 149.312C149.182 152.89 146.959 156.128 144.163 158.832C141.367 161.536 138.056 163.651 134.426 165.052C130.795 166.452 126.92 167.11 123.03 166.985L123.014 166.984H1V109.016H123.014L123.03 109.015Z" fill="#606F8F" stroke="#1D1D1B" stroke-width="2"/>
<g filter="url(#filter3_d_294_705)">
<path d="M9.73242 118H24.7002C35.2918 118 42.2684 124.369 42.2684 138C42.2684 151.631 35.2918 158 24.7002 158H9.73242V118ZM24.7002 150.293C29.8375 150.293 33.072 147.49 33.072 141.121V134.752C33.072 128.382 29.8375 125.58 24.7002 125.58H18.3579V150.102L24.7002 150.293Z" fill="white"/>
<path d="M24.7002 117L25.2129 117.005C30.4894 117.105 34.9883 118.769 38.1885 122.207C41.4825 125.746 43.2686 131.024 43.2686 138C43.2686 144.976 41.4825 150.254 38.1885 153.793C34.8852 157.342 30.198 159 24.7002 159H8.73242V117H24.7002ZM19.3584 149.131L24.7188 149.292C27.1021 149.289 28.8924 148.64 30.0947 147.399C31.3046 146.151 32.0723 144.147 32.0723 141.121V134.752C32.0723 131.726 31.3047 129.721 30.0947 128.473C28.8893 127.229 27.0927 126.58 24.7002 126.58H19.3584V149.131Z" stroke="#1D1D1B" stroke-width="2"/>
</g>
<path d="M0 104H126.053C130.294 103.968 134.35 102.268 137.337 99.2711C140.324 96.2739 142 92.2225 142 88C142 83.7775 140.324 79.7261 137.337 76.7289C134.35 73.7318 130.294 72.032 126.053 72H0V104Z" fill="#7792B1"/>
<g filter="url(#filter4_d_294_705)">
<path d="M9.74609 87.7783C9.74609 81.4798 12.9555 78.0201 17.9315 78.0201C19.3998 77.9072 20.8654 78.2717 22.1114 79.0599C23.3575 79.848 24.318 81.0178 24.8509 82.3965L21.3765 84.2003C21.2082 83.4261 20.7668 82.7391 20.1336 82.2663C19.5004 81.7934 18.7183 81.5666 17.9315 81.6277C15.576 81.6277 14.0155 83.2245 14.0155 86.1519V89.1089C14.0155 92.0659 15.576 93.6331 17.9315 93.6331C18.7635 93.6385 19.5742 93.3695 20.2391 92.8673C20.904 92.3652 21.3863 91.6577 21.6121 90.8535L24.9098 92.7756C24.3317 94.1383 23.3547 95.2924 22.1084 96.0846C20.8621 96.8767 19.4054 97.2696 17.9315 97.2111C12.9555 97.2407 9.74609 94.0471 9.74609 87.7783Z" fill="white"/>
</g>
<path d="M0 68H103.527C107.896 68 112.086 66.3111 115.175 63.3048C118.264 60.2985 120 56.2211 120 51.9696C119.983 47.7286 118.241 43.6668 115.153 40.6737C112.066 37.6805 107.885 36 103.527 36H0V68Z" fill="#8CB4D3"/>
<g filter="url(#filter5_d_294_705)">
<path d="M9.54004 43.0172H18.5205C19.1625 42.9606 19.8092 43.0439 20.4163 43.2614C21.0233 43.479 21.5764 43.8256 22.0377 44.2777C22.4991 44.7298 22.8577 45.2766 23.0892 45.8807C23.3206 46.4848 23.4194 47.132 23.3787 47.778C23.3787 50.735 21.8182 51.7108 19.9338 51.77V51.9474C20.5017 51.9339 21.0662 52.0392 21.5913 52.2568C22.1164 52.4743 22.5907 52.7992 22.984 53.2109C23.3773 53.6225 23.681 54.1119 23.8756 54.6478C24.0703 55.1837 24.1518 55.7545 24.1148 56.3238C24.1545 56.9874 24.062 57.6523 23.8426 58.2796C23.6232 58.9068 23.2814 59.4838 22.8372 59.9767C22.393 60.4696 21.8553 60.8686 21.2556 61.1502C20.656 61.4318 20.0064 61.5905 19.3449 61.6168H9.54004V43.0172ZM13.5444 50.6463H17.5488C17.7776 50.6641 18.0075 50.6319 18.2227 50.552C18.4379 50.4721 18.6334 50.3463 18.7956 50.1834C18.9579 50.0204 19.0831 49.8242 19.1626 49.608C19.2422 49.3919 19.2743 49.161 19.2566 48.9313V48.1329C19.2749 47.9043 19.2431 47.6745 19.1633 47.4596C19.0835 47.2447 18.9578 47.0501 18.7949 46.8893C18.632 46.7286 18.4361 46.6057 18.2207 46.5293C18.0054 46.453 17.7761 46.425 17.5488 46.4474H13.5444V50.6463ZM13.5444 58.1867H18.1966C18.4223 58.2138 18.6511 58.1902 18.8666 58.1174C19.082 58.0447 19.2786 57.9247 19.4422 57.7661C19.6057 57.6076 19.732 57.4145 19.8119 57.2008C19.8919 56.9871 19.9234 56.7582 19.9043 56.5308V55.6141C19.9227 55.3855 19.8908 55.1557 19.8111 54.9408C19.7313 54.726 19.6055 54.5313 19.4427 54.3706C19.2798 54.2098 19.0838 54.0869 18.8685 54.0106C18.6532 53.9342 18.4238 53.9062 18.1966 53.9286H13.5444V58.1867Z" fill="white"/>
</g>
<path d="M0 32H55.6208C57.7729 32.004 59.9046 31.5925 61.8937 30.789C63.8827 29.9856 65.69 28.8061 67.2117 27.3182C68.7335 25.8302 69.9398 24.0631 70.7615 22.1183C71.5832 20.1734 72.0041 18.0891 72 15.9848C72 13.8831 71.5761 11.8021 70.7526 9.8607C69.9291 7.91936 68.7221 6.15586 67.2008 4.67114C65.6794 3.18641 63.8735 2.0096 61.8865 1.20807C59.8995 0.406546 57.7703 -0.00395928 55.6208 2.87811e-05H0V32Z" fill="#A4DBF8"/>
<g filter="url(#filter6_d_294_705)">
<path d="M21.4969 25.5996L20.1662 21.1641H13.9565L12.6259 25.5996H8.51562L14.6366 7H19.634L25.548 25.5996H21.4969ZM17.0909 10.8145L15.021 17.8522H19.2791L17.0909 10.8145Z" fill="white"/>
</g>
<defs>
<filter id="filter0_d_294_705" x="4.95117" y="250" width="23.7529" height="27.2318" filterUnits="userSpaceOnUse" color-interpolation-filters="sRGB">
<feFlood flood-opacity="0" result="BackgroundImageFix"/>
<feColorMatrix in="SourceAlpha" type="matrix" values="0 0 0 0 0 0 0 0 0 0 0 0 0 0 0 0 0 0 127 0" result="hardAlpha"/>
<feOffset dy="4"/>
<feGaussianBlur stdDeviation="2"/>
<feComposite in2="hardAlpha" operator="out"/>
<feColorMatrix type="matrix" values="0 0 0 0 0 0 0 0 0 0 0 0 0 0 0 0 0 0 0.25 0"/>
<feBlend mode="normal" in2="BackgroundImageFix" result="effect1_dropShadow_294_705"/>
<feBlend mode="normal" in="SourceGraphic" in2="effect1_dropShadow_294_705" result="shape"/>
</filter>
<filter id="filter1_d_294_705" x="7.33594" y="215" width="20.2783" height="26.6588" filterUnits="userSpaceOnUse" color-interpolation-filters="sRGB">
<feFlood flood-opacity="0" result="BackgroundImageFix"/>
<feColorMatrix in="SourceAlpha" type="matrix" values="0 0 0 0 0 0 0 0 0 0 0 0 0 0 0 0 0 0 127 0" result="hardAlpha"/>
<feOffset dy="4"/>
<feGaussianBlur stdDeviation="2"/>
<feComposite in2="hardAlpha" operator="out"/>
<feColorMatrix type="matrix" values="0 0 0 0 0 0 0 0 0 0 0 0 0 0 0 0 0 0 0.25 0"/>
<feBlend mode="normal" in2="BackgroundImageFix" result="effect1_dropShadow_294_705"/>
<feBlend mode="normal" in="SourceGraphic" in2="effect1_dropShadow_294_705" result="shape"/>
</filter>
<filter id="filter2_d_294_705" x="7.04102" y="179" width="20.6025" height="26.57" filterUnits="userSpaceOnUse" color-interpolation-filters="sRGB">
<feFlood flood-opacity="0" result="BackgroundImageFix"/>
<feColorMatrix in="SourceAlpha" type="matrix" values="0 0 0 0 0 0 0 0 0 0 0 0 0 0 0 0 0 0 127 0" result="hardAlpha"/>
<feOffset dy="4"/>
<feGaussianBlur stdDeviation="2"/>
<feComposite in2="hardAlpha" operator="out"/>
<feColorMatrix type="matrix" values="0 0 0 0 0 0 0 0 0 0 0 0 0 0 0 0 0 0 0.25 0"/>
<feBlend mode="normal" in2="BackgroundImageFix" result="effect1_dropShadow_294_705"/>
<feBlend mode="normal" in="SourceGraphic" in2="effect1_dropShadow_294_705" result="shape"/>
</filter>
<filter id="filter3_d_294_705" x="3.73242" y="116" width="44.5361" height="52" filterUnits="userSpaceOnUse" color-interpolation-filters="sRGB">
<feFlood flood-opacity="0" result="BackgroundImageFix"/>
<feColorMatrix in="SourceAlpha" type="matrix" values="0 0 0 0 0 0 0 0 0 0 0 0 0 0 0 0 0 0 127 0" result="hardAlpha"/>
<feOffset dy="4"/>
<feGaussianBlur stdDeviation="2"/>
<feComposite in2="hardAlpha" operator="out"/>
<feColorMatrix type="matrix" values="0 0 0 0 0 0 0 0 0 0 0 0 0 0 0 0 0 0 0.25 0"/>
<feBlend mode="normal" in2="BackgroundImageFix" result="effect1_dropShadow_294_705"/>
<feBlend mode="normal" in="SourceGraphic" in2="effect1_dropShadow_294_705" result="shape"/>
</filter>
<filter id="filter4_d_294_705" x="5.74609" y="78" width="23.1641" height="27.2168" filterUnits="userSpaceOnUse" color-interpolation-filters="sRGB">
<feFlood flood-opacity="0" result="BackgroundImageFix"/>
<feColorMatrix in="SourceAlpha" type="matrix" values="0 0 0 0 0 0 0 0 0 0 0 0 0 0 0 0 0 0 127 0" result="hardAlpha"/>
<feOffset dy="4"/>
<feGaussianBlur stdDeviation="2"/>
<feComposite in2="hardAlpha" operator="out"/>
<feColorMatrix type="matrix" values="0 0 0 0 0 0 0 0 0 0 0 0 0 0 0 0 0 0 0.25 0"/>
<feBlend mode="normal" in2="BackgroundImageFix" result="effect1_dropShadow_294_705"/>
<feBlend mode="normal" in="SourceGraphic" in2="effect1_dropShadow_294_705" result="shape"/>
</filter>
<filter id="filter5_d_294_705" x="5.54004" y="43" width="22.584" height="26.6168" filterUnits="userSpaceOnUse" color-interpolation-filters="sRGB">
<feFlood flood-opacity="0" result="BackgroundImageFix"/>
<feColorMatrix in="SourceAlpha" type="matrix" values="0 0 0 0 0 0 0 0 0 0 0 0 0 0 0 0 0 0 127 0" result="hardAlpha"/>
<feOffset dy="4"/>
<feGaussianBlur stdDeviation="2"/>
<feComposite in2="hardAlpha" operator="out"/>
<feColorMatrix type="matrix" values="0 0 0 0 0 0 0 0 0 0 0 0 0 0 0 0 0 0 0.25 0"/>
<feBlend mode="normal" in2="BackgroundImageFix" result="effect1_dropShadow_294_705"/>
<feBlend mode="normal" in="SourceGraphic" in2="effect1_dropShadow_294_705" result="shape"/>
</filter>
<filter id="filter6_d_294_705" x="4.51562" y="7" width="25.0322" height="26.5995" filterUnits="userSpaceOnUse" color-interpolation-filters="sRGB">
<feFlood flood-opacity="0" result="BackgroundImageFix"/>
<feColorMatrix in="SourceAlpha" type="matrix" values="0 0 0 0 0 0 0 0 0 0 0 0 0 0 0 0 0 0 127 0" result="hardAlpha"/>
<feOffset dy="4"/>
<feGaussianBlur stdDeviation="2"/>
<feComposite in2="hardAlpha" operator="out"/>
<feColorMatrix type="matrix" values="0 0 0 0 0 0 0 0 0 0 0 0 0 0 0 0 0 0 0.25 0"/>
<feBlend mode="normal" in2="BackgroundImageFix" result="effect1_dropShadow_294_705"/>
<feBlend mode="normal" in="SourceGraphic" in2="effect1_dropShadow_294_705" result="shape"/>
</filter>
</defs>
</svg>
