<svg width="234" height="278" viewBox="0 0 234 278" fill="none" xmlns="http://www.w3.org/2000/svg">
<path d="M0 276H218.498C222.609 276 226.552 274.314 229.459 271.314C232.367 268.313 234 264.243 234 260C234.004 257.898 233.605 255.815 232.828 253.872C232.05 251.929 230.908 250.164 229.468 248.677C228.028 247.191 226.317 246.012 224.435 245.21C222.552 244.407 220.535 243.996 218.498 244H0V276Z" fill="#281B35"/>
<g filter="url(#filter0_d_294_588)">
<path d="M21.2882 265.95C21.0232 267.812 19.3155 269.232 16.5477 269.232C12.3078 269.232 8.95117 265.92 8.95117 259.681C8.95117 253.441 12.3372 250.011 17.3427 250.011C18.8248 249.929 20.2971 250.297 21.568 251.067C22.8389 251.837 23.8495 252.974 24.4682 254.329L21.1705 256.191C20.9021 255.398 20.3828 254.714 19.6918 254.245C19.0009 253.775 18.176 253.545 17.3427 253.589C14.84 253.589 13.2206 255.038 13.2206 258.113V261.07C13.2206 264.175 14.84 265.595 17.3427 265.595C19.3449 265.595 20.9643 264.648 20.9643 262.845V261.898H17.4016V258.527H24.7037V268.877H21.2882V265.95Z" fill="white"/>
</g>
<path d="M0 240H194.468C198.588 240 202.538 238.314 205.451 235.314C208.364 232.313 210 228.243 210 224C210.004 221.898 209.605 219.815 208.826 217.872C208.046 215.929 206.903 214.164 205.46 212.677C204.017 211.191 202.303 210.012 200.417 209.21C198.531 208.407 196.509 207.996 194.468 208H0V240Z" fill="#393551"/>
<g filter="url(#filter1_d_294_588)">
<path d="M11.3359 233.57V215H23.6141V218.578H15.3698V222.393H22.3775V226.059H15.3698V233.659L11.3359 233.57Z" fill="white"/>
</g>
<path d="M0 204H170.453C172.496 204.004 174.519 203.593 176.407 202.79C178.295 201.988 180.011 200.809 181.455 199.323C182.9 197.836 184.045 196.071 184.824 194.128C185.604 192.185 186.004 190.102 186 188C186 185.899 185.598 183.818 184.817 181.877C184.035 179.936 182.89 178.172 181.446 176.686C180.003 175.201 178.289 174.022 176.403 173.218C174.517 172.414 172.495 172 170.453 172H0V204Z" fill="#4D5271"/>
<g filter="url(#filter2_d_294_588)">
<path d="M11.041 197.57V179H23.6431V182.578H15.0748V186.393H22.5536V189.97H15.0748V193.992H23.6431V197.57H11.041Z" fill="white"/>
</g>
<path d="M0 168H148.265C150.334 168 152.383 167.587 154.293 166.786C156.204 165.985 157.94 164.81 159.402 163.33C160.863 161.849 162.021 160.092 162.81 158.158C163.599 156.224 164.003 154.152 164 152.06C164.015 149.96 163.62 147.876 162.837 145.93C162.054 143.985 160.898 142.214 159.435 140.722C157.973 139.229 156.233 138.044 154.317 137.233C152.4 136.423 150.343 136.004 148.265 136H0V168Z" fill="#606F8F"/>
<g filter="url(#filter3_d_294_588)">
<path d="M9.86328 143H16.8121C21.7292 143 24.9681 145.957 24.9681 152.285C24.9681 158.613 21.7292 161.57 16.8121 161.57H9.86328V143ZM16.8121 157.992C19.197 157.992 20.6987 156.691 20.6987 153.734V150.777C20.6987 147.82 19.197 146.519 16.8121 146.519H13.8677V157.903L16.8121 157.992Z" fill="white"/>
</g>
<path d="M0 132H126.053C130.294 131.968 134.35 130.268 137.337 127.271C140.324 124.274 142 120.223 142 116C142 111.777 140.324 107.726 137.337 104.729C134.35 101.732 130.294 100.032 126.053 100H0V132Z" fill="#7792B1"/>
<g filter="url(#filter4_d_294_588)">
<path d="M9.74609 115.778C9.74609 109.48 12.9555 106.02 17.9315 106.02C19.3998 105.907 20.8654 106.272 22.1114 107.06C23.3575 107.848 24.318 109.018 24.8509 110.397L21.3765 112.2C21.2082 111.426 20.7668 110.739 20.1336 110.266C19.5004 109.793 18.7183 109.567 17.9315 109.628C15.576 109.628 14.0155 111.224 14.0155 114.152V117.109C14.0155 120.066 15.576 121.633 17.9315 121.633C18.7635 121.639 19.5742 121.37 20.2391 120.867C20.904 120.365 21.3863 119.658 21.6121 118.854L24.9098 120.776C24.3317 122.138 23.3547 123.292 22.1084 124.085C20.8621 124.877 19.4054 125.27 17.9315 125.211C12.9555 125.241 9.74609 122.047 9.74609 115.778Z" fill="white"/>
</g>
<path d="M0 96H103.527C107.896 96 112.086 94.3111 115.175 91.3048C118.264 88.2985 120 84.2211 120 79.9696C119.983 75.7286 118.241 71.6668 115.153 68.6737C112.066 65.6805 107.885 64 103.527 64H0V96Z" fill="#8CB4D3"/>
<g filter="url(#filter5_d_294_588)">
<path d="M9.54004 71.0172H18.5205C19.1625 70.9606 19.8092 71.0439 20.4163 71.2614C21.0233 71.479 21.5764 71.8256 22.0377 72.2777C22.4991 72.7298 22.8577 73.2766 23.0892 73.8807C23.3206 74.4848 23.4194 75.132 23.3787 75.778C23.3787 78.735 21.8182 79.7108 19.9338 79.77V79.9474C20.5017 79.9339 21.0662 80.0392 21.5913 80.2568C22.1164 80.4743 22.5907 80.7992 22.984 81.2109C23.3773 81.6225 23.681 82.1119 23.8756 82.6478C24.0703 83.1837 24.1518 83.7545 24.1148 84.3238C24.1545 84.9874 24.062 85.6523 23.8426 86.2796C23.6232 86.9068 23.2814 87.4838 22.8372 87.9767C22.393 88.4696 21.8553 88.8686 21.2556 89.1502C20.656 89.4318 20.0064 89.5905 19.3449 89.6168H9.54004V71.0172ZM13.5444 78.6463H17.5488C17.7776 78.6641 18.0075 78.6319 18.2227 78.552C18.4379 78.4721 18.6334 78.3463 18.7956 78.1834C18.9579 78.0204 19.0831 77.8242 19.1626 77.608C19.2422 77.3919 19.2743 77.161 19.2566 76.9313V76.1329C19.2749 75.9043 19.2431 75.6745 19.1633 75.4596C19.0835 75.2447 18.9578 75.0501 18.7949 74.8893C18.632 74.7286 18.4361 74.6057 18.2207 74.5293C18.0054 74.453 17.7761 74.425 17.5488 74.4474H13.5444V78.6463ZM13.5444 86.1867H18.1966C18.4223 86.2138 18.6511 86.1902 18.8666 86.1174C19.082 86.0447 19.2786 85.9247 19.4422 85.7661C19.6057 85.6076 19.732 85.4145 19.8119 85.2008C19.8919 84.9871 19.9234 84.7582 19.9043 84.5308V83.6141C19.9227 83.3855 19.8908 83.1557 19.8111 82.9408C19.7313 82.726 19.6055 82.5313 19.4427 82.3706C19.2798 82.2098 19.0838 82.0869 18.8685 82.0106C18.6532 81.9342 18.4238 81.9062 18.1966 81.9286H13.5444V86.1867Z" fill="white"/>
</g>
<path d="M48.5908 1L49.3486 1.01074C57.1697 1.21106 64.6153 4.26782 70.1367 9.55273C75.8345 15.0065 79.0166 22.3842 79 30.0596C78.9834 37.7349 75.7692 45.0998 70.0479 50.5312C64.5037 55.7944 57.0453 58.8224 49.2236 58.9922L48.4648 59H1V1H48.5908Z" fill="#A4DBF8" stroke="#1D1D1B" stroke-width="2"/>
<g filter="url(#filter6_d_294_588)">
<path d="M36.4375 50L33.625 40.4611H20.5L17.6875 50H9L21.9375 10H32.5L45 50H36.4375ZM27.125 18.2035L22.75 33.3386H31.75L27.125 18.2035Z" fill="white"/>
<path d="M33.2354 9L33.4541 9.70215L45.9541 49.7021L46.3604 51H35.6895L35.4785 50.2832L32.877 41.4609H21.248L18.6465 50.2832L18.4355 51H7.62598L8.04883 49.6924L20.9863 9.69238L21.21 9H33.2354ZM24.0801 32.3389H30.3994L27.1514 21.7119L24.0801 32.3389Z" stroke="#1D1D1B" stroke-width="2"/>
</g>
<defs>
<filter id="filter0_d_294_588" x="4.95117" y="250" width="23.7529" height="27.2318" filterUnits="userSpaceOnUse" color-interpolation-filters="sRGB">
<feFlood flood-opacity="0" result="BackgroundImageFix"/>
<feColorMatrix in="SourceAlpha" type="matrix" values="0 0 0 0 0 0 0 0 0 0 0 0 0 0 0 0 0 0 127 0" result="hardAlpha"/>
<feOffset dy="4"/>
<feGaussianBlur stdDeviation="2"/>
<feComposite in2="hardAlpha" operator="out"/>
<feColorMatrix type="matrix" values="0 0 0 0 0 0 0 0 0 0 0 0 0 0 0 0 0 0 0.25 0"/>
<feBlend mode="normal" in2="BackgroundImageFix" result="effect1_dropShadow_294_588"/>
<feBlend mode="normal" in="SourceGraphic" in2="effect1_dropShadow_294_588" result="shape"/>
</filter>
<filter id="filter1_d_294_588" x="7.33594" y="215" width="20.2783" height="26.6588" filterUnits="userSpaceOnUse" color-interpolation-filters="sRGB">
<feFlood flood-opacity="0" result="BackgroundImageFix"/>
<feColorMatrix in="SourceAlpha" type="matrix" values="0 0 0 0 0 0 0 0 0 0 0 0 0 0 0 0 0 0 127 0" result="hardAlpha"/>
<feOffset dy="4"/>
<feGaussianBlur stdDeviation="2"/>
<feComposite in2="hardAlpha" operator="out"/>
<feColorMatrix type="matrix" values="0 0 0 0 0 0 0 0 0 0 0 0 0 0 0 0 0 0 0.25 0"/>
<feBlend mode="normal" in2="BackgroundImageFix" result="effect1_dropShadow_294_588"/>
<feBlend mode="normal" in="SourceGraphic" in2="effect1_dropShadow_294_588" result="shape"/>
</filter>
<filter id="filter2_d_294_588" x="7.04102" y="179" width="20.6025" height="26.57" filterUnits="userSpaceOnUse" color-interpolation-filters="sRGB">
<feFlood flood-opacity="0" result="BackgroundImageFix"/>
<feColorMatrix in="SourceAlpha" type="matrix" values="0 0 0 0 0 0 0 0 0 0 0 0 0 0 0 0 0 0 127 0" result="hardAlpha"/>
<feOffset dy="4"/>
<feGaussianBlur stdDeviation="2"/>
<feComposite in2="hardAlpha" operator="out"/>
<feColorMatrix type="matrix" values="0 0 0 0 0 0 0 0 0 0 0 0 0 0 0 0 0 0 0.25 0"/>
<feBlend mode="normal" in2="BackgroundImageFix" result="effect1_dropShadow_294_588"/>
<feBlend mode="normal" in="SourceGraphic" in2="effect1_dropShadow_294_588" result="shape"/>
</filter>
<filter id="filter3_d_294_588" x="5.86328" y="143" width="23.1045" height="26.57" filterUnits="userSpaceOnUse" color-interpolation-filters="sRGB">
<feFlood flood-opacity="0" result="BackgroundImageFix"/>
<feColorMatrix in="SourceAlpha" type="matrix" values="0 0 0 0 0 0 0 0 0 0 0 0 0 0 0 0 0 0 127 0" result="hardAlpha"/>
<feOffset dy="4"/>
<feGaussianBlur stdDeviation="2"/>
<feComposite in2="hardAlpha" operator="out"/>
<feColorMatrix type="matrix" values="0 0 0 0 0 0 0 0 0 0 0 0 0 0 0 0 0 0 0.25 0"/>
<feBlend mode="normal" in2="BackgroundImageFix" result="effect1_dropShadow_294_588"/>
<feBlend mode="normal" in="SourceGraphic" in2="effect1_dropShadow_294_588" result="shape"/>
</filter>
<filter id="filter4_d_294_588" x="5.74609" y="106" width="23.1641" height="27.2168" filterUnits="userSpaceOnUse" color-interpolation-filters="sRGB">
<feFlood flood-opacity="0" result="BackgroundImageFix"/>
<feColorMatrix in="SourceAlpha" type="matrix" values="0 0 0 0 0 0 0 0 0 0 0 0 0 0 0 0 0 0 127 0" result="hardAlpha"/>
<feOffset dy="4"/>
<feGaussianBlur stdDeviation="2"/>
<feComposite in2="hardAlpha" operator="out"/>
<feColorMatrix type="matrix" values="0 0 0 0 0 0 0 0 0 0 0 0 0 0 0 0 0 0 0.25 0"/>
<feBlend mode="normal" in2="BackgroundImageFix" result="effect1_dropShadow_294_588"/>
<feBlend mode="normal" in="SourceGraphic" in2="effect1_dropShadow_294_588" result="shape"/>
</filter>
<filter id="filter5_d_294_588" x="5.54004" y="71" width="22.584" height="26.6168" filterUnits="userSpaceOnUse" color-interpolation-filters="sRGB">
<feFlood flood-opacity="0" result="BackgroundImageFix"/>
<feColorMatrix in="SourceAlpha" type="matrix" values="0 0 0 0 0 0 0 0 0 0 0 0 0 0 0 0 0 0 127 0" result="hardAlpha"/>
<feOffset dy="4"/>
<feGaussianBlur stdDeviation="2"/>
<feComposite in2="hardAlpha" operator="out"/>
<feColorMatrix type="matrix" values="0 0 0 0 0 0 0 0 0 0 0 0 0 0 0 0 0 0 0.25 0"/>
<feBlend mode="normal" in2="BackgroundImageFix" result="effect1_dropShadow_294_588"/>
<feBlend mode="normal" in="SourceGraphic" in2="effect1_dropShadow_294_588" result="shape"/>
</filter>
<filter id="filter6_d_294_588" x="2.25098" y="8" width="49.4697" height="52" filterUnits="userSpaceOnUse" color-interpolation-filters="sRGB">
<feFlood flood-opacity="0" result="BackgroundImageFix"/>
<feColorMatrix in="SourceAlpha" type="matrix" values="0 0 0 0 0 0 0 0 0 0 0 0 0 0 0 0 0 0 127 0" result="hardAlpha"/>
<feOffset dy="4"/>
<feGaussianBlur stdDeviation="2"/>
<feComposite in2="hardAlpha" operator="out"/>
<feColorMatrix type="matrix" values="0 0 0 0 0 0 0 0 0 0 0 0 0 0 0 0 0 0 0.25 0"/>
<feBlend mode="normal" in2="BackgroundImageFix" result="effect1_dropShadow_294_588"/>
<feBlend mode="normal" in="SourceGraphic" in2="effect1_dropShadow_294_588" result="shape"/>
</filter>
</defs>
</svg>
