<svg width="227" height="276" viewBox="0 0 227 276" fill="none" xmlns="http://www.w3.org/2000/svg">
<path d="M197.346 217C204.941 217 212.229 220.053 217.604 225.49C222.978 230.928 226 238.305 226 246L225.991 246.721C225.809 254.154 222.81 261.242 217.604 266.51C212.229 271.947 204.941 275 197.346 275H1V217H197.346Z" fill="#281B35" stroke="#1D1D1B" stroke-width="2"/>
<g filter="url(#filter0_d_294_774)">
<path d="M34.7778 259.173C34.2267 263.048 30.6747 266 24.9181 266C16.0996 266 9.11816 259.112 9.11816 246.135C9.11816 233.158 16.1608 226.023 26.5716 226.023C29.6541 225.853 32.7164 226.618 35.3598 228.219C38.0031 229.821 40.105 232.185 41.3918 235.003L34.5329 238.877C33.9746 237.227 32.8947 235.805 31.4575 234.828C30.0204 233.851 28.3047 233.373 26.5716 233.465C21.3662 233.465 17.998 236.479 17.998 242.875V249.025C17.998 255.483 21.3662 258.435 26.5716 258.435C30.736 258.435 34.1042 256.467 34.1042 252.715V250.747H26.6941V243.736H41.8817V265.262H34.7778V259.173Z" fill="white"/>
<path d="M26.5693 225.024C29.8354 224.854 33.0775 225.668 35.8779 227.364C38.6933 229.07 40.9319 231.588 42.3018 234.588L42.6826 235.422L41.8838 235.873L35.0244 239.748L33.9727 240.343L33.5859 239.198C33.0973 237.754 32.1521 236.51 30.8955 235.655C29.639 234.801 28.1392 234.383 26.625 234.464L26.5986 234.465H26.5713C24.1599 234.465 22.3083 235.16 21.0537 236.465C19.7943 237.775 18.9981 239.845 18.998 242.875V249.025C18.9981 252.089 19.7953 254.156 21.0518 255.457C22.3039 256.753 24.1545 257.435 26.5713 257.436C28.5123 257.436 30.1758 256.974 31.3232 256.165C32.436 255.38 33.1044 254.247 33.1045 252.716V251.747H25.6943V242.736H42.8818V266.262H33.7773V263.596C31.8897 265.704 28.8094 267 24.918 267C20.233 267 15.9987 265.162 12.9502 261.582C9.91171 258.014 8.11816 252.797 8.11816 246.135C8.11817 239.471 9.92775 234.18 13.1973 230.544C16.4766 226.897 21.1264 225.025 26.5693 225.024Z" stroke="#1D1D1B" stroke-width="2"/>
</g>
<path d="M0 212H194.468C198.588 212 202.538 210.314 205.451 207.314C208.364 204.313 210 200.243 210 196C210.004 193.898 209.605 191.815 208.826 189.872C208.046 187.929 206.903 186.164 205.46 184.677C204.017 183.191 202.303 182.012 200.417 181.21C198.531 180.407 196.509 179.996 194.468 180H0V212Z" fill="#393551"/>
<g filter="url(#filter1_d_294_774)">
<path d="M11.3359 205.57V187H23.6141V190.578H15.3698V194.393H22.3775V198.059H15.3698V205.659L11.3359 205.57Z" fill="white"/>
</g>
<path d="M0 176H170.453C172.496 176.004 174.519 175.593 176.407 174.79C178.295 173.988 180.011 172.809 181.455 171.323C182.9 169.836 184.045 168.071 184.824 166.128C185.604 164.185 186.004 162.102 186 160C186 157.899 185.598 155.818 184.817 153.877C184.035 151.936 182.89 150.172 181.446 148.686C180.003 147.201 178.289 146.022 176.403 145.218C174.517 144.414 172.495 144 170.453 144H0V176Z" fill="#4D5271"/>
<g filter="url(#filter2_d_294_774)">
<path d="M11.041 169.57V151H23.6431V154.578H15.0748V158.393H22.5536V161.97H15.0748V165.992H23.6431V169.57H11.041Z" fill="white"/>
</g>
<path d="M0 140H148.265C150.334 140 152.383 139.587 154.293 138.786C156.204 137.985 157.94 136.81 159.402 135.33C160.863 133.849 162.021 132.092 162.81 130.158C163.599 128.224 164.003 126.152 164 124.06C164.015 121.96 163.62 119.876 162.837 117.93C162.054 115.985 160.898 114.214 159.435 112.722C157.973 111.229 156.233 110.044 154.317 109.233C152.4 108.423 150.343 108.004 148.265 108H0V140Z" fill="#606F8F"/>
<g filter="url(#filter3_d_294_774)">
<path d="M9.86328 115H16.8121C21.7292 115 24.9681 117.957 24.9681 124.285C24.9681 130.613 21.7292 133.57 16.8121 133.57H9.86328V115ZM16.8121 129.992C19.197 129.992 20.6987 128.691 20.6987 125.734V122.777C20.6987 119.82 19.197 118.519 16.8121 118.519H13.8677V129.903L16.8121 129.992Z" fill="white"/>
</g>
<path d="M0 104H126.053C130.294 103.968 134.35 102.268 137.337 99.2711C140.324 96.2739 142 92.2225 142 88C142 83.7775 140.324 79.7261 137.337 76.7289C134.35 73.7318 130.294 72.032 126.053 72H0V104Z" fill="#7792B1"/>
<g filter="url(#filter4_d_294_774)">
<path d="M9.74609 87.7783C9.74609 81.4798 12.9555 78.0201 17.9315 78.0201C19.3998 77.9072 20.8654 78.2717 22.1114 79.0599C23.3575 79.848 24.318 81.0178 24.8509 82.3965L21.3765 84.2003C21.2082 83.4261 20.7668 82.7391 20.1336 82.2663C19.5004 81.7934 18.7183 81.5666 17.9315 81.6277C15.576 81.6277 14.0155 83.2245 14.0155 86.1519V89.1089C14.0155 92.0659 15.576 93.6331 17.9315 93.6331C18.7635 93.6385 19.5742 93.3695 20.2391 92.8673C20.904 92.3652 21.3863 91.6577 21.6121 90.8535L24.9098 92.7756C24.3317 94.1383 23.3547 95.2924 22.1084 96.0846C20.8621 96.8767 19.4054 97.2696 17.9315 97.2111C12.9555 97.2407 9.74609 94.0471 9.74609 87.7783Z" fill="white"/>
</g>
<path d="M0 68H103.527C107.896 68 112.086 66.3111 115.175 63.3048C118.264 60.2985 120 56.2211 120 51.9696C119.983 47.7286 118.241 43.6668 115.153 40.6737C112.066 37.6805 107.885 36 103.527 36H0V68Z" fill="#8CB4D3"/>
<g filter="url(#filter5_d_294_774)">
<path d="M9.54004 43.0172H18.5205C19.1625 42.9606 19.8092 43.0439 20.4163 43.2614C21.0233 43.479 21.5764 43.8256 22.0377 44.2777C22.4991 44.7298 22.8577 45.2766 23.0892 45.8807C23.3206 46.4848 23.4194 47.132 23.3787 47.778C23.3787 50.735 21.8182 51.7108 19.9338 51.77V51.9474C20.5017 51.9339 21.0662 52.0392 21.5913 52.2568C22.1164 52.4743 22.5907 52.7992 22.984 53.2109C23.3773 53.6225 23.681 54.1119 23.8756 54.6478C24.0703 55.1837 24.1518 55.7545 24.1148 56.3238C24.1545 56.9874 24.062 57.6523 23.8426 58.2796C23.6232 58.9068 23.2814 59.4838 22.8372 59.9767C22.393 60.4696 21.8553 60.8686 21.2556 61.1502C20.656 61.4318 20.0064 61.5905 19.3449 61.6168H9.54004V43.0172ZM13.5444 50.6463H17.5488C17.7776 50.6641 18.0075 50.6319 18.2227 50.552C18.4379 50.4721 18.6334 50.3463 18.7956 50.1834C18.9579 50.0204 19.0831 49.8242 19.1626 49.608C19.2422 49.3919 19.2743 49.161 19.2566 48.9313V48.1329C19.2749 47.9043 19.2431 47.6745 19.1633 47.4596C19.0835 47.2447 18.9578 47.0501 18.7949 46.8893C18.632 46.7286 18.4361 46.6057 18.2207 46.5293C18.0054 46.453 17.7761 46.425 17.5488 46.4474H13.5444V50.6463ZM13.5444 58.1867H18.1966C18.4223 58.2138 18.6511 58.1902 18.8666 58.1174C19.082 58.0447 19.2786 57.9247 19.4422 57.7661C19.6057 57.6076 19.732 57.4145 19.8119 57.2008C19.8919 56.9871 19.9234 56.7582 19.9043 56.5308V55.6141C19.9227 55.3855 19.8908 55.1557 19.8111 54.9408C19.7313 54.726 19.6055 54.5313 19.4427 54.3706C19.2798 54.2098 19.0838 54.0869 18.8685 54.0106C18.6532 53.9342 18.4238 53.9062 18.1966 53.9286H13.5444V58.1867Z" fill="white"/>
</g>
<path d="M0 32H55.6208C57.7729 32.004 59.9046 31.5925 61.8937 30.789C63.8827 29.9856 65.69 28.8061 67.2117 27.3182C68.7335 25.8302 69.9398 24.0631 70.7615 22.1183C71.5832 20.1734 72.0041 18.0891 72 15.9848C72 13.8831 71.5761 11.8021 70.7526 9.8607C69.9291 7.91936 68.7221 6.15586 67.2008 4.67114C65.6794 3.18641 63.8735 2.0096 61.8865 1.20807C59.8995 0.406546 57.7703 -0.00395928 55.6208 2.87811e-05H0V32Z" fill="#A4DBF8"/>
<g filter="url(#filter6_d_294_774)">
<path d="M21.4969 25.5996L20.1662 21.1641H13.9565L12.6259 25.5996H8.51562L14.6366 7H19.634L25.548 25.5996H21.4969ZM17.0909 10.8145L15.021 17.8522H19.2791L17.0909 10.8145Z" fill="white"/>
</g>
<defs>
<filter id="filter0_d_294_774" x="3.11816" y="224" width="44.8555" height="52" filterUnits="userSpaceOnUse" color-interpolation-filters="sRGB">
<feFlood flood-opacity="0" result="BackgroundImageFix"/>
<feColorMatrix in="SourceAlpha" type="matrix" values="0 0 0 0 0 0 0 0 0 0 0 0 0 0 0 0 0 0 127 0" result="hardAlpha"/>
<feOffset dy="4"/>
<feGaussianBlur stdDeviation="2"/>
<feComposite in2="hardAlpha" operator="out"/>
<feColorMatrix type="matrix" values="0 0 0 0 0 0 0 0 0 0 0 0 0 0 0 0 0 0 0.25 0"/>
<feBlend mode="normal" in2="BackgroundImageFix" result="effect1_dropShadow_294_774"/>
<feBlend mode="normal" in="SourceGraphic" in2="effect1_dropShadow_294_774" result="shape"/>
</filter>
<filter id="filter1_d_294_774" x="7.33594" y="187" width="20.2783" height="26.6588" filterUnits="userSpaceOnUse" color-interpolation-filters="sRGB">
<feFlood flood-opacity="0" result="BackgroundImageFix"/>
<feColorMatrix in="SourceAlpha" type="matrix" values="0 0 0 0 0 0 0 0 0 0 0 0 0 0 0 0 0 0 127 0" result="hardAlpha"/>
<feOffset dy="4"/>
<feGaussianBlur stdDeviation="2"/>
<feComposite in2="hardAlpha" operator="out"/>
<feColorMatrix type="matrix" values="0 0 0 0 0 0 0 0 0 0 0 0 0 0 0 0 0 0 0.25 0"/>
<feBlend mode="normal" in2="BackgroundImageFix" result="effect1_dropShadow_294_774"/>
<feBlend mode="normal" in="SourceGraphic" in2="effect1_dropShadow_294_774" result="shape"/>
</filter>
<filter id="filter2_d_294_774" x="7.04102" y="151" width="20.6025" height="26.57" filterUnits="userSpaceOnUse" color-interpolation-filters="sRGB">
<feFlood flood-opacity="0" result="BackgroundImageFix"/>
<feColorMatrix in="SourceAlpha" type="matrix" values="0 0 0 0 0 0 0 0 0 0 0 0 0 0 0 0 0 0 127 0" result="hardAlpha"/>
<feOffset dy="4"/>
<feGaussianBlur stdDeviation="2"/>
<feComposite in2="hardAlpha" operator="out"/>
<feColorMatrix type="matrix" values="0 0 0 0 0 0 0 0 0 0 0 0 0 0 0 0 0 0 0.25 0"/>
<feBlend mode="normal" in2="BackgroundImageFix" result="effect1_dropShadow_294_774"/>
<feBlend mode="normal" in="SourceGraphic" in2="effect1_dropShadow_294_774" result="shape"/>
</filter>
<filter id="filter3_d_294_774" x="5.86328" y="115" width="23.1045" height="26.57" filterUnits="userSpaceOnUse" color-interpolation-filters="sRGB">
<feFlood flood-opacity="0" result="BackgroundImageFix"/>
<feColorMatrix in="SourceAlpha" type="matrix" values="0 0 0 0 0 0 0 0 0 0 0 0 0 0 0 0 0 0 127 0" result="hardAlpha"/>
<feOffset dy="4"/>
<feGaussianBlur stdDeviation="2"/>
<feComposite in2="hardAlpha" operator="out"/>
<feColorMatrix type="matrix" values="0 0 0 0 0 0 0 0 0 0 0 0 0 0 0 0 0 0 0.25 0"/>
<feBlend mode="normal" in2="BackgroundImageFix" result="effect1_dropShadow_294_774"/>
<feBlend mode="normal" in="SourceGraphic" in2="effect1_dropShadow_294_774" result="shape"/>
</filter>
<filter id="filter4_d_294_774" x="5.74609" y="78" width="23.1641" height="27.2168" filterUnits="userSpaceOnUse" color-interpolation-filters="sRGB">
<feFlood flood-opacity="0" result="BackgroundImageFix"/>
<feColorMatrix in="SourceAlpha" type="matrix" values="0 0 0 0 0 0 0 0 0 0 0 0 0 0 0 0 0 0 127 0" result="hardAlpha"/>
<feOffset dy="4"/>
<feGaussianBlur stdDeviation="2"/>
<feComposite in2="hardAlpha" operator="out"/>
<feColorMatrix type="matrix" values="0 0 0 0 0 0 0 0 0 0 0 0 0 0 0 0 0 0 0.25 0"/>
<feBlend mode="normal" in2="BackgroundImageFix" result="effect1_dropShadow_294_774"/>
<feBlend mode="normal" in="SourceGraphic" in2="effect1_dropShadow_294_774" result="shape"/>
</filter>
<filter id="filter5_d_294_774" x="5.54004" y="43" width="22.584" height="26.6168" filterUnits="userSpaceOnUse" color-interpolation-filters="sRGB">
<feFlood flood-opacity="0" result="BackgroundImageFix"/>
<feColorMatrix in="SourceAlpha" type="matrix" values="0 0 0 0 0 0 0 0 0 0 0 0 0 0 0 0 0 0 127 0" result="hardAlpha"/>
<feOffset dy="4"/>
<feGaussianBlur stdDeviation="2"/>
<feComposite in2="hardAlpha" operator="out"/>
<feColorMatrix type="matrix" values="0 0 0 0 0 0 0 0 0 0 0 0 0 0 0 0 0 0 0.25 0"/>
<feBlend mode="normal" in2="BackgroundImageFix" result="effect1_dropShadow_294_774"/>
<feBlend mode="normal" in="SourceGraphic" in2="effect1_dropShadow_294_774" result="shape"/>
</filter>
<filter id="filter6_d_294_774" x="4.51562" y="7" width="25.0322" height="26.5995" filterUnits="userSpaceOnUse" color-interpolation-filters="sRGB">
<feFlood flood-opacity="0" result="BackgroundImageFix"/>
<feColorMatrix in="SourceAlpha" type="matrix" values="0 0 0 0 0 0 0 0 0 0 0 0 0 0 0 0 0 0 127 0" result="hardAlpha"/>
<feOffset dy="4"/>
<feGaussianBlur stdDeviation="2"/>
<feComposite in2="hardAlpha" operator="out"/>
<feColorMatrix type="matrix" values="0 0 0 0 0 0 0 0 0 0 0 0 0 0 0 0 0 0 0.25 0"/>
<feBlend mode="normal" in2="BackgroundImageFix" result="effect1_dropShadow_294_774"/>
<feBlend mode="normal" in="SourceGraphic" in2="effect1_dropShadow_294_774" result="shape"/>
</filter>
</defs>
</svg>
