<svg width="234" height="250" viewBox="0 0 234 250" fill="none" xmlns="http://www.w3.org/2000/svg">
<path d="M0 248H218.498C222.609 248 226.552 246.314 229.459 243.314C232.367 240.313 234 236.243 234 232C234.004 229.898 233.605 227.815 232.828 225.872C232.05 223.929 230.908 222.164 229.468 220.677C228.028 219.191 226.317 218.012 224.435 217.21C222.552 216.407 220.535 215.996 218.498 216H0V248Z" fill="#281B35"/>
<g filter="url(#filter0_d_294_587)">
<path d="M21.2882 237.95C21.0232 239.812 19.3155 241.232 16.5477 241.232C12.3078 241.232 8.95117 237.92 8.95117 231.681C8.95117 225.441 12.3372 222.011 17.3427 222.011C18.8248 221.929 20.2971 222.297 21.568 223.067C22.8389 223.837 23.8495 224.974 24.4682 226.329L21.1705 228.191C20.9021 227.398 20.3828 226.714 19.6918 226.245C19.0009 225.775 18.176 225.545 17.3427 225.589C14.84 225.589 13.2206 227.038 13.2206 230.113V233.07C13.2206 236.175 14.84 237.595 17.3427 237.595C19.3449 237.595 20.9643 236.648 20.9643 234.845V233.898H17.4016V230.527H24.7037V240.877H21.2882V237.95Z" fill="white"/>
</g>
<path d="M0 212H194.468C198.588 212 202.538 210.314 205.451 207.314C208.364 204.313 210 200.243 210 196C210.004 193.898 209.605 191.815 208.826 189.872C208.046 187.929 206.903 186.164 205.46 184.677C204.017 183.191 202.303 182.012 200.417 181.21C198.531 180.407 196.509 179.996 194.468 180H0V212Z" fill="#393551"/>
<g filter="url(#filter1_d_294_587)">
<path d="M11.3359 205.57V187H23.6141V190.578H15.3698V194.393H22.3775V198.059H15.3698V205.659L11.3359 205.57Z" fill="white"/>
</g>
<path d="M0 176H170.453C172.496 176.004 174.519 175.593 176.407 174.79C178.295 173.988 180.011 172.809 181.455 171.323C182.9 169.836 184.045 168.071 184.824 166.128C185.604 164.185 186.004 162.102 186 160C186 157.899 185.598 155.818 184.817 153.877C184.035 151.936 182.89 150.172 181.446 148.686C180.003 147.201 178.289 146.022 176.403 145.218C174.517 144.414 172.495 144 170.453 144H0V176Z" fill="#4D5271"/>
<g filter="url(#filter2_d_294_587)">
<path d="M11.0415 169.57V151H23.6436V154.578H15.0753V158.393H22.5541V161.97H15.0753V165.992H23.6436V169.57H11.0415Z" fill="white"/>
</g>
<path d="M0 140H148.265C150.334 140 152.383 139.587 154.293 138.786C156.204 137.985 157.94 136.81 159.402 135.33C160.863 133.849 162.021 132.092 162.81 130.158C163.599 128.224 164.003 126.152 164 124.06C164.015 121.96 163.62 119.876 162.837 117.93C162.054 115.985 160.898 114.214 159.435 112.722C157.973 111.229 156.233 110.044 154.317 109.233C152.4 108.423 150.343 108.004 148.265 108H0V140Z" fill="#606F8F"/>
<g filter="url(#filter3_d_294_587)">
<path d="M9.86377 115H16.8126C21.7297 115 24.9686 117.957 24.9686 124.285C24.9686 130.613 21.7297 133.57 16.8126 133.57H9.86377V115ZM16.8126 129.992C19.1975 129.992 20.6992 128.691 20.6992 125.734V122.777C20.6992 119.82 19.1975 118.519 16.8126 118.519H13.8682V129.903L16.8126 129.992Z" fill="white"/>
</g>
<path d="M0 104H126.053C130.294 103.968 134.35 102.268 137.337 99.2711C140.324 96.2739 142 92.2225 142 88C142 83.7775 140.324 79.7261 137.337 76.7289C134.35 73.7318 130.294 72.032 126.053 72H0V104Z" fill="#7792B1"/>
<g filter="url(#filter4_d_294_587)">
<path d="M9.74609 87.7782C9.74609 81.4798 12.9555 78.0201 17.9315 78.0201C19.3998 77.9072 20.8654 78.2717 22.1114 79.0599C23.3575 79.848 24.318 81.0178 24.8509 82.3965L21.3765 84.2003C21.2082 83.4261 20.7668 82.7391 20.1336 82.2663C19.5004 81.7934 18.7183 81.5666 17.9315 81.6277C15.576 81.6277 14.0155 83.2245 14.0155 86.1519V89.1089C14.0155 92.0659 15.576 93.6331 17.9315 93.6331C18.7635 93.6385 19.5742 93.3695 20.2391 92.8673C20.904 92.3652 21.3863 91.6577 21.6121 90.8535L24.9098 92.7756C24.3317 94.1383 23.3547 95.2924 22.1084 96.0846C20.8621 96.8767 19.4054 97.2696 17.9315 97.2111C12.9555 97.2407 9.74609 94.0471 9.74609 87.7782Z" fill="white"/>
</g>
<path d="M0 68H103.527C107.896 68 112.086 66.3111 115.175 63.3048C118.264 60.2985 120 56.2211 120 51.9696C119.983 47.7286 118.241 43.6668 115.153 40.6737C112.066 37.6805 107.885 36 103.527 36H0V68Z" fill="#8CB4D3"/>
<g filter="url(#filter5_d_294_587)">
<path d="M9.54004 43.0172H18.5205C19.1625 42.9606 19.8092 43.0439 20.4163 43.2614C21.0233 43.479 21.5764 43.8256 22.0377 44.2777C22.4991 44.7298 22.8577 45.2766 23.0892 45.8807C23.3206 46.4848 23.4194 47.132 23.3787 47.778C23.3787 50.735 21.8182 51.7108 19.9338 51.77V51.9474C20.5017 51.9339 21.0662 52.0392 21.5913 52.2568C22.1164 52.4743 22.5907 52.7992 22.984 53.2109C23.3773 53.6225 23.681 54.1119 23.8756 54.6478C24.0703 55.1837 24.1518 55.7545 24.1148 56.3238C24.1545 56.9874 24.062 57.6523 23.8426 58.2796C23.6232 58.9068 23.2814 59.4838 22.8372 59.9767C22.393 60.4696 21.8553 60.8686 21.2556 61.1502C20.656 61.4318 20.0064 61.5905 19.3449 61.6168H9.54004V43.0172ZM13.5444 50.6463H17.5488C17.7776 50.6641 18.0075 50.6319 18.2227 50.552C18.4379 50.4721 18.6334 50.3463 18.7956 50.1834C18.9579 50.0204 19.0831 49.8242 19.1626 49.608C19.2422 49.3919 19.2743 49.161 19.2566 48.9313V48.1329C19.2749 47.9043 19.2431 47.6745 19.1633 47.4596C19.0835 47.2447 18.9578 47.0501 18.7949 46.8893C18.632 46.7286 18.4361 46.6057 18.2207 46.5293C18.0054 46.453 17.7761 46.425 17.5488 46.4474H13.5444V50.6463ZM13.5444 58.1867H18.1966C18.4223 58.2138 18.6511 58.1902 18.8666 58.1174C19.082 58.0447 19.2786 57.9247 19.4422 57.7661C19.6057 57.6076 19.732 57.4145 19.8119 57.2008C19.8919 56.9871 19.9234 56.7582 19.9043 56.5308V55.6141C19.9227 55.3855 19.8908 55.1557 19.8111 54.9408C19.7313 54.726 19.6055 54.5313 19.4427 54.3706C19.2798 54.2098 19.0838 54.0869 18.8685 54.0106C18.6532 53.9342 18.4238 53.9062 18.1966 53.9286H13.5444V58.1867Z" fill="white"/>
</g>
<path d="M0 32H55.6208C57.7729 32.004 59.9046 31.5925 61.8937 30.789C63.8827 29.9856 65.69 28.8061 67.2117 27.3182C68.7335 25.8302 69.9398 24.0631 70.7615 22.1183C71.5832 20.1734 72.0041 18.0891 72 15.9848C72 13.8831 71.5761 11.8021 70.7526 9.8607C69.9291 7.91936 68.7221 6.15586 67.2008 4.67114C65.6794 3.18641 63.8735 2.0096 61.8865 1.20807C59.8995 0.406546 57.7703 -0.00395928 55.6208 2.87811e-05H0V32Z" fill="#A4DBF8"/>
<g filter="url(#filter6_d_294_587)">
<path d="M21.4974 25.5996L20.1667 21.1641H13.957L12.6263 25.5996H8.51611L14.6371 7H19.6345L25.5485 25.5996H21.4974ZM17.0914 10.8145L15.0215 17.8522H19.2796L17.0914 10.8145Z" fill="white"/>
</g>
<defs>
<filter id="filter0_d_294_587" x="4.95117" y="222" width="23.7524" height="27.2318" filterUnits="userSpaceOnUse" color-interpolation-filters="sRGB">
<feFlood flood-opacity="0" result="BackgroundImageFix"/>
<feColorMatrix in="SourceAlpha" type="matrix" values="0 0 0 0 0 0 0 0 0 0 0 0 0 0 0 0 0 0 127 0" result="hardAlpha"/>
<feOffset dy="4"/>
<feGaussianBlur stdDeviation="2"/>
<feComposite in2="hardAlpha" operator="out"/>
<feColorMatrix type="matrix" values="0 0 0 0 0 0 0 0 0 0 0 0 0 0 0 0 0 0 0.25 0"/>
<feBlend mode="normal" in2="BackgroundImageFix" result="effect1_dropShadow_294_587"/>
<feBlend mode="normal" in="SourceGraphic" in2="effect1_dropShadow_294_587" result="shape"/>
</filter>
<filter id="filter1_d_294_587" x="7.33594" y="187" width="20.2783" height="26.6588" filterUnits="userSpaceOnUse" color-interpolation-filters="sRGB">
<feFlood flood-opacity="0" result="BackgroundImageFix"/>
<feColorMatrix in="SourceAlpha" type="matrix" values="0 0 0 0 0 0 0 0 0 0 0 0 0 0 0 0 0 0 127 0" result="hardAlpha"/>
<feOffset dy="4"/>
<feGaussianBlur stdDeviation="2"/>
<feComposite in2="hardAlpha" operator="out"/>
<feColorMatrix type="matrix" values="0 0 0 0 0 0 0 0 0 0 0 0 0 0 0 0 0 0 0.25 0"/>
<feBlend mode="normal" in2="BackgroundImageFix" result="effect1_dropShadow_294_587"/>
<feBlend mode="normal" in="SourceGraphic" in2="effect1_dropShadow_294_587" result="shape"/>
</filter>
<filter id="filter2_d_294_587" x="7.0415" y="151" width="20.6021" height="26.57" filterUnits="userSpaceOnUse" color-interpolation-filters="sRGB">
<feFlood flood-opacity="0" result="BackgroundImageFix"/>
<feColorMatrix in="SourceAlpha" type="matrix" values="0 0 0 0 0 0 0 0 0 0 0 0 0 0 0 0 0 0 127 0" result="hardAlpha"/>
<feOffset dy="4"/>
<feGaussianBlur stdDeviation="2"/>
<feComposite in2="hardAlpha" operator="out"/>
<feColorMatrix type="matrix" values="0 0 0 0 0 0 0 0 0 0 0 0 0 0 0 0 0 0 0.25 0"/>
<feBlend mode="normal" in2="BackgroundImageFix" result="effect1_dropShadow_294_587"/>
<feBlend mode="normal" in="SourceGraphic" in2="effect1_dropShadow_294_587" result="shape"/>
</filter>
<filter id="filter3_d_294_587" x="5.86377" y="115" width="23.105" height="26.57" filterUnits="userSpaceOnUse" color-interpolation-filters="sRGB">
<feFlood flood-opacity="0" result="BackgroundImageFix"/>
<feColorMatrix in="SourceAlpha" type="matrix" values="0 0 0 0 0 0 0 0 0 0 0 0 0 0 0 0 0 0 127 0" result="hardAlpha"/>
<feOffset dy="4"/>
<feGaussianBlur stdDeviation="2"/>
<feComposite in2="hardAlpha" operator="out"/>
<feColorMatrix type="matrix" values="0 0 0 0 0 0 0 0 0 0 0 0 0 0 0 0 0 0 0.25 0"/>
<feBlend mode="normal" in2="BackgroundImageFix" result="effect1_dropShadow_294_587"/>
<feBlend mode="normal" in="SourceGraphic" in2="effect1_dropShadow_294_587" result="shape"/>
</filter>
<filter id="filter4_d_294_587" x="5.74609" y="78" width="23.1636" height="27.2168" filterUnits="userSpaceOnUse" color-interpolation-filters="sRGB">
<feFlood flood-opacity="0" result="BackgroundImageFix"/>
<feColorMatrix in="SourceAlpha" type="matrix" values="0 0 0 0 0 0 0 0 0 0 0 0 0 0 0 0 0 0 127 0" result="hardAlpha"/>
<feOffset dy="4"/>
<feGaussianBlur stdDeviation="2"/>
<feComposite in2="hardAlpha" operator="out"/>
<feColorMatrix type="matrix" values="0 0 0 0 0 0 0 0 0 0 0 0 0 0 0 0 0 0 0.25 0"/>
<feBlend mode="normal" in2="BackgroundImageFix" result="effect1_dropShadow_294_587"/>
<feBlend mode="normal" in="SourceGraphic" in2="effect1_dropShadow_294_587" result="shape"/>
</filter>
<filter id="filter5_d_294_587" x="5.54004" y="43" width="22.584" height="26.6168" filterUnits="userSpaceOnUse" color-interpolation-filters="sRGB">
<feFlood flood-opacity="0" result="BackgroundImageFix"/>
<feColorMatrix in="SourceAlpha" type="matrix" values="0 0 0 0 0 0 0 0 0 0 0 0 0 0 0 0 0 0 127 0" result="hardAlpha"/>
<feOffset dy="4"/>
<feGaussianBlur stdDeviation="2"/>
<feComposite in2="hardAlpha" operator="out"/>
<feColorMatrix type="matrix" values="0 0 0 0 0 0 0 0 0 0 0 0 0 0 0 0 0 0 0.25 0"/>
<feBlend mode="normal" in2="BackgroundImageFix" result="effect1_dropShadow_294_587"/>
<feBlend mode="normal" in="SourceGraphic" in2="effect1_dropShadow_294_587" result="shape"/>
</filter>
<filter id="filter6_d_294_587" x="4.51611" y="7" width="25.0322" height="26.5995" filterUnits="userSpaceOnUse" color-interpolation-filters="sRGB">
<feFlood flood-opacity="0" result="BackgroundImageFix"/>
<feColorMatrix in="SourceAlpha" type="matrix" values="0 0 0 0 0 0 0 0 0 0 0 0 0 0 0 0 0 0 127 0" result="hardAlpha"/>
<feOffset dy="4"/>
<feGaussianBlur stdDeviation="2"/>
<feComposite in2="hardAlpha" operator="out"/>
<feColorMatrix type="matrix" values="0 0 0 0 0 0 0 0 0 0 0 0 0 0 0 0 0 0 0.25 0"/>
<feBlend mode="normal" in2="BackgroundImageFix" result="effect1_dropShadow_294_587"/>
<feBlend mode="normal" in="SourceGraphic" in2="effect1_dropShadow_294_587" result="shape"/>
</filter>
</defs>
</svg>
