<svg width="234" height="278" viewBox="0 0 234 278" fill="none" xmlns="http://www.w3.org/2000/svg">
<path d="M0 276H218.498C222.609 276 226.552 274.314 229.459 271.314C232.367 268.313 234 264.243 234 260C234.004 257.898 233.605 255.815 232.828 253.872C232.05 251.929 230.908 250.164 229.468 248.677C228.028 247.191 226.317 246.012 224.435 245.21C222.552 244.407 220.535 243.996 218.498 244H0V276Z" fill="#281B35"/>
<g filter="url(#filter0_d_294_613)">
<path d="M21.2882 265.95C21.0232 267.812 19.3155 269.232 16.5477 269.232C12.3078 269.232 8.95117 265.92 8.95117 259.681C8.95117 253.441 12.3372 250.011 17.3427 250.011C18.8248 249.929 20.2971 250.297 21.568 251.067C22.8389 251.837 23.8495 252.974 24.4682 254.329L21.1705 256.191C20.9021 255.398 20.3828 254.714 19.6918 254.245C19.0009 253.775 18.176 253.545 17.3427 253.589C14.84 253.589 13.2206 255.038 13.2206 258.113V261.07C13.2206 264.175 14.84 265.595 17.3427 265.595C19.3449 265.595 20.9643 264.648 20.9643 262.845V261.898H17.4016V258.527H24.7037V268.877H21.2882V265.95Z" fill="white"/>
</g>
<path d="M0 240H194.468C198.588 240 202.538 238.314 205.451 235.314C208.364 232.313 210 228.243 210 224C210.004 221.898 209.605 219.815 208.826 217.872C208.046 215.929 206.903 214.164 205.46 212.677C204.017 211.191 202.303 210.012 200.417 209.21C198.531 208.407 196.509 207.996 194.468 208H0V240Z" fill="#393551"/>
<g filter="url(#filter1_d_294_613)">
<path d="M11.3359 233.57V215H23.6141V218.578H15.3698V222.393H22.3775V226.059H15.3698V233.659L11.3359 233.57Z" fill="white"/>
</g>
<path d="M0 204H170.453C172.496 204.004 174.519 203.593 176.407 202.79C178.295 201.988 180.011 200.809 181.455 199.323C182.9 197.836 184.045 196.071 184.824 194.128C185.604 192.185 186.004 190.102 186 188C186 185.899 185.598 183.818 184.817 181.877C184.035 179.936 182.89 178.172 181.446 176.686C180.003 175.201 178.289 174.022 176.403 173.218C174.517 172.414 172.495 172 170.453 172H0V204Z" fill="#4D5271"/>
<g filter="url(#filter2_d_294_613)">
<path d="M11.041 197.57V179H23.6431V182.578H15.0748V186.393H22.5536V189.97H15.0748V193.992H23.6431V197.57H11.041Z" fill="white"/>
</g>
<path d="M0 168H148.265C150.334 168 152.383 167.587 154.293 166.786C156.204 165.985 157.94 164.81 159.402 163.33C160.863 161.849 162.021 160.092 162.81 158.158C163.599 156.224 164.003 154.152 164 152.06C164.015 149.96 163.62 147.876 162.837 145.93C162.054 143.985 160.898 142.214 159.435 140.722C157.973 139.229 156.233 138.044 154.317 137.233C152.4 136.423 150.343 136.004 148.265 136H0V168Z" fill="#606F8F"/>
<g filter="url(#filter3_d_294_613)">
<path d="M9.86328 143H16.8121C21.7292 143 24.9681 145.957 24.9681 152.285C24.9681 158.613 21.7292 161.57 16.8121 161.57H9.86328V143ZM16.8121 157.992C19.197 157.992 20.6987 156.691 20.6987 153.734V150.777C20.6987 147.82 19.197 146.519 16.8121 146.519H13.8677V157.903L16.8121 157.992Z" fill="white"/>
</g>
<path d="M0 132H126.053C130.294 131.968 134.35 130.268 137.337 127.271C140.324 124.274 142 120.223 142 116C142 111.777 140.324 107.726 137.337 104.729C134.35 101.732 130.294 100.032 126.053 100H0V132Z" fill="#7792B1"/>
<g filter="url(#filter4_d_294_613)">
<path d="M9.74609 115.778C9.74609 109.48 12.9555 106.02 17.9315 106.02C19.3998 105.907 20.8654 106.272 22.1114 107.06C23.3575 107.848 24.318 109.018 24.8509 110.397L21.3765 112.2C21.2082 111.426 20.7668 110.739 20.1336 110.266C19.5004 109.793 18.7183 109.567 17.9315 109.628C15.576 109.628 14.0155 111.224 14.0155 114.152V117.109C14.0155 120.066 15.576 121.633 17.9315 121.633C18.7635 121.639 19.5742 121.37 20.2391 120.867C20.904 120.365 21.3863 119.658 21.6121 118.854L24.9098 120.776C24.3317 122.138 23.3547 123.292 22.1084 124.085C20.8621 124.877 19.4054 125.27 17.9315 125.211C12.9555 125.241 9.74609 122.047 9.74609 115.778Z" fill="white"/>
</g>
<path d="M74.9199 37.0449C79.0527 36.8251 83.1893 37.4138 87.0742 38.7734C90.9589 40.133 94.51 42.2345 97.5107 44.9473C100.511 47.66 102.899 50.9267 104.529 54.5459C106.16 58.1652 107 62.0627 107 66C107 69.9373 106.16 73.8348 104.529 77.4541C102.899 81.0733 100.511 84.34 97.5107 87.0527C94.51 89.7655 90.9589 91.867 87.0742 93.2266C83.1893 94.5862 79.0527 95.1749 74.9199 94.9551L74.8936 94.9541H1V37.0459H74.8936L74.9199 37.0449Z" fill="#8CB4D3" stroke="#1D1D1B" stroke-width="2"/>
<g filter="url(#filter5_d_294_613)">
<path d="M10 46.0371H29.0893C30.4541 45.9153 31.8287 46.0943 33.1191 46.5617C34.4095 47.0291 35.5852 47.774 36.5658 48.7453C37.5464 49.7166 38.3087 50.8914 38.8007 52.1894C39.2927 53.4875 39.5027 54.878 39.4163 56.266C39.4163 62.6195 36.0991 64.7161 32.0935 64.8431V65.2244C33.3007 65.1953 34.5005 65.4217 35.6168 65.889C36.7331 66.3564 37.7413 67.0545 38.5772 67.939C39.4132 68.8235 40.0587 69.8749 40.4725 71.0264C40.8863 72.1779 41.0595 73.4042 40.981 74.6274C41.0653 76.0533 40.8686 77.4819 40.4023 78.8296C39.9359 80.1773 39.2093 81.417 38.2651 82.4761C37.3209 83.5352 36.178 84.3924 34.9033 84.9975C33.6286 85.6026 32.2478 85.9434 30.8417 86H10V46.0371ZM18.5119 62.4289H27.0239C27.5102 62.467 27.9988 62.3978 28.4563 62.2261C28.9138 62.0544 29.3292 61.7843 29.6741 61.4342C30.019 61.0841 30.2852 60.6623 30.4543 60.198C30.6234 59.7336 30.6916 59.2375 30.654 58.7439V57.0285C30.6929 56.5374 30.6252 56.0435 30.4557 55.5819C30.2861 55.1202 30.0188 54.702 29.6726 54.3566C29.3265 54.0113 28.9098 53.7472 28.4522 53.5831C27.9945 53.4191 27.5069 53.359 27.0239 53.407H18.5119V62.4289ZM18.5119 78.6301H28.4008C28.8805 78.6884 29.367 78.6376 29.825 78.4813C30.2829 78.325 30.7009 78.0671 31.0485 77.7264C31.396 77.3858 31.6645 76.9708 31.8345 76.5117C32.0044 76.0526 32.0715 75.5608 32.0309 75.0721V73.1026C32.0699 72.6115 32.0022 72.1177 31.8326 71.656C31.663 71.1944 31.3957 70.7761 31.0496 70.4307C30.7034 70.0854 30.2868 69.8213 29.8291 69.6572C29.3714 69.4932 28.8839 69.4331 28.4008 69.4811H18.5119V78.6301Z" fill="white"/>
<path d="M29.0518 45.0371C30.5454 44.9114 32.0486 45.1099 33.46 45.6211C34.8874 46.1382 36.1866 46.9625 37.2695 48.0352C38.3523 49.1077 39.193 50.404 39.7354 51.835C40.2737 53.2554 40.5057 54.7758 40.416 56.2939C40.4112 59.6242 39.5359 62.0196 37.9648 63.5957C37.3809 64.1814 36.7211 64.6312 36.0127 64.9707C37.2545 65.4922 38.3749 66.2693 39.3037 67.252C40.2349 68.2372 40.9529 69.4079 41.4131 70.6885C41.8655 71.9472 42.0569 73.2856 41.9805 74.6221C42.0645 76.1607 41.851 77.7014 41.3477 79.1562C40.8384 80.6281 40.0443 81.9834 39.0117 83.1416C37.9791 84.2998 36.7281 85.2377 35.332 85.9004C33.9359 86.5631 32.4229 86.937 30.8818 86.999L30.8623 87H9V45.0371H29.0518ZM28.5 70.4766L28.4502 70.4814H19.5117V77.6299H28.4609L28.5215 77.6377C28.8514 77.6778 29.1863 77.6428 29.502 77.5352C29.8175 77.4275 30.1072 77.2493 30.3486 77.0127L30.5195 76.8252C30.6796 76.629 30.8072 76.406 30.8965 76.165C31.0155 75.8436 31.0626 75.4983 31.0342 75.1553L31.0312 75.1133V73.0635L31.0342 73.0234C31.0617 72.6759 31.0133 72.3269 30.8936 72.001C30.7739 71.6751 30.5862 71.3806 30.3438 71.1387C30.1012 70.8967 29.8094 70.7127 29.4912 70.5986C29.1732 70.4847 28.835 70.4432 28.5 70.4766ZM27.123 54.4023L27.0732 54.4072H19.5117V61.4287H27.0635L27.1025 61.4316C27.4423 61.4582 27.784 61.4102 28.1045 61.29C28.4253 61.1697 28.7183 60.9797 28.9619 60.7324C29.2055 60.4851 29.3943 60.1859 29.5146 59.8555C29.6349 59.5251 29.684 59.1713 29.6572 58.8193L29.6543 58.7822V56.9893L29.6572 56.9492C29.6848 56.6017 29.6363 56.2527 29.5166 55.9268C29.3969 55.6009 29.2093 55.3065 28.9668 55.0645C28.7242 54.8225 28.4325 54.6385 28.1143 54.5244C27.7963 54.4105 27.458 54.369 27.123 54.4023Z" stroke="#1D1D1B" stroke-width="2"/>
</g>
<path d="M0 32H55.6208C57.7729 32.004 59.9046 31.5925 61.8937 30.789C63.8827 29.9856 65.69 28.8061 67.2117 27.3182C68.7335 25.8302 69.9398 24.0631 70.7615 22.1183C71.5832 20.1734 72.0041 18.0891 72 15.9848C72 13.8831 71.5761 11.8021 70.7526 9.8607C69.9291 7.91936 68.7221 6.15586 67.2008 4.67114C65.6794 3.18641 63.8735 2.0096 61.8865 1.20807C59.8995 0.406546 57.7703 -0.00395928 55.6208 2.87811e-05H0V32Z" fill="#A4DBF8"/>
<g filter="url(#filter6_d_294_613)">
<path d="M21.4969 25.5996L20.1662 21.1641H13.9565L12.6259 25.5996H8.51562L14.6366 7H19.634L25.548 25.5996H21.4969ZM17.0909 10.8145L15.021 17.8522H19.2791L17.0909 10.8145Z" fill="white"/>
</g>
<defs>
<filter id="filter0_d_294_613" x="4.95117" y="250" width="23.7529" height="27.2318" filterUnits="userSpaceOnUse" color-interpolation-filters="sRGB">
<feFlood flood-opacity="0" result="BackgroundImageFix"/>
<feColorMatrix in="SourceAlpha" type="matrix" values="0 0 0 0 0 0 0 0 0 0 0 0 0 0 0 0 0 0 127 0" result="hardAlpha"/>
<feOffset dy="4"/>
<feGaussianBlur stdDeviation="2"/>
<feComposite in2="hardAlpha" operator="out"/>
<feColorMatrix type="matrix" values="0 0 0 0 0 0 0 0 0 0 0 0 0 0 0 0 0 0 0.25 0"/>
<feBlend mode="normal" in2="BackgroundImageFix" result="effect1_dropShadow_294_613"/>
<feBlend mode="normal" in="SourceGraphic" in2="effect1_dropShadow_294_613" result="shape"/>
</filter>
<filter id="filter1_d_294_613" x="7.33594" y="215" width="20.2783" height="26.6588" filterUnits="userSpaceOnUse" color-interpolation-filters="sRGB">
<feFlood flood-opacity="0" result="BackgroundImageFix"/>
<feColorMatrix in="SourceAlpha" type="matrix" values="0 0 0 0 0 0 0 0 0 0 0 0 0 0 0 0 0 0 127 0" result="hardAlpha"/>
<feOffset dy="4"/>
<feGaussianBlur stdDeviation="2"/>
<feComposite in2="hardAlpha" operator="out"/>
<feColorMatrix type="matrix" values="0 0 0 0 0 0 0 0 0 0 0 0 0 0 0 0 0 0 0.25 0"/>
<feBlend mode="normal" in2="BackgroundImageFix" result="effect1_dropShadow_294_613"/>
<feBlend mode="normal" in="SourceGraphic" in2="effect1_dropShadow_294_613" result="shape"/>
</filter>
<filter id="filter2_d_294_613" x="7.04102" y="179" width="20.6025" height="26.57" filterUnits="userSpaceOnUse" color-interpolation-filters="sRGB">
<feFlood flood-opacity="0" result="BackgroundImageFix"/>
<feColorMatrix in="SourceAlpha" type="matrix" values="0 0 0 0 0 0 0 0 0 0 0 0 0 0 0 0 0 0 127 0" result="hardAlpha"/>
<feOffset dy="4"/>
<feGaussianBlur stdDeviation="2"/>
<feComposite in2="hardAlpha" operator="out"/>
<feColorMatrix type="matrix" values="0 0 0 0 0 0 0 0 0 0 0 0 0 0 0 0 0 0 0.25 0"/>
<feBlend mode="normal" in2="BackgroundImageFix" result="effect1_dropShadow_294_613"/>
<feBlend mode="normal" in="SourceGraphic" in2="effect1_dropShadow_294_613" result="shape"/>
</filter>
<filter id="filter3_d_294_613" x="5.86328" y="143" width="23.1045" height="26.57" filterUnits="userSpaceOnUse" color-interpolation-filters="sRGB">
<feFlood flood-opacity="0" result="BackgroundImageFix"/>
<feColorMatrix in="SourceAlpha" type="matrix" values="0 0 0 0 0 0 0 0 0 0 0 0 0 0 0 0 0 0 127 0" result="hardAlpha"/>
<feOffset dy="4"/>
<feGaussianBlur stdDeviation="2"/>
<feComposite in2="hardAlpha" operator="out"/>
<feColorMatrix type="matrix" values="0 0 0 0 0 0 0 0 0 0 0 0 0 0 0 0 0 0 0.25 0"/>
<feBlend mode="normal" in2="BackgroundImageFix" result="effect1_dropShadow_294_613"/>
<feBlend mode="normal" in="SourceGraphic" in2="effect1_dropShadow_294_613" result="shape"/>
</filter>
<filter id="filter4_d_294_613" x="5.74609" y="106" width="23.1641" height="27.2168" filterUnits="userSpaceOnUse" color-interpolation-filters="sRGB">
<feFlood flood-opacity="0" result="BackgroundImageFix"/>
<feColorMatrix in="SourceAlpha" type="matrix" values="0 0 0 0 0 0 0 0 0 0 0 0 0 0 0 0 0 0 127 0" result="hardAlpha"/>
<feOffset dy="4"/>
<feGaussianBlur stdDeviation="2"/>
<feComposite in2="hardAlpha" operator="out"/>
<feColorMatrix type="matrix" values="0 0 0 0 0 0 0 0 0 0 0 0 0 0 0 0 0 0 0.25 0"/>
<feBlend mode="normal" in2="BackgroundImageFix" result="effect1_dropShadow_294_613"/>
<feBlend mode="normal" in="SourceGraphic" in2="effect1_dropShadow_294_613" result="shape"/>
</filter>
<filter id="filter5_d_294_613" x="4" y="44" width="43" height="52" filterUnits="userSpaceOnUse" color-interpolation-filters="sRGB">
<feFlood flood-opacity="0" result="BackgroundImageFix"/>
<feColorMatrix in="SourceAlpha" type="matrix" values="0 0 0 0 0 0 0 0 0 0 0 0 0 0 0 0 0 0 127 0" result="hardAlpha"/>
<feOffset dy="4"/>
<feGaussianBlur stdDeviation="2"/>
<feComposite in2="hardAlpha" operator="out"/>
<feColorMatrix type="matrix" values="0 0 0 0 0 0 0 0 0 0 0 0 0 0 0 0 0 0 0.25 0"/>
<feBlend mode="normal" in2="BackgroundImageFix" result="effect1_dropShadow_294_613"/>
<feBlend mode="normal" in="SourceGraphic" in2="effect1_dropShadow_294_613" result="shape"/>
</filter>
<filter id="filter6_d_294_613" x="4.51562" y="7" width="25.0322" height="26.5995" filterUnits="userSpaceOnUse" color-interpolation-filters="sRGB">
<feFlood flood-opacity="0" result="BackgroundImageFix"/>
<feColorMatrix in="SourceAlpha" type="matrix" values="0 0 0 0 0 0 0 0 0 0 0 0 0 0 0 0 0 0 127 0" result="hardAlpha"/>
<feOffset dy="4"/>
<feGaussianBlur stdDeviation="2"/>
<feComposite in2="hardAlpha" operator="out"/>
<feColorMatrix type="matrix" values="0 0 0 0 0 0 0 0 0 0 0 0 0 0 0 0 0 0 0.25 0"/>
<feBlend mode="normal" in2="BackgroundImageFix" result="effect1_dropShadow_294_613"/>
<feBlend mode="normal" in="SourceGraphic" in2="effect1_dropShadow_294_613" result="shape"/>
</filter>
</defs>
</svg>
