<svg width="80" height="80" viewBox="0 0 80 80" fill="none" xmlns="http://www.w3.org/2000/svg">
<rect width="80" height="80" rx="4" fill="#7792B1"/>
<g filter="url(#filter0_d_2009_1827)">
<path d="M21 40.6754C21 25.4418 28.898 17.0505 41.1693 17.0505C44.7819 16.772 48.3893 17.6511 51.4575 19.5576C54.5257 21.4642 56.8917 24.2969 58.2054 27.6365L49.6547 32.0259C49.2427 30.1452 48.1567 28.4753 46.5971 27.3245C45.0375 26.1738 43.1096 25.6197 41.1693 25.7646C35.36 25.7646 31.3784 29.6375 31.3784 36.7379V43.9674C31.3784 51.0678 35.2295 54.9407 41.1693 54.9407C43.2155 54.9554 45.2102 54.3071 46.8487 53.0948C48.4871 51.8825 49.679 50.173 50.2422 48.2276L58.336 52.8752C56.9278 56.1889 54.5286 58.9976 51.4602 60.9243C48.3918 62.8511 44.8009 63.8039 41.1693 63.6548C28.898 63.6548 21 55.909 21 40.6754Z" fill="white"/>
</g>
<defs>
<filter id="filter0_d_2009_1827" x="17" y="17" width="45.3359" height="54.67" filterUnits="userSpaceOnUse" color-interpolation-filters="sRGB">
<feFlood flood-opacity="0" result="BackgroundImageFix"/>
<feColorMatrix in="SourceAlpha" type="matrix" values="0 0 0 0 0 0 0 0 0 0 0 0 0 0 0 0 0 0 127 0" result="hardAlpha"/>
<feOffset dy="4"/>
<feGaussianBlur stdDeviation="2"/>
<feComposite in2="hardAlpha" operator="out"/>
<feColorMatrix type="matrix" values="0 0 0 0 0 0 0 0 0 0 0 0 0 0 0 0 0 0 0.25 0"/>
<feBlend mode="normal" in2="BackgroundImageFix" result="effect1_dropShadow_2009_1827"/>
<feBlend mode="normal" in="SourceGraphic" in2="effect1_dropShadow_2009_1827" result="shape"/>
</filter>
</defs>
</svg>
