<svg width="80" height="80" viewBox="0 0 80 80" fill="none" xmlns="http://www.w3.org/2000/svg">
<rect width="80" height="80" rx="4" fill="#8CB4D3"/>
<g filter="url(#filter0_d_2009_1825)">
<path d="M22 17.0465H44.2775C45.8736 16.8989 47.4822 17.1036 48.993 17.6467C50.5038 18.1897 51.8808 19.0582 53.0296 20.1926C54.1784 21.3269 55.0717 22.7002 55.6482 24.218C56.2246 25.7359 56.4705 27.3624 56.3691 28.9859C56.3691 36.1228 52.4919 38.7908 47.8261 38.9909V39.3911C49.2274 39.3654 50.6187 39.6344 51.9125 40.1812C53.2063 40.728 54.3746 41.5408 55.3438 42.5684C56.3129 43.5959 57.062 44.816 57.5438 46.1518C58.0256 47.4876 58.2298 48.9102 58.1434 50.33C58.2499 51.9987 58.0265 53.6723 57.4863 55.2521C56.946 56.832 56.1 58.2862 54.9978 59.5292C53.8956 60.7722 52.5596 61.7789 51.0684 62.49C49.5772 63.2011 47.9609 63.6023 46.3146 63.67H22V17.0465ZM31.8573 36.1228H41.7146C42.2795 36.1739 42.8486 36.0985 43.3817 35.902C43.9148 35.7055 44.399 35.3927 44.8 34.9857C45.2011 34.5786 45.5093 34.0872 45.7028 33.5461C45.8964 33.005 45.9706 32.4274 45.9203 31.854V29.853C45.9706 29.2796 45.8964 28.702 45.7028 28.1608C45.5093 27.6197 45.2011 27.1284 44.8 26.7213C44.399 26.3142 43.9148 26.0014 43.3817 25.805C42.8486 25.6085 42.2795 25.5331 41.7146 25.5842H31.8573V36.1228ZM31.8573 55.0657H43.3575C43.9216 55.1258 44.4919 55.0595 45.0281 54.8715C45.5643 54.6835 46.0533 54.3784 46.4606 53.9777C46.8679 53.577 47.1837 53.0904 47.3855 52.5523C47.5874 52.0142 47.6705 51.4378 47.629 50.8635V48.5957C47.6705 48.0215 47.5874 47.4451 47.3855 46.907C47.1837 46.3689 46.8679 45.8823 46.4606 45.4816C46.0533 45.0809 45.5643 44.7758 45.0281 44.5878C44.4919 44.3998 43.9216 44.3335 43.3575 44.3936H31.8573V55.0657Z" fill="white"/>
</g>
<defs>
<filter id="filter0_d_2009_1825" x="10" y="9" width="60.1694" height="70.67" filterUnits="userSpaceOnUse" color-interpolation-filters="sRGB">
<feFlood flood-opacity="0" result="BackgroundImageFix"/>
<feColorMatrix in="SourceAlpha" type="matrix" values="0 0 0 0 0 0 0 0 0 0 0 0 0 0 0 0 0 0 127 0" result="hardAlpha"/>
<feOffset dy="4"/>
<feGaussianBlur stdDeviation="6"/>
<feColorMatrix type="matrix" values="0 0 0 0 0 0 0 0 0 0 0 0 0 0 0.0705882 0 0 0 0.48 0"/>
<feBlend mode="normal" in2="BackgroundImageFix" result="effect1_dropShadow_2009_1825"/>
<feBlend mode="normal" in="SourceGraphic" in2="effect1_dropShadow_2009_1825" result="shape"/>
</filter>
</defs>
</svg>
