<svg width="38" height="38" viewBox="0 0 38 38" fill="black" xmlns="http://www.w3.org/2000/svg">
    <path
        d="M37.0832 16.8532C35.3857 17.9567 31.8632 15.7074 29.232 11.8879C26.6008 8.06839 25.7945 4.03669 27.5769 2.93328C29.3594 1.82987 32.7969 4.03669 35.4281 7.85619C38.0593 11.6757 38.7808 15.7498 37.0832 16.8532Z"
    />
    <path
        d="M17.5616 18.6357C17.6536 18.5716 17.7572 18.5262 17.8667 18.5022C17.9762 18.4782 18.0894 18.476 18.1997 18.4957C18.31 18.5154 18.4154 18.5566 18.5098 18.617C18.6042 18.6775 18.6858 18.7559 18.7499 18.8479C18.814 18.9398 18.8593 19.0435 18.8834 19.153C18.9074 19.2625 18.9096 19.3756 18.8899 19.486C18.8702 19.5963 18.829 19.7017 18.7685 19.7961C18.7081 19.8905 18.6297 19.9721 18.5377 20.0361L7.71578 27.0386C7.52225 27.1543 7.29202 27.1925 7.07151 27.1452C6.85099 27.0979 6.65659 26.9689 6.52749 26.7839C6.45852 26.6918 6.41008 26.5859 6.38544 26.4734C6.36081 26.3609 6.36054 26.2445 6.38467 26.1319C6.40879 26.0193 6.45674 25.9132 6.5253 25.8207C6.59386 25.7282 6.68143 25.6515 6.78213 25.5956L17.5616 18.6357ZM27.5347 18.6357C27.5959 18.805 27.6043 18.989 27.5588 19.1632C27.5134 19.3375 27.4162 19.4938 27.2801 19.6118L16.4582 26.6142C16.2631 26.737 16.0294 26.7833 15.8021 26.7441C15.5749 26.705 15.3702 26.5831 15.2275 26.402C15.1666 26.3051 15.1259 26.1969 15.1079 26.084C15.0899 25.971 15.0949 25.8555 15.1227 25.7445C15.1504 25.6335 15.2003 25.5293 15.2694 25.4381C15.3385 25.3468 15.4252 25.2705 15.5245 25.2137L26.304 18.2113C26.4743 18.0621 26.693 17.9798 26.9194 17.9798C27.1458 17.9798 27.3645 18.0621 27.5347 18.2113M34.8342 18.2113C31.9924 17.3038 29.5497 15.4455 27.9167 12.9489C26.0058 10.5499 25.0666 7.52025 25.2855 4.46108L15.567 10.8693L13.9967 5.47961C13.948 5.27025 13.8284 5.08414 13.6583 4.9527C13.4882 4.82126 13.278 4.75254 13.0631 4.75815H11.3231C11.0603 4.79015 10.8202 4.92325 10.6539 5.12923C10.4875 5.33521 10.4079 5.59788 10.4319 5.86156L11.1958 13.543L1.5197 19.9513C0.586048 20.5454 0.161659 21.0971 0.0767813 21.7337C-0.256108 24.6061 0.501138 27.4987 2.19873 29.8395C4.82994 33.659 7.58847 34.9746 10.0075 34.0834C10.313 33.9769 10.6108 33.8492 10.8987 33.7015L34.8342 18.2113Z"
    />
</svg>