<svg width="38" height="38" viewBox="0 0 38 38" fill="black" xmlns="http://www.w3.org/2000/svg">
    <path
        d="M33.4254 27.8051L24.6922 28.5328L18.0383 17.8242L25.316 24.4261L30.5144 23.2305L33.4254 27.8051ZM22.4569 2.22913L22.7688 4.93228H17.2585L22.4569 2.22913ZM14.5554 16.1607L15.907 9.35088L17.1546 16.6286L14.5554 16.1607ZM30.6183 5.45211L35.8167 12.106L29.5787 11.0663L25.472 7.79137L24.4323 2.22913L30.6183 5.45211ZM38 12.6778L32.1259 4.62038L23.3406 -0.266083L15.5951 3.78864L7.01778 7.27154L0 18.9678L2.5472 24.946L2.8591 30.1443L8.05746 33.1074L14.1915 33.3673L21.1573 37.2661L32.8016 33.7832L35.6088 28.117L32.8536 22.9186L38 12.6778Z" />
</svg>