<svg width="38" height="38" viewBox="0 0 38 38" fill="black" xmlns="http://www.w3.org/2000/svg">
    <path
        d="M31.8917 12.8446C31.7644 12.5878 31.5661 12.3729 31.3204 12.2254C31.0746 12.0779 30.7917 12.0041 30.5052 12.0127H22.9074L28.4533 2.1966C28.5904 1.97094 28.6629 1.71196 28.6629 1.44791C28.6629 1.18387 28.5904 0.924891 28.4533 0.699228C28.3164 0.483362 28.1284 0.304615 27.9059 0.178849C27.6834 0.053083 27.4332 -0.0158139 27.1777 -0.0217284H17.5835C17.3109 -0.0314455 17.0412 0.0363462 16.8056 0.173776C16.57 0.311205 16.3782 0.512636 16.2525 0.754686L6.04817 19.7214C5.92673 19.9522 5.86328 20.2092 5.86328 20.4701C5.86328 20.7309 5.92673 20.9879 6.04817 21.2187C6.17426 21.4485 6.35842 21.641 6.58225 21.7773C6.80608 21.9135 7.06175 21.9887 7.32371 21.9952H14.2005L10.4848 36.2479C10.383 36.5877 10.4052 36.9527 10.5474 37.2777C10.6896 37.6027 10.9426 37.8667 11.2612 38.0226H11.9267C12.1639 38.0248 12.3982 37.9706 12.6103 37.8645C12.8224 37.7585 13.0063 37.6036 13.1468 37.4125L31.8917 14.4528C32.0514 14.2151 32.1367 13.9351 32.1367 13.6487C32.1367 13.3623 32.0514 13.0823 31.8917 12.8446Z"
    />
</svg>