<svg width="38" height="38" viewBox="0 0 38 38" fill="black" xmlns="http://www.w3.org/2000/svg">
    <path
        d="M33.1619 18.2508C33.181 18.1637 33.181 18.0735 33.1619 17.9864C33.0672 17.6961 32.9176 17.4268 32.7211 17.1931C32.627 17.0543 32.5074 16.9346 32.3686 16.8405V10.1858C31.5791 10.5995 30.7529 10.9388 29.9006 11.1994C26.4911 12.1712 22.9563 12.6316 19.4116 12.5656C15.8668 12.6343 12.3316 12.1738 8.92265 11.1994C8.07033 10.9388 7.2441 10.5995 6.45466 10.1858V16.6642C6.31584 16.7583 6.19619 16.878 6.10209 17.0168C5.90892 17.2606 5.74612 17.527 5.6173 17.8101C5.6173 17.8101 5.6173 17.8101 5.6173 18.0745C5.59592 18.2059 5.59592 18.3398 5.6173 18.4712V18.8237C5.6173 18.8237 5.6173 18.8237 5.6173 19.1322C5.6173 19.4407 5.6173 19.1322 5.6173 19.4407C5.59297 19.5421 5.59297 19.6478 5.6173 19.7492C5.73608 19.9214 5.86873 20.0835 6.01395 20.234H6.27837L6.8513 20.6747C7.44392 21.0461 8.08051 21.3422 8.74637 21.5561L10.3329 22.085H13.5501C13.9464 22.109 14.3438 22.109 14.7401 22.085C15.2099 22.1088 15.6805 22.1088 16.1503 22.085H22.144C22.6729 22.085 23.1136 22.085 23.5984 22.085H27.7852L29.3717 21.5561L30.3854 21.1595H30.8261L31.2227 20.8951C31.4455 20.7737 31.6527 20.6257 31.8397 20.4544H32.1041L32.8093 20.3221C32.9407 20.1007 33.0444 19.8639 33.1178 19.617C33.1606 19.4136 33.1606 19.2034 33.1178 19C33.1392 18.8687 33.1392 18.7347 33.1178 18.6034"
    />
    <path
        d="M5.13272 5.69045V5.99895C5.31456 6.41914 5.58518 6.795 5.926 7.10073H6.19043L6.76335 7.54144C7.36544 7.89511 8.00003 8.19027 8.65842 8.42287L9.36356 8.6873L10.2009 8.90765C10.7298 8.90765 11.2586 9.17208 11.8316 9.30429L13.5063 9.56872H24.7885L26.4632 9.30429C26.9994 9.20337 27.5292 9.07093 28.0498 8.90765L28.9312 8.6873L29.6364 8.42287H30.65L31.4874 7.93808C31.7383 7.69534 31.9468 7.41231 32.1043 7.10073H32.3688C32.5396 6.92945 32.6878 6.73689 32.8095 6.5278C32.909 6.39547 32.9837 6.24614 33.0298 6.08709C33.0298 6.08709 33.0298 6.08709 33.0298 5.86673C33.0505 5.73533 33.0505 5.6015 33.0298 5.47009C33.0488 5.35333 33.0488 5.23428 33.0298 5.11752C32.9989 4.5595 32.8191 4.01994 32.5091 3.55492C32.1991 3.08991 31.7702 2.71641 31.267 2.47325C27.4221 0.643064 23.1785 -0.190487 18.927 0.0493253C14.6755 -0.190487 10.432 0.643064 6.58707 2.47325C6.08386 2.71641 5.65496 3.08991 5.34495 3.55492C5.03494 4.01994 4.85513 4.5595 4.82422 5.11752V5.33788C4.82422 5.33788 4.82422 5.60231 4.82422 5.69045"
    />
    <path
        d="M32.1041 30.5026V24.0682C31.3062 24.4634 30.4815 24.8021 29.6362 25.0818C26.2267 26.0537 22.6918 26.5141 19.1472 26.4481C15.6024 26.5167 12.0672 26.0562 8.65822 25.0818C7.81287 24.8021 6.98818 24.4634 6.19023 24.0682V30.5026C5.84507 30.7694 5.5633 31.1093 5.36517 31.4979C5.16705 31.8865 5.05749 32.3142 5.04438 32.7502C5.0755 33.3026 5.25049 33.8372 5.55199 34.301C5.85349 34.7649 6.27102 35.1418 6.76316 35.3945C10.6138 37.2649 14.8707 38.1436 19.1472 37.9507C23.3987 38.1905 27.6422 37.3569 31.4871 35.5267C31.9904 35.2836 32.4193 34.9101 32.7293 34.4451C33.0393 33.98 33.2191 33.4405 33.25 32.8825C33.2369 32.4464 33.1273 32.0187 32.9292 31.6301C32.7311 31.2415 32.4493 30.9016 32.1041 30.6348"
    />
</svg>