<svg width="38" height="38" viewBox="0 0 38 38" fill="black" xmlns="http://www.w3.org/2000/svg">
    <path
        d="M17.781 -0.0329285C17.5486 -0.00584804 17.3301 0.0920667 17.1552 0.247537C16.9803 0.403008 16.8574 0.60851 16.8033 0.836174C16.1162 5.91871 13.6533 10.5943 9.85046 14.0357C8.13961 15.5524 6.78863 17.4316 5.89593 19.5365C5.00324 21.6414 4.59131 23.9189 4.69016 26.2031C4.71025 27.6482 5.01846 29.0747 5.59674 30.3992C6.17502 31.7236 7.01175 32.9194 8.05793 33.9164C10.155 35.7518 12.6172 37.1217 15.2824 37.936C15.4346 38.0071 15.6018 38.0399 15.7696 38.0317C15.9374 38.0235 16.1006 37.9744 16.2452 37.8888C16.3897 37.8031 16.5111 37.6835 16.5989 37.5403C16.6867 37.397 16.7382 37.2346 16.749 37.0669C16.8405 36.9203 16.889 36.7509 16.889 36.578C16.889 36.4052 16.8405 36.2358 16.749 36.0892C14.9069 34.2686 13.804 31.8305 13.6528 29.245C13.7657 27.9979 14.1554 26.7917 14.7935 25.7143L16.749 27.1809L17.4551 27.6154H17.781C17.9161 27.6824 18.0648 27.7173 18.2156 27.7173C18.3663 27.7173 18.5151 27.6824 18.6501 27.6154C19.4999 26.9963 20.2044 26.1992 20.7142 25.2797C21.4981 23.7498 21.9076 22.0557 21.9093 20.3367C24.0196 22.5232 25.2729 25.396 25.44 28.4302C25.3577 29.911 24.9731 31.3594 24.3098 32.6859C23.6465 34.0125 22.7187 35.1892 21.5833 36.1435C21.4124 36.2923 21.2952 36.4933 21.2499 36.7153C21.2045 36.9374 21.2335 37.1682 21.3324 37.3721C21.4313 37.5761 21.5945 37.7418 21.797 37.8437C21.9994 37.9456 22.2297 37.978 22.4525 37.936C25.3938 37.5281 28.0966 36.0946 30.0842 33.8884C32.0717 31.6822 33.2164 28.845 33.3162 25.8772C33.4263 21.5927 32.3953 17.3559 30.3287 13.6011C27.2013 8.51566 23.2341 3.99744 18.5958 0.238666C18.3574 0.0688572 18.0736 -0.0257308 17.781 -0.0329285Z"
    />
</svg>