<svg width="38" height="38" viewBox="0 0 38 38" fill="black" xmlns="http://www.w3.org/2000/svg">
    <path d="M6087.47 -963.136H-9637.09V2835.19H6087.47V-963.136Z" stroke="#F3E600"
        stroke-width="1.33317" stroke-miterlimit="10" />
    <path
        d="M33.9787 14.3086L27.2768 7.87477C27.2359 7.82556 27.1847 7.78595 27.1268 7.75877C27.0689 7.73159 27.0057 7.7175 26.9417 7.7175C26.8777 7.7175 26.8145 7.73159 26.7566 7.75877C26.6987 7.78595 26.6475 7.82556 26.6066 7.87477L20.1057 14.3086C20.0741 14.4181 20.0741 14.5343 20.1057 14.6437V22.7196C20.1057 22.844 20.1551 22.9633 20.2431 23.0513C20.3311 23.1393 20.4504 23.1887 20.5749 23.1887H23.6913V27.8801H9.58367V23.1887H17.4585C17.5862 23.189 17.7092 23.1407 17.8025 23.0535C17.8959 22.9664 17.9526 22.847 17.9611 22.7196V14.6437C17.9577 14.5794 17.9411 14.5164 17.9122 14.4587C17.8834 14.4011 17.843 14.35 17.7936 14.3086L11.2592 7.87477C11.2183 7.82556 11.1671 7.78595 11.1091 7.75877C11.0512 7.73159 10.988 7.7175 10.9241 7.7175C10.8601 7.7175 10.7969 7.73159 10.739 7.75877C10.6811 7.78595 10.6298 7.82556 10.589 7.87477L3.88703 14.3086C3.8649 14.3617 3.85352 14.4187 3.85352 14.4762C3.85352 14.5337 3.8649 14.5906 3.88703 14.6437V22.7196C3.88703 22.844 3.93645 22.9633 4.02443 23.0513C4.11241 23.1393 4.23174 23.1887 4.35616 23.1887H7.20449V29.0864C7.23759 29.3826 7.37917 29.656 7.60191 29.854C7.82466 30.052 8.11282 30.1606 8.41084 30.1587H29.7565V34.515C29.7274 34.6879 29.7363 34.8651 29.7827 35.0343C29.829 35.2034 29.9117 35.3604 30.025 35.4943C30.1382 35.6282 30.2793 35.7358 30.4384 35.8096C30.5975 35.8835 30.7707 35.9217 30.9461 35.9217C31.1215 35.9217 31.2948 35.8835 31.4538 35.8096C31.6129 35.7358 31.754 35.6282 31.8672 35.4943C31.9805 35.3604 32.0632 35.2034 32.1095 35.0343C32.1559 34.8651 32.1648 34.6879 32.1357 34.515V29.0864C32.1357 28.7665 32.0086 28.4596 31.7824 28.2334C31.5561 28.0072 31.2493 27.8801 30.9294 27.8801H26.0034V23.1887H33.5096C33.634 23.1887 33.7534 23.1393 33.8413 23.0513C33.9293 22.9633 33.9787 22.844 33.9787 22.7196V14.6437C34.0009 14.5906 34.0122 14.5337 34.0122 14.4762C34.0122 14.4187 34.0009 14.3617 33.9787 14.3086Z" />
</svg>