<svg width="140" height="106" viewBox="0 0 140 106" fill="none" xmlns="http://www.w3.org/2000/svg">
<g clip-path="url(#clip0_559_3089)">
<path d="M6.12739 72.5958C4.62136 72.5958 3.30644 72.3399 2.3623 71.939V61.8502C3.32555 61.434 4.57549 61.1934 6.03183 61.1934C9.13946 61.1934 10.5499 62.5528 10.5499 64.2521C10.5499 65.4702 9.68606 66.3027 8.67312 66.6044V66.6349C9.84278 67.0015 10.8213 68.0593 10.8213 69.3423C10.8213 71.5036 9.10506 72.5919 6.12357 72.5919L6.12739 72.5958ZM6.06241 62.9576C5.79102 62.9576 5.5502 62.9882 5.37437 63.0378V65.9858H5.856C7.09064 65.9858 7.55315 65.4741 7.55315 64.4469C7.55315 63.5037 7.10593 62.9576 6.06241 62.9576ZM5.85218 67.4559H5.37055V70.6406C5.53109 70.6865 5.80248 70.7361 6.09299 70.7361C7.1518 70.7361 7.67929 70.2244 7.67929 69.1819C7.67929 68.0631 7.13269 67.4521 5.85218 67.4521V67.4559Z" fill="#706F6F"/>
<path d="M16.9945 63.4998V72.401H13.8372V63.4998H12.0254V61.3843H18.8064V63.4998H16.9945Z" fill="#706F6F"/>
<path d="M24.2686 68.4984C24.1425 68.4984 24.0775 68.4984 23.7564 68.4678V72.4086H20.6641V61.8578C21.6082 61.4569 22.8581 61.201 24.303 61.201C27.6056 61.201 28.8555 62.866 28.8555 64.8364C28.8555 66.9175 27.445 68.5022 24.2724 68.5022L24.2686 68.4984ZM24.3336 62.9729C24.1272 62.9729 23.9169 63.0034 23.7564 63.0531V66.6731C24.1081 66.7036 24.1578 66.7037 24.2686 66.7037C25.4077 66.7037 25.8396 65.9819 25.8396 64.8134C25.8396 63.645 25.4383 62.9729 24.3336 62.9729Z" fill="#706F6F"/>
<path d="M39.4818 72.5958C36.3091 72.5958 35.0095 69.7471 35.0095 66.8946C35.0095 64.0421 36.3091 61.1934 39.4818 61.1934C40.5253 61.1934 41.3739 61.4187 42.0122 61.8502L41.3395 63.7862C41.0184 63.6106 40.7126 63.4808 40.1698 63.4808C38.7096 63.4808 38.2471 65.1953 38.2471 66.8602C38.2471 68.5251 38.7937 70.1595 40.1545 70.1595C40.6514 70.1595 40.9878 70.0297 41.2936 69.854L42.016 71.9046C41.3739 72.3361 40.5253 72.5919 39.4856 72.5919L39.4818 72.5958Z" fill="#706F6F"/>
<path d="M46.8858 63.4999V65.791H49.2252V67.8569H46.8858V72.4048H43.7285V61.3882H49.6112V63.5037H46.8858V63.4999Z" fill="#706F6F"/>
<path d="M56.7936 72.4048L56.312 70.3886H53.2656L52.7533 72.4048H49.7222L53.2311 61.3882H56.614L60.1077 72.4048H56.7898H56.7936ZM55.0965 65.2946C55.0162 64.9738 54.9207 64.4469 54.8404 63.8703H54.8098C54.7601 64.2712 54.6646 64.8631 54.5537 65.2946L53.7204 68.5939H55.8839L55.1003 65.2946H55.0965Z" fill="#706F6F"/>
<path d="M69.7593 72.5958C66.7319 72.5958 65.2717 70.2091 65.2717 66.8946C65.2717 63.58 66.7319 61.1934 69.7593 61.1934C72.7866 61.1934 74.2468 63.58 74.2468 66.8946C74.2468 70.2091 72.7866 72.5958 69.7593 72.5958ZM69.7593 63.3242C68.7501 63.3242 68.4596 64.718 68.4596 66.8297C68.4596 68.9414 68.7463 70.3199 69.7593 70.3199C70.7722 70.3199 71.0589 68.9414 71.0589 66.8297C71.0589 64.718 70.7722 63.3242 69.7593 63.3242Z" fill="#706F6F"/>
<path d="M80.3702 72.5958C77.1976 72.5958 75.8979 69.7471 75.8979 66.8946C75.8979 64.0421 77.1976 61.1934 80.3702 61.1934C81.4137 61.1934 82.2623 61.4187 82.9006 61.8502L82.2279 63.7862C81.9068 63.6106 81.601 63.4808 81.0582 63.4808C79.5981 63.4808 79.1355 65.1953 79.1355 66.8602C79.1355 68.5251 79.6821 70.1595 81.0429 70.1595C81.5398 70.1595 81.8762 70.0297 82.182 69.854L82.9044 71.9046C82.2623 72.3361 81.4137 72.5919 80.374 72.5919L80.3702 72.5958Z" fill="#706F6F"/>
<path d="M88.3209 72.5958C85.1483 72.5958 83.8486 69.7471 83.8486 66.8946C83.8486 64.0421 85.1483 61.1934 88.3209 61.1934C89.3644 61.1934 90.213 61.4187 90.8551 61.8502L90.1824 63.7862C89.8613 63.6106 89.5555 63.4808 89.0127 63.4808C87.5526 63.4808 87.09 65.1953 87.09 66.8602C87.09 68.5251 87.6367 70.1595 88.9974 70.1595C89.4943 70.1595 89.8307 70.0297 90.1365 69.854L90.859 71.9046C90.2168 72.3361 89.3682 72.5919 88.3247 72.5919L88.3209 72.5958Z" fill="#706F6F"/>
<path d="M92.583 72.4048V61.3882H95.7403V72.4048H92.583Z" fill="#706F6F"/>
<path d="M102.586 63.4998V72.401H99.4288V63.4998H97.6169V61.3843H104.398V63.4998H102.586Z" fill="#706F6F"/>
<path d="M111.546 72.4048L111.064 70.3886H108.018L107.506 72.4048H104.474L107.983 61.3882H111.366L114.86 72.4048H111.542H111.546ZM109.849 65.2946C109.768 64.9738 109.673 64.4469 109.593 63.8703H109.562C109.512 64.2712 109.417 64.8631 109.306 65.2946L108.473 68.5939H110.636L109.853 65.2946H109.849Z" fill="#706F6F"/>
<path d="M122.459 72.4049L119.351 67.1848C119.141 66.8488 118.935 66.4173 118.774 66.0622H118.743C118.793 66.6235 118.808 66.8946 118.808 67.3108V72.401H116.163V61.3844H118.808L121.599 66.0431C121.87 66.5089 122.031 66.845 122.176 67.1314H122.207C122.176 66.7457 122.142 66.3638 122.142 65.9132V61.3806H124.802V72.3972H122.463L122.459 72.4049Z" fill="#706F6F"/>
<path d="M127.107 72.4048V61.3882H130.264V72.4048H127.107Z" fill="#706F6F"/>
<path d="M132.573 72.4048V61.3882H138.456V63.5037H135.73V65.7948H138.07V67.8607H135.73V70.2932H138.456V72.4087H132.573V72.4048Z" fill="#706F6F"/>
<path d="M2.35459 79.9008C2.41957 79.6029 2.50748 79.3165 2.61833 79.0416C2.73301 78.7667 2.87061 78.507 3.0388 78.2664C3.20699 78.0259 3.39428 77.8158 3.59687 77.6402C3.79946 77.4645 4.03263 77.3232 4.29638 77.2201C4.5563 77.117 4.83152 77.0674 5.1182 77.0674C5.61511 77.0674 5.98589 77.1743 6.23434 77.3843L5.80623 78.1671C5.65716 78.0564 5.45457 77.9991 5.19847 77.9991C5.0341 77.9991 4.88121 78.0335 4.73595 78.106C4.5907 78.1786 4.46456 78.2741 4.35753 78.3924C4.25051 78.5108 4.15112 78.6521 4.05939 78.8201C3.96765 78.9881 3.89502 79.1562 3.83386 79.3356C3.7727 79.5113 3.72301 79.7022 3.67714 79.9008C3.62363 80.1452 3.59687 80.3781 3.59305 80.5919C3.58923 80.8058 3.60834 81.0044 3.65803 81.1838C3.7039 81.3633 3.79182 81.5046 3.91413 81.6077C4.04027 81.7108 4.19699 81.7643 4.38811 81.7643C4.52954 81.7643 4.64804 81.749 4.74742 81.7223C4.84298 81.6955 4.94619 81.6535 5.05322 81.5962L5.17553 82.3905C4.85063 82.5929 4.43016 82.696 3.91031 82.696C3.62363 82.696 3.37135 82.6464 3.15347 82.5471C2.93559 82.4478 2.75976 82.3103 2.6298 82.1385C2.49984 81.9666 2.40428 81.7604 2.3393 81.5237C2.27432 81.2869 2.24756 81.0349 2.24756 80.7638C2.24756 80.4927 2.28578 80.2101 2.34694 79.9122L2.35459 79.9008Z" fill="#706F6F"/>
<path d="M5.83306 81.3213C5.87893 81.1074 5.9592 80.9203 6.08151 80.7523C6.20383 80.5843 6.34526 80.4506 6.50963 80.3399C6.67399 80.233 6.86893 80.1413 7.09828 80.065C7.32762 79.9886 7.55315 79.9313 7.78249 79.8893C8.00801 79.8473 8.26412 79.8168 8.5508 79.79L8.59284 79.5915C8.63871 79.3814 8.60431 79.2325 8.49728 79.1447C8.39026 79.0569 8.2106 79.0149 7.96214 79.0149C7.60284 79.0149 7.21295 79.1027 6.79248 79.2783L6.67017 78.5719C7.23206 78.3542 7.79396 78.2473 8.35585 78.2473C8.60813 78.2473 8.82601 78.274 9.01331 78.3313C9.20061 78.3886 9.35733 78.4726 9.48729 78.591C9.61725 78.7094 9.70135 78.8698 9.73957 79.076C9.77779 79.2822 9.77015 79.5227 9.70899 79.8053L9.16621 82.3561C8.72663 82.5738 8.14562 82.6807 7.41936 82.6807C6.80013 82.6807 6.36055 82.5662 6.09298 82.337C5.82541 82.1079 5.74132 81.7681 5.83688 81.3175L5.83306 81.3213ZM7.00272 81.2755C6.90333 81.7452 7.11357 81.9781 7.62959 81.9781C7.81307 81.9781 7.96979 81.9514 8.10357 81.8941L8.4323 80.359C8.22589 80.3781 8.05006 80.401 7.90481 80.4354C7.75956 80.4697 7.62195 80.5194 7.49199 80.5881C7.36203 80.6569 7.25882 80.7485 7.17855 80.8592C7.09828 80.9738 7.04094 81.1113 7.00654 81.2755H7.00272Z" fill="#706F6F"/>
<path d="M10.007 82.6082L10.867 78.5643C11.3831 78.3543 11.9832 78.2512 12.6636 78.2512C13.2752 78.2512 13.6995 78.3924 13.9326 78.675C14.3302 78.3924 14.8309 78.2512 15.4348 78.2512C15.9241 78.2512 16.2758 78.3772 16.4898 78.633C16.7039 78.8889 16.7689 79.2134 16.6848 79.6068L16.0464 82.6082H14.808L15.4463 79.5991C15.4845 79.4273 15.4616 79.286 15.3813 79.1791C15.301 79.0722 15.1558 79.0187 14.9494 79.0187C14.7277 79.0187 14.5327 79.0874 14.3646 79.2287L13.6459 82.6082H12.4075L13.0496 79.5838C13.0879 79.412 13.0573 79.2745 12.9617 79.1714C12.8662 79.0683 12.7133 79.0187 12.503 79.0187C12.3196 79.0187 12.1476 79.0454 11.987 79.0989L11.2416 82.6082H10.0032H10.007Z" fill="#706F6F"/>
<path d="M16.5893 84.3151L17.8124 78.5681C18.2826 78.3581 18.8483 78.2512 19.5172 78.2512C20.1862 78.2512 20.641 78.4383 20.9354 78.8163C21.2297 79.1944 21.3023 79.7366 21.1532 80.4392C21.008 81.1189 20.7213 81.6573 20.2894 82.0583C19.8574 82.4593 19.3605 82.6578 18.7986 82.6578C18.5387 82.6578 18.3361 82.6349 18.1909 82.5891L17.8239 84.3113H16.5854L16.5893 84.3151ZM18.3438 81.8788C18.4279 81.9132 18.5311 81.9323 18.6572 81.9323C19.2917 81.9323 19.716 81.4397 19.9262 80.4545C20.0333 79.9581 20.0409 79.5877 19.9568 79.3433C19.8689 79.0989 19.6663 78.9767 19.3452 78.9767C19.2 78.9767 19.0662 78.9958 18.9477 79.0378L18.3438 81.875V81.8788Z" fill="#706F6F"/>
<path d="M21.7418 81.2068L22.3534 78.3314H23.5919L22.9612 81.287C22.9268 81.455 22.9459 81.5886 23.0185 81.6917C23.095 81.7948 23.2326 81.8483 23.4313 81.8483C23.6454 81.8483 23.8212 81.8139 23.9703 81.749L24.6966 78.3314H25.935L25.0788 82.3523C24.5857 82.5776 23.9665 82.6884 23.2211 82.6884C22.6134 82.6884 22.1852 82.57 21.9444 82.3333C21.6998 82.0965 21.631 81.7223 21.7418 81.2106V81.2068Z" fill="#706F6F"/>
<path d="M25.7134 82.3752L26.1988 81.5924C26.2676 81.6612 26.367 81.7223 26.4932 81.7681C26.6193 81.8139 26.7569 81.8368 26.906 81.8368C27.0627 81.8368 27.2041 81.791 27.3188 81.7032C27.4373 81.6153 27.5099 81.5008 27.5405 81.3633C27.5711 81.2182 27.5558 81.1036 27.4908 81.0158C27.4258 80.9242 27.3035 80.8402 27.12 80.76C26.948 80.6836 26.8066 80.5996 26.6996 80.508C26.5887 80.4163 26.5123 80.317 26.4664 80.2101C26.4205 80.1032 26.3938 80.0001 26.3899 79.9008C26.3861 79.8015 26.3938 79.687 26.4205 79.5648C26.5008 79.1944 26.6996 78.8812 27.0168 78.6292C27.3341 78.3772 27.7049 78.2512 28.1253 78.2512C28.6108 78.2512 28.9968 78.3543 29.2912 78.5566L28.8401 79.2593C28.6872 79.1065 28.4885 79.034 28.2362 79.034C28.0756 79.034 27.9457 79.076 27.8425 79.16C27.7393 79.244 27.6743 79.3509 27.6437 79.4807C27.6131 79.6144 27.6361 79.729 27.7087 79.8206C27.7813 79.9123 27.9036 79.9963 28.0718 80.0726C28.4235 80.2368 28.6528 80.4201 28.756 80.6187C28.8592 80.8173 28.8783 81.0578 28.821 81.3328C28.7407 81.7146 28.5229 82.0354 28.1712 82.2912C27.8195 82.5471 27.3952 82.6769 26.9022 82.6769C26.6499 82.6769 26.4205 82.6502 26.2103 82.5929C26.0001 82.5356 25.8357 82.4631 25.7172 82.3752H25.7134Z" fill="#706F6F"/>
<path d="M31.6572 80.5042C31.8025 79.8244 32.0891 79.286 32.5211 78.8851C32.953 78.4841 33.4499 78.2855 34.0118 78.2855C34.2373 78.2855 34.4438 78.3085 34.6272 78.3581L35.0477 76.3801H36.2862L35.0095 82.3791C34.5699 82.5891 34.0004 82.6922 33.3009 82.6922C32.6434 82.6922 32.1694 82.5051 31.8751 82.1271C31.5808 81.7528 31.5081 81.2106 31.6572 80.508V80.5042ZM32.8919 80.4507C32.6854 81.4206 32.8842 81.9056 33.492 81.9056C33.6602 81.9056 33.7901 81.8827 33.8857 81.8407L34.482 79.0378C34.3826 79.0073 34.2717 78.992 34.1494 78.992C33.5187 78.992 33.0983 79.4808 32.8919 80.4545V80.4507Z" fill="#706F6F"/>
<path d="M36.1563 80.4621C36.3016 79.7824 36.5844 79.2478 37.0087 78.8469C37.433 78.4459 37.9452 78.2512 38.5492 78.2512C39.1531 78.2512 39.5889 78.4497 39.8144 78.8507C40.0208 79.2173 40.059 79.7175 39.9214 80.3628C39.9099 80.4201 39.8947 80.4774 39.8794 80.5385L37.2342 80.9051C37.2113 81.2258 37.2648 81.4626 37.3948 81.6192C37.5286 81.7719 37.7465 81.8521 38.0561 81.8521C38.5109 81.8521 38.897 81.7757 39.2219 81.623L39.3404 82.3905C38.8894 82.5929 38.3504 82.6922 37.735 82.6922C37.1196 82.6922 36.6265 82.4936 36.3513 82.0927C36.0722 81.6955 36.0073 81.1533 36.1525 80.4659L36.1563 80.4621ZM37.2763 80.2979L38.8167 80.0917C38.9735 79.3509 38.8167 78.9805 38.3427 78.9805C38.079 78.9805 37.8573 79.0912 37.6662 79.3165C37.498 79.5151 37.3795 79.7939 37.303 80.1528C37.2916 80.1986 37.2839 80.2483 37.2763 80.2979Z" fill="#706F6F"/>
<path d="M39.9788 82.3752L40.4642 81.5924C40.533 81.6612 40.6324 81.7223 40.7585 81.7681C40.8847 81.8139 41.0223 81.8368 41.1714 81.8368C41.3281 81.8368 41.4695 81.791 41.5842 81.7032C41.7027 81.6153 41.7753 81.5008 41.8059 81.3633C41.8365 81.2182 41.8212 81.1036 41.7562 81.0158C41.6912 80.9242 41.5689 80.8402 41.3854 80.76C41.2134 80.6836 41.072 80.5996 40.9649 80.508C40.8541 80.4163 40.7776 80.317 40.7318 80.2101C40.6859 80.1032 40.6592 80.0001 40.6553 79.9008C40.6515 79.8015 40.6592 79.687 40.6859 79.5648C40.7662 79.1944 40.9649 78.8812 41.2822 78.6292C41.5995 78.3772 41.9702 78.2512 42.3907 78.2512C42.8762 78.2512 43.2622 78.3543 43.5565 78.5566L43.1055 79.2593C42.9526 79.1065 42.7538 79.034 42.5016 79.034C42.341 79.034 42.2111 79.076 42.1079 79.16C42.0046 79.244 41.9397 79.3509 41.9091 79.4807C41.8785 79.6144 41.9014 79.729 41.9741 79.8206C42.0467 79.9123 42.169 79.9963 42.3372 80.0726C42.6889 80.2368 42.9182 80.4201 43.0214 80.6187C43.1246 80.8173 43.1437 81.0578 43.0864 81.3328C43.0061 81.7146 42.7882 82.0354 42.4366 82.2912C42.0849 82.5471 41.6606 82.6769 41.1675 82.6769C40.9153 82.6769 40.6859 82.6502 40.4757 82.5929C40.2654 82.5356 40.1011 82.4631 39.9826 82.3752H39.9788Z" fill="#706F6F"/>
<path d="M45.6283 82.6082L46.4884 78.5643C47.0044 78.3543 47.6045 78.2512 48.2849 78.2512C48.8965 78.2512 49.3208 78.3924 49.554 78.675C49.9515 78.3924 50.4522 78.2512 51.0562 78.2512C51.5454 78.2512 51.8971 78.3772 52.1112 78.633C52.3252 78.8889 52.3902 79.2134 52.3061 79.6068L51.6678 82.6082H50.4293L51.0676 79.5991C51.1059 79.4273 51.0829 79.286 51.0027 79.1791C50.9224 79.0722 50.7771 79.0187 50.5707 79.0187C50.349 79.0187 50.1541 79.0874 49.9859 79.2287L49.2673 82.6082H48.0288L48.671 79.5838C48.7092 79.412 48.6786 79.2745 48.5831 79.1714C48.4875 79.0683 48.3346 79.0187 48.1244 79.0187C47.9409 79.0187 47.7689 79.0454 47.6083 79.0989L46.863 82.6082H45.6245H45.6283Z" fill="#706F6F"/>
<path d="M52.8794 80.4621C53.0246 79.7824 53.3075 79.2478 53.728 78.8468C54.1484 78.4459 54.6645 78.2511 55.2684 78.2511C55.8723 78.2511 56.3119 78.4497 56.5374 78.8468C56.7668 79.244 56.7859 79.8053 56.6024 80.5346L53.9573 80.9012C53.9305 81.222 53.9879 81.4587 54.1178 81.6153C54.2516 81.7681 54.4695 81.8482 54.7753 81.8482C55.2302 81.8482 55.6201 81.7719 55.945 81.6191L56.0635 82.3867C55.6086 82.5891 55.0735 82.6883 54.4542 82.6883C53.835 82.6883 53.3495 82.4898 53.0705 82.0888C52.7953 81.6917 52.7303 81.1494 52.8756 80.4621H52.8794ZM53.9955 80.2979L55.536 80.0917C55.6927 79.3509 55.536 78.9805 55.0582 78.9805C54.7982 78.9805 54.5727 79.0912 54.3816 79.3165C54.1943 79.5418 54.0643 79.8664 53.9917 80.2979H53.9955ZM54.8976 77.8884L55.6812 76.7504C55.8876 76.6359 56.1246 76.5786 56.3922 76.5824C56.6598 76.5824 56.8088 76.6511 56.8394 76.781L55.5742 77.8884H54.8976Z" fill="#706F6F"/>
<path d="M57.4317 79.1295L57.6037 78.3276H58.0739L58.2688 77.4149L59.5761 77.098L59.3162 78.3276H59.9813L59.8093 79.1295H59.1442L58.6778 81.329C58.6052 81.6612 58.7046 81.8292 58.9684 81.8292C59.041 81.8292 59.1327 81.8139 59.2436 81.7834L59.0792 82.5547C58.8881 82.6349 58.674 82.6731 58.4409 82.6731C58.0166 82.6731 57.7222 82.5547 57.5541 82.3218C57.3859 82.0889 57.34 81.791 57.4165 81.4397L57.9057 79.1371H57.4356L57.4317 79.1295Z" fill="#706F6F"/>
<path d="M59.7827 82.6082L60.6925 78.3275H61.9309L61.0212 82.6082H59.7827ZM60.9142 77.0979C60.9486 76.9375 61.0403 76.8001 61.197 76.6855C61.3499 76.5709 61.5181 76.5137 61.6978 76.5137C61.8774 76.5137 62.0227 76.5709 62.1259 76.6855C62.2329 76.8001 62.2673 76.9375 62.2329 77.0979C62.1985 77.2621 62.1067 77.3996 61.9539 77.5103C61.801 77.6211 61.6366 77.6783 61.4493 77.6783C61.262 77.6783 61.1206 77.6211 61.0174 77.5103C60.9142 77.3996 60.8798 77.2621 60.9142 77.0979Z" fill="#706F6F"/>
<path d="M62.252 80.4621C62.3973 79.7824 62.6801 79.2478 63.1044 78.8469C63.5287 78.4459 64.0409 78.2512 64.6449 78.2512C65.2488 78.2512 65.6846 78.4497 65.9101 78.8507C66.1165 79.2173 66.1547 79.7175 66.0171 80.3628C66.0056 80.4201 65.9904 80.4774 65.9751 80.5385L63.3299 80.9051C63.307 81.2258 63.3605 81.4626 63.4905 81.6192C63.6243 81.7719 63.8422 81.8521 64.1518 81.8521C64.6066 81.8521 64.9927 81.7757 65.3176 81.623L65.4361 82.3905C64.9851 82.5929 64.4461 82.6922 63.8307 82.6922C63.2153 82.6922 62.7222 82.4936 62.447 82.0927C62.1679 81.6955 62.103 81.1533 62.2482 80.4659L62.252 80.4621ZM63.372 80.2979L64.9124 80.0917C65.0692 79.3509 64.9124 78.9805 64.4385 78.9805C64.1747 78.9805 63.953 79.0912 63.7619 79.3165C63.5937 79.5151 63.4752 79.7939 63.3988 80.1528C63.3873 80.1986 63.3796 80.2483 63.372 80.2979Z" fill="#706F6F"/>
<path d="M66.2847 82.6081L67.1447 78.5681C67.6263 78.3619 68.2609 78.2549 69.0483 78.2549C69.1974 78.2549 69.3502 78.2588 69.507 78.2664L69.0903 79.1332C68.9565 79.0721 68.8113 79.0378 68.6622 79.0378H68.6393C68.4979 79.0378 68.3755 79.0645 68.2723 79.1103L67.527 82.6081H66.2885H66.2847Z" fill="#706F6F"/>
<path d="M68.8877 82.3752L69.3731 81.5924C69.4419 81.6612 69.5413 81.7223 69.6675 81.7681C69.7936 81.8139 69.9312 81.8368 70.0803 81.8368C70.237 81.8368 70.3784 81.791 70.4931 81.7032C70.6116 81.6153 70.6842 81.5008 70.7148 81.3633C70.7454 81.2182 70.7301 81.1036 70.6651 81.0158C70.6001 80.9242 70.4778 80.8402 70.2943 80.76C70.1223 80.6836 69.9809 80.5996 69.8739 80.508C69.763 80.4163 69.6866 80.317 69.6407 80.2101C69.5948 80.1032 69.5681 80.0001 69.5643 79.9008C69.5604 79.8015 69.5681 79.687 69.5948 79.5648C69.6751 79.1944 69.8739 78.8812 70.1911 78.6292C70.5084 78.3772 70.8792 78.2512 71.2996 78.2512C71.7851 78.2512 72.1712 78.3543 72.4655 78.5566L72.0144 79.2593C71.8615 79.1065 71.6628 79.034 71.4105 79.034C71.25 79.034 71.12 79.076 71.0168 79.16C70.9136 79.244 70.8486 79.3509 70.818 79.4807C70.7874 79.6144 70.8104 79.729 70.883 79.8206C70.9556 79.9123 71.0779 79.9963 71.2461 80.0726C71.5978 80.2368 71.8271 80.4201 71.9303 80.6187C72.0335 80.8173 72.0527 81.0578 71.9953 81.3328C71.9151 81.7146 71.6972 82.0354 71.3455 82.2912C70.9938 82.5471 70.5696 82.6769 70.0765 82.6769C69.8242 82.6769 69.5948 82.6502 69.3846 82.5929C69.1744 82.5356 69.01 82.4631 68.8915 82.3752H68.8877Z" fill="#706F6F"/>
<path d="M74.8315 80.5042C74.9768 79.8244 75.2635 79.286 75.6954 78.8851C76.1273 78.4841 76.6242 78.2855 77.1861 78.2855C77.4117 78.2855 77.6181 78.3085 77.8015 78.3581L78.222 76.3801H79.4605L78.1838 82.3791C77.7442 82.5891 77.1747 82.6922 76.4752 82.6922C75.8177 82.6922 75.3437 82.5051 75.0494 82.1271C74.7551 81.7528 74.6825 81.2106 74.8315 80.508V80.5042ZM76.0662 80.4507C75.8598 81.4206 76.0585 81.9056 76.6663 81.9056C76.8345 81.9056 76.9644 81.8827 77.06 81.8407L77.6563 79.0378C77.5569 79.0073 77.4461 78.992 77.3237 78.992C76.693 78.992 76.2726 79.4808 76.0662 80.4545V80.4507Z" fill="#706F6F"/>
<path d="M79.3304 80.4621C79.4756 79.7824 79.7585 79.2478 80.1828 78.8469C80.6071 78.4459 81.1193 78.2512 81.7232 78.2512C82.3272 78.2512 82.7629 78.4497 82.9885 78.8507C83.1949 79.2173 83.2331 79.7175 83.0955 80.3628C83.084 80.4201 83.0687 80.4774 83.0534 80.5385L80.4083 80.9051C80.3854 81.2258 80.4389 81.4626 80.5689 81.6192C80.7026 81.7719 80.9205 81.8521 81.2301 81.8521C81.685 81.8521 82.0711 81.7757 82.396 81.623L82.5145 82.3905C82.0634 82.5929 81.5245 82.6922 80.9091 82.6922C80.2936 82.6922 79.8006 82.4936 79.5253 82.0927C79.2463 81.6955 79.1813 81.1533 79.3266 80.4659L79.3304 80.4621ZM80.4504 80.2979L81.9908 80.0917C82.1475 79.3509 81.9908 78.9805 81.5168 78.9805C81.2531 78.9805 81.0314 79.0912 80.8403 79.3165C80.6721 79.5151 80.5536 79.7939 80.4771 80.1528C80.4657 80.1986 80.458 80.2483 80.4504 80.2979Z" fill="#706F6F"/>
<path d="M85.4731 82.6082L86.7995 76.3762H88.038L86.7116 82.6082H85.4731Z" fill="#706F6F"/>
<path d="M87.7093 81.3213C87.7551 81.1074 87.8354 80.9203 87.9577 80.7523C88.0801 80.5843 88.2215 80.4506 88.3858 80.3399C88.5502 80.233 88.7452 80.1413 88.9745 80.065C89.2038 79.9886 89.4294 79.9313 89.6587 79.8893C89.8842 79.8473 90.1403 79.8168 90.427 79.79L90.4691 79.5915C90.5149 79.3814 90.4805 79.2325 90.3735 79.1447C90.2665 79.0569 90.0868 79.0149 89.8384 79.0149C89.4791 79.0149 89.0892 79.1027 88.6687 79.2783L88.5464 78.5719C89.1083 78.3542 89.6702 78.2473 90.2321 78.2473C90.4844 78.2473 90.7022 78.274 90.8895 78.3313C91.0768 78.3886 91.2336 78.4726 91.3635 78.591C91.4935 78.7094 91.5776 78.8698 91.6158 79.076C91.654 79.2822 91.6464 79.5227 91.5852 79.8053L91.0424 82.3561C90.6028 82.5738 90.0218 82.6807 89.2956 82.6807C88.6763 82.6807 88.2368 82.5662 87.9692 82.337C87.7016 82.1079 87.6175 81.7681 87.7131 81.3175L87.7093 81.3213ZM88.8789 81.2755C88.7796 81.7452 88.9898 81.9781 89.5058 81.9781C89.6893 81.9781 89.846 81.9514 89.9798 81.8941L90.3085 80.359C90.1021 80.3781 89.9263 80.401 89.781 80.4354C89.6358 80.4697 89.4982 80.5194 89.3682 80.5881C89.2382 80.6569 89.135 80.7485 89.0548 80.8592C88.9745 80.9738 88.9172 81.1113 88.8828 81.2755H88.8789Z" fill="#706F6F"/>
<path d="M94.4215 79.9008C94.4865 79.6029 94.5744 79.3165 94.6852 79.0416C94.7999 78.7667 94.9375 78.507 95.1057 78.2664C95.2739 78.0259 95.4612 77.8158 95.6638 77.6402C95.8664 77.4645 96.0995 77.3232 96.3633 77.2201C96.6232 77.117 96.8984 77.0674 97.1851 77.0674C97.682 77.0674 98.0528 77.1743 98.3012 77.3843L97.8731 78.1671C97.724 78.0564 97.5215 77.9991 97.2654 77.9991C97.101 77.9991 96.9481 78.0335 96.8028 78.106C96.6576 78.1786 96.5315 78.2741 96.4244 78.3924C96.3174 78.5108 96.218 78.6521 96.1263 78.8201C96.0345 78.9881 95.9619 79.1562 95.9008 79.3356C95.8396 79.5113 95.7899 79.7022 95.744 79.9008C95.6905 80.1452 95.6638 80.3781 95.6599 80.5919C95.6561 80.8058 95.6752 81.0044 95.7249 81.1838C95.7708 81.3633 95.8587 81.5046 95.981 81.6077C96.1072 81.7108 96.2639 81.7643 96.455 81.7643C96.5964 81.7643 96.7149 81.749 96.8143 81.7223C96.9099 81.6955 97.0131 81.6535 97.1201 81.5962L97.2424 82.3905C96.9175 82.5929 96.4971 82.696 95.9772 82.696C95.6905 82.696 95.4382 82.6464 95.2204 82.5471C95.0025 82.4478 94.8267 82.3103 94.6967 82.1385C94.5667 81.9666 94.4712 81.7604 94.4062 81.5237C94.3412 81.2869 94.3145 81.0349 94.3145 80.7638C94.3145 80.4927 94.3527 80.2101 94.4138 79.9122L94.4215 79.9008Z" fill="#706F6F"/>
<path d="M98.1329 80.4659C98.2247 80.0344 98.3776 79.6526 98.5878 79.3242C98.798 78.9958 99.0694 78.7323 99.3981 78.5414C99.7269 78.3504 100.094 78.2512 100.495 78.2512C100.897 78.2512 101.229 78.3466 101.478 78.5414C101.726 78.7323 101.887 78.9958 101.959 79.3242C102.032 79.6526 102.02 80.0344 101.929 80.4659C101.837 80.8974 101.684 81.2793 101.474 81.6077C101.263 81.9361 100.992 82.1996 100.663 82.3943C100.335 82.5891 99.9677 82.6846 99.5625 82.6846C98.9586 82.6846 98.5381 82.4783 98.2935 82.0698C98.0488 81.6612 97.9991 81.1266 98.1406 80.4621L98.1329 80.4659ZM99.5166 79.9008C99.4669 80.0574 99.4172 80.2406 99.3714 80.4507C99.3255 80.6607 99.2987 80.844 99.2835 81.0005C99.2682 81.1571 99.272 81.3022 99.2911 81.4359C99.3102 81.5695 99.3561 81.6726 99.4287 81.7414C99.5013 81.8139 99.6045 81.8483 99.7345 81.8483C99.8645 81.8483 99.983 81.8139 100.086 81.7452C100.189 81.6764 100.281 81.5733 100.354 81.4359C100.43 81.2984 100.491 81.1533 100.545 81.0005C100.595 80.844 100.644 80.6645 100.69 80.4545C100.736 80.2445 100.767 80.0612 100.782 79.9046C100.797 79.7481 100.797 79.5991 100.782 79.4578C100.767 79.3166 100.721 79.2096 100.648 79.1371C100.575 79.0607 100.472 79.0263 100.338 79.0263C100.205 79.0263 100.086 79.0645 99.983 79.1371C99.8759 79.2134 99.788 79.3204 99.7116 79.4578C99.6351 79.5953 99.574 79.7442 99.5204 79.9046L99.5166 79.9008Z" fill="#706F6F"/>
<path d="M102.204 82.6082L103.064 78.5681C103.591 78.3581 104.211 78.2512 104.929 78.2512C105.571 78.2512 106.015 78.3734 106.252 78.6139C106.493 78.8583 106.569 79.1867 106.477 79.6068L105.839 82.6082H104.601L105.239 79.6144C105.277 79.4426 105.258 79.2975 105.185 79.1867C105.113 79.076 104.96 79.0187 104.73 79.0187C104.566 79.0187 104.383 79.0492 104.188 79.1065L103.442 82.6082H102.204Z" fill="#706F6F"/>
<path d="M106.531 82.3752L107.016 81.5924C107.085 81.6612 107.184 81.7223 107.311 81.7681C107.437 81.8139 107.574 81.8368 107.723 81.8368C107.88 81.8368 108.021 81.791 108.136 81.7032C108.255 81.6153 108.327 81.5008 108.358 81.3633C108.388 81.2182 108.373 81.1036 108.308 81.0158C108.243 80.9242 108.121 80.8402 107.937 80.76C107.765 80.6836 107.624 80.5996 107.517 80.508C107.406 80.4163 107.33 80.317 107.284 80.2101C107.238 80.1032 107.211 80.0001 107.207 79.9008C107.204 79.8015 107.211 79.687 107.238 79.5648C107.318 79.1944 107.517 78.8812 107.834 78.6292C108.151 78.3772 108.522 78.2512 108.943 78.2512C109.428 78.2512 109.814 78.3543 110.109 78.5566L109.657 79.2593C109.505 79.1065 109.306 79.034 109.054 79.034C108.893 79.034 108.763 79.076 108.66 79.16C108.557 79.244 108.492 79.3509 108.461 79.4807C108.431 79.6144 108.453 79.729 108.526 79.8206C108.599 79.9123 108.721 79.9963 108.889 80.0726C109.241 80.2368 109.47 80.4201 109.573 80.6187C109.677 80.8173 109.696 81.0578 109.638 81.3328C109.558 81.7146 109.34 82.0354 108.989 82.2912C108.637 82.5471 108.213 82.6769 107.72 82.6769C107.467 82.6769 107.238 82.6502 107.028 82.5929C106.817 82.5356 106.653 82.4631 106.535 82.3752H106.531Z" fill="#706F6F"/>
<path d="M110.613 79.1295L110.785 78.3276H111.255L111.45 77.4149L112.758 77.098L112.498 78.3276H113.163L112.991 79.1295H112.326L111.859 81.329C111.787 81.6612 111.886 81.8292 112.15 81.8292C112.222 81.8292 112.314 81.8139 112.425 81.7834L112.261 82.5547C112.069 82.6349 111.855 82.6731 111.622 82.6731C111.198 82.6731 110.904 82.5547 110.735 82.3218C110.567 82.0889 110.521 81.791 110.598 81.4397L111.087 79.1371H110.617L110.613 79.1295Z" fill="#706F6F"/>
<path d="M112.941 82.6081L113.801 78.5681C114.283 78.3619 114.917 78.2549 115.705 78.2549C115.854 78.2549 116.007 78.2588 116.163 78.2664L115.747 79.1332C115.613 79.0721 115.468 79.0378 115.319 79.0378H115.296C115.154 79.0378 115.032 79.0645 114.929 79.1103L114.183 82.6081H112.945H112.941Z" fill="#706F6F"/>
<path d="M116.052 81.2068L116.664 78.3314H117.902L117.272 81.287C117.237 81.455 117.256 81.5886 117.329 81.6917C117.406 81.7948 117.543 81.8483 117.742 81.8483C117.956 81.8483 118.132 81.8139 118.281 81.749L119.007 78.3314H120.246L119.389 82.3523C118.896 82.5776 118.277 82.6884 117.532 82.6884C116.924 82.6884 116.496 82.57 116.255 82.3333C116.01 82.0965 115.942 81.7223 116.052 81.2106V81.2068Z" fill="#706F6F"/>
<path d="M120.544 80.4621C120.62 80.1108 120.731 79.7938 120.884 79.5075C121.037 79.2211 121.213 78.9919 121.412 78.8086C121.61 78.6292 121.824 78.4879 122.058 78.3924C122.287 78.297 122.524 78.2473 122.765 78.2473C123.216 78.2473 123.541 78.3542 123.747 78.5643L123.346 79.2554C123.231 79.1447 123.07 79.0912 122.872 79.0912C122.34 79.0912 121.981 79.5418 121.79 80.443C121.698 80.8707 121.698 81.2029 121.786 81.4397C121.874 81.6764 122.042 81.7948 122.291 81.7948C122.501 81.7948 122.688 81.7375 122.845 81.623L122.948 82.3752C122.688 82.5814 122.317 82.6845 121.836 82.6845C121.316 82.6845 120.934 82.4898 120.689 82.0965C120.448 81.7031 120.402 81.1571 120.548 80.4583L120.544 80.4621Z" fill="#706F6F"/>
<path d="M124.057 79.1295L124.229 78.3276H124.699L124.894 77.4149L126.201 77.098L125.941 78.3276H126.606L126.434 79.1295H125.769L125.303 81.329C125.23 81.6612 125.33 81.8292 125.593 81.8292C125.666 81.8292 125.758 81.8139 125.869 81.7834L125.704 82.5547C125.513 82.6349 125.299 82.6731 125.066 82.6731C124.642 82.6731 124.347 82.5547 124.179 82.3218C124.011 82.0889 123.965 81.791 124.041 81.4397L124.531 79.1371H124.061L124.057 79.1295Z" fill="#706F6F"/>
<path d="M126.407 82.6082L127.317 78.3275H128.556L127.646 82.6082H126.407ZM127.539 77.0979C127.573 76.9375 127.665 76.8001 127.822 76.6855C127.975 76.5709 128.143 76.5137 128.322 76.5137C128.502 76.5137 128.647 76.5709 128.751 76.6855C128.858 76.8001 128.892 76.9375 128.858 77.0979C128.823 77.2621 128.731 77.3996 128.579 77.5103C128.426 77.6211 128.261 77.6783 128.074 77.6783C127.887 77.6783 127.745 77.6211 127.642 77.5103C127.539 77.3996 127.505 77.2621 127.539 77.0979Z" fill="#706F6F"/>
<path d="M128.873 80.4659C128.965 80.0344 129.118 79.6526 129.328 79.3242C129.538 78.9958 129.809 78.7323 130.138 78.5414C130.467 78.3504 130.834 78.2512 131.235 78.2512C131.637 78.2512 131.969 78.3466 132.218 78.5414C132.466 78.7323 132.627 78.9958 132.699 79.3242C132.772 79.6526 132.76 80.0344 132.669 80.4659C132.577 80.8974 132.424 81.2793 132.214 81.6077C132.003 81.9361 131.732 82.1996 131.403 82.3943C131.075 82.5891 130.708 82.6846 130.302 82.6846C129.699 82.6846 129.278 82.4783 129.033 82.0698C128.789 81.6612 128.739 81.1266 128.881 80.4621L128.873 80.4659ZM130.257 79.9008C130.207 80.0574 130.157 80.2406 130.111 80.4507C130.065 80.6607 130.039 80.844 130.023 81.0005C130.008 81.1571 130.012 81.3022 130.031 81.4359C130.05 81.5695 130.096 81.6726 130.169 81.7414C130.241 81.8139 130.345 81.8483 130.474 81.8483C130.604 81.8483 130.723 81.8139 130.826 81.7452C130.929 81.6764 131.021 81.5733 131.094 81.4359C131.17 81.2984 131.231 81.1533 131.285 81.0005C131.335 80.844 131.384 80.6645 131.43 80.4545C131.476 80.2445 131.507 80.0612 131.522 79.9046C131.537 79.7481 131.537 79.5991 131.522 79.4578C131.507 79.3166 131.461 79.2096 131.388 79.1371C131.315 79.0607 131.212 79.0263 131.078 79.0263C130.945 79.0263 130.826 79.0645 130.723 79.1371C130.616 79.2134 130.528 79.3204 130.452 79.4578C130.375 79.5953 130.314 79.7442 130.26 79.9046L130.257 79.9008Z" fill="#706F6F"/>
<path d="M132.948 82.6082L133.808 78.5681C134.335 78.3581 134.954 78.2512 135.673 78.2512C136.315 78.2512 136.758 78.3734 136.995 78.6139C137.236 78.8583 137.313 79.1867 137.221 79.6068L136.583 82.6082H135.344L135.983 79.6144C136.021 79.4426 136.002 79.2975 135.929 79.1867C135.856 79.076 135.703 79.0187 135.474 79.0187C135.31 79.0187 135.126 79.0492 134.931 79.1065L134.186 82.6082H132.948Z" fill="#706F6F"/>
<path d="M0 88.0573H140" stroke="#FFED00" stroke-width="4"/>
<path d="M4.03638 97.8826L4.4836 93.6516H5.45832L6.11195 96.0229C6.13106 96.0993 6.154 96.1756 6.17693 96.252C6.19987 96.3284 6.21516 96.3895 6.2228 96.4277L6.23045 96.4926H6.24191C6.26867 96.3475 6.31072 96.1909 6.36041 96.0191L7.05227 93.6516H8.01934L8.47421 97.8826H7.52625L7.31601 95.4463C7.31219 95.3966 7.30837 95.3432 7.30455 95.2897C7.30455 95.2363 7.30072 95.1904 7.2969 95.1484C7.2969 95.1064 7.2969 95.0682 7.2969 95.0339V94.927H7.28543C7.25486 95.0912 7.20899 95.263 7.15547 95.4425C6.73118 96.9203 6.49419 97.7336 6.4445 97.8787H5.94759C5.92848 97.8253 5.85967 97.5962 5.74118 97.1914C5.62268 96.7828 5.50801 96.3895 5.40098 96.0114L5.24426 95.4425C5.22133 95.3623 5.19839 95.2783 5.17546 95.1904C5.15252 95.1064 5.13341 95.0415 5.12194 94.9957L5.11048 94.927H5.09901C5.09901 94.9804 5.09901 95.0377 5.09901 95.095C5.09901 95.2057 5.09519 95.3241 5.08372 95.4425C4.94611 96.9432 4.86966 97.7565 4.86202 97.8787H4.0402L4.03638 97.8826Z" fill="#706F6F"/>
<path d="M9.11255 95.7747C9.11255 95.5303 9.13166 95.3012 9.16988 95.0873C9.20811 94.8735 9.26927 94.6749 9.35718 94.4878C9.44128 94.3007 9.5483 94.1441 9.67444 94.0105C9.80058 93.8806 9.9573 93.7737 10.1446 93.7012C10.3319 93.6248 10.5383 93.5866 10.7715 93.5866C11.0046 93.5866 11.2111 93.6248 11.3984 93.7012C11.5857 93.7775 11.7424 93.8806 11.8685 94.0105C11.9947 94.1403 12.1017 94.3007 12.1858 94.4878C12.2699 94.6749 12.3348 94.8735 12.3731 95.0873C12.4113 95.3012 12.4304 95.5303 12.4304 95.7747C12.4304 96.0802 12.3998 96.3627 12.3348 96.6186C12.2699 96.8744 12.1743 97.1035 12.0482 97.3021C11.922 97.5007 11.7462 97.6572 11.5283 97.7718C11.3104 97.8825 11.062 97.9398 10.7753 97.9398C10.4886 97.9398 10.2363 97.8825 10.0223 97.7718C9.80441 97.661 9.6324 97.5007 9.50244 97.3021C9.37247 97.1035 9.27691 96.8744 9.21575 96.6186C9.15077 96.3627 9.12019 96.0802 9.12019 95.7747H9.11255ZM10.1293 95.7403C10.1293 95.9427 10.137 96.1222 10.1561 96.2825C10.1714 96.4429 10.2019 96.5995 10.2478 96.7484C10.2899 96.8973 10.3587 97.0157 10.4466 97.0997C10.5345 97.1837 10.6453 97.2257 10.7715 97.2257C10.8785 97.2257 10.9702 97.1952 11.0467 97.1379C11.1231 97.0806 11.1881 97.0043 11.234 96.9126C11.2799 96.821 11.3181 96.7102 11.3448 96.5727C11.3716 96.4391 11.3907 96.3055 11.3984 96.1756C11.406 96.0458 11.4136 95.9007 11.4136 95.7403C11.4136 94.7551 11.1996 94.2587 10.7753 94.2587C10.351 94.2587 10.137 94.7513 10.137 95.7403H10.1293Z" fill="#706F6F"/>
<path d="M13.2521 97.8826V93.6516H14.1313L15.4309 95.8243C15.4691 95.8892 15.5073 95.9542 15.5417 96.0191C15.5761 96.084 15.6067 96.1375 15.622 96.1756L15.6449 96.2291H15.6564C15.6411 96.0955 15.6335 95.9542 15.6335 95.8052V93.6516H16.4706V97.8826H15.7023L14.2918 95.5074C14.2536 95.4425 14.2154 95.3737 14.181 95.2974C14.1427 95.2248 14.116 95.1675 14.0969 95.1255L14.0739 95.0644H14.0586C14.0778 95.2172 14.0854 95.3699 14.0854 95.5265V97.8826H13.2483H13.2521Z" fill="#706F6F"/>
<path d="M17.22 94.3236V93.6553H19.6969V94.3236H18.963V97.8863H17.9577V94.3236H17.22Z" fill="#706F6F"/>
<path d="M20.446 97.8826V93.8348C20.7824 93.6706 21.2105 93.5905 21.738 93.5905C22.0209 93.5905 22.2693 93.6248 22.4834 93.6936C22.6975 93.7623 22.8656 93.8578 22.9918 93.9838C23.1179 94.1098 23.2097 94.2511 23.2708 94.4115C23.332 94.5718 23.3626 94.7475 23.3626 94.9422C23.3626 95.1484 23.3281 95.3356 23.2593 95.5074C23.1905 95.6792 23.0835 95.832 22.9459 95.9656C22.8045 96.0955 22.6172 96.1947 22.384 96.2558C22.2196 96.2978 22.04 96.3207 21.8451 96.3207C21.7571 96.3207 21.6654 96.3169 21.5698 96.3093L21.4361 96.2978V97.8864H20.4499L20.446 97.8826ZM21.4322 95.7174L21.566 95.725C21.5966 95.725 21.6272 95.725 21.6578 95.725C21.9177 95.725 22.105 95.664 22.2196 95.5532C22.3496 95.4234 22.4184 95.221 22.4184 94.9346C22.4184 94.6482 22.3649 94.4649 22.2617 94.3389C22.1585 94.2129 21.9788 94.1518 21.7342 94.1518C21.6081 94.1518 21.5049 94.1671 21.4361 94.2014V95.7174H21.4322Z" fill="#706F6F"/>
<path d="M24.1233 97.8826V93.6516H26.2906V94.3198H25.1286V95.3966H26.1454V96.0496H25.1286V97.2105H26.2906V97.8787H24.1233V97.8826Z" fill="#706F6F"/>
<path d="M27.1162 97.8826V93.6516H28.1215V97.2143H29.1918V97.8826H27.1162Z" fill="#706F6F"/>
<path d="M29.937 97.8826V93.6516H30.9423V97.2143H32.0126V97.8826H29.937Z" fill="#706F6F"/>
<path d="M32.762 97.8826V93.6516H33.7673V97.8826H32.762Z" fill="#706F6F"/>
<path d="M34.7227 97.8826V93.6516H36.89V94.3198H35.728V95.3966H36.7447V96.0496H35.728V97.2105H36.89V97.8787H34.7227V97.8826Z" fill="#706F6F"/>
<path d="M37.708 97.8826V93.8348C38.052 93.6706 38.4763 93.5905 38.9809 93.5905C39.5389 93.5905 39.9594 93.7088 40.2423 93.9418C40.5251 94.1747 40.6627 94.4993 40.6627 94.9117C40.6627 95.1828 40.5672 95.4196 40.3837 95.6219C40.2002 95.8243 39.9632 95.9427 39.6804 95.9885V96L40.8042 97.8826H39.711L38.7057 96.0114H38.6942V97.8826H37.708ZM38.6942 95.7594C38.7477 95.7785 38.8203 95.7861 38.9121 95.7861C39.1682 95.7861 39.3593 95.7136 39.4893 95.5685C39.6192 95.4234 39.6842 95.221 39.6842 94.9613C39.6842 94.6826 39.6307 94.4764 39.5275 94.3504C39.4243 94.2205 39.2446 94.1594 38.9847 94.1594C38.8815 94.1594 38.7859 94.1785 38.698 94.2129V95.7632L38.6942 95.7594Z" fill="#706F6F"/>
<path d="M43.3653 97.7718C43.2621 97.6648 43.2124 97.535 43.2124 97.3861C43.2124 97.2372 43.2621 97.1073 43.3653 97.0004C43.4685 96.8935 43.5908 96.84 43.7361 96.84C43.8813 96.84 44.0036 96.8935 44.1068 97.0004C44.2101 97.1073 44.2636 97.2372 44.2636 97.3861C44.2636 97.535 44.2101 97.6648 44.1068 97.7718C44.0036 97.8787 43.8775 97.9321 43.7361 97.9321C43.5946 97.9321 43.4685 97.8787 43.3653 97.7718Z" fill="#706F6F"/>
<path d="M46.9775 97.8826V93.8348C47.3139 93.6706 47.742 93.5905 48.2695 93.5905C48.5524 93.5905 48.8008 93.6248 49.0149 93.6936C49.2289 93.7623 49.3971 93.8578 49.5233 93.9838C49.6494 94.1098 49.7411 94.2511 49.8023 94.4115C49.8635 94.5718 49.894 94.7475 49.894 94.9422C49.894 95.1484 49.8596 95.3356 49.7908 95.5074C49.722 95.6792 49.615 95.832 49.4774 95.9656C49.336 96.0955 49.1487 96.1947 48.9155 96.2558C48.7511 96.2978 48.5715 96.3207 48.3765 96.3207C48.2886 96.3207 48.1969 96.3169 48.1013 96.3093L47.9675 96.2978V97.8864H46.9814L46.9775 97.8826ZM47.9637 95.7174L48.0975 95.725C48.1281 95.725 48.1587 95.725 48.1892 95.725C48.4492 95.725 48.6365 95.664 48.7511 95.5532C48.8811 95.4234 48.9499 95.221 48.9499 94.9346C48.9499 94.6482 48.8964 94.4649 48.7932 94.3389C48.69 94.2129 48.5103 94.1518 48.2657 94.1518C48.1396 94.1518 48.0363 94.1671 47.9675 94.2014V95.7174H47.9637Z" fill="#706F6F"/>
<path d="M50.6584 97.8826V93.6516H52.8258V94.3198H51.6637V95.3966H52.6805V96.0496H51.6637V97.2105H52.8258V97.8787H50.6584V97.8826Z" fill="#706F6F"/>
<path d="M53.6438 97.8826V93.8348C53.9878 93.6706 54.4121 93.5905 54.9167 93.5905C55.4747 93.5905 55.8952 93.7088 56.1781 93.9418C56.4609 94.1747 56.5985 94.4993 56.5985 94.9117C56.5985 95.1828 56.503 95.4196 56.3195 95.6219C56.136 95.8243 55.899 95.9427 55.6162 95.9885V96L56.74 97.8826H55.6467L54.6415 96.0114H54.63V97.8826H53.6438ZM54.63 95.7594C54.6835 95.7785 54.7561 95.7861 54.8479 95.7861C55.104 95.7861 55.2951 95.7136 55.425 95.5685C55.555 95.4234 55.62 95.221 55.62 94.9613C55.62 94.6826 55.5665 94.4764 55.4633 94.3504C55.3601 94.2205 55.1804 94.1594 54.9205 94.1594C54.8173 94.1594 54.7217 94.1785 54.6338 94.2129V95.7632L54.63 95.7594Z" fill="#706F6F"/>
<path d="M57.428 97.8826V93.8348C57.7644 93.6706 58.1925 93.5905 58.72 93.5905C59.0028 93.5905 59.2513 93.6248 59.4653 93.6936C59.6794 93.7623 59.8476 93.8578 59.9737 93.9838C60.0998 94.1098 60.1916 94.2511 60.2527 94.4115C60.3139 94.5718 60.3445 94.7475 60.3445 94.9422C60.3445 95.1484 60.3101 95.3356 60.2413 95.5074C60.1725 95.6792 60.0654 95.832 59.9278 95.9656C59.7864 96.0955 59.5991 96.1947 59.3659 96.2558C59.2016 96.2978 59.0219 96.3207 58.827 96.3207C58.7391 96.3207 58.6473 96.3169 58.5518 96.3093L58.418 96.2978V97.8864H57.4318L57.428 97.8826ZM58.4142 95.7174L58.5479 95.725C58.5785 95.725 58.6091 95.725 58.6397 95.725C58.8996 95.725 59.0869 95.664 59.2016 95.5532C59.3315 95.4234 59.4003 95.221 59.4003 94.9346C59.4003 94.6482 59.3468 94.4649 59.2436 94.3389C59.1404 94.2129 58.9608 94.1518 58.7161 94.1518C58.59 94.1518 58.4868 94.1671 58.418 94.2014V95.7174H58.4142Z" fill="#706F6F"/>
<path d="M61.1167 97.8826V93.6516H62.122V97.8826H61.1167Z" fill="#706F6F"/>
<path d="M62.9514 95.7479C62.9514 95.3202 63.0279 94.9422 63.1808 94.6176C63.3337 94.293 63.5592 94.041 63.8535 93.8577C64.1478 93.6783 64.4957 93.5866 64.897 93.5866C65.3557 93.5866 65.7265 93.6706 66.017 93.8386L65.7303 94.4611C65.5583 94.3618 65.3213 94.3083 65.0155 94.3083C64.3084 94.3083 63.9567 94.7971 63.9567 95.7747C63.9567 96.2596 64.0332 96.6262 64.1861 96.8782C64.339 97.1303 64.5492 97.2563 64.8168 97.2563C64.9544 97.2563 65.0576 97.2372 65.1302 97.1952V95.9923H64.6256V95.3966H66.0667V97.6954C65.9214 97.7756 65.7571 97.8405 65.5736 97.8787C65.3863 97.9169 65.1531 97.9398 64.8741 97.9398C64.2434 97.9398 63.7656 97.7489 63.4445 97.3632C63.1234 96.9775 62.9591 96.4391 62.9591 95.7479H62.9514Z" fill="#706F6F"/>
<path d="M66.9877 97.8826V93.6516H67.8669L69.1665 95.8243C69.2047 95.8892 69.2429 95.9542 69.2773 96.0191C69.3117 96.084 69.3423 96.1375 69.3576 96.1756L69.3805 96.2291H69.392C69.3767 96.0955 69.3691 95.9542 69.3691 95.8052V93.6516H70.2062V97.8826H69.4379L68.0274 95.5074C67.9892 95.4425 67.951 95.3737 67.9166 95.2974C67.8783 95.2248 67.8516 95.1675 67.8325 95.1255L67.8095 95.0644H67.7942C67.8134 95.2172 67.821 95.3699 67.821 95.5265V97.8826H66.9839H66.9877Z" fill="#706F6F"/>
<path d="M70.791 97.8826L72.1747 93.6516H73.1494L74.5217 97.8826H73.4935L73.2335 96.9814H71.9607L71.6893 97.8826H70.791ZM72.1021 96.4048H73.0921L72.7175 95.0301C72.6946 94.9422 72.6716 94.8544 72.6564 94.7704C72.6411 94.6864 72.6296 94.6215 72.6258 94.5795L72.6181 94.5184H72.6067C72.5914 94.6597 72.5532 94.8277 72.4958 95.0301L72.1021 96.4048Z" fill="#706F6F"/>
<path d="M75.0915 97.8826V93.6516H75.9706L77.2702 95.8243C77.3085 95.8892 77.3467 95.9542 77.3811 96.0191C77.4155 96.084 77.4461 96.1375 77.4614 96.1756L77.4843 96.2291H77.4958C77.4805 96.0955 77.4728 95.9542 77.4728 95.8052V93.6516H78.3099V97.8826H77.5416L76.1312 95.5074C76.0929 95.4425 76.0547 95.3737 76.0203 95.2974C75.9821 95.2248 75.9553 95.1675 75.9362 95.1255L75.9133 95.0644H75.898C75.9171 95.2172 75.9248 95.3699 75.9248 95.5265V97.8826H75.0876H75.0915Z" fill="#706F6F"/>
<path d="M81.1461 97.7718C81.0429 97.6648 80.9932 97.535 80.9932 97.3861C80.9932 97.2372 81.0429 97.1073 81.1461 97.0004C81.2493 96.8935 81.3716 96.84 81.5168 96.84C81.6621 96.84 81.7844 96.8935 81.8876 97.0004C81.9908 97.1073 82.0443 97.2372 82.0443 97.3861C82.0443 97.535 81.9908 97.6648 81.8876 97.7718C81.7844 97.8787 81.6583 97.9321 81.5168 97.9321C81.3754 97.9321 81.2493 97.8787 81.1461 97.7718Z" fill="#706F6F"/>
<path d="M84.5442 94.3236V93.6553H87.0211V94.3236H86.2872V97.8863H85.2819V94.3236H84.5442Z" fill="#706F6F"/>
<path d="M87.4568 95.7747C87.4568 95.5303 87.4759 95.3012 87.5141 95.0873C87.5523 94.8735 87.6135 94.6749 87.7014 94.4878C87.7855 94.3007 87.8925 94.1441 88.0187 94.0105C88.1448 93.8806 88.3015 93.7737 88.4888 93.7012C88.6761 93.6248 88.8825 93.5866 89.1157 93.5866C89.3489 93.5866 89.5553 93.6248 89.7426 93.7012C89.9299 93.7775 90.0866 93.8806 90.2127 94.0105C90.3389 94.1403 90.4459 94.3007 90.53 94.4878C90.6141 94.6749 90.6791 94.8735 90.7173 95.0873C90.7555 95.3012 90.7746 95.5303 90.7746 95.7747C90.7746 96.0802 90.7441 96.3627 90.6791 96.6186C90.6141 96.8744 90.5185 97.1035 90.3924 97.3021C90.2663 97.5007 90.0904 97.6572 89.8726 97.7718C89.6547 97.8825 89.4062 97.9398 89.1195 97.9398C88.8329 97.9398 88.5806 97.8825 88.3665 97.7718C88.1486 97.661 87.9766 97.5007 87.8467 97.3021C87.7167 97.1035 87.6212 96.8744 87.56 96.6186C87.495 96.3627 87.4644 96.0802 87.4644 95.7747H87.4568ZM88.4736 95.7403C88.4736 95.9427 88.4812 96.1222 88.5003 96.2825C88.5156 96.4429 88.5462 96.5995 88.592 96.7484C88.6341 96.8973 88.7029 97.0157 88.7908 97.0997C88.8787 97.1837 88.9896 97.2257 89.1157 97.2257C89.2227 97.2257 89.3145 97.1952 89.3909 97.1379C89.4674 97.0806 89.5324 97.0043 89.5782 96.9126C89.6241 96.821 89.6623 96.7102 89.6891 96.5727C89.7158 96.4391 89.7349 96.3055 89.7426 96.1756C89.7502 96.0458 89.7579 95.9007 89.7579 95.7403C89.7579 94.7551 89.5438 94.2587 89.1195 94.2587C88.6952 94.2587 88.4812 94.7513 88.4812 95.7403H88.4736Z" fill="#706F6F"/>
<path d="M91.5928 96.6339V93.6516H92.5981V96.6568C92.5981 96.8401 92.6439 96.9814 92.7395 97.0807C92.8351 97.1799 92.9574 97.2296 93.1065 97.2296C93.2555 97.2296 93.3778 97.1799 93.4734 97.0807C93.5651 96.9814 93.6148 96.8363 93.6148 96.653V93.6516H94.536V96.6339C94.536 97.031 94.3984 97.3518 94.1232 97.5923C93.848 97.8329 93.4963 97.9513 93.0644 97.9513C92.6325 97.9513 92.2846 97.8329 92.0056 97.5923C91.7304 97.3518 91.5928 97.0348 91.5928 96.6339Z" fill="#706F6F"/>
<path d="M95.5032 97.8826V93.6516H96.5085V97.2143H97.5787V97.8826H95.5032Z" fill="#706F6F"/>
<path d="M98.0183 95.7747C98.0183 95.5303 98.0374 95.3012 98.0756 95.0873C98.1139 94.8735 98.175 94.6749 98.263 94.4878C98.347 94.3007 98.4541 94.1441 98.5802 94.0105C98.7063 93.8806 98.8631 93.7737 99.0504 93.7012C99.2377 93.6248 99.4441 93.5866 99.6772 93.5866C99.9104 93.5866 100.117 93.6248 100.304 93.7012C100.491 93.7775 100.648 93.8806 100.774 94.0105C100.9 94.1403 101.007 94.3007 101.092 94.4878C101.176 94.6749 101.241 94.8735 101.279 95.0873C101.317 95.3012 101.336 95.5303 101.336 95.7747C101.336 96.0802 101.306 96.3627 101.241 96.6186C101.176 96.8744 101.08 97.1035 100.954 97.3021C100.828 97.5007 100.652 97.6572 100.434 97.7718C100.216 97.8825 99.9677 97.9398 99.6811 97.9398C99.3944 97.9398 99.1421 97.8825 98.928 97.7718C98.7102 97.661 98.5382 97.5007 98.4082 97.3021C98.2782 97.1035 98.1827 96.8744 98.1215 96.6186C98.0565 96.3627 98.026 96.0802 98.026 95.7747H98.0183ZM99.0351 95.7403C99.0351 95.9427 99.0427 96.1222 99.0618 96.2825C99.0771 96.4429 99.1077 96.5995 99.1536 96.7484C99.1956 96.8973 99.2644 97.0157 99.3523 97.0997C99.4403 97.1837 99.5511 97.2257 99.6772 97.2257C99.7843 97.2257 99.876 97.1952 99.9525 97.1379C100.029 97.0806 100.094 97.0043 100.14 96.9126C100.186 96.821 100.224 96.7102 100.251 96.5727C100.277 96.4391 100.296 96.3055 100.304 96.1756C100.312 96.0458 100.319 95.9007 100.319 95.7403C100.319 94.7551 100.105 94.2587 99.6811 94.2587C99.2568 94.2587 99.0427 94.7513 99.0427 95.7403H99.0351Z" fill="#706F6F"/>
<path d="M102.154 96.6339V93.6516H103.159V96.6568C103.159 96.8401 103.205 96.9814 103.301 97.0807C103.396 97.1799 103.519 97.2296 103.668 97.2296C103.817 97.2296 103.939 97.1799 104.035 97.0807C104.126 96.9814 104.176 96.8363 104.176 96.653V93.6516H105.097V96.6339C105.097 97.031 104.96 97.3518 104.684 97.5923C104.409 97.8329 104.058 97.9513 103.626 97.9513C103.194 97.9513 102.846 97.8329 102.567 97.5923C102.292 97.3518 102.154 97.0348 102.154 96.6339Z" fill="#706F6F"/>
<path d="M105.843 97.7031L106.072 97.0234C106.152 97.0768 106.252 97.1265 106.374 97.1647C106.496 97.2028 106.626 97.2258 106.764 97.2258C106.936 97.2258 107.074 97.1799 107.177 97.0845C107.276 96.9928 107.33 96.8668 107.33 96.7141C107.33 96.5804 107.284 96.462 107.196 96.3666C107.108 96.2711 106.955 96.1756 106.737 96.0802C106.172 95.8282 105.889 95.4348 105.889 94.9002C105.889 94.5298 106.011 94.2205 106.259 93.9685C106.508 93.7165 106.833 93.5905 107.234 93.5905C107.635 93.5905 107.976 93.6706 108.224 93.8348L108.014 94.4458C107.823 94.3236 107.609 94.2625 107.379 94.2625C107.215 94.2625 107.089 94.3045 107.005 94.3924C106.917 94.4802 106.875 94.5986 106.875 94.7551C106.875 94.9117 106.921 95.0186 107.012 95.1103C107.104 95.2019 107.249 95.2897 107.444 95.3814C107.601 95.4539 107.739 95.5341 107.853 95.6181C107.968 95.7021 108.06 95.7823 108.125 95.8625C108.19 95.9427 108.243 96.0267 108.281 96.1222C108.32 96.2177 108.346 96.3017 108.358 96.3818C108.369 96.462 108.377 96.5499 108.377 96.6453C108.377 97.0234 108.243 97.3365 107.98 97.5809C107.716 97.8253 107.376 97.9513 106.959 97.9513C106.466 97.9513 106.095 97.8711 105.843 97.7107V97.7031Z" fill="#706F6F"/>
<path d="M109.184 97.8826V93.6516H111.351V94.3198H110.189V95.3966H111.206V96.0496H110.189V97.2105H111.351V97.8787H109.184V97.8826Z" fill="#706F6F"/>
<path d="M113.858 96.1756V95.4539H115.46V96.1756H113.858Z" fill="#706F6F"/>
<path d="M117.948 97.8826L118.395 93.6516H119.37L120.024 96.0229C120.043 96.0993 120.066 96.1756 120.089 96.252C120.112 96.3284 120.127 96.3895 120.135 96.4277L120.142 96.4926H120.154C120.181 96.3475 120.223 96.1909 120.272 96.0191L120.964 93.6516H121.931L122.386 97.8826H121.438L121.228 95.4463C121.224 95.3966 121.22 95.3432 121.216 95.2897C121.216 95.2363 121.213 95.1904 121.209 95.1484C121.209 95.1064 121.209 95.0682 121.209 95.0339V94.927H121.197C121.167 95.0912 121.121 95.263 121.067 95.4425C120.643 96.9203 120.406 97.7336 120.356 97.8787H119.859C119.84 97.8253 119.772 97.5962 119.653 97.1914C119.535 96.7828 119.42 96.3895 119.313 96.0114L119.156 95.4425C119.133 95.3623 119.11 95.2783 119.087 95.1904C119.064 95.1064 119.045 95.0415 119.034 94.9957L119.022 94.927H119.011C119.011 94.9804 119.011 95.0377 119.011 95.095C119.011 95.2057 119.007 95.3241 118.996 95.4425C118.858 96.9432 118.782 97.7565 118.774 97.8787H117.952L117.948 97.8826Z" fill="#706F6F"/>
<path d="M123.139 96.6339V93.6516H124.144V96.6568C124.144 96.8401 124.19 96.9814 124.286 97.0807C124.381 97.1799 124.504 97.2296 124.653 97.2296C124.802 97.2296 124.924 97.1799 125.02 97.0807C125.112 96.9814 125.161 96.8363 125.161 96.653V93.6516H126.082V96.6339C126.082 97.031 125.945 97.3518 125.67 97.5923C125.394 97.8329 125.043 97.9513 124.611 97.9513C124.179 97.9513 123.831 97.8329 123.552 97.5923C123.277 97.3518 123.139 97.0348 123.139 96.6339Z" fill="#706F6F"/>
<path d="M127.038 97.8826V93.8348C127.382 93.6706 127.806 93.5905 128.311 93.5905C128.869 93.5905 129.289 93.7088 129.572 93.9418C129.855 94.1747 129.993 94.4993 129.993 94.9117C129.993 95.1828 129.897 95.4196 129.714 95.6219C129.53 95.8243 129.293 95.9427 129.01 95.9885V96L130.134 97.8826H129.041L128.036 96.0114H128.024V97.8826H127.038ZM128.024 95.7594C128.078 95.7785 128.15 95.7861 128.242 95.7861C128.498 95.7861 128.689 95.7136 128.819 95.5685C128.949 95.4234 129.014 95.221 129.014 94.9613C129.014 94.6826 128.961 94.4764 128.858 94.3504C128.754 94.2205 128.575 94.1594 128.315 94.1594C128.212 94.1594 128.116 94.1785 128.028 94.2129V95.7632L128.024 95.7594Z" fill="#706F6F"/>
<path d="M130.826 97.8826V93.6516H132.993V94.3198H131.831V95.3966H132.848V96.0496H131.831V97.2105H132.993V97.8787H130.826V97.8826Z" fill="#706F6F"/>
<path d="M133.532 94.3236V93.6553H136.009V94.3236H135.275V97.8863H134.27V94.3236H133.532Z" fill="#706F6F"/>
<path d="M10.8669 104.034V99.8033H11.8722V103.366H12.9425V104.034H10.8669Z" fill="#706F6F"/>
<path d="M13.6765 104.034V99.8033H15.8438V100.472H14.6818V101.548H15.6986V102.201H14.6818V103.362H15.8438V104.03H13.6765V104.034Z" fill="#706F6F"/>
<path d="M16.3638 104.034L17.6863 100.472H16.5052V99.8033H18.9248L17.6519 103.366H18.9515V104.034H16.3676H16.3638Z" fill="#706F6F"/>
<path d="M19.7273 104.034V99.8033H20.7326V104.034H19.7273Z" fill="#706F6F"/>
<path d="M21.5623 101.896C21.5623 101.468 21.6387 101.09 21.7916 100.766C21.9445 100.441 22.17 100.189 22.4643 100.006C22.7587 99.8262 23.1065 99.7346 23.5079 99.7346C23.9666 99.7346 24.3373 99.8186 24.6278 99.9866L24.3412 100.609C24.1691 100.51 23.9322 100.456 23.6264 100.456C22.9192 100.456 22.5676 100.945 22.5676 101.923C22.5676 102.408 22.644 102.774 22.7969 103.026C22.9498 103.278 23.16 103.404 23.4276 103.404C23.5652 103.404 23.6684 103.385 23.741 103.343V102.14H23.2365V101.545H24.6775V103.843C24.5323 103.924 24.3679 103.988 24.1844 104.027C23.9971 104.065 23.764 104.088 23.4849 104.088C22.8542 104.088 22.3764 103.897 22.0553 103.511C21.7343 103.125 21.5699 102.587 21.5699 101.896H21.5623Z" fill="#706F6F"/>
<path d="M25.5985 104.034V99.8033H26.4777L27.7773 101.976C27.8156 102.041 27.8538 102.106 27.8882 102.171C27.9226 102.236 27.9532 102.289 27.9684 102.327L27.9914 102.381H28.0029C27.9876 102.247 27.9799 102.106 27.9799 101.957V99.8033H28.817V104.034H28.0487L26.6382 101.659C26.6 101.594 26.5618 101.525 26.5274 101.449C26.4892 101.377 26.4624 101.319 26.4433 101.277L26.4204 101.216H26.4051C26.4242 101.369 26.4318 101.522 26.4318 101.678V104.034H25.5947H25.5985Z" fill="#706F6F"/>
<path d="M29.4019 104.034L30.7856 99.8033H31.7603L33.1325 104.034H32.1043L31.8444 103.133H30.5715L30.3001 104.034H29.4019ZM30.7129 102.556H31.703L31.3284 101.182C31.3054 101.094 31.2825 101.006 31.2672 100.922C31.2519 100.838 31.2404 100.773 31.2366 100.731L31.229 100.67H31.2175C31.2022 100.811 31.164 100.979 31.1067 101.182L30.7129 102.556Z" fill="#706F6F"/>
<path d="M33.7023 104.034V99.8033H34.5815L35.8811 101.976C35.9193 102.041 35.9575 102.106 35.9919 102.171C36.0263 102.236 36.0569 102.289 36.0722 102.327L36.0951 102.381H36.1066C36.0913 102.247 36.0837 102.106 36.0837 101.957V99.8033H36.9208V104.034H36.1525L34.742 101.659C34.7038 101.594 34.6656 101.525 34.6312 101.449C34.5929 101.377 34.5662 101.319 34.5471 101.277L34.5241 101.216H34.5088C34.5279 101.369 34.5356 101.522 34.5356 101.678V104.034H33.6985H33.7023Z" fill="#706F6F"/>
<path d="M37.7729 102.324V101.602H39.3745V102.324H37.7729Z" fill="#706F6F"/>
<path d="M40.2195 101.934C40.2195 101.705 40.2424 101.483 40.2845 101.27C40.3265 101.056 40.3915 100.857 40.4832 100.67C40.575 100.483 40.682 100.323 40.812 100.185C40.9419 100.048 41.0986 99.9408 41.2821 99.8606C41.4656 99.7804 41.672 99.7422 41.8937 99.7422C42.2798 99.7422 42.5856 99.8224 42.8111 99.9866L42.6085 100.59C42.4747 100.502 42.3065 100.46 42.1078 100.46C41.9816 100.46 41.8669 100.487 41.7676 100.544C41.6682 100.601 41.5841 100.674 41.5191 100.766C41.4541 100.857 41.4006 100.968 41.3586 101.094C41.3165 101.224 41.2859 101.357 41.2668 101.491C41.2477 101.629 41.2401 101.774 41.2401 101.926C41.2401 102.117 41.2554 102.297 41.2898 102.461C41.3242 102.625 41.37 102.778 41.4388 102.919C41.5038 103.057 41.5956 103.167 41.7064 103.248C41.8211 103.328 41.951 103.37 42.1001 103.37C42.211 103.37 42.2989 103.358 42.3715 103.339C42.4441 103.32 42.5129 103.286 42.5894 103.24L42.8149 103.855C42.597 104.011 42.2874 104.092 41.8861 104.092C41.6644 104.092 41.4579 104.053 41.2745 103.977C41.091 103.901 40.9305 103.794 40.8043 103.66C40.6744 103.526 40.5673 103.366 40.4794 103.183C40.3915 102.999 40.3265 102.801 40.2845 102.595C40.2424 102.385 40.2195 102.167 40.2195 101.934Z" fill="#706F6F"/>
<path d="M43.2048 101.926C43.2048 101.682 43.2239 101.453 43.2622 101.239C43.3004 101.025 43.3616 100.827 43.4495 100.64C43.5336 100.452 43.6406 100.296 43.7667 100.162C43.8929 100.032 44.0496 99.9255 44.2369 99.8529C44.4242 99.7765 44.6306 99.7383 44.8638 99.7383C45.0969 99.7383 45.3033 99.7765 45.4906 99.8529C45.6779 99.9293 45.8347 100.032 45.9608 100.162C46.0869 100.292 46.194 100.452 46.2781 100.64C46.3622 100.827 46.4271 101.025 46.4654 101.239C46.5036 101.453 46.5227 101.682 46.5227 101.926C46.5227 102.232 46.4921 102.514 46.4271 102.77C46.3622 103.026 46.2666 103.255 46.1405 103.454C46.0143 103.652 45.8385 103.809 45.6206 103.924C45.4027 104.034 45.1543 104.092 44.8676 104.092C44.5809 104.092 44.3286 104.034 44.1146 103.924C43.8967 103.813 43.7247 103.652 43.5947 103.454C43.4648 103.255 43.3692 103.026 43.308 102.77C43.2431 102.514 43.2125 102.232 43.2125 101.926H43.2048ZM44.2216 101.892C44.2216 102.094 44.2292 102.274 44.2484 102.434C44.2636 102.595 44.2942 102.751 44.3401 102.9C44.3821 103.049 44.4509 103.167 44.5389 103.251C44.6268 103.335 44.7376 103.377 44.8638 103.377C44.9708 103.377 45.0625 103.347 45.139 103.29C45.2154 103.232 45.2804 103.156 45.3263 103.064C45.3721 102.973 45.4104 102.862 45.4371 102.724C45.4639 102.591 45.483 102.457 45.4906 102.327C45.4983 102.198 45.5059 102.052 45.5059 101.892C45.5059 100.907 45.2919 100.41 44.8676 100.41C44.4433 100.41 44.2292 100.903 44.2292 101.892H44.2216Z" fill="#706F6F"/>
<path d="M47.3481 104.034V99.9866C47.6922 99.8224 48.1164 99.7422 48.621 99.7422C49.1791 99.7422 49.5995 99.8606 49.8824 100.093C50.1653 100.326 50.3029 100.651 50.3029 101.063C50.3029 101.335 50.2073 101.571 50.0238 101.774C49.8404 101.976 49.6034 102.094 49.3205 102.14V102.152L50.4443 104.034H49.3511L48.3458 102.163H48.3343V104.034H47.3481ZM48.3343 101.911C48.3878 101.93 48.4605 101.938 48.5522 101.938C48.8083 101.938 48.9994 101.865 49.1294 101.72C49.2594 101.575 49.3243 101.373 49.3243 101.113C49.3243 100.834 49.2708 100.628 49.1676 100.502C49.0644 100.372 48.8848 100.311 48.6248 100.311C48.5216 100.311 48.4261 100.33 48.3382 100.365V101.915L48.3343 101.911Z" fill="#706F6F"/>
<path d="M51.1323 103.851V99.9865C51.4458 99.8223 51.8815 99.7383 52.4358 99.7383C52.99 99.7383 53.3799 99.8414 53.6589 100.051C53.938 100.261 54.0756 100.533 54.0756 100.865C54.0756 100.998 54.0526 101.117 54.0068 101.231C53.9609 101.342 53.8998 101.438 53.8233 101.51C53.7469 101.583 53.6666 101.644 53.5787 101.693C53.4946 101.743 53.4028 101.777 53.3149 101.8V101.812C53.4143 101.839 53.5175 101.881 53.6169 101.938C53.7163 101.995 53.8118 102.068 53.8998 102.152C53.9877 102.236 54.0603 102.343 54.1176 102.465C54.1711 102.591 54.2017 102.721 54.2017 102.862C54.2017 103.274 54.0527 103.584 53.7545 103.786C53.4564 103.988 53.0359 104.092 52.4893 104.092C51.9045 104.092 51.4534 104.011 51.1361 103.847L51.1323 103.851ZM52.0803 101.598H52.2752C52.5848 101.598 52.8027 101.548 52.9289 101.445C53.055 101.342 53.1162 101.174 53.1162 100.937C53.1162 100.724 53.0626 100.563 52.9518 100.46C52.8409 100.357 52.6728 100.303 52.4434 100.303C52.302 100.303 52.1797 100.319 52.0803 100.349V101.594V101.598ZM52.0803 103.435C52.1988 103.477 52.3249 103.5 52.4587 103.5C52.6995 103.5 52.883 103.446 53.0053 103.343C53.1314 103.236 53.1926 103.068 53.1926 102.831C53.1926 102.572 53.1238 102.381 52.9824 102.262C52.8409 102.144 52.6078 102.083 52.2714 102.083H52.0765V103.439L52.0803 103.435Z" fill="#706F6F"/>
<path d="M54.9893 104.034V99.8033H55.9946V104.034H54.9893Z" fill="#706F6F"/>
<path d="M56.9502 104.034V99.8033H59.1175V100.472H57.9555V101.548H58.9723V102.201H57.9555V103.362H59.1175V104.03H56.9502V104.034Z" fill="#706F6F"/>
<path d="M59.9355 104.034V99.9866C60.2796 99.8224 60.7039 99.7422 61.2084 99.7422C61.7665 99.7422 62.1869 99.8606 62.4698 100.093C62.7527 100.326 62.8903 100.651 62.8903 101.063C62.8903 101.335 62.7947 101.571 62.6112 101.774C62.4278 101.976 62.1908 102.094 61.9079 102.14V102.152L63.0317 104.034H61.9385L60.9332 102.163H60.9217V104.034H59.9355ZM60.9217 101.911C60.9752 101.93 61.0479 101.938 61.1396 101.938C61.3957 101.938 61.5868 101.865 61.7168 101.72C61.8468 101.575 61.9117 101.373 61.9117 101.113C61.9117 100.834 61.8582 100.628 61.755 100.502C61.6518 100.372 61.4722 100.311 61.2122 100.311C61.109 100.311 61.0135 100.33 60.9256 100.365V101.915L60.9217 101.911Z" fill="#706F6F"/>
<path d="M63.7197 104.034V99.8033H65.887V100.472H64.725V101.548H65.7418V102.201H64.725V103.362H65.887V104.03H63.7197V104.034Z" fill="#706F6F"/>
<path d="M66.491 103.851L66.7203 103.171C66.8006 103.225 66.9 103.274 67.0223 103.313C67.1446 103.351 67.2746 103.374 67.4122 103.374C67.5842 103.374 67.7218 103.328 67.825 103.232C67.9244 103.141 67.9779 103.015 67.9779 102.862C67.9779 102.728 67.932 102.61 67.8441 102.514C67.7562 102.419 67.6033 102.324 67.3854 102.228C66.8197 101.976 66.5368 101.583 66.5368 101.048C66.5368 100.678 66.6592 100.368 66.9076 100.116C67.1561 99.8644 67.481 99.7383 67.8823 99.7383C68.2837 99.7383 68.6239 99.8185 68.8723 99.9827L68.6621 100.594C68.471 100.472 68.2569 100.41 68.0276 100.41C67.8632 100.41 67.7371 100.452 67.653 100.54C67.5651 100.628 67.523 100.746 67.523 100.903C67.523 101.06 67.5689 101.167 67.6606 101.258C67.7524 101.35 67.8976 101.438 68.0926 101.529C68.2493 101.602 68.3869 101.682 68.5016 101.766C68.6162 101.85 68.708 101.93 68.773 102.01C68.8379 102.091 68.8914 102.175 68.9297 102.27C68.9679 102.366 68.9947 102.45 69.0061 102.53C69.0176 102.61 69.0252 102.698 69.0252 102.793C69.0252 103.171 68.8914 103.484 68.6277 103.729C68.364 103.973 68.0238 104.099 67.6071 104.099C67.114 104.099 66.7432 104.019 66.491 103.859V103.851Z" fill="#706F6F"/>
<path d="M71.7047 103.92C71.6014 103.813 71.5518 103.683 71.5518 103.534C71.5518 103.385 71.6014 103.255 71.7047 103.148C71.8079 103.041 71.9302 102.988 72.0754 102.988C72.2207 102.988 72.343 103.041 72.4462 103.148C72.5494 103.255 72.6029 103.385 72.6029 103.534C72.6029 103.683 72.5494 103.813 72.4462 103.92C72.343 104.027 72.2169 104.08 72.0754 104.08C71.934 104.08 71.8079 104.027 71.7047 103.92Z" fill="#706F6F"/>
<path d="M75.1562 104.034L75.6035 99.8033H76.5782L77.2318 102.175C77.2509 102.251 77.2739 102.327 77.2968 102.404C77.3197 102.48 77.335 102.541 77.3427 102.579L77.3503 102.644H77.3618C77.3885 102.499 77.4306 102.343 77.4803 102.171L78.1721 99.8033H79.1392L79.5941 104.034H78.6461L78.4359 101.598C78.4321 101.548 78.4282 101.495 78.4244 101.441C78.4244 101.388 78.4206 101.342 78.4168 101.3C78.4168 101.258 78.4168 101.22 78.4168 101.186V101.079H78.4053C78.3747 101.243 78.3289 101.415 78.2753 101.594C77.8511 103.072 77.6141 103.885 77.5644 104.03H77.0675C77.0483 103.977 76.9795 103.748 76.8611 103.343C76.7426 102.935 76.6279 102.541 76.5209 102.163L76.3641 101.594C76.3412 101.514 76.3183 101.43 76.2953 101.342C76.2724 101.258 76.2533 101.193 76.2418 101.147L76.2303 101.079H76.2189C76.2189 101.132 76.2189 101.189 76.2189 101.247C76.2189 101.357 76.2151 101.476 76.2036 101.594C76.066 103.095 75.9895 103.908 75.9819 104.03H75.1601L75.1562 104.034Z" fill="#706F6F"/>
<path d="M80.3855 104.034V99.8033H82.5528V100.472H81.3908V101.548H82.4076V102.201H81.3908V103.362H82.5528V104.03H80.3855V104.034Z" fill="#706F6F"/>
<path d="M82.8127 104.695C82.9962 104.664 83.1491 104.573 83.2676 104.428C83.3861 104.282 83.4473 104.088 83.4473 103.847V99.7994H84.4526V103.748C84.4526 104.004 84.4105 104.233 84.3302 104.439C84.25 104.645 84.1315 104.813 83.9862 104.947C83.8372 105.081 83.6651 105.184 83.4664 105.256C83.2676 105.329 83.0536 105.375 82.8166 105.386V104.695H82.8127Z" fill="#706F6F"/>
<path d="M85.0334 104.034L86.4172 99.8033H87.3919L88.7641 104.034H87.7359L87.476 103.133H86.2031L85.9317 104.034H85.0334ZM86.3445 102.556H87.3345L86.9599 101.182C86.937 101.094 86.9141 101.006 86.8988 100.922C86.8835 100.838 86.872 100.773 86.8682 100.731L86.8606 100.67H86.8491C86.8338 100.811 86.7956 100.979 86.7382 101.182L86.3445 102.556Z" fill="#706F6F"/>
<path d="M89.3376 104.034V99.8033H90.2167L91.5163 101.976C91.5546 102.041 91.5928 102.106 91.6272 102.171C91.6616 102.236 91.6922 102.289 91.7075 102.327L91.7304 102.381H91.7419C91.7266 102.247 91.7189 102.106 91.7189 101.957V99.8033H92.556V104.034H91.7877L90.3773 101.659C90.339 101.594 90.3008 101.525 90.2664 101.449C90.2282 101.377 90.2014 101.319 90.1823 101.277L90.1594 101.216H90.1441C90.1632 101.369 90.1708 101.522 90.1708 101.678V104.034H89.3337H89.3376Z" fill="#706F6F"/>
<path d="M93.5155 104.034V99.8033H94.3947L95.6943 101.976C95.7325 102.041 95.7708 102.106 95.8052 102.171C95.8396 102.236 95.8702 102.289 95.8854 102.327L95.9084 102.381H95.9198C95.9046 102.247 95.8969 102.106 95.8969 101.957V99.8033H96.734V104.034H95.9657L94.5552 101.659C94.517 101.594 94.4788 101.525 94.4444 101.449C94.4062 101.377 94.3794 101.319 94.3603 101.277L94.3374 101.216H94.3221C94.3412 101.369 94.3488 101.522 94.3488 101.678V104.034H93.5117H93.5155Z" fill="#706F6F"/>
<path d="M97.6934 104.034V99.8033H99.8607V100.472H98.6987V101.548H99.7154V102.201H98.6987V103.362H99.8607V104.03H97.6934V104.034Z" fill="#706F6F"/>
<path d="M100.465 103.851L100.694 103.171C100.774 103.225 100.874 103.274 100.996 103.313C101.118 103.351 101.248 103.374 101.386 103.374C101.558 103.374 101.695 103.328 101.799 103.232C101.898 103.141 101.952 103.015 101.952 102.862C101.952 102.728 101.906 102.61 101.818 102.514C101.73 102.419 101.577 102.324 101.359 102.228C100.793 101.976 100.51 101.583 100.51 101.048C100.51 100.678 100.633 100.368 100.881 100.116C101.13 99.8644 101.455 99.7383 101.856 99.7383C102.257 99.7383 102.598 99.8185 102.846 99.9827L102.636 100.594C102.445 100.472 102.231 100.41 102.001 100.41C101.837 100.41 101.711 100.452 101.627 100.54C101.539 100.628 101.497 100.746 101.497 100.903C101.497 101.06 101.543 101.167 101.634 101.258C101.726 101.35 101.871 101.438 102.066 101.529C102.223 101.602 102.361 101.682 102.475 101.766C102.59 101.85 102.682 101.93 102.747 102.01C102.812 102.091 102.865 102.175 102.903 102.27C102.942 102.366 102.968 102.45 102.98 102.53C102.991 102.61 102.999 102.698 102.999 102.793C102.999 103.171 102.865 103.484 102.601 103.729C102.338 103.973 101.997 104.099 101.581 104.099C101.088 104.099 100.717 104.019 100.465 103.859V103.851Z" fill="#706F6F"/>
<path d="M103.698 102.324V101.602H105.3V102.324H103.698Z" fill="#706F6F"/>
<path d="M106.16 104.034V99.8033H107.165V103.366H108.235V104.034H106.16Z" fill="#706F6F"/>
<path d="M108.973 104.034V99.8033H111.141V100.472H109.979V101.548H110.995V102.201H109.979V103.362H111.141V104.03H108.973V104.034Z" fill="#706F6F"/>
<path d="M111.745 103.851L111.974 103.171C112.054 103.225 112.154 103.274 112.276 103.313C112.398 103.351 112.528 103.374 112.666 103.374C112.838 103.374 112.975 103.328 113.079 103.232C113.178 103.141 113.232 103.015 113.232 102.862C113.232 102.728 113.186 102.61 113.098 102.514C113.01 102.419 112.857 102.324 112.639 102.228C112.073 101.976 111.79 101.583 111.79 101.048C111.79 100.678 111.913 100.368 112.161 100.116C112.41 99.8644 112.735 99.7383 113.136 99.7383C113.537 99.7383 113.878 99.8185 114.126 99.9827L113.916 100.594C113.725 100.472 113.511 100.41 113.281 100.41C113.117 100.41 112.991 100.452 112.907 100.54C112.819 100.628 112.777 100.746 112.777 100.903C112.777 101.06 112.823 101.167 112.914 101.258C113.006 101.35 113.151 101.438 113.346 101.529C113.503 101.602 113.641 101.682 113.755 101.766C113.87 101.85 113.962 101.93 114.027 102.01C114.092 102.091 114.145 102.175 114.183 102.27C114.222 102.366 114.248 102.45 114.26 102.53C114.271 102.61 114.279 102.698 114.279 102.793C114.279 103.171 114.145 103.484 113.881 103.729C113.618 103.973 113.277 104.099 112.861 104.099C112.368 104.099 111.997 104.019 111.745 103.859V103.851Z" fill="#706F6F"/>
<path d="M114.978 102.324V101.602H116.58V102.324H114.978Z" fill="#706F6F"/>
<path d="M116.863 104.034L118.247 99.8033H119.221L120.593 104.034H119.565L119.305 103.133H118.032L117.761 104.034H116.863ZM118.174 102.556H119.164L118.789 101.182C118.766 101.094 118.743 101.006 118.728 100.922C118.713 100.838 118.701 100.773 118.698 100.731L118.69 100.67H118.678C118.663 100.811 118.625 100.979 118.568 101.182L118.174 102.556Z" fill="#706F6F"/>
<path d="M121.178 104.034V99.8033H122.184V103.366H123.254V104.034H121.178Z" fill="#706F6F"/>
<path d="M123.988 104.034V99.8033H126.155V100.472H124.993V101.548H126.01V102.201H124.993V103.362H126.155V104.03H123.988V104.034Z" fill="#706F6F"/>
<path d="M126.759 103.851L126.988 103.171C127.069 103.225 127.168 103.274 127.29 103.313C127.413 103.351 127.543 103.374 127.68 103.374C127.852 103.374 127.99 103.328 128.093 103.232C128.192 103.141 128.246 103.015 128.246 102.862C128.246 102.728 128.2 102.61 128.112 102.514C128.024 102.419 127.871 102.324 127.653 102.228C127.088 101.976 126.805 101.583 126.805 101.048C126.805 100.678 126.927 100.368 127.176 100.116C127.424 99.8644 127.749 99.7383 128.15 99.7383C128.552 99.7383 128.892 99.8185 129.14 99.9827L128.93 100.594C128.739 100.472 128.525 100.41 128.296 100.41C128.131 100.41 128.005 100.452 127.921 100.54C127.833 100.628 127.791 100.746 127.791 100.903C127.791 101.06 127.837 101.167 127.929 101.258C128.02 101.35 128.166 101.438 128.361 101.529C128.517 101.602 128.655 101.682 128.77 101.766C128.884 101.85 128.976 101.93 129.041 102.01C129.106 102.091 129.16 102.175 129.198 102.27C129.236 102.366 129.263 102.45 129.274 102.53C129.286 102.61 129.293 102.698 129.293 102.793C129.293 103.171 129.16 103.484 128.896 103.729C128.632 103.973 128.292 104.099 127.875 104.099C127.382 104.099 127.011 104.019 126.759 103.859V103.851Z" fill="#706F6F"/>
<path d="M108.469 36.2618L69.1666 20.4299L29.8645 36.2618L69.1666 52.0899L108.469 36.2618Z" fill="#DADADA" stroke="#706F6F"/>
<path d="M31.0876 42.7916C31.1373 42.8527 31.187 42.9138 31.2291 42.9864C31.2673 43.0665 31.2176 43.1391 31.2061 43.2193C31.0915 43.3377 31.122 43.5706 31.2749 43.6393C31.3705 43.6852 31.4737 43.6928 31.5616 43.6508C57.4738 32.3707 71.376 24.6533 105.969 12.2734C106.084 12.2314 106.198 12.1855 106.313 12.2123C106.313 12.1359 106.401 12.1664 106.416 12.1435C106.462 12.0824 106.424 11.9946 106.47 11.9373C106.538 11.8457 106.749 11.7579 106.672 11.6433C106.485 11.6471 106.29 11.6586 106.103 11.6624C106.191 11.5249 106.389 11.5364 106.515 11.46C106.787 11.2996 107.012 11.1392 107.288 11.0094C107.379 10.9636 107.49 10.975 107.574 10.9254C107.666 10.8681 107.693 10.723 107.67 10.6085C107.662 10.5626 107.639 10.5168 107.597 10.4939C107.567 10.4748 107.528 10.4404 107.502 10.4672C107.456 10.5092 107.418 10.4672 107.353 10.471C107.108 10.4863 106.875 10.5206 106.63 10.5588C106.542 10.5741 106.458 10.5512 106.386 10.5779C106.332 10.597 106.282 10.5054 106.214 10.4824C106.141 10.4634 106.095 10.4061 106.091 10.3335C106.076 10.1731 106.21 10.028 106.114 9.88293C106.114 9.776 106.191 9.66526 106.103 9.58126C106.03 9.5087 105.965 9.43233 105.923 9.33687C105.915 9.32541 105.927 9.31014 105.923 9.3025C105.889 9.21467 105.812 9.21085 105.743 9.17267C105.743 9.16885 105.743 9.14212 105.743 9.14212C105.812 9.11157 105.885 9.05429 105.881 8.97028C105.667 8.96264 105.457 8.97028 105.243 8.95882C105.178 8.89773 105.097 8.90155 105.021 8.85954C105.021 8.85954 105.021 8.84045 105.021 8.82899C105.021 8.80608 105.032 8.76408 105.059 8.74116C105.288 8.49677 105.671 8.5235 105.923 8.29821C105.805 8.30966 105.69 8.26384 105.571 8.2753C105.613 8.16074 105.751 8.17219 105.808 8.08055C105.613 8.08818 105.422 8.09582 105.231 8.16456C105.43 8.04236 105.617 7.90107 105.816 7.77124C105.487 7.83998 105.139 7.85907 104.811 7.97744C70.2254 20.2962 56.3156 28.0747 30.4034 39.3587C30.1664 39.4618 29.9256 39.584 29.6733 39.6833C29.5434 39.7367 29.3981 39.7787 29.2949 39.8818C29.1726 39.9926 29.0121 40.0613 28.928 40.1988C29.0579 40.1988 29.207 40.1606 29.3102 40.1988C29.3599 40.2179 29.1688 40.2561 29.2414 40.2981C29.5052 40.4508 29.8339 40.3248 30.1512 40.3401C30.1894 40.3401 30.2467 40.3515 30.2123 40.3973C30.1168 40.531 29.9295 40.5425 29.8033 40.6379C29.6084 40.7868 29.3714 40.8861 29.2452 41.0847C29.2452 41.0885 29.2605 41.1114 29.272 41.1114C29.6619 41.0541 30.0441 40.9663 30.4264 40.9816C30.6672 40.8823 30.8851 40.7219 31.1412 40.6876C31.2138 40.6761 31.2482 40.7907 31.2558 40.8479C31.2635 40.9243 31.2291 40.9969 31.2444 41.0771C31.1832 41.1076 31.1106 41.1382 31.08 41.1916C31.0647 41.226 31.1068 41.268 31.1335 41.3023C31.0953 41.3176 31.122 41.3634 31.0915 41.3902C31.0188 41.4475 30.9271 41.4589 30.8507 41.5086C30.8392 41.5162 30.8354 41.5391 30.8277 41.5391C30.7169 41.562 30.6634 41.6728 30.5754 41.7339C30.5678 41.8751 30.6251 42.0355 30.7513 42.1157C30.8124 42.2265 30.6939 42.341 30.7245 42.4556C30.7436 42.5167 30.7971 42.5739 30.8507 42.6083C30.9156 42.658 30.973 42.7038 31.0303 42.7763C31.0456 42.7954 31.1182 42.7687 31.1106 42.826C31.1106 42.8183 31.1182 42.8107 31.0953 42.7878L31.0876 42.7916Z" fill="#878787"/>
<path d="M39.4895 47.2097C39.5392 47.2708 39.5927 47.3281 39.6271 47.4045C39.6653 47.4847 39.6156 47.5611 39.608 47.6374C39.4933 47.7558 39.5239 47.9887 39.6768 48.0575C39.7724 48.1033 39.8756 48.1071 39.9597 48.0727C65.8718 36.7926 79.774 29.0752 114.367 16.6915C114.478 16.6495 114.596 16.6075 114.711 16.6342C114.711 16.5579 114.795 16.5846 114.814 16.5655C114.856 16.5082 114.822 16.4128 114.864 16.3593C114.936 16.2676 115.143 16.1836 115.066 16.0653C114.879 16.0729 114.684 16.0805 114.493 16.0844C114.581 15.9431 114.78 15.9583 114.906 15.8781C115.177 15.7178 115.407 15.5574 115.682 15.4314C115.774 15.3894 115.881 15.397 115.969 15.3435C116.06 15.2863 116.087 15.1412 116.064 15.0266C116.056 14.9808 116.03 14.9311 115.991 14.912C115.957 14.8968 115.923 14.8624 115.892 14.8853C115.842 14.9235 115.812 14.8853 115.747 14.893C115.498 14.9044 115.269 14.9426 115.024 14.9808C114.94 14.9922 114.852 14.9731 114.776 14.9999C114.726 15.019 114.673 14.9273 114.608 14.9082C114.535 14.8853 114.493 14.8319 114.485 14.7555C114.474 14.5951 114.6 14.4538 114.508 14.3049C114.508 14.2018 114.581 14.0872 114.497 14.0032C114.42 13.9307 114.359 13.8543 114.317 13.755C114.313 13.7474 114.317 13.7321 114.317 13.7206C114.287 13.6366 114.206 13.6366 114.138 13.5908C114.134 13.5908 114.138 13.5641 114.138 13.5603C114.206 13.5297 114.279 13.4763 114.279 13.3922C114.065 13.3846 113.855 13.3922 113.641 13.3846C113.572 13.3197 113.495 13.3273 113.419 13.2815C113.419 13.2815 113.419 13.2624 113.419 13.251C113.419 13.228 113.427 13.186 113.453 13.1593C113.683 12.9187 114.073 12.9416 114.317 12.7202C114.195 12.7278 114.088 12.6896 113.966 12.6973C114.004 12.5827 114.145 12.5942 114.203 12.5063C114.008 12.514 113.816 12.5178 113.622 12.5865C113.824 12.4681 114.008 12.323 114.203 12.197C113.874 12.2619 113.53 12.2848 113.201 12.4032C78.6158 24.722 64.7098 32.5005 38.7976 43.7806C38.5568 43.8837 38.316 44.0059 38.0637 44.109C37.9299 44.1625 37.7885 44.2083 37.6853 44.3038C37.563 44.4145 37.4063 44.4833 37.3184 44.6207C37.4521 44.6131 37.5974 44.5826 37.7006 44.6207C37.7541 44.636 37.5592 44.678 37.6318 44.72C37.8955 44.8766 38.2281 44.7468 38.5415 44.7658C38.5759 44.7658 38.6333 44.7697 38.5989 44.8193C38.5033 44.953 38.3198 44.9644 38.1937 45.0599C37.9988 45.2088 37.7618 45.3043 37.6318 45.5067C37.6318 45.5067 37.6471 45.5334 37.6586 45.5296C38.0523 45.4761 38.4307 45.3921 38.8129 45.3997C39.0537 45.3043 39.2716 45.1439 39.5277 45.1057C39.6003 45.0942 39.6347 45.2088 39.6386 45.2661C39.65 45.3463 39.6156 45.415 39.6271 45.499C39.5659 45.5296 39.4933 45.5601 39.4666 45.6136C39.4474 45.6441 39.4933 45.6899 39.5163 45.7243C39.4818 45.7396 39.5048 45.7854 39.4742 45.8121C39.4016 45.8694 39.3098 45.8809 39.2334 45.9305C39.2219 45.9382 39.2181 45.9572 39.2105 45.9572C39.0996 45.984 39.0461 46.0947 38.962 46.152C38.9505 46.2933 39.0117 46.4575 39.1378 46.5339C39.199 46.6446 39.0843 46.7592 39.1149 46.8737C39.1302 46.9348 39.1837 46.9883 39.2372 47.0265C39.306 47.0761 39.3634 47.1219 39.4169 47.1907C39.4283 47.2097 39.5048 47.183 39.4971 47.2403C39.4971 47.2365 39.501 47.2288 39.4819 47.2021L39.4895 47.2097Z" fill="#878787"/>
<path d="M47.8796 51.6508C47.9293 51.7157 47.979 51.7768 48.0172 51.8493C48.0593 51.9333 48.0058 52.0059 47.9981 52.0861C47.8796 52.2044 47.914 52.4336 48.0631 52.5023C48.1625 52.5481 48.2657 52.5558 48.3498 52.5176C74.2658 41.2374 88.1641 33.52 122.753 21.1402C122.868 21.0981 122.983 21.0561 123.101 21.0791C123.101 21.0065 123.189 21.0332 123.204 21.0103C123.246 20.953 123.212 20.8614 123.254 20.8041C123.33 20.7125 123.533 20.6285 123.457 20.5101C123.265 20.5139 123.074 20.5215 122.887 20.5292C122.975 20.3917 123.174 20.3993 123.3 20.3268C123.571 20.1626 123.801 20.006 124.076 19.8762C124.168 19.8342 124.278 19.838 124.362 19.7884C124.454 19.7349 124.481 19.5898 124.458 19.4714C124.45 19.4256 124.424 19.3798 124.385 19.3607C124.355 19.3454 124.313 19.3072 124.29 19.3301C124.244 19.376 124.206 19.3301 124.145 19.3378C123.896 19.3492 123.667 19.3836 123.418 19.4256C123.334 19.4409 123.25 19.418 123.17 19.4447C123.12 19.46 123.07 19.3683 123.002 19.353C122.933 19.334 122.887 19.2767 122.879 19.2003C122.868 19.0399 122.998 18.8948 122.902 18.7497C122.902 18.6428 122.975 18.5321 122.891 18.448C122.814 18.3755 122.753 18.2991 122.707 18.2037C122.707 18.1922 122.715 18.1807 122.707 18.1693C122.677 18.0815 122.593 18.0815 122.532 18.0356C122.528 18.0318 122.532 18.0089 122.532 18.0051C122.6 17.9745 122.673 17.9173 122.669 17.8332C122.455 17.8256 122.245 17.8332 122.031 17.8256C121.966 17.7645 121.886 17.7683 121.809 17.7263C121.801 17.7263 121.809 17.7072 121.809 17.6958C121.813 17.6767 121.824 17.6347 121.847 17.608C122.077 17.3674 122.459 17.3903 122.711 17.165C122.589 17.1764 122.478 17.1344 122.356 17.1459C122.394 17.0275 122.532 17.039 122.593 16.9512C122.398 16.9588 122.207 16.9626 122.015 17.0313C122.218 16.9091 122.402 16.7679 122.6 16.6418C122.272 16.7106 121.928 16.7259 121.595 16.8481C87.0097 29.1668 73.1038 36.9453 47.1878 48.2293C46.947 48.3324 46.71 48.4546 46.4577 48.5577C46.3239 48.6073 46.1825 48.657 46.0754 48.7524C45.957 48.8632 45.7964 48.9357 45.7085 49.0694C45.8423 49.0617 45.9875 49.0274 46.0907 49.0694C46.1404 49.0885 45.9493 49.1267 46.0258 49.1687C46.2895 49.3214 46.6182 49.1954 46.9355 49.2145C46.9699 49.2145 47.0311 49.2221 46.9967 49.2641C46.9011 49.4016 46.7176 49.4092 46.5877 49.5047C46.3927 49.6536 46.1557 49.7529 46.0296 49.9515C46.0296 49.9553 46.0449 49.9744 46.0563 49.9744C46.4462 49.9209 46.8246 49.8331 47.2107 49.8446C47.4515 49.7491 47.6656 49.5887 47.9255 49.5543C47.9981 49.5429 48.0287 49.6536 48.0363 49.7147C48.0478 49.7911 48.0096 49.8636 48.0249 49.9477C47.9637 49.9782 47.8911 50.0088 47.8605 50.0622C47.8414 50.0928 47.8873 50.1348 47.914 50.1691C47.8758 50.1882 47.9026 50.2341 47.8682 50.2608C47.7917 50.3181 47.7038 50.3295 47.6274 50.3792C47.6197 50.3868 47.6159 50.4059 47.6044 50.4097C47.4936 50.4326 47.4401 50.5434 47.356 50.6045C47.3445 50.7457 47.4056 50.9099 47.5318 50.9863C47.5929 51.0971 47.4783 51.2116 47.505 51.3224C47.5203 51.3873 47.5777 51.4369 47.6274 51.4789C47.6962 51.5286 47.7535 51.5744 47.807 51.6469C47.8223 51.6622 47.8911 51.6393 47.8873 51.6966C47.8873 51.6889 47.8911 51.6813 47.8758 51.6546L47.8796 51.6508Z" fill="#878787"/>
<path d="M108.469 16.4204L69.1666 0.592285L29.8645 16.4204L69.1666 32.2523L108.469 16.4204Z" fill="#FFED00" stroke="#706F6F"/>
</g>
<defs>
<clipPath id="clip0_559_3089">
<rect width="140" height="105" fill="white" transform="translate(0 0.386108)"/>
</clipPath>
</defs>
</svg>
